G75*
%MOIN*%
%OFA0B0*%
%FSLAX25Y25*%
%IPPOS*%
%LPD*%
%AMOC8*
5,1,8,0,0,1.08239X$1,22.5*
%
%ADD10R,0.02300X0.04800*%
D10*
X0018300Y0017200D03*
X0020800Y0017200D03*
X0023300Y0017200D03*
X0025800Y0017200D03*
X0028300Y0017200D03*
X0030800Y0017200D03*
X0033300Y0017200D03*
X0035800Y0017200D03*
X0038300Y0017200D03*
X0040800Y0017200D03*
X0043300Y0017200D03*
X0045800Y0017200D03*
X0048300Y0017200D03*
X0050800Y0017200D03*
X0053300Y0017200D03*
X0055800Y0017200D03*
X0058300Y0017200D03*
X0060800Y0017200D03*
X0060800Y0022200D03*
X0058300Y0022200D03*
X0055800Y0022200D03*
X0053300Y0022200D03*
X0050800Y0022200D03*
X0048300Y0022200D03*
X0045800Y0022200D03*
X0043300Y0022200D03*
X0040800Y0022200D03*
X0038300Y0022200D03*
X0035800Y0022200D03*
X0033300Y0022200D03*
X0030800Y0022200D03*
X0028300Y0022200D03*
X0025800Y0022200D03*
X0023300Y0022200D03*
X0020800Y0022200D03*
X0018300Y0022200D03*
X0018300Y0029800D03*
X0020800Y0029800D03*
X0023300Y0029800D03*
X0025800Y0029800D03*
X0028300Y0029800D03*
X0030800Y0029800D03*
X0033300Y0029800D03*
X0035800Y0029800D03*
X0038300Y0029800D03*
X0040800Y0029800D03*
X0043300Y0029800D03*
X0045800Y0029800D03*
X0048300Y0029800D03*
X0050800Y0029800D03*
X0053300Y0029800D03*
X0055800Y0029800D03*
X0058300Y0029800D03*
X0060800Y0029800D03*
X0060800Y0034800D03*
X0058300Y0034800D03*
X0055800Y0034800D03*
X0053300Y0034800D03*
X0050800Y0034800D03*
X0048300Y0034800D03*
X0045800Y0034800D03*
X0043300Y0034800D03*
X0040800Y0034800D03*
X0038300Y0034800D03*
X0035800Y0034800D03*
X0033300Y0034800D03*
X0030800Y0034800D03*
X0028300Y0034800D03*
X0025800Y0034800D03*
X0023300Y0034800D03*
X0020800Y0034800D03*
X0018300Y0034800D03*
M02*
