%
M48
M72
T01C0.00400
%
T01
X20175Y12925
X18300Y14175
X16425Y17300
X22675Y14175
X24550Y14175
X26425Y12300
X23925Y11050
X29550Y14175
X16425Y22925
X14550Y22925
X18925Y26675
X20175Y25425
X21425Y26675
X22675Y25425
X23925Y26675
X25800Y26675
X27050Y25425
X28925Y25425
X30175Y26675
X32050Y26675
X33300Y25425
X34550Y26675
X35800Y25425
X37050Y26675
X38300Y25425
X40175Y25425
X41425Y26675
X42675Y25425
X43925Y26675
X45175Y25425
X46425Y26675
X47675Y25425
X48925Y26675
X50175Y25425
X51425Y26675
X52675Y25425
X53925Y26675
X55175Y25425
X57050Y25425
X58300Y26675
X60175Y25425
X65175Y17300
X63925Y16050
X62675Y14800
X60800Y12925
X59550Y14175
X57675Y12300
X55800Y14175
X53925Y14175
X52050Y12300
X63300Y34800
X60175Y37925
X58925Y39175
X57050Y40425
X55800Y37925
X53925Y37925
X52050Y39800
X49550Y37925
X61425Y39175
X31425Y37925
X30800Y39800
X26425Y39175
X23925Y37925
X22050Y37925
X19550Y37925
X17050Y37925
X15175Y37300
X13300Y34800
X20800Y40425
M30
