G75*
%MOIN*%
%OFA0B0*%
%FSLAX25Y25*%
%IPPOS*%
%LPD*%
%AMOC8*
5,1,8,0,0,1.08239X$1,22.5*
%
%ADD10R,0.00787X0.02756*%
%ADD11C,0.01600*%
%ADD12C,0.01400*%
%ADD13C,0.00300*%
D10*
X0013257Y0020025D03*
X0014831Y0020025D03*
X0016406Y0020025D03*
X0017981Y0020025D03*
X0019556Y0020025D03*
X0021131Y0020025D03*
X0022706Y0020025D03*
X0024280Y0020025D03*
X0025855Y0020025D03*
X0027430Y0020025D03*
X0029005Y0020025D03*
X0030580Y0020025D03*
X0032154Y0020025D03*
X0033729Y0020025D03*
X0035304Y0020025D03*
X0036879Y0020025D03*
X0038454Y0020025D03*
X0040028Y0020025D03*
X0041603Y0020025D03*
X0043178Y0020025D03*
X0044753Y0020025D03*
X0046328Y0020025D03*
X0047902Y0020025D03*
X0049477Y0020025D03*
X0051052Y0020025D03*
X0052627Y0020025D03*
X0054202Y0020025D03*
X0055776Y0020025D03*
X0057351Y0020025D03*
X0058926Y0020025D03*
X0060501Y0020025D03*
X0062076Y0020025D03*
X0063650Y0020025D03*
X0065225Y0020025D03*
X0066800Y0020025D03*
X0066800Y0032151D03*
X0065146Y0032151D03*
X0063572Y0032151D03*
X0061997Y0032151D03*
X0060422Y0032151D03*
X0058847Y0032151D03*
X0057272Y0032151D03*
X0055698Y0032151D03*
X0054123Y0032151D03*
X0052548Y0032151D03*
X0050973Y0032151D03*
X0049398Y0032151D03*
X0047824Y0032151D03*
X0046249Y0032151D03*
X0044674Y0032151D03*
X0043099Y0032151D03*
X0041524Y0032151D03*
X0039950Y0032151D03*
X0038375Y0032151D03*
X0036800Y0032151D03*
X0035225Y0032151D03*
X0033650Y0032151D03*
X0032076Y0032151D03*
X0030501Y0032151D03*
X0028926Y0032151D03*
X0027351Y0032151D03*
X0025776Y0032151D03*
X0024202Y0032151D03*
X0022627Y0032151D03*
X0021052Y0032151D03*
X0019477Y0032151D03*
X0017902Y0032151D03*
X0016328Y0032151D03*
X0014753Y0032151D03*
X0013178Y0032151D03*
D11*
X0005100Y0047461D02*
X0005100Y0004600D01*
X0072701Y0004600D01*
X0072701Y0047461D01*
X0005100Y0047461D01*
X0005100Y0046417D02*
X0072701Y0046417D01*
X0072701Y0044818D02*
X0005100Y0044818D01*
X0005100Y0043220D02*
X0072701Y0043220D01*
X0072701Y0041621D02*
X0058399Y0041621D01*
X0058850Y0041171D02*
X0057796Y0042225D01*
X0056304Y0042225D01*
X0055250Y0041171D01*
X0055250Y0039725D01*
X0055054Y0039725D01*
X0054862Y0039533D01*
X0054671Y0039725D01*
X0053850Y0039725D01*
X0053850Y0040546D01*
X0052796Y0041600D01*
X0051304Y0041600D01*
X0050250Y0040546D01*
X0050250Y0039725D01*
X0048804Y0039725D01*
X0047750Y0038671D01*
X0047750Y0037179D01*
X0048300Y0036629D01*
X0048300Y0034629D01*
X0032675Y0034629D01*
X0032675Y0036629D01*
X0033225Y0037179D01*
X0033225Y0038671D01*
X0032600Y0039296D01*
X0032600Y0040546D01*
X0032050Y0041096D01*
X0032050Y0042193D01*
X0031318Y0042925D01*
X0019657Y0042925D01*
X0018925Y0042193D01*
X0017050Y0040318D01*
X0017050Y0039725D01*
X0016304Y0039725D01*
X0015679Y0039100D01*
X0014429Y0039100D01*
X0013375Y0038046D01*
X0013375Y0036600D01*
X0012554Y0036600D01*
X0011500Y0035546D01*
X0011500Y0034054D01*
X0011684Y0033870D01*
X0011684Y0030317D01*
X0012329Y0029673D01*
X0020175Y0029673D01*
X0020175Y0027971D01*
X0019625Y0027421D01*
X0019625Y0027225D01*
X0019429Y0027225D01*
X0018375Y0026171D01*
X0018375Y0024679D01*
X0018925Y0024129D01*
X0018925Y0023657D01*
X0019657Y0022925D01*
X0024032Y0022925D01*
X0024454Y0022503D01*
X0018225Y0022503D01*
X0018225Y0023671D01*
X0017171Y0024725D01*
X0015679Y0024725D01*
X0015487Y0024533D01*
X0015296Y0024725D01*
X0013804Y0024725D01*
X0012750Y0023671D01*
X0012750Y0023203D01*
X0012626Y0023203D01*
X0012168Y0023080D01*
X0011758Y0022843D01*
X0011423Y0022508D01*
X0011186Y0022098D01*
X0011063Y0021640D01*
X0011063Y0020025D01*
X0013257Y0020025D01*
X0013257Y0016847D01*
X0013887Y0016847D01*
X0014345Y0016970D01*
X0014625Y0017131D01*
X0014625Y0016554D01*
X0015679Y0015500D01*
X0017171Y0015500D01*
X0018225Y0016554D01*
X0018225Y0017332D01*
X0018440Y0017547D01*
X0018925Y0017547D01*
X0018925Y0014221D01*
X0018375Y0013671D01*
X0018375Y0012179D01*
X0019429Y0011125D01*
X0020921Y0011125D01*
X0021501Y0011706D01*
X0022125Y0011082D01*
X0022125Y0010304D01*
X0023179Y0009250D01*
X0024671Y0009250D01*
X0025725Y0010304D01*
X0025725Y0010500D01*
X0027171Y0010500D01*
X0028225Y0011554D01*
X0028225Y0012954D01*
X0028804Y0012375D01*
X0030296Y0012375D01*
X0031350Y0013429D01*
X0031350Y0014207D01*
X0032675Y0015532D01*
X0032675Y0017547D01*
X0050800Y0017547D01*
X0050800Y0013596D01*
X0050250Y0013046D01*
X0050250Y0011554D01*
X0051304Y0010500D01*
X0052796Y0010500D01*
X0053850Y0011554D01*
X0053850Y0012375D01*
X0054671Y0012375D01*
X0054862Y0012567D01*
X0055054Y0012375D01*
X0055875Y0012375D01*
X0055875Y0011554D01*
X0056929Y0010500D01*
X0058421Y0010500D01*
X0059475Y0011554D01*
X0059475Y0011704D01*
X0060054Y0011125D01*
X0061546Y0011125D01*
X0062600Y0012179D01*
X0062600Y0013000D01*
X0063421Y0013000D01*
X0064475Y0014054D01*
X0064475Y0014250D01*
X0064671Y0014250D01*
X0065725Y0015304D01*
X0065725Y0015500D01*
X0065921Y0015500D01*
X0066975Y0016554D01*
X0066975Y0017547D01*
X0067649Y0017547D01*
X0068294Y0018191D01*
X0068294Y0021859D01*
X0067649Y0022503D01*
X0058300Y0022503D01*
X0058300Y0024129D01*
X0058850Y0024679D01*
X0058850Y0024875D01*
X0059046Y0024875D01*
X0060100Y0025929D01*
X0060100Y0027421D01*
X0059550Y0027971D01*
X0059550Y0028443D01*
X0058818Y0029175D01*
X0054443Y0029175D01*
X0053945Y0029673D01*
X0063309Y0029673D01*
X0063312Y0029668D01*
X0063648Y0029333D01*
X0064058Y0029096D01*
X0064516Y0028973D01*
X0065146Y0028973D01*
X0065146Y0032151D01*
X0065146Y0035329D01*
X0065100Y0035329D01*
X0065100Y0035546D01*
X0064046Y0036600D01*
X0062675Y0036600D01*
X0062675Y0037879D01*
X0063225Y0038429D01*
X0063225Y0039921D01*
X0062171Y0040975D01*
X0060679Y0040975D01*
X0060175Y0040471D01*
X0059671Y0040975D01*
X0058850Y0040975D01*
X0058850Y0041171D01*
X0055701Y0041621D02*
X0032050Y0041621D01*
X0032600Y0040023D02*
X0050250Y0040023D01*
X0047750Y0038424D02*
X0033225Y0038424D01*
X0032871Y0036826D02*
X0048104Y0036826D01*
X0048300Y0035227D02*
X0032675Y0035227D01*
X0020175Y0028833D02*
X0005100Y0028833D01*
X0005100Y0027235D02*
X0019625Y0027235D01*
X0018375Y0025636D02*
X0005100Y0025636D01*
X0005100Y0024038D02*
X0013117Y0024038D01*
X0011383Y0022439D02*
X0005100Y0022439D01*
X0005100Y0020841D02*
X0011063Y0020841D01*
X0011063Y0020025D02*
X0011063Y0018410D01*
X0011186Y0017952D01*
X0011423Y0017542D01*
X0011758Y0017207D01*
X0012168Y0016970D01*
X0012626Y0016847D01*
X0013257Y0016847D01*
X0013257Y0020025D01*
X0013257Y0020025D01*
X0011063Y0020025D01*
X0011063Y0019242D02*
X0005100Y0019242D01*
X0005100Y0017644D02*
X0011364Y0017644D01*
X0013257Y0017644D02*
X0013257Y0017644D01*
X0013257Y0019242D02*
X0013257Y0019242D01*
X0013257Y0020025D02*
X0013257Y0020025D01*
X0017858Y0024038D02*
X0018925Y0024038D01*
X0011684Y0030432D02*
X0005100Y0030432D01*
X0005100Y0032030D02*
X0011684Y0032030D01*
X0011684Y0033629D02*
X0005100Y0033629D01*
X0005100Y0035227D02*
X0011500Y0035227D01*
X0013375Y0036826D02*
X0005100Y0036826D01*
X0005100Y0038424D02*
X0013754Y0038424D01*
X0017050Y0040023D02*
X0005100Y0040023D01*
X0005100Y0041621D02*
X0018354Y0041621D01*
X0053850Y0040023D02*
X0055250Y0040023D01*
X0062675Y0036826D02*
X0072701Y0036826D01*
X0072701Y0038424D02*
X0063220Y0038424D01*
X0063123Y0040023D02*
X0072701Y0040023D01*
X0066235Y0035206D02*
X0065777Y0035329D01*
X0065147Y0035329D01*
X0065147Y0032151D01*
X0065146Y0032151D01*
X0065147Y0032151D01*
X0065147Y0028973D01*
X0065777Y0028973D01*
X0066235Y0029096D01*
X0066645Y0029333D01*
X0066981Y0029668D01*
X0066984Y0029673D01*
X0067649Y0029673D01*
X0068294Y0030317D01*
X0068294Y0033985D01*
X0067649Y0034629D01*
X0066984Y0034629D01*
X0066981Y0034634D01*
X0066645Y0034969D01*
X0066235Y0035206D01*
X0066156Y0035227D02*
X0072701Y0035227D01*
X0072701Y0033629D02*
X0068294Y0033629D01*
X0068294Y0032030D02*
X0072701Y0032030D01*
X0072701Y0030432D02*
X0068294Y0030432D01*
X0065147Y0030432D02*
X0065146Y0030432D01*
X0065146Y0032030D02*
X0065147Y0032030D01*
X0065146Y0033629D02*
X0065147Y0033629D01*
X0065146Y0035227D02*
X0065147Y0035227D01*
X0059159Y0028833D02*
X0072701Y0028833D01*
X0072701Y0027235D02*
X0060100Y0027235D01*
X0059807Y0025636D02*
X0072701Y0025636D01*
X0072701Y0024038D02*
X0058300Y0024038D01*
X0067713Y0022439D02*
X0072701Y0022439D01*
X0072701Y0020841D02*
X0068294Y0020841D01*
X0068294Y0019242D02*
X0072701Y0019242D01*
X0072701Y0017644D02*
X0067746Y0017644D01*
X0066466Y0016045D02*
X0072701Y0016045D01*
X0072701Y0014447D02*
X0064867Y0014447D01*
X0062600Y0012848D02*
X0072701Y0012848D01*
X0072701Y0011250D02*
X0061670Y0011250D01*
X0059930Y0011250D02*
X0059170Y0011250D01*
X0056180Y0011250D02*
X0053545Y0011250D01*
X0050555Y0011250D02*
X0027920Y0011250D01*
X0028225Y0012848D02*
X0028331Y0012848D01*
X0030769Y0012848D02*
X0050250Y0012848D01*
X0050800Y0014447D02*
X0031589Y0014447D01*
X0032675Y0016045D02*
X0050800Y0016045D01*
X0072701Y0009651D02*
X0025072Y0009651D01*
X0022778Y0009651D02*
X0005100Y0009651D01*
X0005100Y0008053D02*
X0072701Y0008053D01*
X0072701Y0006454D02*
X0005100Y0006454D01*
X0005100Y0004856D02*
X0072701Y0004856D01*
X0021958Y0011250D02*
X0021045Y0011250D01*
X0019305Y0011250D02*
X0005100Y0011250D01*
X0005100Y0012848D02*
X0018375Y0012848D01*
X0018925Y0014447D02*
X0005100Y0014447D01*
X0005100Y0016045D02*
X0015134Y0016045D01*
X0017716Y0016045D02*
X0018925Y0016045D01*
D12*
X0016425Y0017300D03*
X0018300Y0014175D03*
X0020175Y0012925D03*
X0022675Y0014175D03*
X0024550Y0014175D03*
X0026425Y0012300D03*
X0023925Y0011050D03*
X0029550Y0014175D03*
X0016425Y0022925D03*
X0014550Y0022925D03*
X0018925Y0026675D03*
X0020175Y0025425D03*
X0021425Y0026675D03*
X0022675Y0025425D03*
X0023925Y0026675D03*
X0025800Y0026675D03*
X0027050Y0025425D03*
X0028925Y0025425D03*
X0030175Y0026675D03*
X0032050Y0026675D03*
X0033300Y0025425D03*
X0034550Y0026675D03*
X0035800Y0025425D03*
X0037050Y0026675D03*
X0038300Y0025425D03*
X0040175Y0025425D03*
X0041425Y0026675D03*
X0042675Y0025425D03*
X0043925Y0026675D03*
X0045175Y0025425D03*
X0046425Y0026675D03*
X0047675Y0025425D03*
X0048925Y0026675D03*
X0050175Y0025425D03*
X0051425Y0026675D03*
X0052675Y0025425D03*
X0053925Y0026675D03*
X0055175Y0025425D03*
X0057050Y0025425D03*
X0058300Y0026675D03*
X0060175Y0025425D03*
X0065175Y0017300D03*
X0063925Y0016050D03*
X0062675Y0014800D03*
X0060800Y0012925D03*
X0059550Y0014175D03*
X0057675Y0012300D03*
X0055800Y0014175D03*
X0053925Y0014175D03*
X0052050Y0012300D03*
X0063300Y0034800D03*
X0060175Y0037925D03*
X0058925Y0039175D03*
X0057050Y0040425D03*
X0055800Y0037925D03*
X0053925Y0037925D03*
X0052050Y0039800D03*
X0049550Y0037925D03*
X0061425Y0039175D03*
X0031425Y0037925D03*
X0030800Y0039800D03*
X0026425Y0039175D03*
X0023925Y0037925D03*
X0022050Y0037925D03*
X0019550Y0037925D03*
X0017050Y0037925D03*
X0015175Y0037300D03*
X0013300Y0034800D03*
X0020800Y0040425D03*
D13*
X0020800Y0032300D01*
X0021052Y0032151D01*
X0022050Y0032925D02*
X0022050Y0037925D01*
X0023925Y0037925D02*
X0023925Y0032300D01*
X0024202Y0032151D01*
X0022675Y0032300D02*
X0022627Y0032151D01*
X0022675Y0032300D02*
X0022050Y0032925D01*
X0019550Y0032300D02*
X0019477Y0032151D01*
X0019550Y0032300D02*
X0019550Y0037925D01*
X0018300Y0039800D02*
X0020175Y0041675D01*
X0030800Y0041675D01*
X0030800Y0039800D01*
X0031425Y0037925D02*
X0031425Y0032925D01*
X0032050Y0032300D01*
X0032076Y0032151D01*
X0033300Y0031675D02*
X0033650Y0032151D01*
X0033300Y0031675D02*
X0033300Y0029800D01*
X0030175Y0026675D01*
X0029550Y0025425D02*
X0028925Y0025425D01*
X0029550Y0025425D02*
X0033300Y0021675D01*
X0033300Y0021050D01*
X0033925Y0020425D01*
X0033729Y0020025D01*
X0035175Y0020425D02*
X0035304Y0020025D01*
X0035175Y0020425D02*
X0035175Y0023550D01*
X0033300Y0025425D01*
X0032050Y0026675D02*
X0034550Y0029175D01*
X0034550Y0031050D01*
X0035175Y0031675D01*
X0035225Y0032151D01*
X0036425Y0031675D02*
X0036800Y0032151D01*
X0036425Y0031675D02*
X0036425Y0028550D01*
X0034550Y0026675D01*
X0035800Y0025425D02*
X0036425Y0024800D01*
X0036425Y0021050D01*
X0037050Y0020425D01*
X0036879Y0020025D01*
X0038300Y0020425D02*
X0038454Y0020025D01*
X0038300Y0020425D02*
X0038300Y0025425D01*
X0037050Y0026675D02*
X0037675Y0027300D01*
X0037675Y0031050D01*
X0038300Y0031675D01*
X0038375Y0032151D01*
X0039950Y0032151D02*
X0040175Y0031675D01*
X0040175Y0027925D01*
X0041425Y0026675D01*
X0040175Y0025425D02*
X0040175Y0020425D01*
X0040028Y0020025D01*
X0041425Y0020425D02*
X0041603Y0020025D01*
X0041425Y0020425D02*
X0042050Y0021050D01*
X0042050Y0024800D01*
X0042675Y0025425D01*
X0043925Y0026675D02*
X0042050Y0028550D01*
X0042050Y0031050D01*
X0041425Y0031675D01*
X0041524Y0032151D01*
X0043099Y0032151D02*
X0043300Y0031675D01*
X0043300Y0029800D01*
X0046425Y0026675D01*
X0045175Y0025425D02*
X0043300Y0023550D01*
X0043300Y0020425D01*
X0043178Y0020025D01*
X0044550Y0020425D02*
X0044753Y0020025D01*
X0044550Y0020425D02*
X0045175Y0021050D01*
X0045175Y0022925D01*
X0047675Y0025425D01*
X0048925Y0026675D02*
X0045175Y0030425D01*
X0045175Y0031050D01*
X0044550Y0031675D01*
X0044674Y0032151D01*
X0046249Y0032151D02*
X0046425Y0031675D01*
X0046425Y0031050D01*
X0050800Y0026675D01*
X0051425Y0026675D01*
X0052050Y0025425D02*
X0052675Y0025425D01*
X0052050Y0025425D02*
X0048300Y0021675D01*
X0048300Y0021050D01*
X0047675Y0020425D01*
X0047902Y0020025D01*
X0047050Y0021050D02*
X0047050Y0022300D01*
X0050175Y0025425D01*
X0052675Y0024175D02*
X0055175Y0024175D01*
X0055175Y0025425D01*
X0053925Y0026675D02*
X0052675Y0027925D01*
X0050800Y0027925D01*
X0048300Y0030425D01*
X0048300Y0031050D01*
X0047675Y0031675D01*
X0047824Y0032151D01*
X0049398Y0032151D02*
X0049550Y0032300D01*
X0049550Y0037925D01*
X0052050Y0039800D02*
X0052050Y0032925D01*
X0052675Y0032300D01*
X0052548Y0032151D01*
X0053925Y0032300D02*
X0054123Y0032151D01*
X0053925Y0032300D02*
X0053925Y0037925D01*
X0055800Y0037925D02*
X0055800Y0032300D01*
X0055698Y0032151D01*
X0057050Y0032300D02*
X0057272Y0032151D01*
X0057050Y0032300D02*
X0057050Y0040425D01*
X0058925Y0039175D02*
X0058925Y0032300D01*
X0058847Y0032151D01*
X0060175Y0032300D02*
X0060422Y0032151D01*
X0060175Y0032300D02*
X0060175Y0037925D01*
X0061425Y0039175D02*
X0061425Y0032925D01*
X0062050Y0032300D01*
X0061997Y0032151D01*
X0063300Y0032300D02*
X0063572Y0032151D01*
X0063300Y0032300D02*
X0063300Y0034800D01*
X0058300Y0027925D02*
X0053925Y0027925D01*
X0051425Y0030425D01*
X0051425Y0031050D01*
X0050800Y0031675D01*
X0050973Y0032151D01*
X0058300Y0027925D02*
X0058300Y0026675D01*
X0057050Y0025425D02*
X0057050Y0022300D01*
X0052050Y0022300D01*
X0051425Y0021675D01*
X0051425Y0020425D01*
X0051052Y0020025D01*
X0052050Y0019175D02*
X0052050Y0012300D01*
X0053925Y0014175D02*
X0053925Y0019800D01*
X0054202Y0020025D01*
X0052675Y0019800D02*
X0052050Y0019175D01*
X0052675Y0019800D02*
X0052627Y0020025D01*
X0050175Y0021050D02*
X0050175Y0021675D01*
X0052675Y0024175D01*
X0050175Y0021050D02*
X0049550Y0020425D01*
X0049477Y0020025D01*
X0047050Y0021050D02*
X0046425Y0020425D01*
X0046328Y0020025D01*
X0055776Y0020025D02*
X0055800Y0019800D01*
X0055800Y0014175D01*
X0057675Y0012300D02*
X0057675Y0019800D01*
X0057351Y0020025D01*
X0058926Y0020025D02*
X0058925Y0019800D01*
X0059550Y0019175D01*
X0059550Y0014175D01*
X0060800Y0012925D02*
X0060800Y0019800D01*
X0060501Y0020025D01*
X0062050Y0019800D02*
X0062076Y0020025D01*
X0062050Y0019800D02*
X0062675Y0019175D01*
X0062675Y0014800D01*
X0063925Y0016050D02*
X0063925Y0019800D01*
X0063650Y0020025D01*
X0065175Y0019800D02*
X0065225Y0020025D01*
X0065175Y0019800D02*
X0065175Y0017300D01*
X0032154Y0020025D02*
X0032050Y0019800D01*
X0031425Y0019175D01*
X0031425Y0016050D01*
X0029550Y0014175D01*
X0026425Y0012300D02*
X0026425Y0019175D01*
X0025800Y0019800D01*
X0025855Y0020025D01*
X0027050Y0020425D02*
X0027430Y0020025D01*
X0027050Y0020425D02*
X0027050Y0021675D01*
X0024550Y0024175D01*
X0020175Y0024175D01*
X0020175Y0025425D01*
X0021425Y0026675D02*
X0021425Y0029800D01*
X0026425Y0029800D01*
X0027050Y0030425D01*
X0027050Y0031675D01*
X0027351Y0032151D01*
X0026425Y0032925D02*
X0026425Y0039175D01*
X0018300Y0039800D02*
X0018300Y0032925D01*
X0017675Y0032300D01*
X0017902Y0032151D01*
X0017050Y0032925D02*
X0016425Y0032300D01*
X0016328Y0032151D01*
X0017050Y0032925D02*
X0017050Y0037925D01*
X0015175Y0037300D02*
X0015175Y0032925D01*
X0014550Y0032300D01*
X0014753Y0032151D01*
X0013300Y0032300D02*
X0013178Y0032151D01*
X0013300Y0032300D02*
X0013300Y0034800D01*
X0023925Y0027925D02*
X0023925Y0026675D01*
X0024550Y0025425D02*
X0022675Y0025425D01*
X0024550Y0025425D02*
X0028300Y0021675D01*
X0028300Y0021050D01*
X0028925Y0020425D01*
X0029005Y0020025D01*
X0030175Y0021050D02*
X0030175Y0022300D01*
X0027050Y0025425D01*
X0026425Y0026675D02*
X0025800Y0026675D01*
X0026425Y0026675D02*
X0030175Y0030425D01*
X0030175Y0031675D01*
X0030501Y0032151D01*
X0028926Y0032151D02*
X0028925Y0031675D01*
X0028300Y0031050D01*
X0028300Y0030425D01*
X0025800Y0027925D01*
X0023925Y0027925D01*
X0025776Y0032151D02*
X0025800Y0032300D01*
X0026425Y0032925D01*
X0016425Y0022925D02*
X0016425Y0020425D01*
X0016406Y0020025D01*
X0017675Y0019800D02*
X0017981Y0020025D01*
X0017675Y0019800D02*
X0017675Y0018550D01*
X0016425Y0017300D01*
X0019550Y0019800D02*
X0020175Y0019175D01*
X0020175Y0012925D01*
X0021425Y0013550D02*
X0023925Y0011050D01*
X0021425Y0013550D02*
X0021425Y0019800D01*
X0021131Y0020025D01*
X0022675Y0019800D02*
X0022706Y0020025D01*
X0022675Y0019800D02*
X0022675Y0014175D01*
X0024550Y0014175D02*
X0024550Y0019800D01*
X0024280Y0020025D01*
X0019556Y0020025D02*
X0019550Y0019800D01*
X0014831Y0020025D02*
X0014550Y0020425D01*
X0014550Y0022925D01*
X0030175Y0021050D02*
X0030800Y0020425D01*
X0030580Y0020025D01*
M02*
