G75*
%MOIN*%
%OFA0B0*%
%FSLAX25Y25*%
%IPPOS*%
%LPD*%
%AMOC8*
5,1,8,0,0,1.08239X$1,22.5*
%
%ADD10C,0.01350*%
D10*
X0015125Y0022675D02*
X0015125Y0025325D01*
X0015275Y0025325D01*
X0015275Y0022675D01*
X0015125Y0022675D01*
X0015125Y0024024D02*
X0015275Y0024024D01*
X0017625Y0025325D02*
X0017625Y0022675D01*
X0017625Y0025325D02*
X0017775Y0025325D01*
X0017775Y0022675D01*
X0017625Y0022675D01*
X0017625Y0024024D02*
X0017775Y0024024D01*
X0020125Y0025325D02*
X0020125Y0022675D01*
X0020125Y0025325D02*
X0020275Y0025325D01*
X0020275Y0022675D01*
X0020125Y0022675D01*
X0020125Y0024024D02*
X0020275Y0024024D01*
X0022625Y0025325D02*
X0022625Y0022675D01*
X0022625Y0025325D02*
X0022775Y0025325D01*
X0022775Y0022675D01*
X0022625Y0022675D01*
X0022625Y0024024D02*
X0022775Y0024024D01*
X0025125Y0025325D02*
X0025125Y0022675D01*
X0025125Y0025325D02*
X0025275Y0025325D01*
X0025275Y0022675D01*
X0025125Y0022675D01*
X0025125Y0024024D02*
X0025275Y0024024D01*
X0027625Y0025325D02*
X0027625Y0022675D01*
X0027625Y0025325D02*
X0027775Y0025325D01*
X0027775Y0022675D01*
X0027625Y0022675D01*
X0027625Y0024024D02*
X0027775Y0024024D01*
X0030125Y0025325D02*
X0030125Y0022675D01*
X0030125Y0025325D02*
X0030275Y0025325D01*
X0030275Y0022675D01*
X0030125Y0022675D01*
X0030125Y0024024D02*
X0030275Y0024024D01*
X0032625Y0025325D02*
X0032625Y0022675D01*
X0032625Y0025325D02*
X0032775Y0025325D01*
X0032775Y0022675D01*
X0032625Y0022675D01*
X0032625Y0024024D02*
X0032775Y0024024D01*
X0035125Y0025325D02*
X0035125Y0022675D01*
X0035125Y0025325D02*
X0035275Y0025325D01*
X0035275Y0022675D01*
X0035125Y0022675D01*
X0035125Y0024024D02*
X0035275Y0024024D01*
X0037625Y0025325D02*
X0037625Y0022675D01*
X0037625Y0025325D02*
X0037775Y0025325D01*
X0037775Y0022675D01*
X0037625Y0022675D01*
X0037625Y0024024D02*
X0037775Y0024024D01*
X0035125Y0027675D02*
X0035125Y0030325D01*
X0035275Y0030325D01*
X0035275Y0027675D01*
X0035125Y0027675D01*
X0035125Y0029024D02*
X0035275Y0029024D01*
X0032625Y0030325D02*
X0032625Y0027675D01*
X0032625Y0030325D02*
X0032775Y0030325D01*
X0032775Y0027675D01*
X0032625Y0027675D01*
X0032625Y0029024D02*
X0032775Y0029024D01*
X0030125Y0030325D02*
X0030125Y0027675D01*
X0030125Y0030325D02*
X0030275Y0030325D01*
X0030275Y0027675D01*
X0030125Y0027675D01*
X0030125Y0029024D02*
X0030275Y0029024D01*
X0027625Y0030325D02*
X0027625Y0027675D01*
X0027625Y0030325D02*
X0027775Y0030325D01*
X0027775Y0027675D01*
X0027625Y0027675D01*
X0027625Y0029024D02*
X0027775Y0029024D01*
X0025125Y0030325D02*
X0025125Y0027675D01*
X0025125Y0030325D02*
X0025275Y0030325D01*
X0025275Y0027675D01*
X0025125Y0027675D01*
X0025125Y0029024D02*
X0025275Y0029024D01*
X0022625Y0030325D02*
X0022625Y0027675D01*
X0022625Y0030325D02*
X0022775Y0030325D01*
X0022775Y0027675D01*
X0022625Y0027675D01*
X0022625Y0029024D02*
X0022775Y0029024D01*
X0020125Y0030325D02*
X0020125Y0027675D01*
X0020125Y0030325D02*
X0020275Y0030325D01*
X0020275Y0027675D01*
X0020125Y0027675D01*
X0020125Y0029024D02*
X0020275Y0029024D01*
X0017625Y0030325D02*
X0017625Y0027675D01*
X0017625Y0030325D02*
X0017775Y0030325D01*
X0017775Y0027675D01*
X0017625Y0027675D01*
X0017625Y0029024D02*
X0017775Y0029024D01*
M02*
