G75*
%MOIN*%
%OFA0B0*%
%FSLAX25Y25*%
%IPPOS*%
%LPD*%
%AMOC8*
5,1,8,0,0,1.08239X$1,22.5*
%
%ADD10C,0.02070*%
%ADD11C,0.03500*%
D10*
X0015085Y0022635D02*
X0015085Y0025365D01*
X0015315Y0025365D01*
X0015315Y0022635D01*
X0015085Y0022635D01*
X0015085Y0024704D02*
X0015315Y0024704D01*
X0017585Y0025365D02*
X0017585Y0022635D01*
X0017585Y0025365D02*
X0017815Y0025365D01*
X0017815Y0022635D01*
X0017585Y0022635D01*
X0017585Y0024704D02*
X0017815Y0024704D01*
X0020085Y0025365D02*
X0020085Y0022635D01*
X0020085Y0025365D02*
X0020315Y0025365D01*
X0020315Y0022635D01*
X0020085Y0022635D01*
X0020085Y0024704D02*
X0020315Y0024704D01*
X0022585Y0025365D02*
X0022585Y0022635D01*
X0022585Y0025365D02*
X0022815Y0025365D01*
X0022815Y0022635D01*
X0022585Y0022635D01*
X0022585Y0024704D02*
X0022815Y0024704D01*
X0025085Y0025365D02*
X0025085Y0022635D01*
X0025085Y0025365D02*
X0025315Y0025365D01*
X0025315Y0022635D01*
X0025085Y0022635D01*
X0025085Y0024704D02*
X0025315Y0024704D01*
X0027585Y0025365D02*
X0027585Y0022635D01*
X0027585Y0025365D02*
X0027815Y0025365D01*
X0027815Y0022635D01*
X0027585Y0022635D01*
X0027585Y0024704D02*
X0027815Y0024704D01*
X0030085Y0025365D02*
X0030085Y0022635D01*
X0030085Y0025365D02*
X0030315Y0025365D01*
X0030315Y0022635D01*
X0030085Y0022635D01*
X0030085Y0024704D02*
X0030315Y0024704D01*
X0032585Y0025365D02*
X0032585Y0022635D01*
X0032585Y0025365D02*
X0032815Y0025365D01*
X0032815Y0022635D01*
X0032585Y0022635D01*
X0032585Y0024704D02*
X0032815Y0024704D01*
X0035085Y0025365D02*
X0035085Y0022635D01*
X0035085Y0025365D02*
X0035315Y0025365D01*
X0035315Y0022635D01*
X0035085Y0022635D01*
X0035085Y0024704D02*
X0035315Y0024704D01*
X0037585Y0025365D02*
X0037585Y0022635D01*
X0037585Y0025365D02*
X0037815Y0025365D01*
X0037815Y0022635D01*
X0037585Y0022635D01*
X0037585Y0024704D02*
X0037815Y0024704D01*
X0035085Y0027635D02*
X0035085Y0030365D01*
X0035315Y0030365D01*
X0035315Y0027635D01*
X0035085Y0027635D01*
X0035085Y0029704D02*
X0035315Y0029704D01*
X0032585Y0030365D02*
X0032585Y0027635D01*
X0032585Y0030365D02*
X0032815Y0030365D01*
X0032815Y0027635D01*
X0032585Y0027635D01*
X0032585Y0029704D02*
X0032815Y0029704D01*
X0030085Y0030365D02*
X0030085Y0027635D01*
X0030085Y0030365D02*
X0030315Y0030365D01*
X0030315Y0027635D01*
X0030085Y0027635D01*
X0030085Y0029704D02*
X0030315Y0029704D01*
X0027585Y0030365D02*
X0027585Y0027635D01*
X0027585Y0030365D02*
X0027815Y0030365D01*
X0027815Y0027635D01*
X0027585Y0027635D01*
X0027585Y0029704D02*
X0027815Y0029704D01*
X0025085Y0030365D02*
X0025085Y0027635D01*
X0025085Y0030365D02*
X0025315Y0030365D01*
X0025315Y0027635D01*
X0025085Y0027635D01*
X0025085Y0029704D02*
X0025315Y0029704D01*
X0022585Y0030365D02*
X0022585Y0027635D01*
X0022585Y0030365D02*
X0022815Y0030365D01*
X0022815Y0027635D01*
X0022585Y0027635D01*
X0022585Y0029704D02*
X0022815Y0029704D01*
X0020085Y0030365D02*
X0020085Y0027635D01*
X0020085Y0030365D02*
X0020315Y0030365D01*
X0020315Y0027635D01*
X0020085Y0027635D01*
X0020085Y0029704D02*
X0020315Y0029704D01*
X0017585Y0030365D02*
X0017585Y0027635D01*
X0017585Y0030365D02*
X0017815Y0030365D01*
X0017815Y0027635D01*
X0017585Y0027635D01*
X0017585Y0029704D02*
X0017815Y0029704D01*
D11*
X0017625Y0015000D03*
X0020750Y0015000D03*
X0025750Y0016875D03*
X0028875Y0016875D03*
X0032000Y0016875D03*
X0036375Y0016875D03*
X0036375Y0020000D03*
X0040750Y0024375D03*
X0038250Y0028750D03*
X0036375Y0032500D03*
X0032000Y0036250D03*
X0028875Y0036250D03*
X0025750Y0036250D03*
X0020750Y0037500D03*
X0017625Y0037500D03*
X0015125Y0028750D03*
X0012625Y0024375D03*
X0013250Y0020625D03*
M02*
