%
M48
M72
T01C0.00300
%
T01
X5050Y9050
X7050Y9050
X9050Y9050
X11050Y9050
X11050Y11050
X9050Y11050
X7050Y11050
X5050Y11050
X5050Y13050
X7050Y13050
X9050Y13050
X11050Y13050
X11050Y15050
X9050Y15050
X7050Y15050
X5050Y15050
X100050Y16050
X100050Y17550
X100050Y19050
X111050Y15800
X111050Y14300
X111050Y12800
X111050Y11300
X111050Y9550
X111050Y8050
X100050Y8050
X100050Y6550
X100050Y5050
M30
