G75*
%MOIN*%
%OFA0B0*%
%FSLAX25Y25*%
%IPPOS*%
%LPD*%
%AMOC8*
5,1,8,0,0,1.08239X$1,22.5*
%
%ADD10C,0.00900*%
%ADD11C,0.00275*%
D10*
X0005050Y0009050D03*
X0007050Y0009050D03*
X0009050Y0009050D03*
X0011050Y0009050D03*
X0011050Y0011050D03*
X0009050Y0011050D03*
X0007050Y0011050D03*
X0005050Y0011050D03*
X0005050Y0013050D03*
X0007050Y0013050D03*
X0009050Y0013050D03*
X0011050Y0013050D03*
X0011050Y0015050D03*
X0009050Y0015050D03*
X0007050Y0015050D03*
X0005050Y0015050D03*
X0100050Y0016050D03*
X0100050Y0017550D03*
X0100050Y0019050D03*
X0111050Y0015800D03*
X0111050Y0014300D03*
X0111050Y0012800D03*
X0111050Y0011300D03*
X0111050Y0009550D03*
X0111050Y0008050D03*
X0100050Y0008050D03*
X0100050Y0006550D03*
X0100050Y0005050D03*
D11*
X0100050Y0008050D02*
X0100038Y0008153D01*
X0100023Y0008255D01*
X0100004Y0008356D01*
X0099982Y0008457D01*
X0099955Y0008557D01*
X0099925Y0008656D01*
X0099891Y0008753D01*
X0099854Y0008849D01*
X0099813Y0008944D01*
X0099768Y0009037D01*
X0099720Y0009129D01*
X0099669Y0009218D01*
X0099614Y0009306D01*
X0099556Y0009391D01*
X0099495Y0009475D01*
X0099431Y0009555D01*
X0099364Y0009634D01*
X0099294Y0009710D01*
X0099221Y0009783D01*
X0099146Y0009853D01*
X0099068Y0009921D01*
X0098987Y0009986D01*
X0098904Y0010047D01*
X0098819Y0010106D01*
X0098732Y0010161D01*
X0098642Y0010213D01*
X0098551Y0010261D01*
X0098458Y0010306D01*
X0098364Y0010348D01*
X0098268Y0010386D01*
X0098170Y0010420D01*
X0098072Y0010451D01*
X0097972Y0010478D01*
X0097872Y0010501D01*
X0097770Y0010521D01*
X0097668Y0010536D01*
X0097566Y0010548D01*
X0097463Y0010556D01*
X0097359Y0010560D01*
X0097256Y0010561D01*
X0097153Y0010557D01*
X0097050Y0010550D01*
X0013050Y0010550D01*
X0012050Y0010050D01*
X0010050Y0010050D01*
X0009050Y0009050D01*
X0009050Y0011050D02*
X0010050Y0012050D01*
X0012050Y0012050D01*
X0013050Y0011550D01*
X0107050Y0011550D01*
X0107110Y0011548D01*
X0107171Y0011543D01*
X0107230Y0011534D01*
X0107289Y0011521D01*
X0107348Y0011505D01*
X0107405Y0011485D01*
X0107460Y0011462D01*
X0107515Y0011435D01*
X0107567Y0011406D01*
X0107618Y0011373D01*
X0107667Y0011337D01*
X0107713Y0011299D01*
X0107757Y0011257D01*
X0107799Y0011213D01*
X0107837Y0011167D01*
X0107873Y0011118D01*
X0107906Y0011067D01*
X0107935Y0011015D01*
X0107962Y0010960D01*
X0107985Y0010905D01*
X0108005Y0010848D01*
X0108021Y0010789D01*
X0108034Y0010730D01*
X0108043Y0010671D01*
X0108048Y0010610D01*
X0108050Y0010550D01*
X0108052Y0010490D01*
X0108057Y0010429D01*
X0108066Y0010370D01*
X0108079Y0010311D01*
X0108095Y0010252D01*
X0108115Y0010195D01*
X0108138Y0010140D01*
X0108165Y0010085D01*
X0108194Y0010033D01*
X0108227Y0009982D01*
X0108263Y0009933D01*
X0108301Y0009887D01*
X0108343Y0009843D01*
X0108387Y0009801D01*
X0108433Y0009763D01*
X0108482Y0009727D01*
X0108533Y0009694D01*
X0108585Y0009665D01*
X0108640Y0009638D01*
X0108695Y0009615D01*
X0108752Y0009595D01*
X0108811Y0009579D01*
X0108870Y0009566D01*
X0108929Y0009557D01*
X0108990Y0009552D01*
X0109050Y0009550D01*
X0111050Y0009550D01*
X0107050Y0012550D02*
X0013050Y0012550D01*
X0012050Y0014050D01*
X0010050Y0014050D01*
X0009050Y0013050D01*
X0013050Y0013550D02*
X0097550Y0013550D01*
X0107050Y0012550D02*
X0107107Y0012544D01*
X0107165Y0012541D01*
X0107223Y0012542D01*
X0107281Y0012547D01*
X0107338Y0012556D01*
X0107394Y0012569D01*
X0107450Y0012585D01*
X0107504Y0012605D01*
X0107557Y0012628D01*
X0107609Y0012655D01*
X0107658Y0012685D01*
X0107705Y0012718D01*
X0107751Y0012754D01*
X0107793Y0012793D01*
X0107833Y0012835D01*
X0107870Y0012879D01*
X0107905Y0012926D01*
X0107936Y0012975D01*
X0107963Y0013025D01*
X0107988Y0013078D01*
X0108009Y0013132D01*
X0108026Y0013187D01*
X0108040Y0013243D01*
X0108050Y0013300D01*
X0108052Y0013360D01*
X0108057Y0013421D01*
X0108066Y0013480D01*
X0108079Y0013539D01*
X0108095Y0013598D01*
X0108115Y0013655D01*
X0108138Y0013710D01*
X0108165Y0013765D01*
X0108194Y0013817D01*
X0108227Y0013868D01*
X0108263Y0013917D01*
X0108301Y0013963D01*
X0108343Y0014007D01*
X0108387Y0014049D01*
X0108433Y0014087D01*
X0108482Y0014123D01*
X0108533Y0014156D01*
X0108585Y0014185D01*
X0108640Y0014212D01*
X0108695Y0014235D01*
X0108752Y0014255D01*
X0108811Y0014271D01*
X0108870Y0014284D01*
X0108929Y0014293D01*
X0108990Y0014298D01*
X0109050Y0014300D01*
X0111050Y0014300D01*
X0100050Y0016050D02*
X0100048Y0015952D01*
X0100042Y0015854D01*
X0100033Y0015756D01*
X0100019Y0015659D01*
X0100002Y0015562D01*
X0099981Y0015466D01*
X0099956Y0015371D01*
X0099928Y0015277D01*
X0099895Y0015185D01*
X0099860Y0015093D01*
X0099820Y0015003D01*
X0099778Y0014915D01*
X0099731Y0014828D01*
X0099682Y0014744D01*
X0099629Y0014661D01*
X0099573Y0014581D01*
X0099513Y0014502D01*
X0099451Y0014426D01*
X0099386Y0014353D01*
X0099318Y0014282D01*
X0099247Y0014214D01*
X0099174Y0014149D01*
X0099098Y0014087D01*
X0099019Y0014027D01*
X0098939Y0013971D01*
X0098856Y0013918D01*
X0098772Y0013869D01*
X0098685Y0013822D01*
X0098597Y0013780D01*
X0098507Y0013740D01*
X0098415Y0013705D01*
X0098323Y0013672D01*
X0098229Y0013644D01*
X0098134Y0013619D01*
X0098038Y0013598D01*
X0097941Y0013581D01*
X0097844Y0013567D01*
X0097746Y0013558D01*
X0097648Y0013552D01*
X0097550Y0013550D01*
X0013050Y0013550D02*
X0012050Y0016050D01*
X0010050Y0016050D01*
X0009050Y0015050D01*
M02*
