G75*
%MOIN*%
%OFA0B0*%
%FSLAX25Y25*%
%IPPOS*%
%LPD*%
%AMOC8*
5,1,8,0,0,1.08239X$1,22.5*
%
%ADD10C,0.01700*%
%ADD11R,0.03556X0.01587*%
D10*
X0005050Y0009050D03*
X0007050Y0009050D03*
X0009050Y0009050D03*
X0011050Y0009050D03*
X0011050Y0011050D03*
X0009050Y0011050D03*
X0007050Y0011050D03*
X0005050Y0011050D03*
X0005050Y0013050D03*
X0007050Y0013050D03*
X0009050Y0013050D03*
X0011050Y0013050D03*
X0011050Y0015050D03*
X0009050Y0015050D03*
X0007050Y0015050D03*
X0005050Y0015050D03*
X0100050Y0016050D03*
X0100050Y0017550D03*
X0100050Y0019050D03*
X0111050Y0015800D03*
X0111050Y0014300D03*
X0111050Y0012800D03*
X0111050Y0011300D03*
X0111050Y0009550D03*
X0111050Y0008050D03*
X0100050Y0008050D03*
X0100050Y0006550D03*
X0100050Y0005050D03*
D11*
X0105050Y0004877D03*
X0105050Y0006452D03*
X0105050Y0008026D03*
X0105050Y0009601D03*
X0105050Y0011176D03*
X0105050Y0012751D03*
X0105050Y0014326D03*
X0105050Y0015900D03*
X0105050Y0017475D03*
X0105050Y0019050D03*
X0117176Y0019050D03*
X0117176Y0017396D03*
X0117176Y0015822D03*
X0117176Y0014247D03*
X0117176Y0012672D03*
X0117176Y0011097D03*
X0117176Y0009522D03*
X0117176Y0007948D03*
X0117176Y0006373D03*
X0117176Y0004798D03*
M02*
