G75*
%MOIN*%
%OFA0B0*%
%FSLAX25Y25*%
%IPPOS*%
%LPD*%
%AMOC8*
5,1,8,0,0,1.08239X$1,22.5*
%
%ADD10C,0.02070*%
%ADD11C,0.03500*%
D10*
X0009085Y0016635D02*
X0009085Y0019365D01*
X0009315Y0019365D01*
X0009315Y0016635D01*
X0009085Y0016635D01*
X0009085Y0018704D02*
X0009315Y0018704D01*
X0011585Y0019365D02*
X0011585Y0016635D01*
X0011585Y0019365D02*
X0011815Y0019365D01*
X0011815Y0016635D01*
X0011585Y0016635D01*
X0011585Y0018704D02*
X0011815Y0018704D01*
X0014085Y0019365D02*
X0014085Y0016635D01*
X0014085Y0019365D02*
X0014315Y0019365D01*
X0014315Y0016635D01*
X0014085Y0016635D01*
X0014085Y0018704D02*
X0014315Y0018704D01*
X0016585Y0019365D02*
X0016585Y0016635D01*
X0016585Y0019365D02*
X0016815Y0019365D01*
X0016815Y0016635D01*
X0016585Y0016635D01*
X0016585Y0018704D02*
X0016815Y0018704D01*
X0019085Y0019365D02*
X0019085Y0016635D01*
X0019085Y0019365D02*
X0019315Y0019365D01*
X0019315Y0016635D01*
X0019085Y0016635D01*
X0019085Y0018704D02*
X0019315Y0018704D01*
X0021585Y0019365D02*
X0021585Y0016635D01*
X0021585Y0019365D02*
X0021815Y0019365D01*
X0021815Y0016635D01*
X0021585Y0016635D01*
X0021585Y0018704D02*
X0021815Y0018704D01*
X0024085Y0019365D02*
X0024085Y0016635D01*
X0024085Y0019365D02*
X0024315Y0019365D01*
X0024315Y0016635D01*
X0024085Y0016635D01*
X0024085Y0018704D02*
X0024315Y0018704D01*
X0026585Y0019365D02*
X0026585Y0016635D01*
X0026585Y0019365D02*
X0026815Y0019365D01*
X0026815Y0016635D01*
X0026585Y0016635D01*
X0026585Y0018704D02*
X0026815Y0018704D01*
X0029085Y0019365D02*
X0029085Y0016635D01*
X0029085Y0019365D02*
X0029315Y0019365D01*
X0029315Y0016635D01*
X0029085Y0016635D01*
X0029085Y0018704D02*
X0029315Y0018704D01*
X0031585Y0019365D02*
X0031585Y0016635D01*
X0031585Y0019365D02*
X0031815Y0019365D01*
X0031815Y0016635D01*
X0031585Y0016635D01*
X0031585Y0018704D02*
X0031815Y0018704D01*
X0029085Y0021635D02*
X0029085Y0024365D01*
X0029315Y0024365D01*
X0029315Y0021635D01*
X0029085Y0021635D01*
X0029085Y0023704D02*
X0029315Y0023704D01*
X0026585Y0024365D02*
X0026585Y0021635D01*
X0026585Y0024365D02*
X0026815Y0024365D01*
X0026815Y0021635D01*
X0026585Y0021635D01*
X0026585Y0023704D02*
X0026815Y0023704D01*
X0024085Y0024365D02*
X0024085Y0021635D01*
X0024085Y0024365D02*
X0024315Y0024365D01*
X0024315Y0021635D01*
X0024085Y0021635D01*
X0024085Y0023704D02*
X0024315Y0023704D01*
X0021585Y0024365D02*
X0021585Y0021635D01*
X0021585Y0024365D02*
X0021815Y0024365D01*
X0021815Y0021635D01*
X0021585Y0021635D01*
X0021585Y0023704D02*
X0021815Y0023704D01*
X0019085Y0024365D02*
X0019085Y0021635D01*
X0019085Y0024365D02*
X0019315Y0024365D01*
X0019315Y0021635D01*
X0019085Y0021635D01*
X0019085Y0023704D02*
X0019315Y0023704D01*
X0016585Y0024365D02*
X0016585Y0021635D01*
X0016585Y0024365D02*
X0016815Y0024365D01*
X0016815Y0021635D01*
X0016585Y0021635D01*
X0016585Y0023704D02*
X0016815Y0023704D01*
X0014085Y0024365D02*
X0014085Y0021635D01*
X0014085Y0024365D02*
X0014315Y0024365D01*
X0014315Y0021635D01*
X0014085Y0021635D01*
X0014085Y0023704D02*
X0014315Y0023704D01*
X0011585Y0024365D02*
X0011585Y0021635D01*
X0011585Y0024365D02*
X0011815Y0024365D01*
X0011815Y0021635D01*
X0011585Y0021635D01*
X0011585Y0023704D02*
X0011815Y0023704D01*
X0049085Y0019365D02*
X0049085Y0016635D01*
X0049085Y0019365D02*
X0049315Y0019365D01*
X0049315Y0016635D01*
X0049085Y0016635D01*
X0049085Y0018704D02*
X0049315Y0018704D01*
X0051585Y0019365D02*
X0051585Y0016635D01*
X0051585Y0019365D02*
X0051815Y0019365D01*
X0051815Y0016635D01*
X0051585Y0016635D01*
X0051585Y0018704D02*
X0051815Y0018704D01*
X0054085Y0019365D02*
X0054085Y0016635D01*
X0054085Y0019365D02*
X0054315Y0019365D01*
X0054315Y0016635D01*
X0054085Y0016635D01*
X0054085Y0018704D02*
X0054315Y0018704D01*
X0056585Y0019365D02*
X0056585Y0016635D01*
X0056585Y0019365D02*
X0056815Y0019365D01*
X0056815Y0016635D01*
X0056585Y0016635D01*
X0056585Y0018704D02*
X0056815Y0018704D01*
X0059085Y0019365D02*
X0059085Y0016635D01*
X0059085Y0019365D02*
X0059315Y0019365D01*
X0059315Y0016635D01*
X0059085Y0016635D01*
X0059085Y0018704D02*
X0059315Y0018704D01*
X0061585Y0019365D02*
X0061585Y0016635D01*
X0061585Y0019365D02*
X0061815Y0019365D01*
X0061815Y0016635D01*
X0061585Y0016635D01*
X0061585Y0018704D02*
X0061815Y0018704D01*
X0064085Y0019365D02*
X0064085Y0016635D01*
X0064085Y0019365D02*
X0064315Y0019365D01*
X0064315Y0016635D01*
X0064085Y0016635D01*
X0064085Y0018704D02*
X0064315Y0018704D01*
X0066585Y0019365D02*
X0066585Y0016635D01*
X0066585Y0019365D02*
X0066815Y0019365D01*
X0066815Y0016635D01*
X0066585Y0016635D01*
X0066585Y0018704D02*
X0066815Y0018704D01*
X0069085Y0019365D02*
X0069085Y0016635D01*
X0069085Y0019365D02*
X0069315Y0019365D01*
X0069315Y0016635D01*
X0069085Y0016635D01*
X0069085Y0018704D02*
X0069315Y0018704D01*
X0071585Y0019365D02*
X0071585Y0016635D01*
X0071585Y0019365D02*
X0071815Y0019365D01*
X0071815Y0016635D01*
X0071585Y0016635D01*
X0071585Y0018704D02*
X0071815Y0018704D01*
X0069085Y0021635D02*
X0069085Y0024365D01*
X0069315Y0024365D01*
X0069315Y0021635D01*
X0069085Y0021635D01*
X0069085Y0023704D02*
X0069315Y0023704D01*
X0066585Y0024365D02*
X0066585Y0021635D01*
X0066585Y0024365D02*
X0066815Y0024365D01*
X0066815Y0021635D01*
X0066585Y0021635D01*
X0066585Y0023704D02*
X0066815Y0023704D01*
X0064085Y0024365D02*
X0064085Y0021635D01*
X0064085Y0024365D02*
X0064315Y0024365D01*
X0064315Y0021635D01*
X0064085Y0021635D01*
X0064085Y0023704D02*
X0064315Y0023704D01*
X0061585Y0024365D02*
X0061585Y0021635D01*
X0061585Y0024365D02*
X0061815Y0024365D01*
X0061815Y0021635D01*
X0061585Y0021635D01*
X0061585Y0023704D02*
X0061815Y0023704D01*
X0059085Y0024365D02*
X0059085Y0021635D01*
X0059085Y0024365D02*
X0059315Y0024365D01*
X0059315Y0021635D01*
X0059085Y0021635D01*
X0059085Y0023704D02*
X0059315Y0023704D01*
X0056585Y0024365D02*
X0056585Y0021635D01*
X0056585Y0024365D02*
X0056815Y0024365D01*
X0056815Y0021635D01*
X0056585Y0021635D01*
X0056585Y0023704D02*
X0056815Y0023704D01*
X0054085Y0024365D02*
X0054085Y0021635D01*
X0054085Y0024365D02*
X0054315Y0024365D01*
X0054315Y0021635D01*
X0054085Y0021635D01*
X0054085Y0023704D02*
X0054315Y0023704D01*
X0051585Y0024365D02*
X0051585Y0021635D01*
X0051585Y0024365D02*
X0051815Y0024365D01*
X0051815Y0021635D01*
X0051585Y0021635D01*
X0051585Y0023704D02*
X0051815Y0023704D01*
X0089085Y0019365D02*
X0089085Y0016635D01*
X0089085Y0019365D02*
X0089315Y0019365D01*
X0089315Y0016635D01*
X0089085Y0016635D01*
X0089085Y0018704D02*
X0089315Y0018704D01*
X0091585Y0019365D02*
X0091585Y0016635D01*
X0091585Y0019365D02*
X0091815Y0019365D01*
X0091815Y0016635D01*
X0091585Y0016635D01*
X0091585Y0018704D02*
X0091815Y0018704D01*
X0094085Y0019365D02*
X0094085Y0016635D01*
X0094085Y0019365D02*
X0094315Y0019365D01*
X0094315Y0016635D01*
X0094085Y0016635D01*
X0094085Y0018704D02*
X0094315Y0018704D01*
X0096585Y0019365D02*
X0096585Y0016635D01*
X0096585Y0019365D02*
X0096815Y0019365D01*
X0096815Y0016635D01*
X0096585Y0016635D01*
X0096585Y0018704D02*
X0096815Y0018704D01*
X0099085Y0019365D02*
X0099085Y0016635D01*
X0099085Y0019365D02*
X0099315Y0019365D01*
X0099315Y0016635D01*
X0099085Y0016635D01*
X0099085Y0018704D02*
X0099315Y0018704D01*
X0101585Y0019365D02*
X0101585Y0016635D01*
X0101585Y0019365D02*
X0101815Y0019365D01*
X0101815Y0016635D01*
X0101585Y0016635D01*
X0101585Y0018704D02*
X0101815Y0018704D01*
X0104085Y0019365D02*
X0104085Y0016635D01*
X0104085Y0019365D02*
X0104315Y0019365D01*
X0104315Y0016635D01*
X0104085Y0016635D01*
X0104085Y0018704D02*
X0104315Y0018704D01*
X0106585Y0019365D02*
X0106585Y0016635D01*
X0106585Y0019365D02*
X0106815Y0019365D01*
X0106815Y0016635D01*
X0106585Y0016635D01*
X0106585Y0018704D02*
X0106815Y0018704D01*
X0109085Y0019365D02*
X0109085Y0016635D01*
X0109085Y0019365D02*
X0109315Y0019365D01*
X0109315Y0016635D01*
X0109085Y0016635D01*
X0109085Y0018704D02*
X0109315Y0018704D01*
X0111585Y0019365D02*
X0111585Y0016635D01*
X0111585Y0019365D02*
X0111815Y0019365D01*
X0111815Y0016635D01*
X0111585Y0016635D01*
X0111585Y0018704D02*
X0111815Y0018704D01*
X0109085Y0021635D02*
X0109085Y0024365D01*
X0109315Y0024365D01*
X0109315Y0021635D01*
X0109085Y0021635D01*
X0109085Y0023704D02*
X0109315Y0023704D01*
X0106585Y0024365D02*
X0106585Y0021635D01*
X0106585Y0024365D02*
X0106815Y0024365D01*
X0106815Y0021635D01*
X0106585Y0021635D01*
X0106585Y0023704D02*
X0106815Y0023704D01*
X0104085Y0024365D02*
X0104085Y0021635D01*
X0104085Y0024365D02*
X0104315Y0024365D01*
X0104315Y0021635D01*
X0104085Y0021635D01*
X0104085Y0023704D02*
X0104315Y0023704D01*
X0101585Y0024365D02*
X0101585Y0021635D01*
X0101585Y0024365D02*
X0101815Y0024365D01*
X0101815Y0021635D01*
X0101585Y0021635D01*
X0101585Y0023704D02*
X0101815Y0023704D01*
X0099085Y0024365D02*
X0099085Y0021635D01*
X0099085Y0024365D02*
X0099315Y0024365D01*
X0099315Y0021635D01*
X0099085Y0021635D01*
X0099085Y0023704D02*
X0099315Y0023704D01*
X0096585Y0024365D02*
X0096585Y0021635D01*
X0096585Y0024365D02*
X0096815Y0024365D01*
X0096815Y0021635D01*
X0096585Y0021635D01*
X0096585Y0023704D02*
X0096815Y0023704D01*
X0094085Y0024365D02*
X0094085Y0021635D01*
X0094085Y0024365D02*
X0094315Y0024365D01*
X0094315Y0021635D01*
X0094085Y0021635D01*
X0094085Y0023704D02*
X0094315Y0023704D01*
X0091585Y0024365D02*
X0091585Y0021635D01*
X0091585Y0024365D02*
X0091815Y0024365D01*
X0091815Y0021635D01*
X0091585Y0021635D01*
X0091585Y0023704D02*
X0091815Y0023704D01*
X0129085Y0019365D02*
X0129085Y0016635D01*
X0129085Y0019365D02*
X0129315Y0019365D01*
X0129315Y0016635D01*
X0129085Y0016635D01*
X0129085Y0018704D02*
X0129315Y0018704D01*
X0131585Y0019365D02*
X0131585Y0016635D01*
X0131585Y0019365D02*
X0131815Y0019365D01*
X0131815Y0016635D01*
X0131585Y0016635D01*
X0131585Y0018704D02*
X0131815Y0018704D01*
X0134085Y0019365D02*
X0134085Y0016635D01*
X0134085Y0019365D02*
X0134315Y0019365D01*
X0134315Y0016635D01*
X0134085Y0016635D01*
X0134085Y0018704D02*
X0134315Y0018704D01*
X0136585Y0019365D02*
X0136585Y0016635D01*
X0136585Y0019365D02*
X0136815Y0019365D01*
X0136815Y0016635D01*
X0136585Y0016635D01*
X0136585Y0018704D02*
X0136815Y0018704D01*
X0139085Y0019365D02*
X0139085Y0016635D01*
X0139085Y0019365D02*
X0139315Y0019365D01*
X0139315Y0016635D01*
X0139085Y0016635D01*
X0139085Y0018704D02*
X0139315Y0018704D01*
X0141585Y0019365D02*
X0141585Y0016635D01*
X0141585Y0019365D02*
X0141815Y0019365D01*
X0141815Y0016635D01*
X0141585Y0016635D01*
X0141585Y0018704D02*
X0141815Y0018704D01*
X0144085Y0019365D02*
X0144085Y0016635D01*
X0144085Y0019365D02*
X0144315Y0019365D01*
X0144315Y0016635D01*
X0144085Y0016635D01*
X0144085Y0018704D02*
X0144315Y0018704D01*
X0146585Y0019365D02*
X0146585Y0016635D01*
X0146585Y0019365D02*
X0146815Y0019365D01*
X0146815Y0016635D01*
X0146585Y0016635D01*
X0146585Y0018704D02*
X0146815Y0018704D01*
X0149085Y0019365D02*
X0149085Y0016635D01*
X0149085Y0019365D02*
X0149315Y0019365D01*
X0149315Y0016635D01*
X0149085Y0016635D01*
X0149085Y0018704D02*
X0149315Y0018704D01*
X0151585Y0019365D02*
X0151585Y0016635D01*
X0151585Y0019365D02*
X0151815Y0019365D01*
X0151815Y0016635D01*
X0151585Y0016635D01*
X0151585Y0018704D02*
X0151815Y0018704D01*
X0149085Y0021635D02*
X0149085Y0024365D01*
X0149315Y0024365D01*
X0149315Y0021635D01*
X0149085Y0021635D01*
X0149085Y0023704D02*
X0149315Y0023704D01*
X0146585Y0024365D02*
X0146585Y0021635D01*
X0146585Y0024365D02*
X0146815Y0024365D01*
X0146815Y0021635D01*
X0146585Y0021635D01*
X0146585Y0023704D02*
X0146815Y0023704D01*
X0144085Y0024365D02*
X0144085Y0021635D01*
X0144085Y0024365D02*
X0144315Y0024365D01*
X0144315Y0021635D01*
X0144085Y0021635D01*
X0144085Y0023704D02*
X0144315Y0023704D01*
X0141585Y0024365D02*
X0141585Y0021635D01*
X0141585Y0024365D02*
X0141815Y0024365D01*
X0141815Y0021635D01*
X0141585Y0021635D01*
X0141585Y0023704D02*
X0141815Y0023704D01*
X0139085Y0024365D02*
X0139085Y0021635D01*
X0139085Y0024365D02*
X0139315Y0024365D01*
X0139315Y0021635D01*
X0139085Y0021635D01*
X0139085Y0023704D02*
X0139315Y0023704D01*
X0136585Y0024365D02*
X0136585Y0021635D01*
X0136585Y0024365D02*
X0136815Y0024365D01*
X0136815Y0021635D01*
X0136585Y0021635D01*
X0136585Y0023704D02*
X0136815Y0023704D01*
X0134085Y0024365D02*
X0134085Y0021635D01*
X0134085Y0024365D02*
X0134315Y0024365D01*
X0134315Y0021635D01*
X0134085Y0021635D01*
X0134085Y0023704D02*
X0134315Y0023704D01*
X0131585Y0024365D02*
X0131585Y0021635D01*
X0131585Y0024365D02*
X0131815Y0024365D01*
X0131815Y0021635D01*
X0131585Y0021635D01*
X0131585Y0023704D02*
X0131815Y0023704D01*
X0131585Y0056635D02*
X0131585Y0059365D01*
X0131815Y0059365D01*
X0131815Y0056635D01*
X0131585Y0056635D01*
X0131585Y0058704D02*
X0131815Y0058704D01*
X0129085Y0059365D02*
X0129085Y0056635D01*
X0129085Y0059365D02*
X0129315Y0059365D01*
X0129315Y0056635D01*
X0129085Y0056635D01*
X0129085Y0058704D02*
X0129315Y0058704D01*
X0134085Y0059365D02*
X0134085Y0056635D01*
X0134085Y0059365D02*
X0134315Y0059365D01*
X0134315Y0056635D01*
X0134085Y0056635D01*
X0134085Y0058704D02*
X0134315Y0058704D01*
X0136585Y0059365D02*
X0136585Y0056635D01*
X0136585Y0059365D02*
X0136815Y0059365D01*
X0136815Y0056635D01*
X0136585Y0056635D01*
X0136585Y0058704D02*
X0136815Y0058704D01*
X0139085Y0059365D02*
X0139085Y0056635D01*
X0139085Y0059365D02*
X0139315Y0059365D01*
X0139315Y0056635D01*
X0139085Y0056635D01*
X0139085Y0058704D02*
X0139315Y0058704D01*
X0141585Y0059365D02*
X0141585Y0056635D01*
X0141585Y0059365D02*
X0141815Y0059365D01*
X0141815Y0056635D01*
X0141585Y0056635D01*
X0141585Y0058704D02*
X0141815Y0058704D01*
X0144085Y0059365D02*
X0144085Y0056635D01*
X0144085Y0059365D02*
X0144315Y0059365D01*
X0144315Y0056635D01*
X0144085Y0056635D01*
X0144085Y0058704D02*
X0144315Y0058704D01*
X0146585Y0059365D02*
X0146585Y0056635D01*
X0146585Y0059365D02*
X0146815Y0059365D01*
X0146815Y0056635D01*
X0146585Y0056635D01*
X0146585Y0058704D02*
X0146815Y0058704D01*
X0149085Y0059365D02*
X0149085Y0056635D01*
X0149085Y0059365D02*
X0149315Y0059365D01*
X0149315Y0056635D01*
X0149085Y0056635D01*
X0149085Y0058704D02*
X0149315Y0058704D01*
X0151585Y0059365D02*
X0151585Y0056635D01*
X0151585Y0059365D02*
X0151815Y0059365D01*
X0151815Y0056635D01*
X0151585Y0056635D01*
X0151585Y0058704D02*
X0151815Y0058704D01*
X0149085Y0061635D02*
X0149085Y0064365D01*
X0149315Y0064365D01*
X0149315Y0061635D01*
X0149085Y0061635D01*
X0149085Y0063704D02*
X0149315Y0063704D01*
X0146585Y0064365D02*
X0146585Y0061635D01*
X0146585Y0064365D02*
X0146815Y0064365D01*
X0146815Y0061635D01*
X0146585Y0061635D01*
X0146585Y0063704D02*
X0146815Y0063704D01*
X0144085Y0064365D02*
X0144085Y0061635D01*
X0144085Y0064365D02*
X0144315Y0064365D01*
X0144315Y0061635D01*
X0144085Y0061635D01*
X0144085Y0063704D02*
X0144315Y0063704D01*
X0141585Y0064365D02*
X0141585Y0061635D01*
X0141585Y0064365D02*
X0141815Y0064365D01*
X0141815Y0061635D01*
X0141585Y0061635D01*
X0141585Y0063704D02*
X0141815Y0063704D01*
X0139085Y0064365D02*
X0139085Y0061635D01*
X0139085Y0064365D02*
X0139315Y0064365D01*
X0139315Y0061635D01*
X0139085Y0061635D01*
X0139085Y0063704D02*
X0139315Y0063704D01*
X0136585Y0064365D02*
X0136585Y0061635D01*
X0136585Y0064365D02*
X0136815Y0064365D01*
X0136815Y0061635D01*
X0136585Y0061635D01*
X0136585Y0063704D02*
X0136815Y0063704D01*
X0134085Y0064365D02*
X0134085Y0061635D01*
X0134085Y0064365D02*
X0134315Y0064365D01*
X0134315Y0061635D01*
X0134085Y0061635D01*
X0134085Y0063704D02*
X0134315Y0063704D01*
X0131585Y0064365D02*
X0131585Y0061635D01*
X0131585Y0064365D02*
X0131815Y0064365D01*
X0131815Y0061635D01*
X0131585Y0061635D01*
X0131585Y0063704D02*
X0131815Y0063704D01*
X0111585Y0059365D02*
X0111585Y0056635D01*
X0111585Y0059365D02*
X0111815Y0059365D01*
X0111815Y0056635D01*
X0111585Y0056635D01*
X0111585Y0058704D02*
X0111815Y0058704D01*
X0109085Y0059365D02*
X0109085Y0056635D01*
X0109085Y0059365D02*
X0109315Y0059365D01*
X0109315Y0056635D01*
X0109085Y0056635D01*
X0109085Y0058704D02*
X0109315Y0058704D01*
X0106585Y0059365D02*
X0106585Y0056635D01*
X0106585Y0059365D02*
X0106815Y0059365D01*
X0106815Y0056635D01*
X0106585Y0056635D01*
X0106585Y0058704D02*
X0106815Y0058704D01*
X0104085Y0059365D02*
X0104085Y0056635D01*
X0104085Y0059365D02*
X0104315Y0059365D01*
X0104315Y0056635D01*
X0104085Y0056635D01*
X0104085Y0058704D02*
X0104315Y0058704D01*
X0101585Y0059365D02*
X0101585Y0056635D01*
X0101585Y0059365D02*
X0101815Y0059365D01*
X0101815Y0056635D01*
X0101585Y0056635D01*
X0101585Y0058704D02*
X0101815Y0058704D01*
X0099085Y0059365D02*
X0099085Y0056635D01*
X0099085Y0059365D02*
X0099315Y0059365D01*
X0099315Y0056635D01*
X0099085Y0056635D01*
X0099085Y0058704D02*
X0099315Y0058704D01*
X0096585Y0059365D02*
X0096585Y0056635D01*
X0096585Y0059365D02*
X0096815Y0059365D01*
X0096815Y0056635D01*
X0096585Y0056635D01*
X0096585Y0058704D02*
X0096815Y0058704D01*
X0094085Y0059365D02*
X0094085Y0056635D01*
X0094085Y0059365D02*
X0094315Y0059365D01*
X0094315Y0056635D01*
X0094085Y0056635D01*
X0094085Y0058704D02*
X0094315Y0058704D01*
X0091585Y0059365D02*
X0091585Y0056635D01*
X0091585Y0059365D02*
X0091815Y0059365D01*
X0091815Y0056635D01*
X0091585Y0056635D01*
X0091585Y0058704D02*
X0091815Y0058704D01*
X0089085Y0059365D02*
X0089085Y0056635D01*
X0089085Y0059365D02*
X0089315Y0059365D01*
X0089315Y0056635D01*
X0089085Y0056635D01*
X0089085Y0058704D02*
X0089315Y0058704D01*
X0091585Y0061635D02*
X0091585Y0064365D01*
X0091815Y0064365D01*
X0091815Y0061635D01*
X0091585Y0061635D01*
X0091585Y0063704D02*
X0091815Y0063704D01*
X0094085Y0064365D02*
X0094085Y0061635D01*
X0094085Y0064365D02*
X0094315Y0064365D01*
X0094315Y0061635D01*
X0094085Y0061635D01*
X0094085Y0063704D02*
X0094315Y0063704D01*
X0096585Y0064365D02*
X0096585Y0061635D01*
X0096585Y0064365D02*
X0096815Y0064365D01*
X0096815Y0061635D01*
X0096585Y0061635D01*
X0096585Y0063704D02*
X0096815Y0063704D01*
X0099085Y0064365D02*
X0099085Y0061635D01*
X0099085Y0064365D02*
X0099315Y0064365D01*
X0099315Y0061635D01*
X0099085Y0061635D01*
X0099085Y0063704D02*
X0099315Y0063704D01*
X0101585Y0064365D02*
X0101585Y0061635D01*
X0101585Y0064365D02*
X0101815Y0064365D01*
X0101815Y0061635D01*
X0101585Y0061635D01*
X0101585Y0063704D02*
X0101815Y0063704D01*
X0104085Y0064365D02*
X0104085Y0061635D01*
X0104085Y0064365D02*
X0104315Y0064365D01*
X0104315Y0061635D01*
X0104085Y0061635D01*
X0104085Y0063704D02*
X0104315Y0063704D01*
X0106585Y0064365D02*
X0106585Y0061635D01*
X0106585Y0064365D02*
X0106815Y0064365D01*
X0106815Y0061635D01*
X0106585Y0061635D01*
X0106585Y0063704D02*
X0106815Y0063704D01*
X0109085Y0064365D02*
X0109085Y0061635D01*
X0109085Y0064365D02*
X0109315Y0064365D01*
X0109315Y0061635D01*
X0109085Y0061635D01*
X0109085Y0063704D02*
X0109315Y0063704D01*
X0071585Y0059365D02*
X0071585Y0056635D01*
X0071585Y0059365D02*
X0071815Y0059365D01*
X0071815Y0056635D01*
X0071585Y0056635D01*
X0071585Y0058704D02*
X0071815Y0058704D01*
X0069085Y0059365D02*
X0069085Y0056635D01*
X0069085Y0059365D02*
X0069315Y0059365D01*
X0069315Y0056635D01*
X0069085Y0056635D01*
X0069085Y0058704D02*
X0069315Y0058704D01*
X0066585Y0059365D02*
X0066585Y0056635D01*
X0066585Y0059365D02*
X0066815Y0059365D01*
X0066815Y0056635D01*
X0066585Y0056635D01*
X0066585Y0058704D02*
X0066815Y0058704D01*
X0064085Y0059365D02*
X0064085Y0056635D01*
X0064085Y0059365D02*
X0064315Y0059365D01*
X0064315Y0056635D01*
X0064085Y0056635D01*
X0064085Y0058704D02*
X0064315Y0058704D01*
X0061585Y0059365D02*
X0061585Y0056635D01*
X0061585Y0059365D02*
X0061815Y0059365D01*
X0061815Y0056635D01*
X0061585Y0056635D01*
X0061585Y0058704D02*
X0061815Y0058704D01*
X0059085Y0059365D02*
X0059085Y0056635D01*
X0059085Y0059365D02*
X0059315Y0059365D01*
X0059315Y0056635D01*
X0059085Y0056635D01*
X0059085Y0058704D02*
X0059315Y0058704D01*
X0056585Y0059365D02*
X0056585Y0056635D01*
X0056585Y0059365D02*
X0056815Y0059365D01*
X0056815Y0056635D01*
X0056585Y0056635D01*
X0056585Y0058704D02*
X0056815Y0058704D01*
X0054085Y0059365D02*
X0054085Y0056635D01*
X0054085Y0059365D02*
X0054315Y0059365D01*
X0054315Y0056635D01*
X0054085Y0056635D01*
X0054085Y0058704D02*
X0054315Y0058704D01*
X0051585Y0059365D02*
X0051585Y0056635D01*
X0051585Y0059365D02*
X0051815Y0059365D01*
X0051815Y0056635D01*
X0051585Y0056635D01*
X0051585Y0058704D02*
X0051815Y0058704D01*
X0049085Y0059365D02*
X0049085Y0056635D01*
X0049085Y0059365D02*
X0049315Y0059365D01*
X0049315Y0056635D01*
X0049085Y0056635D01*
X0049085Y0058704D02*
X0049315Y0058704D01*
X0051585Y0061635D02*
X0051585Y0064365D01*
X0051815Y0064365D01*
X0051815Y0061635D01*
X0051585Y0061635D01*
X0051585Y0063704D02*
X0051815Y0063704D01*
X0054085Y0064365D02*
X0054085Y0061635D01*
X0054085Y0064365D02*
X0054315Y0064365D01*
X0054315Y0061635D01*
X0054085Y0061635D01*
X0054085Y0063704D02*
X0054315Y0063704D01*
X0056585Y0064365D02*
X0056585Y0061635D01*
X0056585Y0064365D02*
X0056815Y0064365D01*
X0056815Y0061635D01*
X0056585Y0061635D01*
X0056585Y0063704D02*
X0056815Y0063704D01*
X0059085Y0064365D02*
X0059085Y0061635D01*
X0059085Y0064365D02*
X0059315Y0064365D01*
X0059315Y0061635D01*
X0059085Y0061635D01*
X0059085Y0063704D02*
X0059315Y0063704D01*
X0061585Y0064365D02*
X0061585Y0061635D01*
X0061585Y0064365D02*
X0061815Y0064365D01*
X0061815Y0061635D01*
X0061585Y0061635D01*
X0061585Y0063704D02*
X0061815Y0063704D01*
X0064085Y0064365D02*
X0064085Y0061635D01*
X0064085Y0064365D02*
X0064315Y0064365D01*
X0064315Y0061635D01*
X0064085Y0061635D01*
X0064085Y0063704D02*
X0064315Y0063704D01*
X0066585Y0064365D02*
X0066585Y0061635D01*
X0066585Y0064365D02*
X0066815Y0064365D01*
X0066815Y0061635D01*
X0066585Y0061635D01*
X0066585Y0063704D02*
X0066815Y0063704D01*
X0069085Y0064365D02*
X0069085Y0061635D01*
X0069085Y0064365D02*
X0069315Y0064365D01*
X0069315Y0061635D01*
X0069085Y0061635D01*
X0069085Y0063704D02*
X0069315Y0063704D01*
X0031585Y0059365D02*
X0031585Y0056635D01*
X0031585Y0059365D02*
X0031815Y0059365D01*
X0031815Y0056635D01*
X0031585Y0056635D01*
X0031585Y0058704D02*
X0031815Y0058704D01*
X0029085Y0059365D02*
X0029085Y0056635D01*
X0029085Y0059365D02*
X0029315Y0059365D01*
X0029315Y0056635D01*
X0029085Y0056635D01*
X0029085Y0058704D02*
X0029315Y0058704D01*
X0026585Y0059365D02*
X0026585Y0056635D01*
X0026585Y0059365D02*
X0026815Y0059365D01*
X0026815Y0056635D01*
X0026585Y0056635D01*
X0026585Y0058704D02*
X0026815Y0058704D01*
X0024085Y0059365D02*
X0024085Y0056635D01*
X0024085Y0059365D02*
X0024315Y0059365D01*
X0024315Y0056635D01*
X0024085Y0056635D01*
X0024085Y0058704D02*
X0024315Y0058704D01*
X0021585Y0059365D02*
X0021585Y0056635D01*
X0021585Y0059365D02*
X0021815Y0059365D01*
X0021815Y0056635D01*
X0021585Y0056635D01*
X0021585Y0058704D02*
X0021815Y0058704D01*
X0019085Y0059365D02*
X0019085Y0056635D01*
X0019085Y0059365D02*
X0019315Y0059365D01*
X0019315Y0056635D01*
X0019085Y0056635D01*
X0019085Y0058704D02*
X0019315Y0058704D01*
X0016585Y0059365D02*
X0016585Y0056635D01*
X0016585Y0059365D02*
X0016815Y0059365D01*
X0016815Y0056635D01*
X0016585Y0056635D01*
X0016585Y0058704D02*
X0016815Y0058704D01*
X0014085Y0059365D02*
X0014085Y0056635D01*
X0014085Y0059365D02*
X0014315Y0059365D01*
X0014315Y0056635D01*
X0014085Y0056635D01*
X0014085Y0058704D02*
X0014315Y0058704D01*
X0011585Y0059365D02*
X0011585Y0056635D01*
X0011585Y0059365D02*
X0011815Y0059365D01*
X0011815Y0056635D01*
X0011585Y0056635D01*
X0011585Y0058704D02*
X0011815Y0058704D01*
X0009085Y0059365D02*
X0009085Y0056635D01*
X0009085Y0059365D02*
X0009315Y0059365D01*
X0009315Y0056635D01*
X0009085Y0056635D01*
X0009085Y0058704D02*
X0009315Y0058704D01*
X0011585Y0061635D02*
X0011585Y0064365D01*
X0011815Y0064365D01*
X0011815Y0061635D01*
X0011585Y0061635D01*
X0011585Y0063704D02*
X0011815Y0063704D01*
X0014085Y0064365D02*
X0014085Y0061635D01*
X0014085Y0064365D02*
X0014315Y0064365D01*
X0014315Y0061635D01*
X0014085Y0061635D01*
X0014085Y0063704D02*
X0014315Y0063704D01*
X0016585Y0064365D02*
X0016585Y0061635D01*
X0016585Y0064365D02*
X0016815Y0064365D01*
X0016815Y0061635D01*
X0016585Y0061635D01*
X0016585Y0063704D02*
X0016815Y0063704D01*
X0019085Y0064365D02*
X0019085Y0061635D01*
X0019085Y0064365D02*
X0019315Y0064365D01*
X0019315Y0061635D01*
X0019085Y0061635D01*
X0019085Y0063704D02*
X0019315Y0063704D01*
X0021585Y0064365D02*
X0021585Y0061635D01*
X0021585Y0064365D02*
X0021815Y0064365D01*
X0021815Y0061635D01*
X0021585Y0061635D01*
X0021585Y0063704D02*
X0021815Y0063704D01*
X0024085Y0064365D02*
X0024085Y0061635D01*
X0024085Y0064365D02*
X0024315Y0064365D01*
X0024315Y0061635D01*
X0024085Y0061635D01*
X0024085Y0063704D02*
X0024315Y0063704D01*
X0026585Y0064365D02*
X0026585Y0061635D01*
X0026585Y0064365D02*
X0026815Y0064365D01*
X0026815Y0061635D01*
X0026585Y0061635D01*
X0026585Y0063704D02*
X0026815Y0063704D01*
X0029085Y0064365D02*
X0029085Y0061635D01*
X0029085Y0064365D02*
X0029315Y0064365D01*
X0029315Y0061635D01*
X0029085Y0061635D01*
X0029085Y0063704D02*
X0029315Y0063704D01*
D11*
X0011625Y0009000D03*
X0014750Y0009000D03*
X0019750Y0010875D03*
X0022875Y0010875D03*
X0026000Y0010875D03*
X0030375Y0010875D03*
X0030375Y0014000D03*
X0034750Y0018375D03*
X0032250Y0022750D03*
X0030375Y0026500D03*
X0026000Y0030250D03*
X0022875Y0030250D03*
X0019750Y0030250D03*
X0014750Y0031500D03*
X0011625Y0031500D03*
X0009125Y0022750D03*
X0006625Y0018375D03*
X0007250Y0014625D03*
X0046625Y0018375D03*
X0047250Y0014625D03*
X0051625Y0009000D03*
X0054750Y0009000D03*
X0059750Y0010875D03*
X0062875Y0010875D03*
X0066000Y0010875D03*
X0070375Y0010875D03*
X0070375Y0014000D03*
X0074750Y0018375D03*
X0072250Y0022750D03*
X0070375Y0026500D03*
X0066000Y0030250D03*
X0062875Y0030250D03*
X0059750Y0030250D03*
X0054750Y0031500D03*
X0051625Y0031500D03*
X0049125Y0022750D03*
X0086625Y0018375D03*
X0087250Y0014625D03*
X0091625Y0009000D03*
X0094750Y0009000D03*
X0099750Y0010875D03*
X0102875Y0010875D03*
X0106000Y0010875D03*
X0110375Y0010875D03*
X0110375Y0014000D03*
X0114750Y0018375D03*
X0112250Y0022750D03*
X0110375Y0026500D03*
X0106000Y0030250D03*
X0102875Y0030250D03*
X0099750Y0030250D03*
X0094750Y0031500D03*
X0091625Y0031500D03*
X0089125Y0022750D03*
X0126625Y0018375D03*
X0127250Y0014625D03*
X0131625Y0009000D03*
X0134750Y0009000D03*
X0139750Y0010875D03*
X0142875Y0010875D03*
X0146000Y0010875D03*
X0150375Y0010875D03*
X0150375Y0014000D03*
X0154750Y0018375D03*
X0152250Y0022750D03*
X0150375Y0026500D03*
X0146000Y0030250D03*
X0142875Y0030250D03*
X0139750Y0030250D03*
X0134750Y0031500D03*
X0131625Y0031500D03*
X0129125Y0022750D03*
X0131625Y0049000D03*
X0134750Y0049000D03*
X0139750Y0050875D03*
X0142875Y0050875D03*
X0146000Y0050875D03*
X0150375Y0050875D03*
X0150375Y0054000D03*
X0154750Y0058375D03*
X0152250Y0062750D03*
X0150375Y0066500D03*
X0146000Y0070250D03*
X0142875Y0070250D03*
X0139750Y0070250D03*
X0134750Y0071500D03*
X0131625Y0071500D03*
X0129125Y0062750D03*
X0126625Y0058375D03*
X0127250Y0054625D03*
X0114750Y0058375D03*
X0112250Y0062750D03*
X0110375Y0066500D03*
X0106000Y0070250D03*
X0102875Y0070250D03*
X0099750Y0070250D03*
X0094750Y0071500D03*
X0091625Y0071500D03*
X0089125Y0062750D03*
X0086625Y0058375D03*
X0087250Y0054625D03*
X0091625Y0049000D03*
X0094750Y0049000D03*
X0099750Y0050875D03*
X0102875Y0050875D03*
X0106000Y0050875D03*
X0110375Y0050875D03*
X0110375Y0054000D03*
X0074750Y0058375D03*
X0072250Y0062750D03*
X0070375Y0066500D03*
X0066000Y0070250D03*
X0062875Y0070250D03*
X0059750Y0070250D03*
X0054750Y0071500D03*
X0051625Y0071500D03*
X0049125Y0062750D03*
X0046625Y0058375D03*
X0047250Y0054625D03*
X0051625Y0049000D03*
X0054750Y0049000D03*
X0059750Y0050875D03*
X0062875Y0050875D03*
X0066000Y0050875D03*
X0070375Y0050875D03*
X0070375Y0054000D03*
X0034750Y0058375D03*
X0032250Y0062750D03*
X0030375Y0066500D03*
X0026000Y0070250D03*
X0022875Y0070250D03*
X0019750Y0070250D03*
X0014750Y0071500D03*
X0011625Y0071500D03*
X0009125Y0062750D03*
X0006625Y0058375D03*
X0007250Y0054625D03*
X0011625Y0049000D03*
X0014750Y0049000D03*
X0019750Y0050875D03*
X0022875Y0050875D03*
X0026000Y0050875D03*
X0030375Y0050875D03*
X0030375Y0054000D03*
M02*
