%
M48
M72
T01C0.01500
%
T01
X11625Y9000
X14750Y9000
X19750Y10875
X22875Y10875
X26000Y10875
X30375Y10875
X30375Y14000
X34750Y18375
X32250Y22750
X30375Y26500
X26000Y30250
X22875Y30250
X19750Y30250
X14750Y31500
X11625Y31500
X9125Y22750
X6625Y18375
X7250Y14625
X46625Y18375
X47250Y14625
X51625Y9000
X54750Y9000
X59750Y10875
X62875Y10875
X66000Y10875
X70375Y10875
X70375Y14000
X74750Y18375
X72250Y22750
X70375Y26500
X66000Y30250
X62875Y30250
X59750Y30250
X54750Y31500
X51625Y31500
X49125Y22750
X86625Y18375
X87250Y14625
X91625Y9000
X94750Y9000
X99750Y10875
X102875Y10875
X106000Y10875
X110375Y10875
X110375Y14000
X114750Y18375
X112250Y22750
X110375Y26500
X106000Y30250
X102875Y30250
X99750Y30250
X94750Y31500
X91625Y31500
X89125Y22750
X126625Y18375
X127250Y14625
X131625Y9000
X134750Y9000
X139750Y10875
X142875Y10875
X146000Y10875
X150375Y10875
X150375Y14000
X154750Y18375
X152250Y22750
X150375Y26500
X146000Y30250
X142875Y30250
X139750Y30250
X134750Y31500
X131625Y31500
X129125Y22750
X131625Y49000
X134750Y49000
X139750Y50875
X142875Y50875
X146000Y50875
X150375Y50875
X150375Y54000
X154750Y58375
X152250Y62750
X150375Y66500
X146000Y70250
X142875Y70250
X139750Y70250
X134750Y71500
X131625Y71500
X129125Y62750
X126625Y58375
X127250Y54625
X114750Y58375
X112250Y62750
X110375Y66500
X106000Y70250
X102875Y70250
X99750Y70250
X94750Y71500
X91625Y71500
X89125Y62750
X86625Y58375
X87250Y54625
X91625Y49000
X94750Y49000
X99750Y50875
X102875Y50875
X106000Y50875
X110375Y50875
X110375Y54000
X74750Y58375
X72250Y62750
X70375Y66500
X66000Y70250
X62875Y70250
X59750Y70250
X54750Y71500
X51625Y71500
X49125Y62750
X46625Y58375
X47250Y54625
X51625Y49000
X54750Y49000
X59750Y50875
X62875Y50875
X66000Y50875
X70375Y50875
X70375Y54000
X34750Y58375
X32250Y62750
X30375Y66500
X26000Y70250
X22875Y70250
X19750Y70250
X14750Y71500
X11625Y71500
X9125Y62750
X6625Y58375
X7250Y54625
X11625Y49000
X14750Y49000
X19750Y50875
X22875Y50875
X26000Y50875
X30375Y50875
X30375Y54000
M30
