G75*
%MOIN*%
%OFA0B0*%
%FSLAX25Y25*%
%IPPOS*%
%LPD*%
%AMOC8*
5,1,8,0,0,1.08239X$1,22.5*
%
%ADD10C,0.01350*%
D10*
X0009125Y0016675D02*
X0009125Y0019325D01*
X0009275Y0019325D01*
X0009275Y0016675D01*
X0009125Y0016675D01*
X0009125Y0018024D02*
X0009275Y0018024D01*
X0011625Y0019325D02*
X0011625Y0016675D01*
X0011625Y0019325D02*
X0011775Y0019325D01*
X0011775Y0016675D01*
X0011625Y0016675D01*
X0011625Y0018024D02*
X0011775Y0018024D01*
X0014125Y0019325D02*
X0014125Y0016675D01*
X0014125Y0019325D02*
X0014275Y0019325D01*
X0014275Y0016675D01*
X0014125Y0016675D01*
X0014125Y0018024D02*
X0014275Y0018024D01*
X0016625Y0019325D02*
X0016625Y0016675D01*
X0016625Y0019325D02*
X0016775Y0019325D01*
X0016775Y0016675D01*
X0016625Y0016675D01*
X0016625Y0018024D02*
X0016775Y0018024D01*
X0019125Y0019325D02*
X0019125Y0016675D01*
X0019125Y0019325D02*
X0019275Y0019325D01*
X0019275Y0016675D01*
X0019125Y0016675D01*
X0019125Y0018024D02*
X0019275Y0018024D01*
X0021625Y0019325D02*
X0021625Y0016675D01*
X0021625Y0019325D02*
X0021775Y0019325D01*
X0021775Y0016675D01*
X0021625Y0016675D01*
X0021625Y0018024D02*
X0021775Y0018024D01*
X0024125Y0019325D02*
X0024125Y0016675D01*
X0024125Y0019325D02*
X0024275Y0019325D01*
X0024275Y0016675D01*
X0024125Y0016675D01*
X0024125Y0018024D02*
X0024275Y0018024D01*
X0026625Y0019325D02*
X0026625Y0016675D01*
X0026625Y0019325D02*
X0026775Y0019325D01*
X0026775Y0016675D01*
X0026625Y0016675D01*
X0026625Y0018024D02*
X0026775Y0018024D01*
X0029125Y0019325D02*
X0029125Y0016675D01*
X0029125Y0019325D02*
X0029275Y0019325D01*
X0029275Y0016675D01*
X0029125Y0016675D01*
X0029125Y0018024D02*
X0029275Y0018024D01*
X0031625Y0019325D02*
X0031625Y0016675D01*
X0031625Y0019325D02*
X0031775Y0019325D01*
X0031775Y0016675D01*
X0031625Y0016675D01*
X0031625Y0018024D02*
X0031775Y0018024D01*
X0029125Y0021675D02*
X0029125Y0024325D01*
X0029275Y0024325D01*
X0029275Y0021675D01*
X0029125Y0021675D01*
X0029125Y0023024D02*
X0029275Y0023024D01*
X0026625Y0024325D02*
X0026625Y0021675D01*
X0026625Y0024325D02*
X0026775Y0024325D01*
X0026775Y0021675D01*
X0026625Y0021675D01*
X0026625Y0023024D02*
X0026775Y0023024D01*
X0024125Y0024325D02*
X0024125Y0021675D01*
X0024125Y0024325D02*
X0024275Y0024325D01*
X0024275Y0021675D01*
X0024125Y0021675D01*
X0024125Y0023024D02*
X0024275Y0023024D01*
X0021625Y0024325D02*
X0021625Y0021675D01*
X0021625Y0024325D02*
X0021775Y0024325D01*
X0021775Y0021675D01*
X0021625Y0021675D01*
X0021625Y0023024D02*
X0021775Y0023024D01*
X0019125Y0024325D02*
X0019125Y0021675D01*
X0019125Y0024325D02*
X0019275Y0024325D01*
X0019275Y0021675D01*
X0019125Y0021675D01*
X0019125Y0023024D02*
X0019275Y0023024D01*
X0016625Y0024325D02*
X0016625Y0021675D01*
X0016625Y0024325D02*
X0016775Y0024325D01*
X0016775Y0021675D01*
X0016625Y0021675D01*
X0016625Y0023024D02*
X0016775Y0023024D01*
X0014125Y0024325D02*
X0014125Y0021675D01*
X0014125Y0024325D02*
X0014275Y0024325D01*
X0014275Y0021675D01*
X0014125Y0021675D01*
X0014125Y0023024D02*
X0014275Y0023024D01*
X0011625Y0024325D02*
X0011625Y0021675D01*
X0011625Y0024325D02*
X0011775Y0024325D01*
X0011775Y0021675D01*
X0011625Y0021675D01*
X0011625Y0023024D02*
X0011775Y0023024D01*
X0049125Y0019325D02*
X0049125Y0016675D01*
X0049125Y0019325D02*
X0049275Y0019325D01*
X0049275Y0016675D01*
X0049125Y0016675D01*
X0049125Y0018024D02*
X0049275Y0018024D01*
X0051625Y0019325D02*
X0051625Y0016675D01*
X0051625Y0019325D02*
X0051775Y0019325D01*
X0051775Y0016675D01*
X0051625Y0016675D01*
X0051625Y0018024D02*
X0051775Y0018024D01*
X0054125Y0019325D02*
X0054125Y0016675D01*
X0054125Y0019325D02*
X0054275Y0019325D01*
X0054275Y0016675D01*
X0054125Y0016675D01*
X0054125Y0018024D02*
X0054275Y0018024D01*
X0056625Y0019325D02*
X0056625Y0016675D01*
X0056625Y0019325D02*
X0056775Y0019325D01*
X0056775Y0016675D01*
X0056625Y0016675D01*
X0056625Y0018024D02*
X0056775Y0018024D01*
X0059125Y0019325D02*
X0059125Y0016675D01*
X0059125Y0019325D02*
X0059275Y0019325D01*
X0059275Y0016675D01*
X0059125Y0016675D01*
X0059125Y0018024D02*
X0059275Y0018024D01*
X0061625Y0019325D02*
X0061625Y0016675D01*
X0061625Y0019325D02*
X0061775Y0019325D01*
X0061775Y0016675D01*
X0061625Y0016675D01*
X0061625Y0018024D02*
X0061775Y0018024D01*
X0064125Y0019325D02*
X0064125Y0016675D01*
X0064125Y0019325D02*
X0064275Y0019325D01*
X0064275Y0016675D01*
X0064125Y0016675D01*
X0064125Y0018024D02*
X0064275Y0018024D01*
X0066625Y0019325D02*
X0066625Y0016675D01*
X0066625Y0019325D02*
X0066775Y0019325D01*
X0066775Y0016675D01*
X0066625Y0016675D01*
X0066625Y0018024D02*
X0066775Y0018024D01*
X0069125Y0019325D02*
X0069125Y0016675D01*
X0069125Y0019325D02*
X0069275Y0019325D01*
X0069275Y0016675D01*
X0069125Y0016675D01*
X0069125Y0018024D02*
X0069275Y0018024D01*
X0071625Y0019325D02*
X0071625Y0016675D01*
X0071625Y0019325D02*
X0071775Y0019325D01*
X0071775Y0016675D01*
X0071625Y0016675D01*
X0071625Y0018024D02*
X0071775Y0018024D01*
X0069125Y0021675D02*
X0069125Y0024325D01*
X0069275Y0024325D01*
X0069275Y0021675D01*
X0069125Y0021675D01*
X0069125Y0023024D02*
X0069275Y0023024D01*
X0066625Y0024325D02*
X0066625Y0021675D01*
X0066625Y0024325D02*
X0066775Y0024325D01*
X0066775Y0021675D01*
X0066625Y0021675D01*
X0066625Y0023024D02*
X0066775Y0023024D01*
X0064125Y0024325D02*
X0064125Y0021675D01*
X0064125Y0024325D02*
X0064275Y0024325D01*
X0064275Y0021675D01*
X0064125Y0021675D01*
X0064125Y0023024D02*
X0064275Y0023024D01*
X0061625Y0024325D02*
X0061625Y0021675D01*
X0061625Y0024325D02*
X0061775Y0024325D01*
X0061775Y0021675D01*
X0061625Y0021675D01*
X0061625Y0023024D02*
X0061775Y0023024D01*
X0059125Y0024325D02*
X0059125Y0021675D01*
X0059125Y0024325D02*
X0059275Y0024325D01*
X0059275Y0021675D01*
X0059125Y0021675D01*
X0059125Y0023024D02*
X0059275Y0023024D01*
X0056625Y0024325D02*
X0056625Y0021675D01*
X0056625Y0024325D02*
X0056775Y0024325D01*
X0056775Y0021675D01*
X0056625Y0021675D01*
X0056625Y0023024D02*
X0056775Y0023024D01*
X0054125Y0024325D02*
X0054125Y0021675D01*
X0054125Y0024325D02*
X0054275Y0024325D01*
X0054275Y0021675D01*
X0054125Y0021675D01*
X0054125Y0023024D02*
X0054275Y0023024D01*
X0051625Y0024325D02*
X0051625Y0021675D01*
X0051625Y0024325D02*
X0051775Y0024325D01*
X0051775Y0021675D01*
X0051625Y0021675D01*
X0051625Y0023024D02*
X0051775Y0023024D01*
X0089125Y0019325D02*
X0089125Y0016675D01*
X0089125Y0019325D02*
X0089275Y0019325D01*
X0089275Y0016675D01*
X0089125Y0016675D01*
X0089125Y0018024D02*
X0089275Y0018024D01*
X0091625Y0019325D02*
X0091625Y0016675D01*
X0091625Y0019325D02*
X0091775Y0019325D01*
X0091775Y0016675D01*
X0091625Y0016675D01*
X0091625Y0018024D02*
X0091775Y0018024D01*
X0094125Y0019325D02*
X0094125Y0016675D01*
X0094125Y0019325D02*
X0094275Y0019325D01*
X0094275Y0016675D01*
X0094125Y0016675D01*
X0094125Y0018024D02*
X0094275Y0018024D01*
X0096625Y0019325D02*
X0096625Y0016675D01*
X0096625Y0019325D02*
X0096775Y0019325D01*
X0096775Y0016675D01*
X0096625Y0016675D01*
X0096625Y0018024D02*
X0096775Y0018024D01*
X0099125Y0019325D02*
X0099125Y0016675D01*
X0099125Y0019325D02*
X0099275Y0019325D01*
X0099275Y0016675D01*
X0099125Y0016675D01*
X0099125Y0018024D02*
X0099275Y0018024D01*
X0101625Y0019325D02*
X0101625Y0016675D01*
X0101625Y0019325D02*
X0101775Y0019325D01*
X0101775Y0016675D01*
X0101625Y0016675D01*
X0101625Y0018024D02*
X0101775Y0018024D01*
X0104125Y0019325D02*
X0104125Y0016675D01*
X0104125Y0019325D02*
X0104275Y0019325D01*
X0104275Y0016675D01*
X0104125Y0016675D01*
X0104125Y0018024D02*
X0104275Y0018024D01*
X0106625Y0019325D02*
X0106625Y0016675D01*
X0106625Y0019325D02*
X0106775Y0019325D01*
X0106775Y0016675D01*
X0106625Y0016675D01*
X0106625Y0018024D02*
X0106775Y0018024D01*
X0109125Y0019325D02*
X0109125Y0016675D01*
X0109125Y0019325D02*
X0109275Y0019325D01*
X0109275Y0016675D01*
X0109125Y0016675D01*
X0109125Y0018024D02*
X0109275Y0018024D01*
X0111625Y0019325D02*
X0111625Y0016675D01*
X0111625Y0019325D02*
X0111775Y0019325D01*
X0111775Y0016675D01*
X0111625Y0016675D01*
X0111625Y0018024D02*
X0111775Y0018024D01*
X0109125Y0021675D02*
X0109125Y0024325D01*
X0109275Y0024325D01*
X0109275Y0021675D01*
X0109125Y0021675D01*
X0109125Y0023024D02*
X0109275Y0023024D01*
X0106625Y0024325D02*
X0106625Y0021675D01*
X0106625Y0024325D02*
X0106775Y0024325D01*
X0106775Y0021675D01*
X0106625Y0021675D01*
X0106625Y0023024D02*
X0106775Y0023024D01*
X0104125Y0024325D02*
X0104125Y0021675D01*
X0104125Y0024325D02*
X0104275Y0024325D01*
X0104275Y0021675D01*
X0104125Y0021675D01*
X0104125Y0023024D02*
X0104275Y0023024D01*
X0101625Y0024325D02*
X0101625Y0021675D01*
X0101625Y0024325D02*
X0101775Y0024325D01*
X0101775Y0021675D01*
X0101625Y0021675D01*
X0101625Y0023024D02*
X0101775Y0023024D01*
X0099125Y0024325D02*
X0099125Y0021675D01*
X0099125Y0024325D02*
X0099275Y0024325D01*
X0099275Y0021675D01*
X0099125Y0021675D01*
X0099125Y0023024D02*
X0099275Y0023024D01*
X0096625Y0024325D02*
X0096625Y0021675D01*
X0096625Y0024325D02*
X0096775Y0024325D01*
X0096775Y0021675D01*
X0096625Y0021675D01*
X0096625Y0023024D02*
X0096775Y0023024D01*
X0094125Y0024325D02*
X0094125Y0021675D01*
X0094125Y0024325D02*
X0094275Y0024325D01*
X0094275Y0021675D01*
X0094125Y0021675D01*
X0094125Y0023024D02*
X0094275Y0023024D01*
X0091625Y0024325D02*
X0091625Y0021675D01*
X0091625Y0024325D02*
X0091775Y0024325D01*
X0091775Y0021675D01*
X0091625Y0021675D01*
X0091625Y0023024D02*
X0091775Y0023024D01*
X0129125Y0019325D02*
X0129125Y0016675D01*
X0129125Y0019325D02*
X0129275Y0019325D01*
X0129275Y0016675D01*
X0129125Y0016675D01*
X0129125Y0018024D02*
X0129275Y0018024D01*
X0131625Y0019325D02*
X0131625Y0016675D01*
X0131625Y0019325D02*
X0131775Y0019325D01*
X0131775Y0016675D01*
X0131625Y0016675D01*
X0131625Y0018024D02*
X0131775Y0018024D01*
X0134125Y0019325D02*
X0134125Y0016675D01*
X0134125Y0019325D02*
X0134275Y0019325D01*
X0134275Y0016675D01*
X0134125Y0016675D01*
X0134125Y0018024D02*
X0134275Y0018024D01*
X0136625Y0019325D02*
X0136625Y0016675D01*
X0136625Y0019325D02*
X0136775Y0019325D01*
X0136775Y0016675D01*
X0136625Y0016675D01*
X0136625Y0018024D02*
X0136775Y0018024D01*
X0139125Y0019325D02*
X0139125Y0016675D01*
X0139125Y0019325D02*
X0139275Y0019325D01*
X0139275Y0016675D01*
X0139125Y0016675D01*
X0139125Y0018024D02*
X0139275Y0018024D01*
X0141625Y0019325D02*
X0141625Y0016675D01*
X0141625Y0019325D02*
X0141775Y0019325D01*
X0141775Y0016675D01*
X0141625Y0016675D01*
X0141625Y0018024D02*
X0141775Y0018024D01*
X0144125Y0019325D02*
X0144125Y0016675D01*
X0144125Y0019325D02*
X0144275Y0019325D01*
X0144275Y0016675D01*
X0144125Y0016675D01*
X0144125Y0018024D02*
X0144275Y0018024D01*
X0146625Y0019325D02*
X0146625Y0016675D01*
X0146625Y0019325D02*
X0146775Y0019325D01*
X0146775Y0016675D01*
X0146625Y0016675D01*
X0146625Y0018024D02*
X0146775Y0018024D01*
X0149125Y0019325D02*
X0149125Y0016675D01*
X0149125Y0019325D02*
X0149275Y0019325D01*
X0149275Y0016675D01*
X0149125Y0016675D01*
X0149125Y0018024D02*
X0149275Y0018024D01*
X0151625Y0019325D02*
X0151625Y0016675D01*
X0151625Y0019325D02*
X0151775Y0019325D01*
X0151775Y0016675D01*
X0151625Y0016675D01*
X0151625Y0018024D02*
X0151775Y0018024D01*
X0149125Y0021675D02*
X0149125Y0024325D01*
X0149275Y0024325D01*
X0149275Y0021675D01*
X0149125Y0021675D01*
X0149125Y0023024D02*
X0149275Y0023024D01*
X0146625Y0024325D02*
X0146625Y0021675D01*
X0146625Y0024325D02*
X0146775Y0024325D01*
X0146775Y0021675D01*
X0146625Y0021675D01*
X0146625Y0023024D02*
X0146775Y0023024D01*
X0144125Y0024325D02*
X0144125Y0021675D01*
X0144125Y0024325D02*
X0144275Y0024325D01*
X0144275Y0021675D01*
X0144125Y0021675D01*
X0144125Y0023024D02*
X0144275Y0023024D01*
X0141625Y0024325D02*
X0141625Y0021675D01*
X0141625Y0024325D02*
X0141775Y0024325D01*
X0141775Y0021675D01*
X0141625Y0021675D01*
X0141625Y0023024D02*
X0141775Y0023024D01*
X0139125Y0024325D02*
X0139125Y0021675D01*
X0139125Y0024325D02*
X0139275Y0024325D01*
X0139275Y0021675D01*
X0139125Y0021675D01*
X0139125Y0023024D02*
X0139275Y0023024D01*
X0136625Y0024325D02*
X0136625Y0021675D01*
X0136625Y0024325D02*
X0136775Y0024325D01*
X0136775Y0021675D01*
X0136625Y0021675D01*
X0136625Y0023024D02*
X0136775Y0023024D01*
X0134125Y0024325D02*
X0134125Y0021675D01*
X0134125Y0024325D02*
X0134275Y0024325D01*
X0134275Y0021675D01*
X0134125Y0021675D01*
X0134125Y0023024D02*
X0134275Y0023024D01*
X0131625Y0024325D02*
X0131625Y0021675D01*
X0131625Y0024325D02*
X0131775Y0024325D01*
X0131775Y0021675D01*
X0131625Y0021675D01*
X0131625Y0023024D02*
X0131775Y0023024D01*
X0131625Y0056675D02*
X0131625Y0059325D01*
X0131775Y0059325D01*
X0131775Y0056675D01*
X0131625Y0056675D01*
X0131625Y0058024D02*
X0131775Y0058024D01*
X0129125Y0059325D02*
X0129125Y0056675D01*
X0129125Y0059325D02*
X0129275Y0059325D01*
X0129275Y0056675D01*
X0129125Y0056675D01*
X0129125Y0058024D02*
X0129275Y0058024D01*
X0134125Y0059325D02*
X0134125Y0056675D01*
X0134125Y0059325D02*
X0134275Y0059325D01*
X0134275Y0056675D01*
X0134125Y0056675D01*
X0134125Y0058024D02*
X0134275Y0058024D01*
X0136625Y0059325D02*
X0136625Y0056675D01*
X0136625Y0059325D02*
X0136775Y0059325D01*
X0136775Y0056675D01*
X0136625Y0056675D01*
X0136625Y0058024D02*
X0136775Y0058024D01*
X0139125Y0059325D02*
X0139125Y0056675D01*
X0139125Y0059325D02*
X0139275Y0059325D01*
X0139275Y0056675D01*
X0139125Y0056675D01*
X0139125Y0058024D02*
X0139275Y0058024D01*
X0141625Y0059325D02*
X0141625Y0056675D01*
X0141625Y0059325D02*
X0141775Y0059325D01*
X0141775Y0056675D01*
X0141625Y0056675D01*
X0141625Y0058024D02*
X0141775Y0058024D01*
X0144125Y0059325D02*
X0144125Y0056675D01*
X0144125Y0059325D02*
X0144275Y0059325D01*
X0144275Y0056675D01*
X0144125Y0056675D01*
X0144125Y0058024D02*
X0144275Y0058024D01*
X0146625Y0059325D02*
X0146625Y0056675D01*
X0146625Y0059325D02*
X0146775Y0059325D01*
X0146775Y0056675D01*
X0146625Y0056675D01*
X0146625Y0058024D02*
X0146775Y0058024D01*
X0149125Y0059325D02*
X0149125Y0056675D01*
X0149125Y0059325D02*
X0149275Y0059325D01*
X0149275Y0056675D01*
X0149125Y0056675D01*
X0149125Y0058024D02*
X0149275Y0058024D01*
X0151625Y0059325D02*
X0151625Y0056675D01*
X0151625Y0059325D02*
X0151775Y0059325D01*
X0151775Y0056675D01*
X0151625Y0056675D01*
X0151625Y0058024D02*
X0151775Y0058024D01*
X0149125Y0061675D02*
X0149125Y0064325D01*
X0149275Y0064325D01*
X0149275Y0061675D01*
X0149125Y0061675D01*
X0149125Y0063024D02*
X0149275Y0063024D01*
X0146625Y0064325D02*
X0146625Y0061675D01*
X0146625Y0064325D02*
X0146775Y0064325D01*
X0146775Y0061675D01*
X0146625Y0061675D01*
X0146625Y0063024D02*
X0146775Y0063024D01*
X0144125Y0064325D02*
X0144125Y0061675D01*
X0144125Y0064325D02*
X0144275Y0064325D01*
X0144275Y0061675D01*
X0144125Y0061675D01*
X0144125Y0063024D02*
X0144275Y0063024D01*
X0141625Y0064325D02*
X0141625Y0061675D01*
X0141625Y0064325D02*
X0141775Y0064325D01*
X0141775Y0061675D01*
X0141625Y0061675D01*
X0141625Y0063024D02*
X0141775Y0063024D01*
X0139125Y0064325D02*
X0139125Y0061675D01*
X0139125Y0064325D02*
X0139275Y0064325D01*
X0139275Y0061675D01*
X0139125Y0061675D01*
X0139125Y0063024D02*
X0139275Y0063024D01*
X0136625Y0064325D02*
X0136625Y0061675D01*
X0136625Y0064325D02*
X0136775Y0064325D01*
X0136775Y0061675D01*
X0136625Y0061675D01*
X0136625Y0063024D02*
X0136775Y0063024D01*
X0134125Y0064325D02*
X0134125Y0061675D01*
X0134125Y0064325D02*
X0134275Y0064325D01*
X0134275Y0061675D01*
X0134125Y0061675D01*
X0134125Y0063024D02*
X0134275Y0063024D01*
X0131625Y0064325D02*
X0131625Y0061675D01*
X0131625Y0064325D02*
X0131775Y0064325D01*
X0131775Y0061675D01*
X0131625Y0061675D01*
X0131625Y0063024D02*
X0131775Y0063024D01*
X0111625Y0059325D02*
X0111625Y0056675D01*
X0111625Y0059325D02*
X0111775Y0059325D01*
X0111775Y0056675D01*
X0111625Y0056675D01*
X0111625Y0058024D02*
X0111775Y0058024D01*
X0109125Y0059325D02*
X0109125Y0056675D01*
X0109125Y0059325D02*
X0109275Y0059325D01*
X0109275Y0056675D01*
X0109125Y0056675D01*
X0109125Y0058024D02*
X0109275Y0058024D01*
X0106625Y0059325D02*
X0106625Y0056675D01*
X0106625Y0059325D02*
X0106775Y0059325D01*
X0106775Y0056675D01*
X0106625Y0056675D01*
X0106625Y0058024D02*
X0106775Y0058024D01*
X0104125Y0059325D02*
X0104125Y0056675D01*
X0104125Y0059325D02*
X0104275Y0059325D01*
X0104275Y0056675D01*
X0104125Y0056675D01*
X0104125Y0058024D02*
X0104275Y0058024D01*
X0101625Y0059325D02*
X0101625Y0056675D01*
X0101625Y0059325D02*
X0101775Y0059325D01*
X0101775Y0056675D01*
X0101625Y0056675D01*
X0101625Y0058024D02*
X0101775Y0058024D01*
X0099125Y0059325D02*
X0099125Y0056675D01*
X0099125Y0059325D02*
X0099275Y0059325D01*
X0099275Y0056675D01*
X0099125Y0056675D01*
X0099125Y0058024D02*
X0099275Y0058024D01*
X0096625Y0059325D02*
X0096625Y0056675D01*
X0096625Y0059325D02*
X0096775Y0059325D01*
X0096775Y0056675D01*
X0096625Y0056675D01*
X0096625Y0058024D02*
X0096775Y0058024D01*
X0094125Y0059325D02*
X0094125Y0056675D01*
X0094125Y0059325D02*
X0094275Y0059325D01*
X0094275Y0056675D01*
X0094125Y0056675D01*
X0094125Y0058024D02*
X0094275Y0058024D01*
X0091625Y0059325D02*
X0091625Y0056675D01*
X0091625Y0059325D02*
X0091775Y0059325D01*
X0091775Y0056675D01*
X0091625Y0056675D01*
X0091625Y0058024D02*
X0091775Y0058024D01*
X0089125Y0059325D02*
X0089125Y0056675D01*
X0089125Y0059325D02*
X0089275Y0059325D01*
X0089275Y0056675D01*
X0089125Y0056675D01*
X0089125Y0058024D02*
X0089275Y0058024D01*
X0091625Y0061675D02*
X0091625Y0064325D01*
X0091775Y0064325D01*
X0091775Y0061675D01*
X0091625Y0061675D01*
X0091625Y0063024D02*
X0091775Y0063024D01*
X0094125Y0064325D02*
X0094125Y0061675D01*
X0094125Y0064325D02*
X0094275Y0064325D01*
X0094275Y0061675D01*
X0094125Y0061675D01*
X0094125Y0063024D02*
X0094275Y0063024D01*
X0096625Y0064325D02*
X0096625Y0061675D01*
X0096625Y0064325D02*
X0096775Y0064325D01*
X0096775Y0061675D01*
X0096625Y0061675D01*
X0096625Y0063024D02*
X0096775Y0063024D01*
X0099125Y0064325D02*
X0099125Y0061675D01*
X0099125Y0064325D02*
X0099275Y0064325D01*
X0099275Y0061675D01*
X0099125Y0061675D01*
X0099125Y0063024D02*
X0099275Y0063024D01*
X0101625Y0064325D02*
X0101625Y0061675D01*
X0101625Y0064325D02*
X0101775Y0064325D01*
X0101775Y0061675D01*
X0101625Y0061675D01*
X0101625Y0063024D02*
X0101775Y0063024D01*
X0104125Y0064325D02*
X0104125Y0061675D01*
X0104125Y0064325D02*
X0104275Y0064325D01*
X0104275Y0061675D01*
X0104125Y0061675D01*
X0104125Y0063024D02*
X0104275Y0063024D01*
X0106625Y0064325D02*
X0106625Y0061675D01*
X0106625Y0064325D02*
X0106775Y0064325D01*
X0106775Y0061675D01*
X0106625Y0061675D01*
X0106625Y0063024D02*
X0106775Y0063024D01*
X0109125Y0064325D02*
X0109125Y0061675D01*
X0109125Y0064325D02*
X0109275Y0064325D01*
X0109275Y0061675D01*
X0109125Y0061675D01*
X0109125Y0063024D02*
X0109275Y0063024D01*
X0071625Y0059325D02*
X0071625Y0056675D01*
X0071625Y0059325D02*
X0071775Y0059325D01*
X0071775Y0056675D01*
X0071625Y0056675D01*
X0071625Y0058024D02*
X0071775Y0058024D01*
X0069125Y0059325D02*
X0069125Y0056675D01*
X0069125Y0059325D02*
X0069275Y0059325D01*
X0069275Y0056675D01*
X0069125Y0056675D01*
X0069125Y0058024D02*
X0069275Y0058024D01*
X0066625Y0059325D02*
X0066625Y0056675D01*
X0066625Y0059325D02*
X0066775Y0059325D01*
X0066775Y0056675D01*
X0066625Y0056675D01*
X0066625Y0058024D02*
X0066775Y0058024D01*
X0064125Y0059325D02*
X0064125Y0056675D01*
X0064125Y0059325D02*
X0064275Y0059325D01*
X0064275Y0056675D01*
X0064125Y0056675D01*
X0064125Y0058024D02*
X0064275Y0058024D01*
X0061625Y0059325D02*
X0061625Y0056675D01*
X0061625Y0059325D02*
X0061775Y0059325D01*
X0061775Y0056675D01*
X0061625Y0056675D01*
X0061625Y0058024D02*
X0061775Y0058024D01*
X0059125Y0059325D02*
X0059125Y0056675D01*
X0059125Y0059325D02*
X0059275Y0059325D01*
X0059275Y0056675D01*
X0059125Y0056675D01*
X0059125Y0058024D02*
X0059275Y0058024D01*
X0056625Y0059325D02*
X0056625Y0056675D01*
X0056625Y0059325D02*
X0056775Y0059325D01*
X0056775Y0056675D01*
X0056625Y0056675D01*
X0056625Y0058024D02*
X0056775Y0058024D01*
X0054125Y0059325D02*
X0054125Y0056675D01*
X0054125Y0059325D02*
X0054275Y0059325D01*
X0054275Y0056675D01*
X0054125Y0056675D01*
X0054125Y0058024D02*
X0054275Y0058024D01*
X0051625Y0059325D02*
X0051625Y0056675D01*
X0051625Y0059325D02*
X0051775Y0059325D01*
X0051775Y0056675D01*
X0051625Y0056675D01*
X0051625Y0058024D02*
X0051775Y0058024D01*
X0049125Y0059325D02*
X0049125Y0056675D01*
X0049125Y0059325D02*
X0049275Y0059325D01*
X0049275Y0056675D01*
X0049125Y0056675D01*
X0049125Y0058024D02*
X0049275Y0058024D01*
X0051625Y0061675D02*
X0051625Y0064325D01*
X0051775Y0064325D01*
X0051775Y0061675D01*
X0051625Y0061675D01*
X0051625Y0063024D02*
X0051775Y0063024D01*
X0054125Y0064325D02*
X0054125Y0061675D01*
X0054125Y0064325D02*
X0054275Y0064325D01*
X0054275Y0061675D01*
X0054125Y0061675D01*
X0054125Y0063024D02*
X0054275Y0063024D01*
X0056625Y0064325D02*
X0056625Y0061675D01*
X0056625Y0064325D02*
X0056775Y0064325D01*
X0056775Y0061675D01*
X0056625Y0061675D01*
X0056625Y0063024D02*
X0056775Y0063024D01*
X0059125Y0064325D02*
X0059125Y0061675D01*
X0059125Y0064325D02*
X0059275Y0064325D01*
X0059275Y0061675D01*
X0059125Y0061675D01*
X0059125Y0063024D02*
X0059275Y0063024D01*
X0061625Y0064325D02*
X0061625Y0061675D01*
X0061625Y0064325D02*
X0061775Y0064325D01*
X0061775Y0061675D01*
X0061625Y0061675D01*
X0061625Y0063024D02*
X0061775Y0063024D01*
X0064125Y0064325D02*
X0064125Y0061675D01*
X0064125Y0064325D02*
X0064275Y0064325D01*
X0064275Y0061675D01*
X0064125Y0061675D01*
X0064125Y0063024D02*
X0064275Y0063024D01*
X0066625Y0064325D02*
X0066625Y0061675D01*
X0066625Y0064325D02*
X0066775Y0064325D01*
X0066775Y0061675D01*
X0066625Y0061675D01*
X0066625Y0063024D02*
X0066775Y0063024D01*
X0069125Y0064325D02*
X0069125Y0061675D01*
X0069125Y0064325D02*
X0069275Y0064325D01*
X0069275Y0061675D01*
X0069125Y0061675D01*
X0069125Y0063024D02*
X0069275Y0063024D01*
X0031625Y0059325D02*
X0031625Y0056675D01*
X0031625Y0059325D02*
X0031775Y0059325D01*
X0031775Y0056675D01*
X0031625Y0056675D01*
X0031625Y0058024D02*
X0031775Y0058024D01*
X0029125Y0059325D02*
X0029125Y0056675D01*
X0029125Y0059325D02*
X0029275Y0059325D01*
X0029275Y0056675D01*
X0029125Y0056675D01*
X0029125Y0058024D02*
X0029275Y0058024D01*
X0026625Y0059325D02*
X0026625Y0056675D01*
X0026625Y0059325D02*
X0026775Y0059325D01*
X0026775Y0056675D01*
X0026625Y0056675D01*
X0026625Y0058024D02*
X0026775Y0058024D01*
X0024125Y0059325D02*
X0024125Y0056675D01*
X0024125Y0059325D02*
X0024275Y0059325D01*
X0024275Y0056675D01*
X0024125Y0056675D01*
X0024125Y0058024D02*
X0024275Y0058024D01*
X0021625Y0059325D02*
X0021625Y0056675D01*
X0021625Y0059325D02*
X0021775Y0059325D01*
X0021775Y0056675D01*
X0021625Y0056675D01*
X0021625Y0058024D02*
X0021775Y0058024D01*
X0019125Y0059325D02*
X0019125Y0056675D01*
X0019125Y0059325D02*
X0019275Y0059325D01*
X0019275Y0056675D01*
X0019125Y0056675D01*
X0019125Y0058024D02*
X0019275Y0058024D01*
X0016625Y0059325D02*
X0016625Y0056675D01*
X0016625Y0059325D02*
X0016775Y0059325D01*
X0016775Y0056675D01*
X0016625Y0056675D01*
X0016625Y0058024D02*
X0016775Y0058024D01*
X0014125Y0059325D02*
X0014125Y0056675D01*
X0014125Y0059325D02*
X0014275Y0059325D01*
X0014275Y0056675D01*
X0014125Y0056675D01*
X0014125Y0058024D02*
X0014275Y0058024D01*
X0011625Y0059325D02*
X0011625Y0056675D01*
X0011625Y0059325D02*
X0011775Y0059325D01*
X0011775Y0056675D01*
X0011625Y0056675D01*
X0011625Y0058024D02*
X0011775Y0058024D01*
X0009125Y0059325D02*
X0009125Y0056675D01*
X0009125Y0059325D02*
X0009275Y0059325D01*
X0009275Y0056675D01*
X0009125Y0056675D01*
X0009125Y0058024D02*
X0009275Y0058024D01*
X0011625Y0061675D02*
X0011625Y0064325D01*
X0011775Y0064325D01*
X0011775Y0061675D01*
X0011625Y0061675D01*
X0011625Y0063024D02*
X0011775Y0063024D01*
X0014125Y0064325D02*
X0014125Y0061675D01*
X0014125Y0064325D02*
X0014275Y0064325D01*
X0014275Y0061675D01*
X0014125Y0061675D01*
X0014125Y0063024D02*
X0014275Y0063024D01*
X0016625Y0064325D02*
X0016625Y0061675D01*
X0016625Y0064325D02*
X0016775Y0064325D01*
X0016775Y0061675D01*
X0016625Y0061675D01*
X0016625Y0063024D02*
X0016775Y0063024D01*
X0019125Y0064325D02*
X0019125Y0061675D01*
X0019125Y0064325D02*
X0019275Y0064325D01*
X0019275Y0061675D01*
X0019125Y0061675D01*
X0019125Y0063024D02*
X0019275Y0063024D01*
X0021625Y0064325D02*
X0021625Y0061675D01*
X0021625Y0064325D02*
X0021775Y0064325D01*
X0021775Y0061675D01*
X0021625Y0061675D01*
X0021625Y0063024D02*
X0021775Y0063024D01*
X0024125Y0064325D02*
X0024125Y0061675D01*
X0024125Y0064325D02*
X0024275Y0064325D01*
X0024275Y0061675D01*
X0024125Y0061675D01*
X0024125Y0063024D02*
X0024275Y0063024D01*
X0026625Y0064325D02*
X0026625Y0061675D01*
X0026625Y0064325D02*
X0026775Y0064325D01*
X0026775Y0061675D01*
X0026625Y0061675D01*
X0026625Y0063024D02*
X0026775Y0063024D01*
X0029125Y0064325D02*
X0029125Y0061675D01*
X0029125Y0064325D02*
X0029275Y0064325D01*
X0029275Y0061675D01*
X0029125Y0061675D01*
X0029125Y0063024D02*
X0029275Y0063024D01*
M02*
