G75*
%MOIN*%
%OFA0B0*%
%FSLAX25Y25*%
%IPPOS*%
%LPD*%
%AMOC8*
5,1,8,0,0,1.08239X$1,22.5*
%
%ADD10C,0.00000*%
%ADD11C,0.01350*%
%ADD12C,0.00600*%
%ADD13C,0.02700*%
D10*
X0001500Y0001500D02*
X0001500Y0079500D01*
X0159500Y0079500D01*
X0159500Y0001500D01*
X0121500Y0001500D01*
X0039500Y0001500D01*
X0001500Y0001500D01*
X0041500Y0001500D02*
X0079500Y0001500D01*
X0081500Y0001500D02*
X0119500Y0001500D01*
D11*
X0111625Y0016675D02*
X0111625Y0019325D01*
X0111775Y0019325D01*
X0111775Y0016675D01*
X0111625Y0016675D01*
X0111625Y0018024D02*
X0111775Y0018024D01*
X0109125Y0019325D02*
X0109125Y0016675D01*
X0109125Y0019325D02*
X0109275Y0019325D01*
X0109275Y0016675D01*
X0109125Y0016675D01*
X0109125Y0018024D02*
X0109275Y0018024D01*
X0106625Y0019325D02*
X0106625Y0016675D01*
X0106625Y0019325D02*
X0106775Y0019325D01*
X0106775Y0016675D01*
X0106625Y0016675D01*
X0106625Y0018024D02*
X0106775Y0018024D01*
X0104125Y0019325D02*
X0104125Y0016675D01*
X0104125Y0019325D02*
X0104275Y0019325D01*
X0104275Y0016675D01*
X0104125Y0016675D01*
X0104125Y0018024D02*
X0104275Y0018024D01*
X0101625Y0019325D02*
X0101625Y0016675D01*
X0101625Y0019325D02*
X0101775Y0019325D01*
X0101775Y0016675D01*
X0101625Y0016675D01*
X0101625Y0018024D02*
X0101775Y0018024D01*
X0099125Y0019325D02*
X0099125Y0016675D01*
X0099125Y0019325D02*
X0099275Y0019325D01*
X0099275Y0016675D01*
X0099125Y0016675D01*
X0099125Y0018024D02*
X0099275Y0018024D01*
X0096625Y0019325D02*
X0096625Y0016675D01*
X0096625Y0019325D02*
X0096775Y0019325D01*
X0096775Y0016675D01*
X0096625Y0016675D01*
X0096625Y0018024D02*
X0096775Y0018024D01*
X0094125Y0019325D02*
X0094125Y0016675D01*
X0094125Y0019325D02*
X0094275Y0019325D01*
X0094275Y0016675D01*
X0094125Y0016675D01*
X0094125Y0018024D02*
X0094275Y0018024D01*
X0091625Y0019325D02*
X0091625Y0016675D01*
X0091625Y0019325D02*
X0091775Y0019325D01*
X0091775Y0016675D01*
X0091625Y0016675D01*
X0091625Y0018024D02*
X0091775Y0018024D01*
X0089125Y0019325D02*
X0089125Y0016675D01*
X0089125Y0019325D02*
X0089275Y0019325D01*
X0089275Y0016675D01*
X0089125Y0016675D01*
X0089125Y0018024D02*
X0089275Y0018024D01*
X0091625Y0021675D02*
X0091625Y0024325D01*
X0091775Y0024325D01*
X0091775Y0021675D01*
X0091625Y0021675D01*
X0091625Y0023024D02*
X0091775Y0023024D01*
X0094125Y0024325D02*
X0094125Y0021675D01*
X0094125Y0024325D02*
X0094275Y0024325D01*
X0094275Y0021675D01*
X0094125Y0021675D01*
X0094125Y0023024D02*
X0094275Y0023024D01*
X0096625Y0024325D02*
X0096625Y0021675D01*
X0096625Y0024325D02*
X0096775Y0024325D01*
X0096775Y0021675D01*
X0096625Y0021675D01*
X0096625Y0023024D02*
X0096775Y0023024D01*
X0099125Y0024325D02*
X0099125Y0021675D01*
X0099125Y0024325D02*
X0099275Y0024325D01*
X0099275Y0021675D01*
X0099125Y0021675D01*
X0099125Y0023024D02*
X0099275Y0023024D01*
X0101625Y0024325D02*
X0101625Y0021675D01*
X0101625Y0024325D02*
X0101775Y0024325D01*
X0101775Y0021675D01*
X0101625Y0021675D01*
X0101625Y0023024D02*
X0101775Y0023024D01*
X0104125Y0024325D02*
X0104125Y0021675D01*
X0104125Y0024325D02*
X0104275Y0024325D01*
X0104275Y0021675D01*
X0104125Y0021675D01*
X0104125Y0023024D02*
X0104275Y0023024D01*
X0106625Y0024325D02*
X0106625Y0021675D01*
X0106625Y0024325D02*
X0106775Y0024325D01*
X0106775Y0021675D01*
X0106625Y0021675D01*
X0106625Y0023024D02*
X0106775Y0023024D01*
X0109125Y0024325D02*
X0109125Y0021675D01*
X0109125Y0024325D02*
X0109275Y0024325D01*
X0109275Y0021675D01*
X0109125Y0021675D01*
X0109125Y0023024D02*
X0109275Y0023024D01*
X0129125Y0019325D02*
X0129125Y0016675D01*
X0129125Y0019325D02*
X0129275Y0019325D01*
X0129275Y0016675D01*
X0129125Y0016675D01*
X0129125Y0018024D02*
X0129275Y0018024D01*
X0131625Y0019325D02*
X0131625Y0016675D01*
X0131625Y0019325D02*
X0131775Y0019325D01*
X0131775Y0016675D01*
X0131625Y0016675D01*
X0131625Y0018024D02*
X0131775Y0018024D01*
X0134125Y0019325D02*
X0134125Y0016675D01*
X0134125Y0019325D02*
X0134275Y0019325D01*
X0134275Y0016675D01*
X0134125Y0016675D01*
X0134125Y0018024D02*
X0134275Y0018024D01*
X0136625Y0019325D02*
X0136625Y0016675D01*
X0136625Y0019325D02*
X0136775Y0019325D01*
X0136775Y0016675D01*
X0136625Y0016675D01*
X0136625Y0018024D02*
X0136775Y0018024D01*
X0139125Y0019325D02*
X0139125Y0016675D01*
X0139125Y0019325D02*
X0139275Y0019325D01*
X0139275Y0016675D01*
X0139125Y0016675D01*
X0139125Y0018024D02*
X0139275Y0018024D01*
X0141625Y0019325D02*
X0141625Y0016675D01*
X0141625Y0019325D02*
X0141775Y0019325D01*
X0141775Y0016675D01*
X0141625Y0016675D01*
X0141625Y0018024D02*
X0141775Y0018024D01*
X0144125Y0019325D02*
X0144125Y0016675D01*
X0144125Y0019325D02*
X0144275Y0019325D01*
X0144275Y0016675D01*
X0144125Y0016675D01*
X0144125Y0018024D02*
X0144275Y0018024D01*
X0146625Y0019325D02*
X0146625Y0016675D01*
X0146625Y0019325D02*
X0146775Y0019325D01*
X0146775Y0016675D01*
X0146625Y0016675D01*
X0146625Y0018024D02*
X0146775Y0018024D01*
X0149125Y0019325D02*
X0149125Y0016675D01*
X0149125Y0019325D02*
X0149275Y0019325D01*
X0149275Y0016675D01*
X0149125Y0016675D01*
X0149125Y0018024D02*
X0149275Y0018024D01*
X0151625Y0019325D02*
X0151625Y0016675D01*
X0151625Y0019325D02*
X0151775Y0019325D01*
X0151775Y0016675D01*
X0151625Y0016675D01*
X0151625Y0018024D02*
X0151775Y0018024D01*
X0149125Y0021675D02*
X0149125Y0024325D01*
X0149275Y0024325D01*
X0149275Y0021675D01*
X0149125Y0021675D01*
X0149125Y0023024D02*
X0149275Y0023024D01*
X0146625Y0024325D02*
X0146625Y0021675D01*
X0146625Y0024325D02*
X0146775Y0024325D01*
X0146775Y0021675D01*
X0146625Y0021675D01*
X0146625Y0023024D02*
X0146775Y0023024D01*
X0144125Y0024325D02*
X0144125Y0021675D01*
X0144125Y0024325D02*
X0144275Y0024325D01*
X0144275Y0021675D01*
X0144125Y0021675D01*
X0144125Y0023024D02*
X0144275Y0023024D01*
X0141625Y0024325D02*
X0141625Y0021675D01*
X0141625Y0024325D02*
X0141775Y0024325D01*
X0141775Y0021675D01*
X0141625Y0021675D01*
X0141625Y0023024D02*
X0141775Y0023024D01*
X0139125Y0024325D02*
X0139125Y0021675D01*
X0139125Y0024325D02*
X0139275Y0024325D01*
X0139275Y0021675D01*
X0139125Y0021675D01*
X0139125Y0023024D02*
X0139275Y0023024D01*
X0136625Y0024325D02*
X0136625Y0021675D01*
X0136625Y0024325D02*
X0136775Y0024325D01*
X0136775Y0021675D01*
X0136625Y0021675D01*
X0136625Y0023024D02*
X0136775Y0023024D01*
X0134125Y0024325D02*
X0134125Y0021675D01*
X0134125Y0024325D02*
X0134275Y0024325D01*
X0134275Y0021675D01*
X0134125Y0021675D01*
X0134125Y0023024D02*
X0134275Y0023024D01*
X0131625Y0024325D02*
X0131625Y0021675D01*
X0131625Y0024325D02*
X0131775Y0024325D01*
X0131775Y0021675D01*
X0131625Y0021675D01*
X0131625Y0023024D02*
X0131775Y0023024D01*
X0071625Y0019325D02*
X0071625Y0016675D01*
X0071625Y0019325D02*
X0071775Y0019325D01*
X0071775Y0016675D01*
X0071625Y0016675D01*
X0071625Y0018024D02*
X0071775Y0018024D01*
X0069125Y0019325D02*
X0069125Y0016675D01*
X0069125Y0019325D02*
X0069275Y0019325D01*
X0069275Y0016675D01*
X0069125Y0016675D01*
X0069125Y0018024D02*
X0069275Y0018024D01*
X0066625Y0019325D02*
X0066625Y0016675D01*
X0066625Y0019325D02*
X0066775Y0019325D01*
X0066775Y0016675D01*
X0066625Y0016675D01*
X0066625Y0018024D02*
X0066775Y0018024D01*
X0064125Y0019325D02*
X0064125Y0016675D01*
X0064125Y0019325D02*
X0064275Y0019325D01*
X0064275Y0016675D01*
X0064125Y0016675D01*
X0064125Y0018024D02*
X0064275Y0018024D01*
X0061625Y0019325D02*
X0061625Y0016675D01*
X0061625Y0019325D02*
X0061775Y0019325D01*
X0061775Y0016675D01*
X0061625Y0016675D01*
X0061625Y0018024D02*
X0061775Y0018024D01*
X0059125Y0019325D02*
X0059125Y0016675D01*
X0059125Y0019325D02*
X0059275Y0019325D01*
X0059275Y0016675D01*
X0059125Y0016675D01*
X0059125Y0018024D02*
X0059275Y0018024D01*
X0056625Y0019325D02*
X0056625Y0016675D01*
X0056625Y0019325D02*
X0056775Y0019325D01*
X0056775Y0016675D01*
X0056625Y0016675D01*
X0056625Y0018024D02*
X0056775Y0018024D01*
X0054125Y0019325D02*
X0054125Y0016675D01*
X0054125Y0019325D02*
X0054275Y0019325D01*
X0054275Y0016675D01*
X0054125Y0016675D01*
X0054125Y0018024D02*
X0054275Y0018024D01*
X0051625Y0019325D02*
X0051625Y0016675D01*
X0051625Y0019325D02*
X0051775Y0019325D01*
X0051775Y0016675D01*
X0051625Y0016675D01*
X0051625Y0018024D02*
X0051775Y0018024D01*
X0049125Y0019325D02*
X0049125Y0016675D01*
X0049125Y0019325D02*
X0049275Y0019325D01*
X0049275Y0016675D01*
X0049125Y0016675D01*
X0049125Y0018024D02*
X0049275Y0018024D01*
X0051625Y0021675D02*
X0051625Y0024325D01*
X0051775Y0024325D01*
X0051775Y0021675D01*
X0051625Y0021675D01*
X0051625Y0023024D02*
X0051775Y0023024D01*
X0054125Y0024325D02*
X0054125Y0021675D01*
X0054125Y0024325D02*
X0054275Y0024325D01*
X0054275Y0021675D01*
X0054125Y0021675D01*
X0054125Y0023024D02*
X0054275Y0023024D01*
X0056625Y0024325D02*
X0056625Y0021675D01*
X0056625Y0024325D02*
X0056775Y0024325D01*
X0056775Y0021675D01*
X0056625Y0021675D01*
X0056625Y0023024D02*
X0056775Y0023024D01*
X0059125Y0024325D02*
X0059125Y0021675D01*
X0059125Y0024325D02*
X0059275Y0024325D01*
X0059275Y0021675D01*
X0059125Y0021675D01*
X0059125Y0023024D02*
X0059275Y0023024D01*
X0061625Y0024325D02*
X0061625Y0021675D01*
X0061625Y0024325D02*
X0061775Y0024325D01*
X0061775Y0021675D01*
X0061625Y0021675D01*
X0061625Y0023024D02*
X0061775Y0023024D01*
X0064125Y0024325D02*
X0064125Y0021675D01*
X0064125Y0024325D02*
X0064275Y0024325D01*
X0064275Y0021675D01*
X0064125Y0021675D01*
X0064125Y0023024D02*
X0064275Y0023024D01*
X0066625Y0024325D02*
X0066625Y0021675D01*
X0066625Y0024325D02*
X0066775Y0024325D01*
X0066775Y0021675D01*
X0066625Y0021675D01*
X0066625Y0023024D02*
X0066775Y0023024D01*
X0069125Y0024325D02*
X0069125Y0021675D01*
X0069125Y0024325D02*
X0069275Y0024325D01*
X0069275Y0021675D01*
X0069125Y0021675D01*
X0069125Y0023024D02*
X0069275Y0023024D01*
X0031625Y0019325D02*
X0031625Y0016675D01*
X0031625Y0019325D02*
X0031775Y0019325D01*
X0031775Y0016675D01*
X0031625Y0016675D01*
X0031625Y0018024D02*
X0031775Y0018024D01*
X0029125Y0019325D02*
X0029125Y0016675D01*
X0029125Y0019325D02*
X0029275Y0019325D01*
X0029275Y0016675D01*
X0029125Y0016675D01*
X0029125Y0018024D02*
X0029275Y0018024D01*
X0026625Y0019325D02*
X0026625Y0016675D01*
X0026625Y0019325D02*
X0026775Y0019325D01*
X0026775Y0016675D01*
X0026625Y0016675D01*
X0026625Y0018024D02*
X0026775Y0018024D01*
X0024125Y0019325D02*
X0024125Y0016675D01*
X0024125Y0019325D02*
X0024275Y0019325D01*
X0024275Y0016675D01*
X0024125Y0016675D01*
X0024125Y0018024D02*
X0024275Y0018024D01*
X0021625Y0019325D02*
X0021625Y0016675D01*
X0021625Y0019325D02*
X0021775Y0019325D01*
X0021775Y0016675D01*
X0021625Y0016675D01*
X0021625Y0018024D02*
X0021775Y0018024D01*
X0019125Y0019325D02*
X0019125Y0016675D01*
X0019125Y0019325D02*
X0019275Y0019325D01*
X0019275Y0016675D01*
X0019125Y0016675D01*
X0019125Y0018024D02*
X0019275Y0018024D01*
X0016625Y0019325D02*
X0016625Y0016675D01*
X0016625Y0019325D02*
X0016775Y0019325D01*
X0016775Y0016675D01*
X0016625Y0016675D01*
X0016625Y0018024D02*
X0016775Y0018024D01*
X0014125Y0019325D02*
X0014125Y0016675D01*
X0014125Y0019325D02*
X0014275Y0019325D01*
X0014275Y0016675D01*
X0014125Y0016675D01*
X0014125Y0018024D02*
X0014275Y0018024D01*
X0011625Y0019325D02*
X0011625Y0016675D01*
X0011625Y0019325D02*
X0011775Y0019325D01*
X0011775Y0016675D01*
X0011625Y0016675D01*
X0011625Y0018024D02*
X0011775Y0018024D01*
X0009125Y0019325D02*
X0009125Y0016675D01*
X0009125Y0019325D02*
X0009275Y0019325D01*
X0009275Y0016675D01*
X0009125Y0016675D01*
X0009125Y0018024D02*
X0009275Y0018024D01*
X0011625Y0021675D02*
X0011625Y0024325D01*
X0011775Y0024325D01*
X0011775Y0021675D01*
X0011625Y0021675D01*
X0011625Y0023024D02*
X0011775Y0023024D01*
X0014125Y0024325D02*
X0014125Y0021675D01*
X0014125Y0024325D02*
X0014275Y0024325D01*
X0014275Y0021675D01*
X0014125Y0021675D01*
X0014125Y0023024D02*
X0014275Y0023024D01*
X0016625Y0024325D02*
X0016625Y0021675D01*
X0016625Y0024325D02*
X0016775Y0024325D01*
X0016775Y0021675D01*
X0016625Y0021675D01*
X0016625Y0023024D02*
X0016775Y0023024D01*
X0019125Y0024325D02*
X0019125Y0021675D01*
X0019125Y0024325D02*
X0019275Y0024325D01*
X0019275Y0021675D01*
X0019125Y0021675D01*
X0019125Y0023024D02*
X0019275Y0023024D01*
X0021625Y0024325D02*
X0021625Y0021675D01*
X0021625Y0024325D02*
X0021775Y0024325D01*
X0021775Y0021675D01*
X0021625Y0021675D01*
X0021625Y0023024D02*
X0021775Y0023024D01*
X0024125Y0024325D02*
X0024125Y0021675D01*
X0024125Y0024325D02*
X0024275Y0024325D01*
X0024275Y0021675D01*
X0024125Y0021675D01*
X0024125Y0023024D02*
X0024275Y0023024D01*
X0026625Y0024325D02*
X0026625Y0021675D01*
X0026625Y0024325D02*
X0026775Y0024325D01*
X0026775Y0021675D01*
X0026625Y0021675D01*
X0026625Y0023024D02*
X0026775Y0023024D01*
X0029125Y0024325D02*
X0029125Y0021675D01*
X0029125Y0024325D02*
X0029275Y0024325D01*
X0029275Y0021675D01*
X0029125Y0021675D01*
X0029125Y0023024D02*
X0029275Y0023024D01*
X0029125Y0056675D02*
X0029125Y0059325D01*
X0029275Y0059325D01*
X0029275Y0056675D01*
X0029125Y0056675D01*
X0029125Y0058024D02*
X0029275Y0058024D01*
X0031625Y0059325D02*
X0031625Y0056675D01*
X0031625Y0059325D02*
X0031775Y0059325D01*
X0031775Y0056675D01*
X0031625Y0056675D01*
X0031625Y0058024D02*
X0031775Y0058024D01*
X0026625Y0059325D02*
X0026625Y0056675D01*
X0026625Y0059325D02*
X0026775Y0059325D01*
X0026775Y0056675D01*
X0026625Y0056675D01*
X0026625Y0058024D02*
X0026775Y0058024D01*
X0024125Y0059325D02*
X0024125Y0056675D01*
X0024125Y0059325D02*
X0024275Y0059325D01*
X0024275Y0056675D01*
X0024125Y0056675D01*
X0024125Y0058024D02*
X0024275Y0058024D01*
X0021625Y0059325D02*
X0021625Y0056675D01*
X0021625Y0059325D02*
X0021775Y0059325D01*
X0021775Y0056675D01*
X0021625Y0056675D01*
X0021625Y0058024D02*
X0021775Y0058024D01*
X0019125Y0059325D02*
X0019125Y0056675D01*
X0019125Y0059325D02*
X0019275Y0059325D01*
X0019275Y0056675D01*
X0019125Y0056675D01*
X0019125Y0058024D02*
X0019275Y0058024D01*
X0016625Y0059325D02*
X0016625Y0056675D01*
X0016625Y0059325D02*
X0016775Y0059325D01*
X0016775Y0056675D01*
X0016625Y0056675D01*
X0016625Y0058024D02*
X0016775Y0058024D01*
X0014125Y0059325D02*
X0014125Y0056675D01*
X0014125Y0059325D02*
X0014275Y0059325D01*
X0014275Y0056675D01*
X0014125Y0056675D01*
X0014125Y0058024D02*
X0014275Y0058024D01*
X0011625Y0059325D02*
X0011625Y0056675D01*
X0011625Y0059325D02*
X0011775Y0059325D01*
X0011775Y0056675D01*
X0011625Y0056675D01*
X0011625Y0058024D02*
X0011775Y0058024D01*
X0009125Y0059325D02*
X0009125Y0056675D01*
X0009125Y0059325D02*
X0009275Y0059325D01*
X0009275Y0056675D01*
X0009125Y0056675D01*
X0009125Y0058024D02*
X0009275Y0058024D01*
X0011625Y0061675D02*
X0011625Y0064325D01*
X0011775Y0064325D01*
X0011775Y0061675D01*
X0011625Y0061675D01*
X0011625Y0063024D02*
X0011775Y0063024D01*
X0014125Y0064325D02*
X0014125Y0061675D01*
X0014125Y0064325D02*
X0014275Y0064325D01*
X0014275Y0061675D01*
X0014125Y0061675D01*
X0014125Y0063024D02*
X0014275Y0063024D01*
X0016625Y0064325D02*
X0016625Y0061675D01*
X0016625Y0064325D02*
X0016775Y0064325D01*
X0016775Y0061675D01*
X0016625Y0061675D01*
X0016625Y0063024D02*
X0016775Y0063024D01*
X0019125Y0064325D02*
X0019125Y0061675D01*
X0019125Y0064325D02*
X0019275Y0064325D01*
X0019275Y0061675D01*
X0019125Y0061675D01*
X0019125Y0063024D02*
X0019275Y0063024D01*
X0021625Y0064325D02*
X0021625Y0061675D01*
X0021625Y0064325D02*
X0021775Y0064325D01*
X0021775Y0061675D01*
X0021625Y0061675D01*
X0021625Y0063024D02*
X0021775Y0063024D01*
X0024125Y0064325D02*
X0024125Y0061675D01*
X0024125Y0064325D02*
X0024275Y0064325D01*
X0024275Y0061675D01*
X0024125Y0061675D01*
X0024125Y0063024D02*
X0024275Y0063024D01*
X0026625Y0064325D02*
X0026625Y0061675D01*
X0026625Y0064325D02*
X0026775Y0064325D01*
X0026775Y0061675D01*
X0026625Y0061675D01*
X0026625Y0063024D02*
X0026775Y0063024D01*
X0029125Y0064325D02*
X0029125Y0061675D01*
X0029125Y0064325D02*
X0029275Y0064325D01*
X0029275Y0061675D01*
X0029125Y0061675D01*
X0029125Y0063024D02*
X0029275Y0063024D01*
X0049125Y0059325D02*
X0049125Y0056675D01*
X0049125Y0059325D02*
X0049275Y0059325D01*
X0049275Y0056675D01*
X0049125Y0056675D01*
X0049125Y0058024D02*
X0049275Y0058024D01*
X0051625Y0059325D02*
X0051625Y0056675D01*
X0051625Y0059325D02*
X0051775Y0059325D01*
X0051775Y0056675D01*
X0051625Y0056675D01*
X0051625Y0058024D02*
X0051775Y0058024D01*
X0054125Y0059325D02*
X0054125Y0056675D01*
X0054125Y0059325D02*
X0054275Y0059325D01*
X0054275Y0056675D01*
X0054125Y0056675D01*
X0054125Y0058024D02*
X0054275Y0058024D01*
X0056625Y0059325D02*
X0056625Y0056675D01*
X0056625Y0059325D02*
X0056775Y0059325D01*
X0056775Y0056675D01*
X0056625Y0056675D01*
X0056625Y0058024D02*
X0056775Y0058024D01*
X0059125Y0059325D02*
X0059125Y0056675D01*
X0059125Y0059325D02*
X0059275Y0059325D01*
X0059275Y0056675D01*
X0059125Y0056675D01*
X0059125Y0058024D02*
X0059275Y0058024D01*
X0061625Y0059325D02*
X0061625Y0056675D01*
X0061625Y0059325D02*
X0061775Y0059325D01*
X0061775Y0056675D01*
X0061625Y0056675D01*
X0061625Y0058024D02*
X0061775Y0058024D01*
X0064125Y0059325D02*
X0064125Y0056675D01*
X0064125Y0059325D02*
X0064275Y0059325D01*
X0064275Y0056675D01*
X0064125Y0056675D01*
X0064125Y0058024D02*
X0064275Y0058024D01*
X0066625Y0059325D02*
X0066625Y0056675D01*
X0066625Y0059325D02*
X0066775Y0059325D01*
X0066775Y0056675D01*
X0066625Y0056675D01*
X0066625Y0058024D02*
X0066775Y0058024D01*
X0069125Y0059325D02*
X0069125Y0056675D01*
X0069125Y0059325D02*
X0069275Y0059325D01*
X0069275Y0056675D01*
X0069125Y0056675D01*
X0069125Y0058024D02*
X0069275Y0058024D01*
X0071625Y0059325D02*
X0071625Y0056675D01*
X0071625Y0059325D02*
X0071775Y0059325D01*
X0071775Y0056675D01*
X0071625Y0056675D01*
X0071625Y0058024D02*
X0071775Y0058024D01*
X0069125Y0061675D02*
X0069125Y0064325D01*
X0069275Y0064325D01*
X0069275Y0061675D01*
X0069125Y0061675D01*
X0069125Y0063024D02*
X0069275Y0063024D01*
X0066625Y0064325D02*
X0066625Y0061675D01*
X0066625Y0064325D02*
X0066775Y0064325D01*
X0066775Y0061675D01*
X0066625Y0061675D01*
X0066625Y0063024D02*
X0066775Y0063024D01*
X0064125Y0064325D02*
X0064125Y0061675D01*
X0064125Y0064325D02*
X0064275Y0064325D01*
X0064275Y0061675D01*
X0064125Y0061675D01*
X0064125Y0063024D02*
X0064275Y0063024D01*
X0061625Y0064325D02*
X0061625Y0061675D01*
X0061625Y0064325D02*
X0061775Y0064325D01*
X0061775Y0061675D01*
X0061625Y0061675D01*
X0061625Y0063024D02*
X0061775Y0063024D01*
X0059125Y0064325D02*
X0059125Y0061675D01*
X0059125Y0064325D02*
X0059275Y0064325D01*
X0059275Y0061675D01*
X0059125Y0061675D01*
X0059125Y0063024D02*
X0059275Y0063024D01*
X0056625Y0064325D02*
X0056625Y0061675D01*
X0056625Y0064325D02*
X0056775Y0064325D01*
X0056775Y0061675D01*
X0056625Y0061675D01*
X0056625Y0063024D02*
X0056775Y0063024D01*
X0054125Y0064325D02*
X0054125Y0061675D01*
X0054125Y0064325D02*
X0054275Y0064325D01*
X0054275Y0061675D01*
X0054125Y0061675D01*
X0054125Y0063024D02*
X0054275Y0063024D01*
X0051625Y0064325D02*
X0051625Y0061675D01*
X0051625Y0064325D02*
X0051775Y0064325D01*
X0051775Y0061675D01*
X0051625Y0061675D01*
X0051625Y0063024D02*
X0051775Y0063024D01*
X0089125Y0059325D02*
X0089125Y0056675D01*
X0089125Y0059325D02*
X0089275Y0059325D01*
X0089275Y0056675D01*
X0089125Y0056675D01*
X0089125Y0058024D02*
X0089275Y0058024D01*
X0091625Y0059325D02*
X0091625Y0056675D01*
X0091625Y0059325D02*
X0091775Y0059325D01*
X0091775Y0056675D01*
X0091625Y0056675D01*
X0091625Y0058024D02*
X0091775Y0058024D01*
X0094125Y0059325D02*
X0094125Y0056675D01*
X0094125Y0059325D02*
X0094275Y0059325D01*
X0094275Y0056675D01*
X0094125Y0056675D01*
X0094125Y0058024D02*
X0094275Y0058024D01*
X0096625Y0059325D02*
X0096625Y0056675D01*
X0096625Y0059325D02*
X0096775Y0059325D01*
X0096775Y0056675D01*
X0096625Y0056675D01*
X0096625Y0058024D02*
X0096775Y0058024D01*
X0099125Y0059325D02*
X0099125Y0056675D01*
X0099125Y0059325D02*
X0099275Y0059325D01*
X0099275Y0056675D01*
X0099125Y0056675D01*
X0099125Y0058024D02*
X0099275Y0058024D01*
X0101625Y0059325D02*
X0101625Y0056675D01*
X0101625Y0059325D02*
X0101775Y0059325D01*
X0101775Y0056675D01*
X0101625Y0056675D01*
X0101625Y0058024D02*
X0101775Y0058024D01*
X0104125Y0059325D02*
X0104125Y0056675D01*
X0104125Y0059325D02*
X0104275Y0059325D01*
X0104275Y0056675D01*
X0104125Y0056675D01*
X0104125Y0058024D02*
X0104275Y0058024D01*
X0106625Y0059325D02*
X0106625Y0056675D01*
X0106625Y0059325D02*
X0106775Y0059325D01*
X0106775Y0056675D01*
X0106625Y0056675D01*
X0106625Y0058024D02*
X0106775Y0058024D01*
X0109125Y0059325D02*
X0109125Y0056675D01*
X0109125Y0059325D02*
X0109275Y0059325D01*
X0109275Y0056675D01*
X0109125Y0056675D01*
X0109125Y0058024D02*
X0109275Y0058024D01*
X0111625Y0059325D02*
X0111625Y0056675D01*
X0111625Y0059325D02*
X0111775Y0059325D01*
X0111775Y0056675D01*
X0111625Y0056675D01*
X0111625Y0058024D02*
X0111775Y0058024D01*
X0109125Y0061675D02*
X0109125Y0064325D01*
X0109275Y0064325D01*
X0109275Y0061675D01*
X0109125Y0061675D01*
X0109125Y0063024D02*
X0109275Y0063024D01*
X0106625Y0064325D02*
X0106625Y0061675D01*
X0106625Y0064325D02*
X0106775Y0064325D01*
X0106775Y0061675D01*
X0106625Y0061675D01*
X0106625Y0063024D02*
X0106775Y0063024D01*
X0104125Y0064325D02*
X0104125Y0061675D01*
X0104125Y0064325D02*
X0104275Y0064325D01*
X0104275Y0061675D01*
X0104125Y0061675D01*
X0104125Y0063024D02*
X0104275Y0063024D01*
X0101625Y0064325D02*
X0101625Y0061675D01*
X0101625Y0064325D02*
X0101775Y0064325D01*
X0101775Y0061675D01*
X0101625Y0061675D01*
X0101625Y0063024D02*
X0101775Y0063024D01*
X0099125Y0064325D02*
X0099125Y0061675D01*
X0099125Y0064325D02*
X0099275Y0064325D01*
X0099275Y0061675D01*
X0099125Y0061675D01*
X0099125Y0063024D02*
X0099275Y0063024D01*
X0096625Y0064325D02*
X0096625Y0061675D01*
X0096625Y0064325D02*
X0096775Y0064325D01*
X0096775Y0061675D01*
X0096625Y0061675D01*
X0096625Y0063024D02*
X0096775Y0063024D01*
X0094125Y0064325D02*
X0094125Y0061675D01*
X0094125Y0064325D02*
X0094275Y0064325D01*
X0094275Y0061675D01*
X0094125Y0061675D01*
X0094125Y0063024D02*
X0094275Y0063024D01*
X0091625Y0064325D02*
X0091625Y0061675D01*
X0091625Y0064325D02*
X0091775Y0064325D01*
X0091775Y0061675D01*
X0091625Y0061675D01*
X0091625Y0063024D02*
X0091775Y0063024D01*
X0129125Y0059325D02*
X0129125Y0056675D01*
X0129125Y0059325D02*
X0129275Y0059325D01*
X0129275Y0056675D01*
X0129125Y0056675D01*
X0129125Y0058024D02*
X0129275Y0058024D01*
X0131625Y0059325D02*
X0131625Y0056675D01*
X0131625Y0059325D02*
X0131775Y0059325D01*
X0131775Y0056675D01*
X0131625Y0056675D01*
X0131625Y0058024D02*
X0131775Y0058024D01*
X0134125Y0059325D02*
X0134125Y0056675D01*
X0134125Y0059325D02*
X0134275Y0059325D01*
X0134275Y0056675D01*
X0134125Y0056675D01*
X0134125Y0058024D02*
X0134275Y0058024D01*
X0136625Y0059325D02*
X0136625Y0056675D01*
X0136625Y0059325D02*
X0136775Y0059325D01*
X0136775Y0056675D01*
X0136625Y0056675D01*
X0136625Y0058024D02*
X0136775Y0058024D01*
X0139125Y0059325D02*
X0139125Y0056675D01*
X0139125Y0059325D02*
X0139275Y0059325D01*
X0139275Y0056675D01*
X0139125Y0056675D01*
X0139125Y0058024D02*
X0139275Y0058024D01*
X0141625Y0059325D02*
X0141625Y0056675D01*
X0141625Y0059325D02*
X0141775Y0059325D01*
X0141775Y0056675D01*
X0141625Y0056675D01*
X0141625Y0058024D02*
X0141775Y0058024D01*
X0144125Y0059325D02*
X0144125Y0056675D01*
X0144125Y0059325D02*
X0144275Y0059325D01*
X0144275Y0056675D01*
X0144125Y0056675D01*
X0144125Y0058024D02*
X0144275Y0058024D01*
X0146625Y0059325D02*
X0146625Y0056675D01*
X0146625Y0059325D02*
X0146775Y0059325D01*
X0146775Y0056675D01*
X0146625Y0056675D01*
X0146625Y0058024D02*
X0146775Y0058024D01*
X0149125Y0059325D02*
X0149125Y0056675D01*
X0149125Y0059325D02*
X0149275Y0059325D01*
X0149275Y0056675D01*
X0149125Y0056675D01*
X0149125Y0058024D02*
X0149275Y0058024D01*
X0151625Y0059325D02*
X0151625Y0056675D01*
X0151625Y0059325D02*
X0151775Y0059325D01*
X0151775Y0056675D01*
X0151625Y0056675D01*
X0151625Y0058024D02*
X0151775Y0058024D01*
X0149125Y0061675D02*
X0149125Y0064325D01*
X0149275Y0064325D01*
X0149275Y0061675D01*
X0149125Y0061675D01*
X0149125Y0063024D02*
X0149275Y0063024D01*
X0146625Y0064325D02*
X0146625Y0061675D01*
X0146625Y0064325D02*
X0146775Y0064325D01*
X0146775Y0061675D01*
X0146625Y0061675D01*
X0146625Y0063024D02*
X0146775Y0063024D01*
X0144125Y0064325D02*
X0144125Y0061675D01*
X0144125Y0064325D02*
X0144275Y0064325D01*
X0144275Y0061675D01*
X0144125Y0061675D01*
X0144125Y0063024D02*
X0144275Y0063024D01*
X0141625Y0064325D02*
X0141625Y0061675D01*
X0141625Y0064325D02*
X0141775Y0064325D01*
X0141775Y0061675D01*
X0141625Y0061675D01*
X0141625Y0063024D02*
X0141775Y0063024D01*
X0139125Y0064325D02*
X0139125Y0061675D01*
X0139125Y0064325D02*
X0139275Y0064325D01*
X0139275Y0061675D01*
X0139125Y0061675D01*
X0139125Y0063024D02*
X0139275Y0063024D01*
X0136625Y0064325D02*
X0136625Y0061675D01*
X0136625Y0064325D02*
X0136775Y0064325D01*
X0136775Y0061675D01*
X0136625Y0061675D01*
X0136625Y0063024D02*
X0136775Y0063024D01*
X0134125Y0064325D02*
X0134125Y0061675D01*
X0134125Y0064325D02*
X0134275Y0064325D01*
X0134275Y0061675D01*
X0134125Y0061675D01*
X0134125Y0063024D02*
X0134275Y0063024D01*
X0131625Y0064325D02*
X0131625Y0061675D01*
X0131625Y0064325D02*
X0131775Y0064325D01*
X0131775Y0061675D01*
X0131625Y0061675D01*
X0131625Y0063024D02*
X0131775Y0063024D01*
D12*
X0131700Y0063000D02*
X0131625Y0062750D01*
X0129125Y0062750D01*
X0134125Y0063375D02*
X0134200Y0063000D01*
X0134125Y0063375D02*
X0134125Y0069000D01*
X0131625Y0071500D01*
X0134750Y0071500D02*
X0136000Y0070250D01*
X0136000Y0064000D01*
X0136625Y0063375D01*
X0136700Y0063000D01*
X0139125Y0063375D02*
X0139200Y0063000D01*
X0139125Y0063375D02*
X0139125Y0067125D01*
X0137250Y0069000D01*
X0137250Y0072750D01*
X0147250Y0072750D01*
X0152875Y0067125D01*
X0152875Y0063375D01*
X0152250Y0062750D01*
X0149750Y0063375D02*
X0149200Y0063000D01*
X0149750Y0063375D02*
X0149750Y0065875D01*
X0150375Y0066500D01*
X0146625Y0063375D02*
X0146625Y0069625D01*
X0146000Y0070250D01*
X0144125Y0069000D02*
X0144125Y0063375D01*
X0144200Y0063000D01*
X0141700Y0063000D02*
X0141625Y0063375D01*
X0141625Y0068375D01*
X0139750Y0070250D01*
X0142875Y0070250D02*
X0144125Y0069000D01*
X0146625Y0063375D02*
X0146700Y0063000D01*
X0154125Y0057750D02*
X0154750Y0058375D01*
X0154125Y0057750D02*
X0154125Y0051500D01*
X0151000Y0048375D01*
X0137250Y0048375D01*
X0137250Y0054625D01*
X0139125Y0056500D01*
X0139125Y0057750D01*
X0139200Y0058000D01*
X0141625Y0057750D02*
X0141700Y0058000D01*
X0141625Y0057750D02*
X0141625Y0052750D01*
X0139750Y0050875D01*
X0142875Y0050875D02*
X0144125Y0052125D01*
X0144125Y0057750D01*
X0144200Y0058000D01*
X0146625Y0057750D02*
X0146700Y0058000D01*
X0146625Y0057750D02*
X0146625Y0051500D01*
X0146000Y0050875D01*
X0150375Y0050875D02*
X0152875Y0053375D01*
X0152875Y0057125D01*
X0152250Y0057750D01*
X0151700Y0058000D01*
X0149750Y0057750D02*
X0149200Y0058000D01*
X0149750Y0057750D02*
X0149750Y0054625D01*
X0150375Y0054000D01*
X0136700Y0058000D02*
X0136625Y0057750D01*
X0136000Y0057125D01*
X0136000Y0050250D01*
X0134750Y0049000D01*
X0134125Y0051500D02*
X0131625Y0049000D01*
X0134125Y0051500D02*
X0134125Y0057750D01*
X0134200Y0058000D01*
X0131700Y0058000D02*
X0131625Y0057750D01*
X0131625Y0054625D01*
X0127250Y0054625D01*
X0129200Y0058000D02*
X0129125Y0058375D01*
X0126625Y0058375D01*
X0114750Y0058375D02*
X0114125Y0057750D01*
X0114125Y0051500D01*
X0111000Y0048375D01*
X0097250Y0048375D01*
X0097250Y0054625D01*
X0099125Y0056500D01*
X0099125Y0057750D01*
X0099200Y0058000D01*
X0096700Y0058000D02*
X0096625Y0057750D01*
X0096000Y0057125D01*
X0096000Y0050250D01*
X0094750Y0049000D01*
X0094125Y0051500D02*
X0091625Y0049000D01*
X0094125Y0051500D02*
X0094125Y0057750D01*
X0094200Y0058000D01*
X0091700Y0058000D02*
X0091625Y0057750D01*
X0091625Y0054625D01*
X0087250Y0054625D01*
X0089200Y0058000D02*
X0089125Y0058375D01*
X0086625Y0058375D01*
X0089125Y0062750D02*
X0091625Y0062750D01*
X0091700Y0063000D01*
X0094125Y0063375D02*
X0094200Y0063000D01*
X0094125Y0063375D02*
X0094125Y0069000D01*
X0091625Y0071500D01*
X0094750Y0071500D02*
X0096000Y0070250D01*
X0096000Y0064000D01*
X0096625Y0063375D01*
X0096700Y0063000D01*
X0099125Y0063375D02*
X0099200Y0063000D01*
X0099125Y0063375D02*
X0099125Y0067125D01*
X0097250Y0069000D01*
X0097250Y0072750D01*
X0107250Y0072750D01*
X0112875Y0067125D01*
X0112875Y0063375D01*
X0112250Y0062750D01*
X0109750Y0063375D02*
X0109200Y0063000D01*
X0109750Y0063375D02*
X0109750Y0065875D01*
X0110375Y0066500D01*
X0106625Y0063375D02*
X0106625Y0069625D01*
X0106000Y0070250D01*
X0104125Y0069000D02*
X0104125Y0063375D01*
X0104200Y0063000D01*
X0101700Y0063000D02*
X0101625Y0063375D01*
X0101625Y0068375D01*
X0099750Y0070250D01*
X0102875Y0070250D02*
X0104125Y0069000D01*
X0106625Y0063375D02*
X0106700Y0063000D01*
X0106700Y0058000D02*
X0106625Y0057750D01*
X0106625Y0051500D01*
X0106000Y0050875D01*
X0104125Y0052125D02*
X0104125Y0057750D01*
X0104200Y0058000D01*
X0101700Y0058000D02*
X0101625Y0057750D01*
X0101625Y0052750D01*
X0099750Y0050875D01*
X0102875Y0050875D02*
X0104125Y0052125D01*
X0109750Y0054625D02*
X0110375Y0054000D01*
X0109750Y0054625D02*
X0109750Y0057750D01*
X0109200Y0058000D01*
X0111700Y0058000D02*
X0112250Y0057750D01*
X0112875Y0057125D01*
X0112875Y0053375D01*
X0110375Y0050875D01*
X0107250Y0032750D02*
X0097250Y0032750D01*
X0097250Y0029000D01*
X0099125Y0027125D01*
X0099125Y0023375D01*
X0099200Y0023000D01*
X0096700Y0023000D02*
X0096625Y0023375D01*
X0096000Y0024000D01*
X0096000Y0030250D01*
X0094750Y0031500D01*
X0094125Y0029000D02*
X0091625Y0031500D01*
X0094125Y0029000D02*
X0094125Y0023375D01*
X0094200Y0023000D01*
X0091700Y0023000D02*
X0091625Y0022750D01*
X0089125Y0022750D01*
X0089125Y0018375D02*
X0086625Y0018375D01*
X0089125Y0018375D02*
X0089200Y0018000D01*
X0091625Y0017750D02*
X0091700Y0018000D01*
X0091625Y0017750D02*
X0091625Y0014625D01*
X0087250Y0014625D01*
X0091625Y0009000D02*
X0094125Y0011500D01*
X0094125Y0017750D01*
X0094200Y0018000D01*
X0096000Y0017125D02*
X0096625Y0017750D01*
X0096700Y0018000D01*
X0096000Y0017125D02*
X0096000Y0010250D01*
X0094750Y0009000D01*
X0097250Y0008375D02*
X0097250Y0014625D01*
X0099125Y0016500D01*
X0099125Y0017750D01*
X0099200Y0018000D01*
X0101625Y0017750D02*
X0101700Y0018000D01*
X0101625Y0017750D02*
X0101625Y0012750D01*
X0099750Y0010875D01*
X0102875Y0010875D02*
X0104125Y0012125D01*
X0104125Y0017750D01*
X0104200Y0018000D01*
X0106625Y0017750D02*
X0106700Y0018000D01*
X0106625Y0017750D02*
X0106625Y0011500D01*
X0106000Y0010875D01*
X0110375Y0010875D02*
X0112875Y0013375D01*
X0112875Y0017125D01*
X0112250Y0017750D01*
X0111700Y0018000D01*
X0109750Y0017750D02*
X0109200Y0018000D01*
X0109750Y0017750D02*
X0109750Y0014625D01*
X0110375Y0014000D01*
X0114125Y0011500D02*
X0111000Y0008375D01*
X0097250Y0008375D01*
X0114125Y0011500D02*
X0114125Y0017750D01*
X0114750Y0018375D01*
X0112250Y0022750D02*
X0112875Y0023375D01*
X0112875Y0027125D01*
X0107250Y0032750D01*
X0106000Y0030250D02*
X0106625Y0029625D01*
X0106625Y0023375D01*
X0106700Y0023000D01*
X0109200Y0023000D02*
X0109750Y0023375D01*
X0109750Y0025875D01*
X0110375Y0026500D01*
X0104125Y0029000D02*
X0104125Y0023375D01*
X0104200Y0023000D01*
X0101700Y0023000D02*
X0101625Y0023375D01*
X0101625Y0028375D01*
X0099750Y0030250D01*
X0102875Y0030250D02*
X0104125Y0029000D01*
X0126625Y0018375D02*
X0129125Y0018375D01*
X0129200Y0018000D01*
X0131625Y0017750D02*
X0131700Y0018000D01*
X0131625Y0017750D02*
X0131625Y0014625D01*
X0127250Y0014625D01*
X0131625Y0009000D02*
X0134125Y0011500D01*
X0134125Y0017750D01*
X0134200Y0018000D01*
X0136000Y0017125D02*
X0136625Y0017750D01*
X0136700Y0018000D01*
X0136000Y0017125D02*
X0136000Y0010250D01*
X0134750Y0009000D01*
X0137250Y0008375D02*
X0137250Y0014625D01*
X0139125Y0016500D01*
X0139125Y0017750D01*
X0139200Y0018000D01*
X0141625Y0017750D02*
X0141700Y0018000D01*
X0141625Y0017750D02*
X0141625Y0012750D01*
X0139750Y0010875D01*
X0142875Y0010875D02*
X0144125Y0012125D01*
X0144125Y0017750D01*
X0144200Y0018000D01*
X0146625Y0017750D02*
X0146700Y0018000D01*
X0146625Y0017750D02*
X0146625Y0011500D01*
X0146000Y0010875D01*
X0150375Y0010875D02*
X0152875Y0013375D01*
X0152875Y0017125D01*
X0152250Y0017750D01*
X0151700Y0018000D01*
X0149750Y0017750D02*
X0149200Y0018000D01*
X0149750Y0017750D02*
X0149750Y0014625D01*
X0150375Y0014000D01*
X0154125Y0011500D02*
X0151000Y0008375D01*
X0137250Y0008375D01*
X0154125Y0011500D02*
X0154125Y0017750D01*
X0154750Y0018375D01*
X0152250Y0022750D02*
X0152875Y0023375D01*
X0152875Y0027125D01*
X0147250Y0032750D01*
X0137250Y0032750D01*
X0137250Y0029000D01*
X0139125Y0027125D01*
X0139125Y0023375D01*
X0139200Y0023000D01*
X0141625Y0023375D02*
X0141700Y0023000D01*
X0141625Y0023375D02*
X0141625Y0028375D01*
X0139750Y0030250D01*
X0142875Y0030250D02*
X0144125Y0029000D01*
X0144125Y0023375D01*
X0144200Y0023000D01*
X0146625Y0023375D02*
X0146700Y0023000D01*
X0146625Y0023375D02*
X0146625Y0029625D01*
X0146000Y0030250D01*
X0149750Y0025875D02*
X0150375Y0026500D01*
X0149750Y0025875D02*
X0149750Y0023375D01*
X0149200Y0023000D01*
X0136700Y0023000D02*
X0136625Y0023375D01*
X0136000Y0024000D01*
X0136000Y0030250D01*
X0134750Y0031500D01*
X0134125Y0029000D02*
X0131625Y0031500D01*
X0134125Y0029000D02*
X0134125Y0023375D01*
X0134200Y0023000D01*
X0131700Y0023000D02*
X0131625Y0022750D01*
X0129125Y0022750D01*
X0074750Y0018375D02*
X0074125Y0017750D01*
X0074125Y0011500D01*
X0071000Y0008375D01*
X0057250Y0008375D01*
X0057250Y0014625D01*
X0059125Y0016500D01*
X0059125Y0017750D01*
X0059200Y0018000D01*
X0056700Y0018000D02*
X0056625Y0017750D01*
X0056000Y0017125D01*
X0056000Y0010250D01*
X0054750Y0009000D01*
X0054125Y0011500D02*
X0051625Y0009000D01*
X0054125Y0011500D02*
X0054125Y0017750D01*
X0054200Y0018000D01*
X0051700Y0018000D02*
X0051625Y0017750D01*
X0051625Y0014625D01*
X0047250Y0014625D01*
X0046625Y0018375D02*
X0049125Y0018375D01*
X0049200Y0018000D01*
X0049125Y0022750D02*
X0051625Y0022750D01*
X0051700Y0023000D01*
X0054125Y0023375D02*
X0054200Y0023000D01*
X0054125Y0023375D02*
X0054125Y0029000D01*
X0051625Y0031500D01*
X0054750Y0031500D02*
X0056000Y0030250D01*
X0056000Y0024000D01*
X0056625Y0023375D01*
X0056700Y0023000D01*
X0059125Y0023375D02*
X0059200Y0023000D01*
X0059125Y0023375D02*
X0059125Y0027125D01*
X0057250Y0029000D01*
X0057250Y0032750D01*
X0067250Y0032750D01*
X0072875Y0027125D01*
X0072875Y0023375D01*
X0072250Y0022750D01*
X0069750Y0023375D02*
X0069200Y0023000D01*
X0069750Y0023375D02*
X0069750Y0025875D01*
X0070375Y0026500D01*
X0066625Y0023375D02*
X0066700Y0023000D01*
X0066625Y0023375D02*
X0066625Y0029625D01*
X0066000Y0030250D01*
X0064125Y0029000D02*
X0062875Y0030250D01*
X0064125Y0029000D02*
X0064125Y0023375D01*
X0064200Y0023000D01*
X0061700Y0023000D02*
X0061625Y0023375D01*
X0061625Y0028375D01*
X0059750Y0030250D01*
X0061700Y0018000D02*
X0061625Y0017750D01*
X0061625Y0012750D01*
X0059750Y0010875D01*
X0062875Y0010875D02*
X0064125Y0012125D01*
X0064125Y0017750D01*
X0064200Y0018000D01*
X0066625Y0017750D02*
X0066700Y0018000D01*
X0066625Y0017750D02*
X0066625Y0011500D01*
X0066000Y0010875D01*
X0070375Y0010875D02*
X0072875Y0013375D01*
X0072875Y0017125D01*
X0072250Y0017750D01*
X0071700Y0018000D01*
X0069750Y0017750D02*
X0069200Y0018000D01*
X0069750Y0017750D02*
X0069750Y0014625D01*
X0070375Y0014000D01*
X0034750Y0018375D02*
X0034125Y0017750D01*
X0034125Y0011500D01*
X0031000Y0008375D01*
X0017250Y0008375D01*
X0017250Y0014625D01*
X0019125Y0016500D01*
X0019125Y0017750D01*
X0019200Y0018000D01*
X0016700Y0018000D02*
X0016625Y0017750D01*
X0016000Y0017125D01*
X0016000Y0010250D01*
X0014750Y0009000D01*
X0014125Y0011500D02*
X0011625Y0009000D01*
X0014125Y0011500D02*
X0014125Y0017750D01*
X0014200Y0018000D01*
X0011700Y0018000D02*
X0011625Y0017750D01*
X0011625Y0014625D01*
X0007250Y0014625D01*
X0006625Y0018375D02*
X0009125Y0018375D01*
X0009200Y0018000D01*
X0009125Y0022750D02*
X0011625Y0022750D01*
X0011700Y0023000D01*
X0014125Y0023375D02*
X0014200Y0023000D01*
X0014125Y0023375D02*
X0014125Y0029000D01*
X0011625Y0031500D01*
X0014750Y0031500D02*
X0016000Y0030250D01*
X0016000Y0024000D01*
X0016625Y0023375D01*
X0016700Y0023000D01*
X0019125Y0023375D02*
X0019200Y0023000D01*
X0019125Y0023375D02*
X0019125Y0027125D01*
X0017250Y0029000D01*
X0017250Y0032750D01*
X0027250Y0032750D01*
X0032875Y0027125D01*
X0032875Y0023375D01*
X0032250Y0022750D01*
X0029750Y0023375D02*
X0029200Y0023000D01*
X0029750Y0023375D02*
X0029750Y0025875D01*
X0030375Y0026500D01*
X0026625Y0023375D02*
X0026700Y0023000D01*
X0026625Y0023375D02*
X0026625Y0029625D01*
X0026000Y0030250D01*
X0024125Y0029000D02*
X0024125Y0023375D01*
X0024200Y0023000D01*
X0021700Y0023000D02*
X0021625Y0023375D01*
X0021625Y0028375D01*
X0019750Y0030250D01*
X0022875Y0030250D02*
X0024125Y0029000D01*
X0024200Y0018000D02*
X0024125Y0017750D01*
X0024125Y0012125D01*
X0022875Y0010875D01*
X0021625Y0012750D02*
X0021625Y0017750D01*
X0021700Y0018000D01*
X0026625Y0017750D02*
X0026700Y0018000D01*
X0026625Y0017750D02*
X0026625Y0011500D01*
X0026000Y0010875D01*
X0030375Y0010875D02*
X0032875Y0013375D01*
X0032875Y0017125D01*
X0032250Y0017750D01*
X0031700Y0018000D01*
X0029750Y0017750D02*
X0029200Y0018000D01*
X0029750Y0017750D02*
X0029750Y0014625D01*
X0030375Y0014000D01*
X0021625Y0012750D02*
X0019750Y0010875D01*
X0017250Y0048375D02*
X0017250Y0054625D01*
X0019125Y0056500D01*
X0019125Y0057750D01*
X0019200Y0058000D01*
X0016700Y0058000D02*
X0016625Y0057750D01*
X0016000Y0057125D01*
X0016000Y0050250D01*
X0014750Y0049000D01*
X0017250Y0048375D02*
X0031000Y0048375D01*
X0034125Y0051500D01*
X0034125Y0057750D01*
X0034750Y0058375D01*
X0032875Y0057125D02*
X0032250Y0057750D01*
X0031700Y0058000D01*
X0032875Y0057125D02*
X0032875Y0053375D01*
X0030375Y0050875D01*
X0026625Y0051500D02*
X0026000Y0050875D01*
X0026625Y0051500D02*
X0026625Y0057750D01*
X0026700Y0058000D01*
X0024200Y0058000D02*
X0024125Y0057750D01*
X0024125Y0052125D01*
X0022875Y0050875D01*
X0021625Y0052750D02*
X0019750Y0050875D01*
X0021625Y0052750D02*
X0021625Y0057750D01*
X0021700Y0058000D01*
X0014200Y0058000D02*
X0014125Y0057750D01*
X0014125Y0051500D01*
X0011625Y0049000D01*
X0011625Y0054625D02*
X0007250Y0054625D01*
X0011625Y0054625D02*
X0011625Y0057750D01*
X0011700Y0058000D01*
X0009200Y0058000D02*
X0009125Y0058375D01*
X0006625Y0058375D01*
X0009125Y0062750D02*
X0011625Y0062750D01*
X0011700Y0063000D01*
X0014125Y0063375D02*
X0014200Y0063000D01*
X0014125Y0063375D02*
X0014125Y0069000D01*
X0011625Y0071500D01*
X0014750Y0071500D02*
X0016000Y0070250D01*
X0016000Y0064000D01*
X0016625Y0063375D01*
X0016700Y0063000D01*
X0019125Y0063375D02*
X0019200Y0063000D01*
X0019125Y0063375D02*
X0019125Y0067125D01*
X0017250Y0069000D01*
X0017250Y0072750D01*
X0027250Y0072750D01*
X0032875Y0067125D01*
X0032875Y0063375D01*
X0032250Y0062750D01*
X0029750Y0063375D02*
X0029200Y0063000D01*
X0029750Y0063375D02*
X0029750Y0065875D01*
X0030375Y0066500D01*
X0026625Y0063375D02*
X0026625Y0069625D01*
X0026000Y0070250D01*
X0024125Y0069000D02*
X0024125Y0063375D01*
X0024200Y0063000D01*
X0026625Y0063375D02*
X0026700Y0063000D01*
X0021700Y0063000D02*
X0021625Y0063375D01*
X0021625Y0068375D01*
X0019750Y0070250D01*
X0022875Y0070250D02*
X0024125Y0069000D01*
X0029200Y0058000D02*
X0029750Y0057750D01*
X0029750Y0054625D01*
X0030375Y0054000D01*
X0046625Y0058375D02*
X0049125Y0058375D01*
X0049200Y0058000D01*
X0051625Y0057750D02*
X0051700Y0058000D01*
X0051625Y0057750D02*
X0051625Y0054625D01*
X0047250Y0054625D01*
X0051625Y0049000D02*
X0054125Y0051500D01*
X0054125Y0057750D01*
X0054200Y0058000D01*
X0056000Y0057125D02*
X0056625Y0057750D01*
X0056700Y0058000D01*
X0056000Y0057125D02*
X0056000Y0050250D01*
X0054750Y0049000D01*
X0057250Y0048375D02*
X0057250Y0054625D01*
X0059125Y0056500D01*
X0059125Y0057750D01*
X0059200Y0058000D01*
X0061625Y0057750D02*
X0061700Y0058000D01*
X0061625Y0057750D02*
X0061625Y0052750D01*
X0059750Y0050875D01*
X0062875Y0050875D02*
X0064125Y0052125D01*
X0064125Y0057750D01*
X0064200Y0058000D01*
X0066625Y0057750D02*
X0066700Y0058000D01*
X0066625Y0057750D02*
X0066625Y0051500D01*
X0066000Y0050875D01*
X0070375Y0050875D02*
X0072875Y0053375D01*
X0072875Y0057125D01*
X0072250Y0057750D01*
X0071700Y0058000D01*
X0069750Y0057750D02*
X0069200Y0058000D01*
X0069750Y0057750D02*
X0069750Y0054625D01*
X0070375Y0054000D01*
X0074125Y0051500D02*
X0071000Y0048375D01*
X0057250Y0048375D01*
X0074125Y0051500D02*
X0074125Y0057750D01*
X0074750Y0058375D01*
X0072250Y0062750D02*
X0072875Y0063375D01*
X0072875Y0067125D01*
X0067250Y0072750D01*
X0057250Y0072750D01*
X0057250Y0069000D01*
X0059125Y0067125D01*
X0059125Y0063375D01*
X0059200Y0063000D01*
X0056700Y0063000D02*
X0056625Y0063375D01*
X0056000Y0064000D01*
X0056000Y0070250D01*
X0054750Y0071500D01*
X0054125Y0069000D02*
X0051625Y0071500D01*
X0054125Y0069000D02*
X0054125Y0063375D01*
X0054200Y0063000D01*
X0051700Y0063000D02*
X0051625Y0062750D01*
X0049125Y0062750D01*
X0061625Y0063375D02*
X0061700Y0063000D01*
X0061625Y0063375D02*
X0061625Y0068375D01*
X0059750Y0070250D01*
X0062875Y0070250D02*
X0064125Y0069000D01*
X0064125Y0063375D01*
X0064200Y0063000D01*
X0066625Y0063375D02*
X0066700Y0063000D01*
X0066625Y0063375D02*
X0066625Y0069625D01*
X0066000Y0070250D01*
X0069750Y0065875D02*
X0070375Y0066500D01*
X0069750Y0065875D02*
X0069750Y0063375D01*
X0069200Y0063000D01*
D13*
X0072250Y0062750D03*
X0070375Y0066500D03*
X0066000Y0070250D03*
X0062875Y0070250D03*
X0059750Y0070250D03*
X0054750Y0071500D03*
X0051625Y0071500D03*
X0049125Y0062750D03*
X0046625Y0058375D03*
X0047250Y0054625D03*
X0051625Y0049000D03*
X0054750Y0049000D03*
X0059750Y0050875D03*
X0062875Y0050875D03*
X0066000Y0050875D03*
X0070375Y0050875D03*
X0070375Y0054000D03*
X0074750Y0058375D03*
X0086625Y0058375D03*
X0087250Y0054625D03*
X0091625Y0049000D03*
X0094750Y0049000D03*
X0099750Y0050875D03*
X0102875Y0050875D03*
X0106000Y0050875D03*
X0110375Y0050875D03*
X0110375Y0054000D03*
X0114750Y0058375D03*
X0112250Y0062750D03*
X0110375Y0066500D03*
X0106000Y0070250D03*
X0102875Y0070250D03*
X0099750Y0070250D03*
X0094750Y0071500D03*
X0091625Y0071500D03*
X0089125Y0062750D03*
X0126625Y0058375D03*
X0127250Y0054625D03*
X0131625Y0049000D03*
X0134750Y0049000D03*
X0139750Y0050875D03*
X0142875Y0050875D03*
X0146000Y0050875D03*
X0150375Y0050875D03*
X0150375Y0054000D03*
X0154750Y0058375D03*
X0152250Y0062750D03*
X0150375Y0066500D03*
X0146000Y0070250D03*
X0142875Y0070250D03*
X0139750Y0070250D03*
X0134750Y0071500D03*
X0131625Y0071500D03*
X0129125Y0062750D03*
X0131625Y0031500D03*
X0134750Y0031500D03*
X0139750Y0030250D03*
X0142875Y0030250D03*
X0146000Y0030250D03*
X0150375Y0026500D03*
X0152250Y0022750D03*
X0154750Y0018375D03*
X0150375Y0014000D03*
X0150375Y0010875D03*
X0146000Y0010875D03*
X0142875Y0010875D03*
X0139750Y0010875D03*
X0134750Y0009000D03*
X0131625Y0009000D03*
X0127250Y0014625D03*
X0126625Y0018375D03*
X0129125Y0022750D03*
X0114750Y0018375D03*
X0110375Y0014000D03*
X0110375Y0010875D03*
X0106000Y0010875D03*
X0102875Y0010875D03*
X0099750Y0010875D03*
X0094750Y0009000D03*
X0091625Y0009000D03*
X0087250Y0014625D03*
X0086625Y0018375D03*
X0089125Y0022750D03*
X0099750Y0030250D03*
X0102875Y0030250D03*
X0106000Y0030250D03*
X0110375Y0026500D03*
X0112250Y0022750D03*
X0094750Y0031500D03*
X0091625Y0031500D03*
X0072250Y0022750D03*
X0070375Y0026500D03*
X0066000Y0030250D03*
X0062875Y0030250D03*
X0059750Y0030250D03*
X0054750Y0031500D03*
X0051625Y0031500D03*
X0049125Y0022750D03*
X0046625Y0018375D03*
X0047250Y0014625D03*
X0051625Y0009000D03*
X0054750Y0009000D03*
X0059750Y0010875D03*
X0062875Y0010875D03*
X0066000Y0010875D03*
X0070375Y0010875D03*
X0070375Y0014000D03*
X0074750Y0018375D03*
X0034750Y0018375D03*
X0030375Y0014000D03*
X0030375Y0010875D03*
X0026000Y0010875D03*
X0022875Y0010875D03*
X0019750Y0010875D03*
X0014750Y0009000D03*
X0011625Y0009000D03*
X0007250Y0014625D03*
X0006625Y0018375D03*
X0009125Y0022750D03*
X0019750Y0030250D03*
X0022875Y0030250D03*
X0026000Y0030250D03*
X0030375Y0026500D03*
X0032250Y0022750D03*
X0014750Y0031500D03*
X0011625Y0031500D03*
X0011625Y0049000D03*
X0014750Y0049000D03*
X0019750Y0050875D03*
X0022875Y0050875D03*
X0026000Y0050875D03*
X0030375Y0050875D03*
X0030375Y0054000D03*
X0034750Y0058375D03*
X0032250Y0062750D03*
X0030375Y0066500D03*
X0026000Y0070250D03*
X0022875Y0070250D03*
X0019750Y0070250D03*
X0014750Y0071500D03*
X0011625Y0071500D03*
X0009125Y0062750D03*
X0006625Y0058375D03*
X0007250Y0054625D03*
M02*
