G75*
%MOIN*%
%OFA0B0*%
%FSLAX25Y25*%
%IPPOS*%
%LPD*%
%AMOC8*
5,1,8,0,0,1.08239X$1,22.5*
%
%ADD10R,0.00787X0.02756*%
%ADD11C,0.01000*%
%ADD12C,0.02700*%
%ADD13C,0.00600*%
D10*
X0013327Y0014500D03*
X0014902Y0014500D03*
X0016476Y0014500D03*
X0018051Y0014500D03*
X0019626Y0014500D03*
X0021201Y0014500D03*
X0022776Y0014500D03*
X0024350Y0014500D03*
X0025925Y0014500D03*
X0027500Y0014500D03*
X0027500Y0026626D03*
X0025846Y0026626D03*
X0024272Y0026626D03*
X0022697Y0026626D03*
X0021122Y0026626D03*
X0019547Y0026626D03*
X0017972Y0026626D03*
X0016398Y0026626D03*
X0014823Y0026626D03*
X0013248Y0026626D03*
X0053248Y0026626D03*
X0054823Y0026626D03*
X0056398Y0026626D03*
X0057972Y0026626D03*
X0059547Y0026626D03*
X0061122Y0026626D03*
X0062697Y0026626D03*
X0064272Y0026626D03*
X0065846Y0026626D03*
X0067500Y0026626D03*
X0067500Y0014500D03*
X0065925Y0014500D03*
X0064350Y0014500D03*
X0062776Y0014500D03*
X0061201Y0014500D03*
X0059626Y0014500D03*
X0058051Y0014500D03*
X0056476Y0014500D03*
X0054902Y0014500D03*
X0053327Y0014500D03*
X0093327Y0014500D03*
X0094902Y0014500D03*
X0096476Y0014500D03*
X0098051Y0014500D03*
X0099626Y0014500D03*
X0101201Y0014500D03*
X0102776Y0014500D03*
X0104350Y0014500D03*
X0105925Y0014500D03*
X0107500Y0014500D03*
X0107500Y0026626D03*
X0105846Y0026626D03*
X0104272Y0026626D03*
X0102697Y0026626D03*
X0101122Y0026626D03*
X0099547Y0026626D03*
X0097972Y0026626D03*
X0096398Y0026626D03*
X0094823Y0026626D03*
X0093248Y0026626D03*
X0133248Y0026626D03*
X0134823Y0026626D03*
X0136398Y0026626D03*
X0137972Y0026626D03*
X0139547Y0026626D03*
X0141122Y0026626D03*
X0142697Y0026626D03*
X0144272Y0026626D03*
X0145846Y0026626D03*
X0147500Y0026626D03*
X0147500Y0014500D03*
X0145925Y0014500D03*
X0144350Y0014500D03*
X0142776Y0014500D03*
X0141201Y0014500D03*
X0139626Y0014500D03*
X0138051Y0014500D03*
X0136476Y0014500D03*
X0134902Y0014500D03*
X0133327Y0014500D03*
X0133327Y0054500D03*
X0134902Y0054500D03*
X0136476Y0054500D03*
X0138051Y0054500D03*
X0139626Y0054500D03*
X0141201Y0054500D03*
X0142776Y0054500D03*
X0144350Y0054500D03*
X0145925Y0054500D03*
X0147500Y0054500D03*
X0147500Y0066626D03*
X0145846Y0066626D03*
X0144272Y0066626D03*
X0142697Y0066626D03*
X0141122Y0066626D03*
X0139547Y0066626D03*
X0137972Y0066626D03*
X0136398Y0066626D03*
X0134823Y0066626D03*
X0133248Y0066626D03*
X0107500Y0066626D03*
X0105846Y0066626D03*
X0104272Y0066626D03*
X0102697Y0066626D03*
X0101122Y0066626D03*
X0099547Y0066626D03*
X0097972Y0066626D03*
X0096398Y0066626D03*
X0094823Y0066626D03*
X0093248Y0066626D03*
X0093327Y0054500D03*
X0094902Y0054500D03*
X0096476Y0054500D03*
X0098051Y0054500D03*
X0099626Y0054500D03*
X0101201Y0054500D03*
X0102776Y0054500D03*
X0104350Y0054500D03*
X0105925Y0054500D03*
X0107500Y0054500D03*
X0067500Y0054500D03*
X0065925Y0054500D03*
X0064350Y0054500D03*
X0062776Y0054500D03*
X0061201Y0054500D03*
X0059626Y0054500D03*
X0058051Y0054500D03*
X0056476Y0054500D03*
X0054902Y0054500D03*
X0053327Y0054500D03*
X0053248Y0066626D03*
X0054823Y0066626D03*
X0056398Y0066626D03*
X0057972Y0066626D03*
X0059547Y0066626D03*
X0061122Y0066626D03*
X0062697Y0066626D03*
X0064272Y0066626D03*
X0065846Y0066626D03*
X0067500Y0066626D03*
X0027500Y0066626D03*
X0025846Y0066626D03*
X0024272Y0066626D03*
X0022697Y0066626D03*
X0021122Y0066626D03*
X0019547Y0066626D03*
X0017972Y0066626D03*
X0016398Y0066626D03*
X0014823Y0066626D03*
X0013248Y0066626D03*
X0013327Y0054500D03*
X0014902Y0054500D03*
X0016476Y0054500D03*
X0018051Y0054500D03*
X0019626Y0054500D03*
X0021201Y0054500D03*
X0022776Y0054500D03*
X0024350Y0054500D03*
X0025925Y0054500D03*
X0027500Y0054500D03*
D11*
X0004000Y0039500D02*
X0004000Y0004000D01*
X0039500Y0004000D01*
X0039500Y0039500D01*
X0004000Y0039500D01*
X0004000Y0039309D02*
X0039500Y0039309D01*
X0039500Y0038311D02*
X0004000Y0038311D01*
X0004000Y0037312D02*
X0039500Y0037312D01*
X0041500Y0037312D02*
X0079500Y0037312D01*
X0079500Y0038311D02*
X0041500Y0038311D01*
X0041500Y0039309D02*
X0079500Y0039309D01*
X0079500Y0039500D02*
X0041500Y0039500D01*
X0041500Y0004000D01*
X0079500Y0004000D01*
X0079500Y0039500D01*
X0081500Y0039500D02*
X0119500Y0039500D01*
X0119500Y0004000D01*
X0081500Y0004000D01*
X0081500Y0039500D01*
X0081500Y0039309D02*
X0119500Y0039309D01*
X0119500Y0038311D02*
X0081500Y0038311D01*
X0081500Y0037312D02*
X0119500Y0037312D01*
X0121500Y0037312D02*
X0157000Y0037312D01*
X0157000Y0038311D02*
X0121500Y0038311D01*
X0121500Y0039309D02*
X0157000Y0039309D01*
X0157000Y0039500D02*
X0157000Y0004000D01*
X0121997Y0004000D01*
X0121500Y0004000D01*
X0121500Y0039500D01*
X0157000Y0039500D01*
X0157000Y0041500D02*
X0121500Y0041500D01*
X0121500Y0077000D01*
X0157000Y0077000D01*
X0157000Y0041500D01*
X0157000Y0042305D02*
X0121500Y0042305D01*
X0121500Y0043303D02*
X0157000Y0043303D01*
X0157000Y0044302D02*
X0121500Y0044302D01*
X0121500Y0045301D02*
X0157000Y0045301D01*
X0157000Y0046299D02*
X0121500Y0046299D01*
X0121500Y0047298D02*
X0130145Y0047298D01*
X0130693Y0046750D02*
X0129375Y0048068D01*
X0129375Y0049932D01*
X0130693Y0051250D01*
X0132178Y0051250D01*
X0132589Y0051661D01*
X0132354Y0051724D01*
X0132012Y0051922D01*
X0131733Y0052201D01*
X0131535Y0052543D01*
X0131433Y0052925D01*
X0131433Y0054500D01*
X0133327Y0054500D01*
X0131433Y0054500D01*
X0131433Y0056075D01*
X0131535Y0056457D01*
X0131733Y0056799D01*
X0131931Y0056997D01*
X0131753Y0057175D01*
X0131497Y0057175D01*
X0129500Y0055178D01*
X0129500Y0053693D01*
X0128182Y0052375D01*
X0126318Y0052375D01*
X0125000Y0053693D01*
X0125000Y0055557D01*
X0126318Y0056875D01*
X0127803Y0056875D01*
X0130503Y0059575D01*
X0132747Y0059575D01*
X0133450Y0058872D01*
X0135544Y0056778D01*
X0135668Y0056778D01*
X0135689Y0056757D01*
X0135710Y0056778D01*
X0137243Y0056778D01*
X0137264Y0056757D01*
X0137285Y0056778D01*
X0138550Y0056778D01*
X0138550Y0056997D01*
X0140425Y0058872D01*
X0141128Y0059575D01*
X0152768Y0059575D01*
X0153818Y0060625D01*
X0155682Y0060625D01*
X0157000Y0059307D01*
X0157000Y0057443D01*
X0155682Y0056125D01*
X0153818Y0056125D01*
X0152768Y0057175D01*
X0149522Y0057175D01*
X0150447Y0056250D01*
X0151307Y0056250D01*
X0152625Y0054932D01*
X0152625Y0053068D01*
X0151994Y0052437D01*
X0152625Y0051807D01*
X0152625Y0049943D01*
X0151307Y0048625D01*
X0149443Y0048625D01*
X0148187Y0049881D01*
X0146932Y0048625D01*
X0145068Y0048625D01*
X0144437Y0049256D01*
X0143807Y0048625D01*
X0141943Y0048625D01*
X0141313Y0049256D01*
X0140682Y0048625D01*
X0138818Y0048625D01*
X0137500Y0049943D01*
X0137500Y0050053D01*
X0137000Y0049553D01*
X0137000Y0048068D01*
X0135682Y0046750D01*
X0133818Y0046750D01*
X0133187Y0047381D01*
X0132557Y0046750D01*
X0130693Y0046750D01*
X0133105Y0047298D02*
X0133270Y0047298D01*
X0136230Y0047298D02*
X0157000Y0047298D01*
X0157000Y0048296D02*
X0137000Y0048296D01*
X0137000Y0049295D02*
X0138148Y0049295D01*
X0132220Y0051292D02*
X0121500Y0051292D01*
X0121500Y0052290D02*
X0131681Y0052290D01*
X0131433Y0053289D02*
X0129096Y0053289D01*
X0129500Y0054287D02*
X0131433Y0054287D01*
X0131433Y0055286D02*
X0129608Y0055286D01*
X0130606Y0056284D02*
X0131489Y0056284D01*
X0133327Y0054500D02*
X0133327Y0054500D01*
X0135039Y0057283D02*
X0138836Y0057283D01*
X0139834Y0058281D02*
X0134041Y0058281D01*
X0133042Y0059280D02*
X0140833Y0059280D01*
X0141128Y0061550D02*
X0150268Y0061550D01*
X0151318Y0060500D01*
X0153182Y0060500D01*
X0154500Y0061818D01*
X0154500Y0063682D01*
X0153182Y0065000D01*
X0152057Y0065000D01*
X0152625Y0065568D01*
X0152625Y0067432D01*
X0151307Y0068750D01*
X0149443Y0068750D01*
X0148794Y0068101D01*
X0148794Y0068377D01*
X0148266Y0068904D01*
X0147836Y0068904D01*
X0148250Y0069318D01*
X0148250Y0071182D01*
X0146932Y0072500D01*
X0145068Y0072500D01*
X0144437Y0071869D01*
X0143807Y0072500D01*
X0141943Y0072500D01*
X0141312Y0071869D01*
X0140682Y0072500D01*
X0138818Y0072500D01*
X0137500Y0071182D01*
X0137500Y0070447D01*
X0137000Y0070947D01*
X0137000Y0072432D01*
X0135682Y0073750D01*
X0133818Y0073750D01*
X0133187Y0073119D01*
X0132557Y0073750D01*
X0130693Y0073750D01*
X0129375Y0072432D01*
X0129375Y0070568D01*
X0130693Y0069250D01*
X0132178Y0069250D01*
X0132524Y0068904D01*
X0132482Y0068904D01*
X0131954Y0068377D01*
X0131954Y0064875D01*
X0132316Y0064513D01*
X0131753Y0063950D01*
X0131107Y0063950D01*
X0130057Y0065000D01*
X0128193Y0065000D01*
X0126875Y0063682D01*
X0126875Y0061818D01*
X0128193Y0060500D01*
X0130057Y0060500D01*
X0131107Y0061550D01*
X0132747Y0061550D01*
X0133450Y0062253D01*
X0135545Y0064348D01*
X0135589Y0064348D01*
X0135610Y0064369D01*
X0135631Y0064348D01*
X0137164Y0064348D01*
X0137185Y0064369D01*
X0137206Y0064348D01*
X0138550Y0064348D01*
X0138550Y0064128D01*
X0140425Y0062253D01*
X0141128Y0061550D01*
X0140403Y0062275D02*
X0133472Y0062275D01*
X0130834Y0061277D02*
X0150541Y0061277D01*
X0153471Y0060278D02*
X0121500Y0060278D01*
X0121500Y0059280D02*
X0130208Y0059280D01*
X0129209Y0058281D02*
X0121500Y0058281D01*
X0121500Y0057283D02*
X0128211Y0057283D01*
X0125727Y0056284D02*
X0121500Y0056284D01*
X0121500Y0055286D02*
X0125000Y0055286D01*
X0125000Y0054287D02*
X0121500Y0054287D01*
X0119500Y0054287D02*
X0112625Y0054287D01*
X0112625Y0054932D02*
X0111307Y0056250D01*
X0110447Y0056250D01*
X0109522Y0057175D01*
X0112768Y0057175D01*
X0113818Y0056125D01*
X0115682Y0056125D01*
X0117000Y0057443D01*
X0117000Y0059307D01*
X0115682Y0060625D01*
X0113818Y0060625D01*
X0112768Y0059575D01*
X0101128Y0059575D01*
X0100425Y0058872D01*
X0098550Y0056997D01*
X0098550Y0056778D01*
X0097285Y0056778D01*
X0097264Y0056757D01*
X0097243Y0056778D01*
X0095710Y0056778D01*
X0095689Y0056757D01*
X0095668Y0056778D01*
X0095544Y0056778D01*
X0093450Y0058872D01*
X0092747Y0059575D01*
X0090503Y0059575D01*
X0087803Y0056875D01*
X0086318Y0056875D01*
X0085000Y0055557D01*
X0085000Y0053693D01*
X0086318Y0052375D01*
X0088182Y0052375D01*
X0089500Y0053693D01*
X0089500Y0055178D01*
X0091497Y0057175D01*
X0091753Y0057175D01*
X0091931Y0056997D01*
X0091733Y0056799D01*
X0091535Y0056457D01*
X0091433Y0056075D01*
X0091433Y0054500D01*
X0093327Y0054500D01*
X0091433Y0054500D01*
X0091433Y0052925D01*
X0091535Y0052543D01*
X0091733Y0052201D01*
X0092012Y0051922D01*
X0092354Y0051724D01*
X0092589Y0051661D01*
X0092178Y0051250D01*
X0090693Y0051250D01*
X0089375Y0049932D01*
X0089375Y0048068D01*
X0090693Y0046750D01*
X0092557Y0046750D01*
X0093187Y0047381D01*
X0093818Y0046750D01*
X0095682Y0046750D01*
X0097000Y0048068D01*
X0097000Y0049553D01*
X0097500Y0050053D01*
X0097500Y0049943D01*
X0098818Y0048625D01*
X0100682Y0048625D01*
X0101312Y0049256D01*
X0101943Y0048625D01*
X0103807Y0048625D01*
X0104437Y0049256D01*
X0105068Y0048625D01*
X0106932Y0048625D01*
X0108187Y0049881D01*
X0109443Y0048625D01*
X0111307Y0048625D01*
X0112625Y0049943D01*
X0112625Y0051807D01*
X0111994Y0052437D01*
X0112625Y0053068D01*
X0112625Y0054932D01*
X0112271Y0055286D02*
X0119500Y0055286D01*
X0119500Y0056284D02*
X0115841Y0056284D01*
X0116840Y0057283D02*
X0119500Y0057283D01*
X0119500Y0058281D02*
X0117000Y0058281D01*
X0117000Y0059280D02*
X0119500Y0059280D01*
X0119500Y0060278D02*
X0116029Y0060278D01*
X0114500Y0061818D02*
X0114500Y0063682D01*
X0113182Y0065000D01*
X0112057Y0065000D01*
X0112625Y0065568D01*
X0112625Y0067432D01*
X0111307Y0068750D01*
X0109443Y0068750D01*
X0108794Y0068101D01*
X0108794Y0068377D01*
X0108266Y0068904D01*
X0107836Y0068904D01*
X0108250Y0069318D01*
X0108250Y0071182D01*
X0106932Y0072500D01*
X0105068Y0072500D01*
X0104437Y0071869D01*
X0103807Y0072500D01*
X0101943Y0072500D01*
X0101312Y0071869D01*
X0100682Y0072500D01*
X0098818Y0072500D01*
X0097500Y0071182D01*
X0097500Y0070447D01*
X0097000Y0070947D01*
X0097000Y0072432D01*
X0095682Y0073750D01*
X0093818Y0073750D01*
X0093187Y0073119D01*
X0092557Y0073750D01*
X0090693Y0073750D01*
X0089375Y0072432D01*
X0089375Y0070568D01*
X0090693Y0069250D01*
X0092178Y0069250D01*
X0092524Y0068904D01*
X0092482Y0068904D01*
X0091954Y0068377D01*
X0091954Y0064875D01*
X0092316Y0064513D01*
X0091753Y0063950D01*
X0091107Y0063950D01*
X0090057Y0065000D01*
X0088193Y0065000D01*
X0086875Y0063682D01*
X0086875Y0061818D01*
X0088193Y0060500D01*
X0090057Y0060500D01*
X0091107Y0061550D01*
X0092747Y0061550D01*
X0095545Y0064348D01*
X0095589Y0064348D01*
X0095610Y0064369D01*
X0095631Y0064348D01*
X0097164Y0064348D01*
X0097185Y0064369D01*
X0097206Y0064348D01*
X0098550Y0064348D01*
X0098550Y0064128D01*
X0100425Y0062253D01*
X0101128Y0061550D01*
X0110268Y0061550D01*
X0111318Y0060500D01*
X0113182Y0060500D01*
X0114500Y0061818D01*
X0114500Y0062275D02*
X0119500Y0062275D01*
X0119500Y0061277D02*
X0113959Y0061277D01*
X0113471Y0060278D02*
X0081500Y0060278D01*
X0081500Y0059280D02*
X0090208Y0059280D01*
X0093042Y0059280D02*
X0100833Y0059280D01*
X0099834Y0058281D02*
X0094041Y0058281D01*
X0095039Y0057283D02*
X0098836Y0057283D01*
X0093327Y0054500D02*
X0093327Y0054500D01*
X0091433Y0054287D02*
X0089500Y0054287D01*
X0089608Y0055286D02*
X0091433Y0055286D01*
X0091489Y0056284D02*
X0090606Y0056284D01*
X0089209Y0058281D02*
X0081500Y0058281D01*
X0081500Y0057283D02*
X0088211Y0057283D01*
X0085727Y0056284D02*
X0081500Y0056284D01*
X0081500Y0055286D02*
X0085000Y0055286D01*
X0085000Y0054287D02*
X0081500Y0054287D01*
X0079500Y0054287D02*
X0072625Y0054287D01*
X0072625Y0054932D02*
X0071307Y0056250D01*
X0070447Y0056250D01*
X0069522Y0057175D01*
X0072768Y0057175D01*
X0073818Y0056125D01*
X0075682Y0056125D01*
X0077000Y0057443D01*
X0077000Y0059307D01*
X0075682Y0060625D01*
X0073818Y0060625D01*
X0072768Y0059575D01*
X0061128Y0059575D01*
X0060425Y0058872D01*
X0058550Y0056997D01*
X0058550Y0056778D01*
X0057285Y0056778D01*
X0057264Y0056757D01*
X0057243Y0056778D01*
X0055710Y0056778D01*
X0055689Y0056757D01*
X0055668Y0056778D01*
X0055544Y0056778D01*
X0053450Y0058872D01*
X0052747Y0059575D01*
X0050503Y0059575D01*
X0047803Y0056875D01*
X0046318Y0056875D01*
X0045000Y0055557D01*
X0045000Y0053693D01*
X0046318Y0052375D01*
X0048182Y0052375D01*
X0049500Y0053693D01*
X0049500Y0055178D01*
X0051497Y0057175D01*
X0051753Y0057175D01*
X0051931Y0056997D01*
X0051733Y0056799D01*
X0051535Y0056457D01*
X0051433Y0056075D01*
X0051433Y0054500D01*
X0053327Y0054500D01*
X0051433Y0054500D01*
X0051433Y0052925D01*
X0051535Y0052543D01*
X0051733Y0052201D01*
X0052012Y0051922D01*
X0052354Y0051724D01*
X0052589Y0051661D01*
X0052178Y0051250D01*
X0050693Y0051250D01*
X0049375Y0049932D01*
X0049375Y0048068D01*
X0050693Y0046750D01*
X0052557Y0046750D01*
X0053187Y0047381D01*
X0053818Y0046750D01*
X0055682Y0046750D01*
X0057000Y0048068D01*
X0057000Y0049553D01*
X0057500Y0050053D01*
X0057500Y0049943D01*
X0058818Y0048625D01*
X0060682Y0048625D01*
X0061312Y0049256D01*
X0061943Y0048625D01*
X0063807Y0048625D01*
X0064437Y0049256D01*
X0065068Y0048625D01*
X0066932Y0048625D01*
X0068187Y0049881D01*
X0069443Y0048625D01*
X0071307Y0048625D01*
X0072625Y0049943D01*
X0072625Y0051807D01*
X0071994Y0052437D01*
X0072625Y0053068D01*
X0072625Y0054932D01*
X0072271Y0055286D02*
X0079500Y0055286D01*
X0079500Y0056284D02*
X0075841Y0056284D01*
X0076840Y0057283D02*
X0079500Y0057283D01*
X0079500Y0058281D02*
X0077000Y0058281D01*
X0077000Y0059280D02*
X0079500Y0059280D01*
X0079500Y0060278D02*
X0076029Y0060278D01*
X0074500Y0061818D02*
X0074500Y0063682D01*
X0073182Y0065000D01*
X0072057Y0065000D01*
X0072625Y0065568D01*
X0072625Y0067432D01*
X0071307Y0068750D01*
X0069443Y0068750D01*
X0068794Y0068101D01*
X0068794Y0068377D01*
X0068266Y0068904D01*
X0067836Y0068904D01*
X0068250Y0069318D01*
X0068250Y0071182D01*
X0066932Y0072500D01*
X0065068Y0072500D01*
X0064437Y0071869D01*
X0063807Y0072500D01*
X0061943Y0072500D01*
X0061312Y0071869D01*
X0060682Y0072500D01*
X0058818Y0072500D01*
X0057500Y0071182D01*
X0057500Y0070447D01*
X0057000Y0070947D01*
X0057000Y0072432D01*
X0055682Y0073750D01*
X0053818Y0073750D01*
X0053187Y0073119D01*
X0052557Y0073750D01*
X0050693Y0073750D01*
X0049375Y0072432D01*
X0049375Y0070568D01*
X0050693Y0069250D01*
X0052178Y0069250D01*
X0052524Y0068904D01*
X0052482Y0068904D01*
X0051954Y0068377D01*
X0051954Y0064875D01*
X0052316Y0064513D01*
X0051753Y0063950D01*
X0051107Y0063950D01*
X0050057Y0065000D01*
X0048193Y0065000D01*
X0046875Y0063682D01*
X0046875Y0061818D01*
X0048193Y0060500D01*
X0050057Y0060500D01*
X0051107Y0061550D01*
X0052747Y0061550D01*
X0053450Y0062253D01*
X0055545Y0064348D01*
X0055589Y0064348D01*
X0055610Y0064369D01*
X0055631Y0064348D01*
X0057164Y0064348D01*
X0057185Y0064369D01*
X0057206Y0064348D01*
X0058550Y0064348D01*
X0058550Y0064128D01*
X0060425Y0062253D01*
X0061128Y0061550D01*
X0070268Y0061550D01*
X0071318Y0060500D01*
X0073182Y0060500D01*
X0074500Y0061818D01*
X0074500Y0062275D02*
X0079500Y0062275D01*
X0079500Y0061277D02*
X0073959Y0061277D01*
X0073471Y0060278D02*
X0041500Y0060278D01*
X0041500Y0059280D02*
X0050208Y0059280D01*
X0053042Y0059280D02*
X0060833Y0059280D01*
X0059834Y0058281D02*
X0054041Y0058281D01*
X0055039Y0057283D02*
X0058836Y0057283D01*
X0053327Y0054500D02*
X0053327Y0054500D01*
X0051433Y0054287D02*
X0049500Y0054287D01*
X0049608Y0055286D02*
X0051433Y0055286D01*
X0051489Y0056284D02*
X0050606Y0056284D01*
X0049209Y0058281D02*
X0041500Y0058281D01*
X0041500Y0057283D02*
X0048211Y0057283D01*
X0045727Y0056284D02*
X0041500Y0056284D01*
X0041500Y0055286D02*
X0045000Y0055286D01*
X0045000Y0054287D02*
X0041500Y0054287D01*
X0039500Y0054287D02*
X0032625Y0054287D01*
X0032625Y0054932D02*
X0031307Y0056250D01*
X0030447Y0056250D01*
X0029522Y0057175D01*
X0032768Y0057175D01*
X0033818Y0056125D01*
X0035682Y0056125D01*
X0037000Y0057443D01*
X0037000Y0059307D01*
X0035682Y0060625D01*
X0033818Y0060625D01*
X0032768Y0059575D01*
X0021128Y0059575D01*
X0020425Y0058872D01*
X0018550Y0056997D01*
X0018550Y0056778D01*
X0017285Y0056778D01*
X0017264Y0056757D01*
X0017243Y0056778D01*
X0015710Y0056778D01*
X0015689Y0056757D01*
X0015668Y0056778D01*
X0015544Y0056778D01*
X0013450Y0058872D01*
X0012747Y0059575D01*
X0010503Y0059575D01*
X0007803Y0056875D01*
X0006318Y0056875D01*
X0005000Y0055557D01*
X0005000Y0053693D01*
X0006318Y0052375D01*
X0008182Y0052375D01*
X0009500Y0053693D01*
X0009500Y0055178D01*
X0011497Y0057175D01*
X0011753Y0057175D01*
X0011931Y0056997D01*
X0011733Y0056799D01*
X0011535Y0056457D01*
X0011433Y0056075D01*
X0011433Y0054500D01*
X0013327Y0054500D01*
X0011433Y0054500D01*
X0011433Y0052925D01*
X0011535Y0052543D01*
X0011733Y0052201D01*
X0012012Y0051922D01*
X0012354Y0051724D01*
X0012589Y0051661D01*
X0012178Y0051250D01*
X0010693Y0051250D01*
X0009375Y0049932D01*
X0009375Y0048068D01*
X0010693Y0046750D01*
X0012557Y0046750D01*
X0013187Y0047381D01*
X0013818Y0046750D01*
X0015682Y0046750D01*
X0017000Y0048068D01*
X0017000Y0049553D01*
X0017500Y0050053D01*
X0017500Y0049943D01*
X0018818Y0048625D01*
X0020682Y0048625D01*
X0021312Y0049256D01*
X0021943Y0048625D01*
X0023807Y0048625D01*
X0024437Y0049256D01*
X0025068Y0048625D01*
X0026932Y0048625D01*
X0028187Y0049881D01*
X0029443Y0048625D01*
X0031307Y0048625D01*
X0032625Y0049943D01*
X0032625Y0051807D01*
X0031994Y0052437D01*
X0032625Y0053068D01*
X0032625Y0054932D01*
X0032271Y0055286D02*
X0039500Y0055286D01*
X0039500Y0056284D02*
X0035841Y0056284D01*
X0036840Y0057283D02*
X0039500Y0057283D01*
X0039500Y0058281D02*
X0037000Y0058281D01*
X0037000Y0059280D02*
X0039500Y0059280D01*
X0039500Y0060278D02*
X0036029Y0060278D01*
X0033959Y0061277D02*
X0039500Y0061277D01*
X0039500Y0062275D02*
X0034500Y0062275D01*
X0034500Y0061818D02*
X0034500Y0063682D01*
X0033182Y0065000D01*
X0032057Y0065000D01*
X0032625Y0065568D01*
X0032625Y0067432D01*
X0031307Y0068750D01*
X0029443Y0068750D01*
X0028794Y0068101D01*
X0028794Y0068377D01*
X0028266Y0068904D01*
X0027836Y0068904D01*
X0028250Y0069318D01*
X0028250Y0071182D01*
X0026932Y0072500D01*
X0025068Y0072500D01*
X0024437Y0071869D01*
X0023807Y0072500D01*
X0021943Y0072500D01*
X0021312Y0071869D01*
X0020682Y0072500D01*
X0018818Y0072500D01*
X0017500Y0071182D01*
X0017500Y0070447D01*
X0017000Y0070947D01*
X0017000Y0072432D01*
X0015682Y0073750D01*
X0013818Y0073750D01*
X0013187Y0073119D01*
X0012557Y0073750D01*
X0010693Y0073750D01*
X0009375Y0072432D01*
X0009375Y0070568D01*
X0010693Y0069250D01*
X0012178Y0069250D01*
X0012524Y0068904D01*
X0012482Y0068904D01*
X0011954Y0068377D01*
X0011954Y0064875D01*
X0012316Y0064513D01*
X0011753Y0063950D01*
X0011107Y0063950D01*
X0010057Y0065000D01*
X0008193Y0065000D01*
X0006875Y0063682D01*
X0006875Y0061818D01*
X0008193Y0060500D01*
X0010057Y0060500D01*
X0011107Y0061550D01*
X0012747Y0061550D01*
X0015545Y0064348D01*
X0015589Y0064348D01*
X0015610Y0064369D01*
X0015631Y0064348D01*
X0017164Y0064348D01*
X0017185Y0064369D01*
X0017206Y0064348D01*
X0018550Y0064348D01*
X0018550Y0064128D01*
X0020425Y0062253D01*
X0021128Y0061550D01*
X0030268Y0061550D01*
X0031318Y0060500D01*
X0033182Y0060500D01*
X0034500Y0061818D01*
X0034500Y0063274D02*
X0039500Y0063274D01*
X0039500Y0064272D02*
X0033910Y0064272D01*
X0032328Y0065271D02*
X0039500Y0065271D01*
X0039500Y0066269D02*
X0032625Y0066269D01*
X0032625Y0067268D02*
X0039500Y0067268D01*
X0039500Y0068266D02*
X0031791Y0068266D01*
X0028959Y0068266D02*
X0028794Y0068266D01*
X0028197Y0069265D02*
X0039500Y0069265D01*
X0039500Y0070263D02*
X0028250Y0070263D01*
X0028170Y0071262D02*
X0039500Y0071262D01*
X0041500Y0071262D02*
X0049375Y0071262D01*
X0049680Y0070263D02*
X0041500Y0070263D01*
X0041500Y0069265D02*
X0050678Y0069265D01*
X0051954Y0068266D02*
X0041500Y0068266D01*
X0041500Y0067268D02*
X0051954Y0067268D01*
X0051954Y0066269D02*
X0041500Y0066269D01*
X0041500Y0065271D02*
X0051954Y0065271D01*
X0052075Y0064272D02*
X0050785Y0064272D01*
X0047465Y0064272D02*
X0041500Y0064272D01*
X0041500Y0063274D02*
X0046875Y0063274D01*
X0046875Y0062275D02*
X0041500Y0062275D01*
X0041500Y0061277D02*
X0047416Y0061277D01*
X0050834Y0061277D02*
X0070541Y0061277D01*
X0074500Y0063274D02*
X0079500Y0063274D01*
X0079500Y0064272D02*
X0073910Y0064272D01*
X0072328Y0065271D02*
X0079500Y0065271D01*
X0079500Y0066269D02*
X0072625Y0066269D01*
X0072625Y0067268D02*
X0079500Y0067268D01*
X0079500Y0068266D02*
X0071791Y0068266D01*
X0068959Y0068266D02*
X0068794Y0068266D01*
X0068197Y0069265D02*
X0079500Y0069265D01*
X0079500Y0070263D02*
X0068250Y0070263D01*
X0068170Y0071262D02*
X0079500Y0071262D01*
X0081500Y0071262D02*
X0089375Y0071262D01*
X0089680Y0070263D02*
X0081500Y0070263D01*
X0081500Y0069265D02*
X0090678Y0069265D01*
X0091954Y0068266D02*
X0081500Y0068266D01*
X0081500Y0067268D02*
X0091954Y0067268D01*
X0091954Y0066269D02*
X0081500Y0066269D01*
X0081500Y0065271D02*
X0091954Y0065271D01*
X0092075Y0064272D02*
X0090785Y0064272D01*
X0087465Y0064272D02*
X0081500Y0064272D01*
X0081500Y0063274D02*
X0086875Y0063274D01*
X0086875Y0062275D02*
X0081500Y0062275D01*
X0081500Y0061277D02*
X0087416Y0061277D01*
X0090834Y0061277D02*
X0110541Y0061277D01*
X0114500Y0063274D02*
X0119500Y0063274D01*
X0119500Y0064272D02*
X0113910Y0064272D01*
X0112328Y0065271D02*
X0119500Y0065271D01*
X0119500Y0066269D02*
X0112625Y0066269D01*
X0112625Y0067268D02*
X0119500Y0067268D01*
X0119500Y0068266D02*
X0111791Y0068266D01*
X0108959Y0068266D02*
X0108794Y0068266D01*
X0108197Y0069265D02*
X0119500Y0069265D01*
X0119500Y0070263D02*
X0108250Y0070263D01*
X0108170Y0071262D02*
X0119500Y0071262D01*
X0121500Y0071262D02*
X0129375Y0071262D01*
X0129680Y0070263D02*
X0121500Y0070263D01*
X0121500Y0069265D02*
X0130678Y0069265D01*
X0131954Y0068266D02*
X0121500Y0068266D01*
X0121500Y0067268D02*
X0131954Y0067268D01*
X0131954Y0066269D02*
X0121500Y0066269D01*
X0121500Y0065271D02*
X0131954Y0065271D01*
X0132075Y0064272D02*
X0130785Y0064272D01*
X0127465Y0064272D02*
X0121500Y0064272D01*
X0121500Y0063274D02*
X0126875Y0063274D01*
X0126875Y0062275D02*
X0121500Y0062275D01*
X0121500Y0061277D02*
X0127416Y0061277D01*
X0134471Y0063274D02*
X0139404Y0063274D01*
X0138550Y0064272D02*
X0135469Y0064272D01*
X0137000Y0071262D02*
X0137580Y0071262D01*
X0137000Y0072260D02*
X0138578Y0072260D01*
X0140922Y0072260D02*
X0141703Y0072260D01*
X0144047Y0072260D02*
X0144828Y0072260D01*
X0147172Y0072260D02*
X0157000Y0072260D01*
X0157000Y0073259D02*
X0136173Y0073259D01*
X0133327Y0073259D02*
X0133048Y0073259D01*
X0130202Y0073259D02*
X0121500Y0073259D01*
X0121500Y0074257D02*
X0157000Y0074257D01*
X0157000Y0075256D02*
X0121500Y0075256D01*
X0119500Y0075256D02*
X0081500Y0075256D01*
X0081500Y0074257D02*
X0119500Y0074257D01*
X0119500Y0073259D02*
X0096173Y0073259D01*
X0097000Y0072260D02*
X0098578Y0072260D01*
X0100922Y0072260D02*
X0101703Y0072260D01*
X0104047Y0072260D02*
X0104828Y0072260D01*
X0107172Y0072260D02*
X0119500Y0072260D01*
X0121500Y0072260D02*
X0129375Y0072260D01*
X0121500Y0076254D02*
X0157000Y0076254D01*
X0157000Y0071262D02*
X0148170Y0071262D01*
X0148250Y0070263D02*
X0157000Y0070263D01*
X0157000Y0069265D02*
X0148197Y0069265D01*
X0148794Y0068266D02*
X0148959Y0068266D01*
X0151791Y0068266D02*
X0157000Y0068266D01*
X0157000Y0067268D02*
X0152625Y0067268D01*
X0152625Y0066269D02*
X0157000Y0066269D01*
X0157000Y0065271D02*
X0152328Y0065271D01*
X0153910Y0064272D02*
X0157000Y0064272D01*
X0157000Y0063274D02*
X0154500Y0063274D01*
X0154500Y0062275D02*
X0157000Y0062275D01*
X0157000Y0061277D02*
X0153959Y0061277D01*
X0156029Y0060278D02*
X0157000Y0060278D01*
X0157000Y0059280D02*
X0157000Y0059280D01*
X0157000Y0058281D02*
X0157000Y0058281D01*
X0157000Y0057283D02*
X0156840Y0057283D01*
X0157000Y0056284D02*
X0155841Y0056284D01*
X0157000Y0055286D02*
X0152271Y0055286D01*
X0152625Y0054287D02*
X0157000Y0054287D01*
X0157000Y0053289D02*
X0152625Y0053289D01*
X0152142Y0052290D02*
X0157000Y0052290D01*
X0157000Y0051292D02*
X0152625Y0051292D01*
X0152625Y0050293D02*
X0157000Y0050293D01*
X0157000Y0049295D02*
X0151977Y0049295D01*
X0148773Y0049295D02*
X0147602Y0049295D01*
X0150413Y0056284D02*
X0153659Y0056284D01*
X0129736Y0050293D02*
X0121500Y0050293D01*
X0119500Y0050293D02*
X0112625Y0050293D01*
X0112625Y0051292D02*
X0119500Y0051292D01*
X0119500Y0052290D02*
X0112142Y0052290D01*
X0112625Y0053289D02*
X0119500Y0053289D01*
X0121500Y0053289D02*
X0125404Y0053289D01*
X0121500Y0049295D02*
X0129375Y0049295D01*
X0129375Y0048296D02*
X0121500Y0048296D01*
X0119500Y0048296D02*
X0097000Y0048296D01*
X0097000Y0049295D02*
X0098148Y0049295D01*
X0096230Y0047298D02*
X0119500Y0047298D01*
X0119500Y0046299D02*
X0081500Y0046299D01*
X0081500Y0047298D02*
X0090145Y0047298D01*
X0089375Y0048296D02*
X0081500Y0048296D01*
X0081500Y0049295D02*
X0089375Y0049295D01*
X0089736Y0050293D02*
X0081500Y0050293D01*
X0081500Y0051292D02*
X0092220Y0051292D01*
X0091681Y0052290D02*
X0081500Y0052290D01*
X0081500Y0053289D02*
X0085404Y0053289D01*
X0089096Y0053289D02*
X0091433Y0053289D01*
X0093105Y0047298D02*
X0093270Y0047298D01*
X0081500Y0045301D02*
X0119500Y0045301D01*
X0119500Y0044302D02*
X0081500Y0044302D01*
X0081500Y0043303D02*
X0119500Y0043303D01*
X0119500Y0042305D02*
X0081500Y0042305D01*
X0081500Y0041500D02*
X0081500Y0077000D01*
X0119500Y0077000D01*
X0119500Y0041500D01*
X0081500Y0041500D01*
X0079500Y0041500D02*
X0079500Y0077000D01*
X0041500Y0077000D01*
X0041500Y0041500D01*
X0079500Y0041500D01*
X0079500Y0042305D02*
X0041500Y0042305D01*
X0041500Y0043303D02*
X0079500Y0043303D01*
X0079500Y0044302D02*
X0041500Y0044302D01*
X0041500Y0045301D02*
X0079500Y0045301D01*
X0079500Y0046299D02*
X0041500Y0046299D01*
X0041500Y0047298D02*
X0050145Y0047298D01*
X0049375Y0048296D02*
X0041500Y0048296D01*
X0041500Y0049295D02*
X0049375Y0049295D01*
X0049736Y0050293D02*
X0041500Y0050293D01*
X0041500Y0051292D02*
X0052220Y0051292D01*
X0051681Y0052290D02*
X0041500Y0052290D01*
X0041500Y0053289D02*
X0045404Y0053289D01*
X0049096Y0053289D02*
X0051433Y0053289D01*
X0057000Y0049295D02*
X0058148Y0049295D01*
X0057000Y0048296D02*
X0079500Y0048296D01*
X0079500Y0047298D02*
X0056230Y0047298D01*
X0053270Y0047298D02*
X0053105Y0047298D01*
X0039500Y0047298D02*
X0016230Y0047298D01*
X0017000Y0048296D02*
X0039500Y0048296D01*
X0039500Y0049295D02*
X0031977Y0049295D01*
X0032625Y0050293D02*
X0039500Y0050293D01*
X0039500Y0051292D02*
X0032625Y0051292D01*
X0032142Y0052290D02*
X0039500Y0052290D01*
X0039500Y0053289D02*
X0032625Y0053289D01*
X0033659Y0056284D02*
X0030413Y0056284D01*
X0033471Y0060278D02*
X0004000Y0060278D01*
X0004000Y0059280D02*
X0010208Y0059280D01*
X0009209Y0058281D02*
X0004000Y0058281D01*
X0004000Y0057283D02*
X0008211Y0057283D01*
X0010606Y0056284D02*
X0011489Y0056284D01*
X0011433Y0055286D02*
X0009608Y0055286D01*
X0009500Y0054287D02*
X0011433Y0054287D01*
X0013327Y0054500D02*
X0013327Y0054500D01*
X0011433Y0053289D02*
X0009096Y0053289D01*
X0011681Y0052290D02*
X0004000Y0052290D01*
X0004000Y0051292D02*
X0012220Y0051292D01*
X0009736Y0050293D02*
X0004000Y0050293D01*
X0004000Y0049295D02*
X0009375Y0049295D01*
X0009375Y0048296D02*
X0004000Y0048296D01*
X0004000Y0047298D02*
X0010145Y0047298D01*
X0013105Y0047298D02*
X0013270Y0047298D01*
X0017000Y0049295D02*
X0018148Y0049295D01*
X0027602Y0049295D02*
X0028773Y0049295D01*
X0039500Y0046299D02*
X0004000Y0046299D01*
X0004000Y0045301D02*
X0039500Y0045301D01*
X0039500Y0044302D02*
X0004000Y0044302D01*
X0004000Y0043303D02*
X0039500Y0043303D01*
X0039500Y0042305D02*
X0004000Y0042305D01*
X0004000Y0041500D02*
X0004000Y0077000D01*
X0039500Y0077000D01*
X0039500Y0041500D01*
X0004000Y0041500D01*
X0004000Y0036314D02*
X0039500Y0036314D01*
X0039500Y0035315D02*
X0004000Y0035315D01*
X0004000Y0034317D02*
X0039500Y0034317D01*
X0039500Y0033318D02*
X0016114Y0033318D01*
X0015682Y0033750D02*
X0017000Y0032432D01*
X0017000Y0030947D01*
X0017500Y0030447D01*
X0017500Y0031182D01*
X0018818Y0032500D01*
X0020682Y0032500D01*
X0021312Y0031869D01*
X0021943Y0032500D01*
X0023807Y0032500D01*
X0024437Y0031869D01*
X0025068Y0032500D01*
X0026932Y0032500D01*
X0028250Y0031182D01*
X0028250Y0029318D01*
X0027836Y0028904D01*
X0028266Y0028904D01*
X0028794Y0028377D01*
X0028794Y0028101D01*
X0029443Y0028750D01*
X0031307Y0028750D01*
X0032625Y0027432D01*
X0032625Y0025568D01*
X0032057Y0025000D01*
X0033182Y0025000D01*
X0034500Y0023682D01*
X0034500Y0021818D01*
X0033182Y0020500D01*
X0031318Y0020500D01*
X0030268Y0021550D01*
X0021128Y0021550D01*
X0020425Y0022253D01*
X0018550Y0024128D01*
X0018550Y0024348D01*
X0017206Y0024348D01*
X0017185Y0024369D01*
X0017164Y0024348D01*
X0015631Y0024348D01*
X0015610Y0024369D01*
X0015589Y0024348D01*
X0015545Y0024348D01*
X0013450Y0022253D01*
X0012747Y0021550D01*
X0011107Y0021550D01*
X0010057Y0020500D01*
X0008193Y0020500D01*
X0006875Y0021818D01*
X0006875Y0023682D01*
X0008193Y0025000D01*
X0010057Y0025000D01*
X0011107Y0023950D01*
X0011753Y0023950D01*
X0012316Y0024513D01*
X0011954Y0024875D01*
X0011954Y0028377D01*
X0012482Y0028904D01*
X0012524Y0028904D01*
X0012178Y0029250D01*
X0010693Y0029250D01*
X0009375Y0030568D01*
X0009375Y0032432D01*
X0010693Y0033750D01*
X0012557Y0033750D01*
X0013187Y0033119D01*
X0013818Y0033750D01*
X0015682Y0033750D01*
X0013386Y0033318D02*
X0012989Y0033318D01*
X0010261Y0033318D02*
X0004000Y0033318D01*
X0004000Y0032320D02*
X0009375Y0032320D01*
X0009375Y0031321D02*
X0004000Y0031321D01*
X0004000Y0030323D02*
X0009620Y0030323D01*
X0010619Y0029324D02*
X0004000Y0029324D01*
X0004000Y0028326D02*
X0011954Y0028326D01*
X0011954Y0027327D02*
X0004000Y0027327D01*
X0004000Y0026329D02*
X0011954Y0026329D01*
X0011954Y0025330D02*
X0004000Y0025330D01*
X0004000Y0024332D02*
X0007525Y0024332D01*
X0006875Y0023333D02*
X0004000Y0023333D01*
X0004000Y0022335D02*
X0006875Y0022335D01*
X0007357Y0021336D02*
X0004000Y0021336D01*
X0004000Y0020338D02*
X0033531Y0020338D01*
X0033818Y0020625D02*
X0032768Y0019575D01*
X0021128Y0019575D01*
X0020425Y0018872D01*
X0018550Y0016997D01*
X0018550Y0016778D01*
X0017285Y0016778D01*
X0017264Y0016757D01*
X0017243Y0016778D01*
X0015710Y0016778D01*
X0015689Y0016757D01*
X0015668Y0016778D01*
X0015544Y0016778D01*
X0013450Y0018872D01*
X0013450Y0018872D01*
X0012747Y0019575D01*
X0010503Y0019575D01*
X0007803Y0016875D01*
X0006318Y0016875D01*
X0005000Y0015557D01*
X0005000Y0013693D01*
X0006318Y0012375D01*
X0008182Y0012375D01*
X0009500Y0013693D01*
X0009500Y0015178D01*
X0011497Y0017175D01*
X0011753Y0017175D01*
X0011931Y0016997D01*
X0011733Y0016799D01*
X0011535Y0016457D01*
X0011433Y0016075D01*
X0011433Y0014500D01*
X0013327Y0014500D01*
X0011433Y0014500D01*
X0011433Y0012925D01*
X0011535Y0012543D01*
X0011733Y0012201D01*
X0012012Y0011922D01*
X0012354Y0011724D01*
X0012589Y0011661D01*
X0012178Y0011250D01*
X0010693Y0011250D01*
X0009375Y0009932D01*
X0009375Y0008068D01*
X0010693Y0006750D01*
X0012557Y0006750D01*
X0013187Y0007381D01*
X0013818Y0006750D01*
X0015682Y0006750D01*
X0017000Y0008068D01*
X0017000Y0009553D01*
X0017500Y0010053D01*
X0017500Y0009943D01*
X0018818Y0008625D01*
X0020682Y0008625D01*
X0021312Y0009256D01*
X0021943Y0008625D01*
X0023807Y0008625D01*
X0024437Y0009256D01*
X0025068Y0008625D01*
X0026932Y0008625D01*
X0028187Y0009881D01*
X0029443Y0008625D01*
X0031307Y0008625D01*
X0032625Y0009943D01*
X0032625Y0011807D01*
X0031994Y0012437D01*
X0032625Y0013068D01*
X0032625Y0014932D01*
X0031307Y0016250D01*
X0030447Y0016250D01*
X0029522Y0017175D01*
X0032768Y0017175D01*
X0033818Y0016125D01*
X0035682Y0016125D01*
X0037000Y0017443D01*
X0037000Y0019307D01*
X0035682Y0020625D01*
X0033818Y0020625D01*
X0034018Y0021336D02*
X0039500Y0021336D01*
X0039500Y0020338D02*
X0035969Y0020338D01*
X0036968Y0019339D02*
X0039500Y0019339D01*
X0039500Y0018341D02*
X0037000Y0018341D01*
X0036899Y0017342D02*
X0039500Y0017342D01*
X0039500Y0016344D02*
X0035901Y0016344D01*
X0033599Y0016344D02*
X0030353Y0016344D01*
X0032212Y0015345D02*
X0039500Y0015345D01*
X0039500Y0014347D02*
X0032625Y0014347D01*
X0032625Y0013348D02*
X0039500Y0013348D01*
X0039500Y0012350D02*
X0032082Y0012350D01*
X0032625Y0011351D02*
X0039500Y0011351D01*
X0041500Y0011351D02*
X0052279Y0011351D01*
X0052178Y0011250D02*
X0052589Y0011661D01*
X0052354Y0011724D01*
X0052012Y0011922D01*
X0051733Y0012201D01*
X0051535Y0012543D01*
X0051433Y0012925D01*
X0051433Y0014500D01*
X0053327Y0014500D01*
X0051433Y0014500D01*
X0051433Y0016075D01*
X0051535Y0016457D01*
X0051733Y0016799D01*
X0051931Y0016997D01*
X0051753Y0017175D01*
X0051497Y0017175D01*
X0049500Y0015178D01*
X0049500Y0013693D01*
X0048182Y0012375D01*
X0046318Y0012375D01*
X0045000Y0013693D01*
X0045000Y0015557D01*
X0046318Y0016875D01*
X0047803Y0016875D01*
X0050503Y0019575D01*
X0052747Y0019575D01*
X0053450Y0018872D01*
X0055544Y0016778D01*
X0055668Y0016778D01*
X0055689Y0016757D01*
X0055710Y0016778D01*
X0057243Y0016778D01*
X0057264Y0016757D01*
X0057285Y0016778D01*
X0058550Y0016778D01*
X0058550Y0016997D01*
X0061128Y0019575D01*
X0072768Y0019575D01*
X0073818Y0020625D01*
X0075682Y0020625D01*
X0077000Y0019307D01*
X0077000Y0017443D01*
X0075682Y0016125D01*
X0073818Y0016125D01*
X0072768Y0017175D01*
X0069522Y0017175D01*
X0070447Y0016250D01*
X0071307Y0016250D01*
X0072625Y0014932D01*
X0072625Y0013068D01*
X0071994Y0012437D01*
X0072625Y0011807D01*
X0072625Y0009943D01*
X0071307Y0008625D01*
X0069443Y0008625D01*
X0068187Y0009881D01*
X0066932Y0008625D01*
X0065068Y0008625D01*
X0064437Y0009256D01*
X0063807Y0008625D01*
X0061943Y0008625D01*
X0061312Y0009256D01*
X0060682Y0008625D01*
X0058818Y0008625D01*
X0057500Y0009943D01*
X0057500Y0010053D01*
X0057000Y0009553D01*
X0057000Y0008068D01*
X0055682Y0006750D01*
X0053818Y0006750D01*
X0053187Y0007381D01*
X0052557Y0006750D01*
X0050693Y0006750D01*
X0049375Y0008068D01*
X0049375Y0009932D01*
X0050693Y0011250D01*
X0052178Y0011250D01*
X0051647Y0012350D02*
X0041500Y0012350D01*
X0041500Y0013348D02*
X0045345Y0013348D01*
X0045000Y0014347D02*
X0041500Y0014347D01*
X0041500Y0015345D02*
X0045000Y0015345D01*
X0045787Y0016344D02*
X0041500Y0016344D01*
X0041500Y0017342D02*
X0048270Y0017342D01*
X0049269Y0018341D02*
X0041500Y0018341D01*
X0041500Y0019339D02*
X0050267Y0019339D01*
X0052983Y0019339D02*
X0060892Y0019339D01*
X0059894Y0018341D02*
X0053981Y0018341D01*
X0054980Y0017342D02*
X0058895Y0017342D01*
X0053327Y0014500D02*
X0053327Y0014500D01*
X0051433Y0014347D02*
X0049500Y0014347D01*
X0049667Y0015345D02*
X0051433Y0015345D01*
X0051505Y0016344D02*
X0050666Y0016344D01*
X0051433Y0013348D02*
X0049155Y0013348D01*
X0049796Y0010353D02*
X0041500Y0010353D01*
X0041500Y0009354D02*
X0049375Y0009354D01*
X0049375Y0008356D02*
X0041500Y0008356D01*
X0041500Y0007357D02*
X0050086Y0007357D01*
X0053164Y0007357D02*
X0053211Y0007357D01*
X0056289Y0007357D02*
X0079500Y0007357D01*
X0079500Y0008356D02*
X0057000Y0008356D01*
X0057000Y0009354D02*
X0058089Y0009354D01*
X0067661Y0009354D02*
X0068714Y0009354D01*
X0072036Y0009354D02*
X0079500Y0009354D01*
X0079500Y0010353D02*
X0072625Y0010353D01*
X0072625Y0011351D02*
X0079500Y0011351D01*
X0079500Y0012350D02*
X0072082Y0012350D01*
X0072625Y0013348D02*
X0079500Y0013348D01*
X0079500Y0014347D02*
X0072625Y0014347D01*
X0072212Y0015345D02*
X0079500Y0015345D01*
X0081500Y0015345D02*
X0085000Y0015345D01*
X0085000Y0015557D02*
X0085000Y0013693D01*
X0086318Y0012375D01*
X0088182Y0012375D01*
X0089500Y0013693D01*
X0089500Y0015178D01*
X0091497Y0017175D01*
X0091753Y0017175D01*
X0091931Y0016997D01*
X0091733Y0016799D01*
X0091535Y0016457D01*
X0091433Y0016075D01*
X0091433Y0014500D01*
X0093327Y0014500D01*
X0091433Y0014500D01*
X0091433Y0012925D01*
X0091535Y0012543D01*
X0091733Y0012201D01*
X0092012Y0011922D01*
X0092354Y0011724D01*
X0092589Y0011661D01*
X0092178Y0011250D01*
X0090693Y0011250D01*
X0089375Y0009932D01*
X0089375Y0008068D01*
X0090693Y0006750D01*
X0092557Y0006750D01*
X0093187Y0007381D01*
X0093818Y0006750D01*
X0095682Y0006750D01*
X0097000Y0008068D01*
X0097000Y0009553D01*
X0097500Y0010053D01*
X0097500Y0009943D01*
X0098818Y0008625D01*
X0100682Y0008625D01*
X0101312Y0009256D01*
X0101943Y0008625D01*
X0103807Y0008625D01*
X0104437Y0009256D01*
X0105068Y0008625D01*
X0106932Y0008625D01*
X0108187Y0009881D01*
X0109443Y0008625D01*
X0111307Y0008625D01*
X0112625Y0009943D01*
X0112625Y0011807D01*
X0111994Y0012437D01*
X0112625Y0013068D01*
X0112625Y0014932D01*
X0111307Y0016250D01*
X0110447Y0016250D01*
X0109522Y0017175D01*
X0112768Y0017175D01*
X0113818Y0016125D01*
X0115682Y0016125D01*
X0117000Y0017443D01*
X0117000Y0019307D01*
X0115682Y0020625D01*
X0113818Y0020625D01*
X0112768Y0019575D01*
X0101128Y0019575D01*
X0100425Y0018872D01*
X0098550Y0016997D01*
X0098550Y0016778D01*
X0097285Y0016778D01*
X0097264Y0016757D01*
X0097243Y0016778D01*
X0095710Y0016778D01*
X0095689Y0016757D01*
X0095668Y0016778D01*
X0095544Y0016778D01*
X0093450Y0018872D01*
X0093450Y0018872D01*
X0092747Y0019575D01*
X0090503Y0019575D01*
X0087803Y0016875D01*
X0086318Y0016875D01*
X0085000Y0015557D01*
X0085787Y0016344D02*
X0081500Y0016344D01*
X0081500Y0017342D02*
X0088270Y0017342D01*
X0089269Y0018341D02*
X0081500Y0018341D01*
X0081500Y0019339D02*
X0090267Y0019339D01*
X0092983Y0019339D02*
X0100892Y0019339D01*
X0099894Y0018341D02*
X0093981Y0018341D01*
X0094980Y0017342D02*
X0098895Y0017342D01*
X0093327Y0014500D02*
X0093327Y0014500D01*
X0091433Y0014347D02*
X0089500Y0014347D01*
X0089667Y0015345D02*
X0091433Y0015345D01*
X0091505Y0016344D02*
X0090666Y0016344D01*
X0091433Y0013348D02*
X0089155Y0013348D01*
X0091647Y0012350D02*
X0081500Y0012350D01*
X0081500Y0013348D02*
X0085345Y0013348D01*
X0085000Y0014347D02*
X0081500Y0014347D01*
X0079500Y0016344D02*
X0075901Y0016344D01*
X0076899Y0017342D02*
X0079500Y0017342D01*
X0079500Y0018341D02*
X0077000Y0018341D01*
X0076968Y0019339D02*
X0079500Y0019339D01*
X0079500Y0020338D02*
X0075969Y0020338D01*
X0074500Y0021818D02*
X0074500Y0023682D01*
X0073182Y0025000D01*
X0072057Y0025000D01*
X0072625Y0025568D01*
X0072625Y0027432D01*
X0071307Y0028750D01*
X0069443Y0028750D01*
X0068794Y0028101D01*
X0068794Y0028377D01*
X0068266Y0028904D01*
X0067836Y0028904D01*
X0068250Y0029318D01*
X0068250Y0031182D01*
X0066932Y0032500D01*
X0065068Y0032500D01*
X0064437Y0031869D01*
X0063807Y0032500D01*
X0061943Y0032500D01*
X0061312Y0031869D01*
X0060682Y0032500D01*
X0058818Y0032500D01*
X0057500Y0031182D01*
X0057500Y0030447D01*
X0057000Y0030947D01*
X0057000Y0032432D01*
X0055682Y0033750D01*
X0053818Y0033750D01*
X0053187Y0033119D01*
X0052557Y0033750D01*
X0050693Y0033750D01*
X0049375Y0032432D01*
X0049375Y0030568D01*
X0050693Y0029250D01*
X0052178Y0029250D01*
X0052524Y0028904D01*
X0052482Y0028904D01*
X0051954Y0028377D01*
X0051954Y0024875D01*
X0052316Y0024513D01*
X0051753Y0023950D01*
X0051107Y0023950D01*
X0050057Y0025000D01*
X0048193Y0025000D01*
X0046875Y0023682D01*
X0046875Y0021818D01*
X0048193Y0020500D01*
X0050057Y0020500D01*
X0051107Y0021550D01*
X0052747Y0021550D01*
X0053450Y0022253D01*
X0055545Y0024348D01*
X0055589Y0024348D01*
X0055610Y0024369D01*
X0055631Y0024348D01*
X0057164Y0024348D01*
X0057185Y0024369D01*
X0057206Y0024348D01*
X0058550Y0024348D01*
X0058550Y0024128D01*
X0060425Y0022253D01*
X0061128Y0021550D01*
X0070268Y0021550D01*
X0071318Y0020500D01*
X0073182Y0020500D01*
X0074500Y0021818D01*
X0074500Y0022335D02*
X0079500Y0022335D01*
X0079500Y0023333D02*
X0074500Y0023333D01*
X0073850Y0024332D02*
X0079500Y0024332D01*
X0079500Y0025330D02*
X0072387Y0025330D01*
X0072625Y0026329D02*
X0079500Y0026329D01*
X0079500Y0027327D02*
X0072625Y0027327D01*
X0071731Y0028326D02*
X0079500Y0028326D01*
X0081500Y0028326D02*
X0091954Y0028326D01*
X0091954Y0028377D02*
X0091954Y0024875D01*
X0092316Y0024513D01*
X0091753Y0023950D01*
X0091107Y0023950D01*
X0090057Y0025000D01*
X0088193Y0025000D01*
X0086875Y0023682D01*
X0086875Y0021818D01*
X0088193Y0020500D01*
X0090057Y0020500D01*
X0091107Y0021550D01*
X0092747Y0021550D01*
X0093450Y0022253D01*
X0095545Y0024348D01*
X0095589Y0024348D01*
X0095610Y0024369D01*
X0095631Y0024348D01*
X0097164Y0024348D01*
X0097185Y0024369D01*
X0097206Y0024348D01*
X0098550Y0024348D01*
X0098550Y0024128D01*
X0100425Y0022253D01*
X0101128Y0021550D01*
X0110268Y0021550D01*
X0111318Y0020500D01*
X0113182Y0020500D01*
X0114500Y0021818D01*
X0114500Y0023682D01*
X0113182Y0025000D01*
X0112057Y0025000D01*
X0112625Y0025568D01*
X0112625Y0027432D01*
X0111307Y0028750D01*
X0109443Y0028750D01*
X0108794Y0028101D01*
X0108794Y0028377D01*
X0108266Y0028904D01*
X0107836Y0028904D01*
X0108250Y0029318D01*
X0108250Y0031182D01*
X0106932Y0032500D01*
X0105068Y0032500D01*
X0104437Y0031869D01*
X0103807Y0032500D01*
X0101943Y0032500D01*
X0101312Y0031869D01*
X0100682Y0032500D01*
X0098818Y0032500D01*
X0097500Y0031182D01*
X0097500Y0030447D01*
X0097000Y0030947D01*
X0097000Y0032432D01*
X0095682Y0033750D01*
X0093818Y0033750D01*
X0093187Y0033119D01*
X0092557Y0033750D01*
X0090693Y0033750D01*
X0089375Y0032432D01*
X0089375Y0030568D01*
X0090693Y0029250D01*
X0092178Y0029250D01*
X0092524Y0028904D01*
X0092482Y0028904D01*
X0091954Y0028377D01*
X0090619Y0029324D02*
X0081500Y0029324D01*
X0081500Y0030323D02*
X0089620Y0030323D01*
X0089375Y0031321D02*
X0081500Y0031321D01*
X0081500Y0032320D02*
X0089375Y0032320D01*
X0090261Y0033318D02*
X0081500Y0033318D01*
X0081500Y0034317D02*
X0119500Y0034317D01*
X0119500Y0035315D02*
X0081500Y0035315D01*
X0081500Y0036314D02*
X0119500Y0036314D01*
X0121500Y0036314D02*
X0157000Y0036314D01*
X0157000Y0035315D02*
X0121500Y0035315D01*
X0121500Y0034317D02*
X0157000Y0034317D01*
X0157000Y0033318D02*
X0136114Y0033318D01*
X0135682Y0033750D02*
X0133818Y0033750D01*
X0133188Y0033119D01*
X0132557Y0033750D01*
X0130693Y0033750D01*
X0129375Y0032432D01*
X0129375Y0030568D01*
X0130693Y0029250D01*
X0132178Y0029250D01*
X0132524Y0028904D01*
X0132482Y0028904D01*
X0131954Y0028377D01*
X0131954Y0024875D01*
X0132316Y0024513D01*
X0131753Y0023950D01*
X0131107Y0023950D01*
X0130057Y0025000D01*
X0128193Y0025000D01*
X0126875Y0023682D01*
X0126875Y0021818D01*
X0128193Y0020500D01*
X0130057Y0020500D01*
X0131107Y0021550D01*
X0132747Y0021550D01*
X0133450Y0022253D01*
X0135545Y0024348D01*
X0135589Y0024348D01*
X0135610Y0024369D01*
X0135631Y0024348D01*
X0137164Y0024348D01*
X0137185Y0024369D01*
X0137206Y0024348D01*
X0138550Y0024348D01*
X0138550Y0024128D01*
X0140425Y0022253D01*
X0141128Y0021550D01*
X0150268Y0021550D01*
X0151318Y0020500D01*
X0153182Y0020500D01*
X0154500Y0021818D01*
X0154500Y0023682D01*
X0153182Y0025000D01*
X0152057Y0025000D01*
X0152625Y0025568D01*
X0152625Y0027432D01*
X0151307Y0028750D01*
X0149443Y0028750D01*
X0148794Y0028101D01*
X0148794Y0028377D01*
X0148266Y0028904D01*
X0147836Y0028904D01*
X0148250Y0029318D01*
X0148250Y0031182D01*
X0146932Y0032500D01*
X0145068Y0032500D01*
X0144437Y0031869D01*
X0143807Y0032500D01*
X0141943Y0032500D01*
X0141312Y0031869D01*
X0140682Y0032500D01*
X0138818Y0032500D01*
X0137500Y0031182D01*
X0137500Y0030447D01*
X0137000Y0030947D01*
X0137000Y0032432D01*
X0135682Y0033750D01*
X0137000Y0032320D02*
X0138638Y0032320D01*
X0137639Y0031321D02*
X0137000Y0031321D01*
X0140862Y0032320D02*
X0141763Y0032320D01*
X0143987Y0032320D02*
X0144888Y0032320D01*
X0147112Y0032320D02*
X0157000Y0032320D01*
X0157000Y0031321D02*
X0148111Y0031321D01*
X0148250Y0030323D02*
X0157000Y0030323D01*
X0157000Y0029324D02*
X0148250Y0029324D01*
X0148794Y0028326D02*
X0149019Y0028326D01*
X0151731Y0028326D02*
X0157000Y0028326D01*
X0157000Y0027327D02*
X0152625Y0027327D01*
X0152625Y0026329D02*
X0157000Y0026329D01*
X0157000Y0025330D02*
X0152387Y0025330D01*
X0153850Y0024332D02*
X0157000Y0024332D01*
X0157000Y0023333D02*
X0154500Y0023333D01*
X0154500Y0022335D02*
X0157000Y0022335D01*
X0157000Y0021336D02*
X0154018Y0021336D01*
X0153818Y0020625D02*
X0152768Y0019575D01*
X0141128Y0019575D01*
X0138550Y0016997D01*
X0138550Y0016778D01*
X0137285Y0016778D01*
X0137264Y0016757D01*
X0137243Y0016778D01*
X0135710Y0016778D01*
X0135689Y0016757D01*
X0135668Y0016778D01*
X0135544Y0016778D01*
X0133450Y0018872D01*
X0132747Y0019575D01*
X0130503Y0019575D01*
X0127803Y0016875D01*
X0126318Y0016875D01*
X0125000Y0015557D01*
X0125000Y0013693D01*
X0126318Y0012375D01*
X0128182Y0012375D01*
X0129500Y0013693D01*
X0129500Y0015178D01*
X0131497Y0017175D01*
X0131753Y0017175D01*
X0131931Y0016997D01*
X0131733Y0016799D01*
X0131535Y0016457D01*
X0131433Y0016075D01*
X0131433Y0014500D01*
X0133327Y0014500D01*
X0131433Y0014500D01*
X0131433Y0012925D01*
X0131535Y0012543D01*
X0131733Y0012201D01*
X0132012Y0011922D01*
X0132354Y0011724D01*
X0132589Y0011661D01*
X0132178Y0011250D01*
X0130693Y0011250D01*
X0129375Y0009932D01*
X0129375Y0008068D01*
X0130693Y0006750D01*
X0132557Y0006750D01*
X0133187Y0007381D01*
X0133818Y0006750D01*
X0135682Y0006750D01*
X0137000Y0008068D01*
X0137000Y0009553D01*
X0137500Y0010053D01*
X0137500Y0009943D01*
X0138818Y0008625D01*
X0140682Y0008625D01*
X0141312Y0009256D01*
X0141943Y0008625D01*
X0143807Y0008625D01*
X0144437Y0009256D01*
X0145068Y0008625D01*
X0146932Y0008625D01*
X0148187Y0009881D01*
X0149443Y0008625D01*
X0151307Y0008625D01*
X0152625Y0009943D01*
X0152625Y0011807D01*
X0151994Y0012437D01*
X0152625Y0013068D01*
X0152625Y0014932D01*
X0151307Y0016250D01*
X0150447Y0016250D01*
X0149522Y0017175D01*
X0152768Y0017175D01*
X0153818Y0016125D01*
X0155682Y0016125D01*
X0157000Y0017443D01*
X0157000Y0019307D01*
X0155682Y0020625D01*
X0153818Y0020625D01*
X0153531Y0020338D02*
X0121500Y0020338D01*
X0121500Y0021336D02*
X0127357Y0021336D01*
X0126875Y0022335D02*
X0121500Y0022335D01*
X0121500Y0023333D02*
X0126875Y0023333D01*
X0127525Y0024332D02*
X0121500Y0024332D01*
X0121500Y0025330D02*
X0131954Y0025330D01*
X0131954Y0026329D02*
X0121500Y0026329D01*
X0121500Y0027327D02*
X0131954Y0027327D01*
X0131954Y0028326D02*
X0121500Y0028326D01*
X0119500Y0028326D02*
X0111731Y0028326D01*
X0112625Y0027327D02*
X0119500Y0027327D01*
X0119500Y0026329D02*
X0112625Y0026329D01*
X0112387Y0025330D02*
X0119500Y0025330D01*
X0119500Y0024332D02*
X0113850Y0024332D01*
X0114500Y0023333D02*
X0119500Y0023333D01*
X0119500Y0022335D02*
X0114500Y0022335D01*
X0114018Y0021336D02*
X0119500Y0021336D01*
X0119500Y0020338D02*
X0115969Y0020338D01*
X0116968Y0019339D02*
X0119500Y0019339D01*
X0119500Y0018341D02*
X0117000Y0018341D01*
X0116899Y0017342D02*
X0119500Y0017342D01*
X0119500Y0016344D02*
X0115901Y0016344D01*
X0113599Y0016344D02*
X0110353Y0016344D01*
X0112212Y0015345D02*
X0119500Y0015345D01*
X0119500Y0014347D02*
X0112625Y0014347D01*
X0112625Y0013348D02*
X0119500Y0013348D01*
X0119500Y0012350D02*
X0112082Y0012350D01*
X0112625Y0011351D02*
X0119500Y0011351D01*
X0121500Y0011351D02*
X0132279Y0011351D01*
X0131647Y0012350D02*
X0121500Y0012350D01*
X0121500Y0013348D02*
X0125345Y0013348D01*
X0125000Y0014347D02*
X0121500Y0014347D01*
X0121500Y0015345D02*
X0125000Y0015345D01*
X0125787Y0016344D02*
X0121500Y0016344D01*
X0121500Y0017342D02*
X0128270Y0017342D01*
X0129269Y0018341D02*
X0121500Y0018341D01*
X0121500Y0019339D02*
X0130267Y0019339D01*
X0132983Y0019339D02*
X0140892Y0019339D01*
X0139894Y0018341D02*
X0133981Y0018341D01*
X0134980Y0017342D02*
X0138895Y0017342D01*
X0133327Y0014500D02*
X0133327Y0014500D01*
X0131433Y0014347D02*
X0129500Y0014347D01*
X0129667Y0015345D02*
X0131433Y0015345D01*
X0131505Y0016344D02*
X0130666Y0016344D01*
X0131433Y0013348D02*
X0129155Y0013348D01*
X0129796Y0010353D02*
X0121500Y0010353D01*
X0121500Y0009354D02*
X0129375Y0009354D01*
X0129375Y0008356D02*
X0121500Y0008356D01*
X0121500Y0007357D02*
X0130086Y0007357D01*
X0133164Y0007357D02*
X0133211Y0007357D01*
X0136289Y0007357D02*
X0157000Y0007357D01*
X0157000Y0008356D02*
X0137000Y0008356D01*
X0137000Y0009354D02*
X0138089Y0009354D01*
X0147661Y0009354D02*
X0148714Y0009354D01*
X0152036Y0009354D02*
X0157000Y0009354D01*
X0157000Y0010353D02*
X0152625Y0010353D01*
X0152625Y0011351D02*
X0157000Y0011351D01*
X0157000Y0012350D02*
X0152082Y0012350D01*
X0152625Y0013348D02*
X0157000Y0013348D01*
X0157000Y0014347D02*
X0152625Y0014347D01*
X0152212Y0015345D02*
X0157000Y0015345D01*
X0157000Y0016344D02*
X0155901Y0016344D01*
X0156899Y0017342D02*
X0157000Y0017342D01*
X0157000Y0018341D02*
X0157000Y0018341D01*
X0156968Y0019339D02*
X0157000Y0019339D01*
X0157000Y0020338D02*
X0155969Y0020338D01*
X0150482Y0021336D02*
X0130893Y0021336D01*
X0133532Y0022335D02*
X0140343Y0022335D01*
X0139345Y0023333D02*
X0134530Y0023333D01*
X0135529Y0024332D02*
X0138550Y0024332D01*
X0132135Y0024332D02*
X0130725Y0024332D01*
X0130619Y0029324D02*
X0121500Y0029324D01*
X0121500Y0030323D02*
X0129620Y0030323D01*
X0129375Y0031321D02*
X0121500Y0031321D01*
X0121500Y0032320D02*
X0129375Y0032320D01*
X0130261Y0033318D02*
X0121500Y0033318D01*
X0119500Y0033318D02*
X0096114Y0033318D01*
X0093386Y0033318D02*
X0092989Y0033318D01*
X0097000Y0032320D02*
X0098638Y0032320D01*
X0097639Y0031321D02*
X0097000Y0031321D01*
X0100862Y0032320D02*
X0101763Y0032320D01*
X0103987Y0032320D02*
X0104888Y0032320D01*
X0107112Y0032320D02*
X0119500Y0032320D01*
X0119500Y0031321D02*
X0108111Y0031321D01*
X0108250Y0030323D02*
X0119500Y0030323D01*
X0119500Y0029324D02*
X0108250Y0029324D01*
X0108794Y0028326D02*
X0109019Y0028326D01*
X0099345Y0023333D02*
X0094530Y0023333D01*
X0093532Y0022335D02*
X0100343Y0022335D01*
X0098550Y0024332D02*
X0095529Y0024332D01*
X0092135Y0024332D02*
X0090725Y0024332D01*
X0091954Y0025330D02*
X0081500Y0025330D01*
X0081500Y0024332D02*
X0087525Y0024332D01*
X0086875Y0023333D02*
X0081500Y0023333D01*
X0081500Y0022335D02*
X0086875Y0022335D01*
X0087357Y0021336D02*
X0081500Y0021336D01*
X0081500Y0020338D02*
X0113531Y0020338D01*
X0110482Y0021336D02*
X0090893Y0021336D01*
X0091954Y0026329D02*
X0081500Y0026329D01*
X0081500Y0027327D02*
X0091954Y0027327D01*
X0079500Y0029324D02*
X0068250Y0029324D01*
X0068250Y0030323D02*
X0079500Y0030323D01*
X0079500Y0031321D02*
X0068111Y0031321D01*
X0067112Y0032320D02*
X0079500Y0032320D01*
X0079500Y0033318D02*
X0056114Y0033318D01*
X0053386Y0033318D02*
X0052989Y0033318D01*
X0050261Y0033318D02*
X0041500Y0033318D01*
X0041500Y0034317D02*
X0079500Y0034317D01*
X0079500Y0035315D02*
X0041500Y0035315D01*
X0041500Y0036314D02*
X0079500Y0036314D01*
X0064888Y0032320D02*
X0063987Y0032320D01*
X0061763Y0032320D02*
X0060862Y0032320D01*
X0058638Y0032320D02*
X0057000Y0032320D01*
X0057000Y0031321D02*
X0057639Y0031321D01*
X0051954Y0028326D02*
X0041500Y0028326D01*
X0041500Y0027327D02*
X0051954Y0027327D01*
X0051954Y0026329D02*
X0041500Y0026329D01*
X0041500Y0025330D02*
X0051954Y0025330D01*
X0052135Y0024332D02*
X0050725Y0024332D01*
X0047525Y0024332D02*
X0041500Y0024332D01*
X0039500Y0024332D02*
X0033850Y0024332D01*
X0032387Y0025330D02*
X0039500Y0025330D01*
X0039500Y0026329D02*
X0032625Y0026329D01*
X0032625Y0027327D02*
X0039500Y0027327D01*
X0039500Y0028326D02*
X0031731Y0028326D01*
X0029019Y0028326D02*
X0028794Y0028326D01*
X0028250Y0029324D02*
X0039500Y0029324D01*
X0039500Y0030323D02*
X0028250Y0030323D01*
X0028111Y0031321D02*
X0039500Y0031321D01*
X0039500Y0032320D02*
X0027112Y0032320D01*
X0024888Y0032320D02*
X0023987Y0032320D01*
X0021763Y0032320D02*
X0020862Y0032320D01*
X0018638Y0032320D02*
X0017000Y0032320D01*
X0017000Y0031321D02*
X0017639Y0031321D01*
X0018550Y0024332D02*
X0015529Y0024332D01*
X0014530Y0023333D02*
X0019345Y0023333D01*
X0020343Y0022335D02*
X0013532Y0022335D01*
X0010893Y0021336D02*
X0030482Y0021336D01*
X0034500Y0022335D02*
X0039500Y0022335D01*
X0039500Y0023333D02*
X0034500Y0023333D01*
X0041500Y0023333D02*
X0046875Y0023333D01*
X0046875Y0022335D02*
X0041500Y0022335D01*
X0041500Y0021336D02*
X0047357Y0021336D01*
X0050893Y0021336D02*
X0070482Y0021336D01*
X0073531Y0020338D02*
X0041500Y0020338D01*
X0053532Y0022335D02*
X0060343Y0022335D01*
X0059345Y0023333D02*
X0054530Y0023333D01*
X0055529Y0024332D02*
X0058550Y0024332D01*
X0050619Y0029324D02*
X0041500Y0029324D01*
X0041500Y0030323D02*
X0049620Y0030323D01*
X0049375Y0031321D02*
X0041500Y0031321D01*
X0041500Y0032320D02*
X0049375Y0032320D01*
X0068794Y0028326D02*
X0069019Y0028326D01*
X0074018Y0021336D02*
X0079500Y0021336D01*
X0073599Y0016344D02*
X0070353Y0016344D01*
X0081500Y0011351D02*
X0092279Y0011351D01*
X0089796Y0010353D02*
X0081500Y0010353D01*
X0081500Y0009354D02*
X0089375Y0009354D01*
X0089375Y0008356D02*
X0081500Y0008356D01*
X0081500Y0007357D02*
X0090086Y0007357D01*
X0093164Y0007357D02*
X0093211Y0007357D01*
X0096289Y0007357D02*
X0119500Y0007357D01*
X0119500Y0008356D02*
X0097000Y0008356D01*
X0097000Y0009354D02*
X0098089Y0009354D01*
X0107661Y0009354D02*
X0108714Y0009354D01*
X0112036Y0009354D02*
X0119500Y0009354D01*
X0119500Y0010353D02*
X0112625Y0010353D01*
X0119500Y0006359D02*
X0081500Y0006359D01*
X0081500Y0005360D02*
X0119500Y0005360D01*
X0119500Y0004362D02*
X0081500Y0004362D01*
X0079500Y0004362D02*
X0041500Y0004362D01*
X0041500Y0005360D02*
X0079500Y0005360D01*
X0079500Y0006359D02*
X0041500Y0006359D01*
X0039500Y0006359D02*
X0004000Y0006359D01*
X0004000Y0005360D02*
X0039500Y0005360D01*
X0039500Y0004362D02*
X0004000Y0004362D01*
X0004000Y0007357D02*
X0010086Y0007357D01*
X0009375Y0008356D02*
X0004000Y0008356D01*
X0004000Y0009354D02*
X0009375Y0009354D01*
X0009796Y0010353D02*
X0004000Y0010353D01*
X0004000Y0011351D02*
X0012279Y0011351D01*
X0011647Y0012350D02*
X0004000Y0012350D01*
X0004000Y0013348D02*
X0005345Y0013348D01*
X0005000Y0014347D02*
X0004000Y0014347D01*
X0004000Y0015345D02*
X0005000Y0015345D01*
X0005787Y0016344D02*
X0004000Y0016344D01*
X0004000Y0017342D02*
X0008270Y0017342D01*
X0009269Y0018341D02*
X0004000Y0018341D01*
X0004000Y0019339D02*
X0010267Y0019339D01*
X0012983Y0019339D02*
X0020892Y0019339D01*
X0019894Y0018341D02*
X0013981Y0018341D01*
X0014980Y0017342D02*
X0018895Y0017342D01*
X0013327Y0014500D02*
X0013327Y0014500D01*
X0011433Y0014347D02*
X0009500Y0014347D01*
X0009667Y0015345D02*
X0011433Y0015345D01*
X0011505Y0016344D02*
X0010666Y0016344D01*
X0011433Y0013348D02*
X0009155Y0013348D01*
X0017000Y0009354D02*
X0018089Y0009354D01*
X0017000Y0008356D02*
X0039500Y0008356D01*
X0039500Y0009354D02*
X0032036Y0009354D01*
X0032625Y0010353D02*
X0039500Y0010353D01*
X0039500Y0007357D02*
X0016289Y0007357D01*
X0013211Y0007357D02*
X0013164Y0007357D01*
X0027661Y0009354D02*
X0028714Y0009354D01*
X0012135Y0024332D02*
X0010725Y0024332D01*
X0005404Y0053289D02*
X0004000Y0053289D01*
X0004000Y0054287D02*
X0005000Y0054287D01*
X0005000Y0055286D02*
X0004000Y0055286D01*
X0004000Y0056284D02*
X0005727Y0056284D01*
X0013042Y0059280D02*
X0020833Y0059280D01*
X0019834Y0058281D02*
X0014041Y0058281D01*
X0015039Y0057283D02*
X0018836Y0057283D01*
X0010834Y0061277D02*
X0030541Y0061277D01*
X0020403Y0062275D02*
X0013472Y0062275D01*
X0014471Y0063274D02*
X0019404Y0063274D01*
X0018550Y0064272D02*
X0015469Y0064272D01*
X0012075Y0064272D02*
X0010785Y0064272D01*
X0011954Y0065271D02*
X0004000Y0065271D01*
X0004000Y0066269D02*
X0011954Y0066269D01*
X0011954Y0067268D02*
X0004000Y0067268D01*
X0004000Y0068266D02*
X0011954Y0068266D01*
X0010678Y0069265D02*
X0004000Y0069265D01*
X0004000Y0070263D02*
X0009680Y0070263D01*
X0009375Y0071262D02*
X0004000Y0071262D01*
X0004000Y0072260D02*
X0009375Y0072260D01*
X0010202Y0073259D02*
X0004000Y0073259D01*
X0004000Y0074257D02*
X0039500Y0074257D01*
X0039500Y0073259D02*
X0016173Y0073259D01*
X0017000Y0072260D02*
X0018578Y0072260D01*
X0020922Y0072260D02*
X0021703Y0072260D01*
X0024047Y0072260D02*
X0024828Y0072260D01*
X0027172Y0072260D02*
X0039500Y0072260D01*
X0041500Y0072260D02*
X0049375Y0072260D01*
X0050202Y0073259D02*
X0041500Y0073259D01*
X0041500Y0074257D02*
X0079500Y0074257D01*
X0079500Y0073259D02*
X0056173Y0073259D01*
X0057000Y0072260D02*
X0058578Y0072260D01*
X0060922Y0072260D02*
X0061703Y0072260D01*
X0064047Y0072260D02*
X0064828Y0072260D01*
X0067172Y0072260D02*
X0079500Y0072260D01*
X0081500Y0072260D02*
X0089375Y0072260D01*
X0090202Y0073259D02*
X0081500Y0073259D01*
X0079500Y0075256D02*
X0041500Y0075256D01*
X0039500Y0075256D02*
X0004000Y0075256D01*
X0004000Y0076254D02*
X0039500Y0076254D01*
X0041500Y0076254D02*
X0079500Y0076254D01*
X0081500Y0076254D02*
X0119500Y0076254D01*
X0097580Y0071262D02*
X0097000Y0071262D01*
X0093327Y0073259D02*
X0093048Y0073259D01*
X0095469Y0064272D02*
X0098550Y0064272D01*
X0099404Y0063274D02*
X0094471Y0063274D01*
X0093472Y0062275D02*
X0100403Y0062275D01*
X0110413Y0056284D02*
X0113659Y0056284D01*
X0111977Y0049295D02*
X0119500Y0049295D01*
X0108773Y0049295D02*
X0107602Y0049295D01*
X0079500Y0049295D02*
X0071977Y0049295D01*
X0072625Y0050293D02*
X0079500Y0050293D01*
X0079500Y0051292D02*
X0072625Y0051292D01*
X0072142Y0052290D02*
X0079500Y0052290D01*
X0079500Y0053289D02*
X0072625Y0053289D01*
X0073659Y0056284D02*
X0070413Y0056284D01*
X0060403Y0062275D02*
X0053472Y0062275D01*
X0054471Y0063274D02*
X0059404Y0063274D01*
X0058550Y0064272D02*
X0055469Y0064272D01*
X0057000Y0071262D02*
X0057580Y0071262D01*
X0053327Y0073259D02*
X0053048Y0073259D01*
X0017580Y0071262D02*
X0017000Y0071262D01*
X0013327Y0073259D02*
X0013048Y0073259D01*
X0007465Y0064272D02*
X0004000Y0064272D01*
X0004000Y0063274D02*
X0006875Y0063274D01*
X0006875Y0062275D02*
X0004000Y0062275D01*
X0004000Y0061277D02*
X0007416Y0061277D01*
X0067602Y0049295D02*
X0068773Y0049295D01*
X0132989Y0033318D02*
X0133386Y0033318D01*
X0150353Y0016344D02*
X0153599Y0016344D01*
X0157000Y0006359D02*
X0121500Y0006359D01*
X0121500Y0005360D02*
X0157000Y0005360D01*
X0157000Y0004362D02*
X0121500Y0004362D01*
D12*
X0131625Y0009000D03*
X0134750Y0009000D03*
X0139750Y0010875D03*
X0142875Y0010875D03*
X0146000Y0010875D03*
X0150375Y0010875D03*
X0150375Y0014000D03*
X0154750Y0018375D03*
X0152250Y0022750D03*
X0150375Y0026500D03*
X0146000Y0030250D03*
X0142875Y0030250D03*
X0139750Y0030250D03*
X0134750Y0031500D03*
X0131625Y0031500D03*
X0129125Y0022750D03*
X0126625Y0018375D03*
X0127250Y0014625D03*
X0114750Y0018375D03*
X0110375Y0014000D03*
X0110375Y0010875D03*
X0106000Y0010875D03*
X0102875Y0010875D03*
X0099750Y0010875D03*
X0094750Y0009000D03*
X0091625Y0009000D03*
X0087250Y0014625D03*
X0086625Y0018375D03*
X0089125Y0022750D03*
X0099750Y0030250D03*
X0102875Y0030250D03*
X0106000Y0030250D03*
X0110375Y0026500D03*
X0112250Y0022750D03*
X0094750Y0031500D03*
X0091625Y0031500D03*
X0072250Y0022750D03*
X0070375Y0026500D03*
X0066000Y0030250D03*
X0062875Y0030250D03*
X0059750Y0030250D03*
X0054750Y0031500D03*
X0051625Y0031500D03*
X0049125Y0022750D03*
X0046625Y0018375D03*
X0047250Y0014625D03*
X0051625Y0009000D03*
X0054750Y0009000D03*
X0059750Y0010875D03*
X0062875Y0010875D03*
X0066000Y0010875D03*
X0070375Y0010875D03*
X0070375Y0014000D03*
X0074750Y0018375D03*
X0034750Y0018375D03*
X0030375Y0014000D03*
X0030375Y0010875D03*
X0026000Y0010875D03*
X0022875Y0010875D03*
X0019750Y0010875D03*
X0014750Y0009000D03*
X0011625Y0009000D03*
X0007250Y0014625D03*
X0006625Y0018375D03*
X0009125Y0022750D03*
X0019750Y0030250D03*
X0022875Y0030250D03*
X0026000Y0030250D03*
X0030375Y0026500D03*
X0032250Y0022750D03*
X0014750Y0031500D03*
X0011625Y0031500D03*
X0011625Y0049000D03*
X0014750Y0049000D03*
X0019750Y0050875D03*
X0022875Y0050875D03*
X0026000Y0050875D03*
X0030375Y0050875D03*
X0030375Y0054000D03*
X0034750Y0058375D03*
X0032250Y0062750D03*
X0030375Y0066500D03*
X0026000Y0070250D03*
X0022875Y0070250D03*
X0019750Y0070250D03*
X0014750Y0071500D03*
X0011625Y0071500D03*
X0009125Y0062750D03*
X0006625Y0058375D03*
X0007250Y0054625D03*
X0046625Y0058375D03*
X0047250Y0054625D03*
X0051625Y0049000D03*
X0054750Y0049000D03*
X0059750Y0050875D03*
X0062875Y0050875D03*
X0066000Y0050875D03*
X0070375Y0050875D03*
X0070375Y0054000D03*
X0074750Y0058375D03*
X0072250Y0062750D03*
X0070375Y0066500D03*
X0066000Y0070250D03*
X0062875Y0070250D03*
X0059750Y0070250D03*
X0054750Y0071500D03*
X0051625Y0071500D03*
X0049125Y0062750D03*
X0086625Y0058375D03*
X0087250Y0054625D03*
X0091625Y0049000D03*
X0094750Y0049000D03*
X0099750Y0050875D03*
X0102875Y0050875D03*
X0106000Y0050875D03*
X0110375Y0050875D03*
X0110375Y0054000D03*
X0114750Y0058375D03*
X0112250Y0062750D03*
X0110375Y0066500D03*
X0106000Y0070250D03*
X0102875Y0070250D03*
X0099750Y0070250D03*
X0094750Y0071500D03*
X0091625Y0071500D03*
X0089125Y0062750D03*
X0126625Y0058375D03*
X0127250Y0054625D03*
X0131625Y0049000D03*
X0134750Y0049000D03*
X0139750Y0050875D03*
X0142875Y0050875D03*
X0146000Y0050875D03*
X0150375Y0050875D03*
X0150375Y0054000D03*
X0154750Y0058375D03*
X0152250Y0062750D03*
X0150375Y0066500D03*
X0146000Y0070250D03*
X0142875Y0070250D03*
X0139750Y0070250D03*
X0134750Y0071500D03*
X0131625Y0071500D03*
X0129125Y0062750D03*
D13*
X0132250Y0062750D01*
X0134750Y0065250D01*
X0134750Y0066500D01*
X0134823Y0066626D01*
X0136398Y0066626D02*
X0136625Y0067125D01*
X0136625Y0067750D01*
X0135375Y0069000D01*
X0134125Y0069000D01*
X0131625Y0071500D01*
X0134750Y0071500D02*
X0137875Y0068375D01*
X0137875Y0067125D01*
X0137972Y0066626D01*
X0139547Y0066626D02*
X0139750Y0066500D01*
X0139750Y0064625D01*
X0141625Y0062750D01*
X0152250Y0062750D01*
X0150375Y0066500D02*
X0147875Y0064000D01*
X0147250Y0064000D01*
X0146000Y0065250D01*
X0146000Y0066500D01*
X0145846Y0066626D01*
X0144272Y0066626D02*
X0144125Y0067125D01*
X0144125Y0068375D01*
X0146000Y0070250D01*
X0142875Y0070250D02*
X0142875Y0067125D01*
X0142697Y0066626D01*
X0141122Y0066626D02*
X0141000Y0067125D01*
X0141000Y0069000D01*
X0139750Y0070250D01*
X0141625Y0058375D02*
X0154750Y0058375D01*
X0150375Y0054625D02*
X0150375Y0054000D01*
X0150375Y0054625D02*
X0147875Y0057125D01*
X0147250Y0057125D01*
X0146000Y0055875D01*
X0146000Y0054625D01*
X0145925Y0054500D01*
X0144350Y0054500D02*
X0144125Y0054000D01*
X0144125Y0052750D01*
X0146000Y0050875D01*
X0142875Y0050875D02*
X0142875Y0054000D01*
X0142776Y0054500D01*
X0141201Y0054500D02*
X0141000Y0054000D01*
X0141000Y0052125D01*
X0139750Y0050875D01*
X0137875Y0052125D02*
X0134750Y0049000D01*
X0134125Y0051500D02*
X0131625Y0049000D01*
X0134125Y0051500D02*
X0134750Y0051500D01*
X0136625Y0053375D01*
X0136625Y0054000D01*
X0136476Y0054500D01*
X0137875Y0054000D02*
X0138051Y0054500D01*
X0137875Y0054000D02*
X0137875Y0052125D01*
X0139626Y0054500D02*
X0139750Y0054625D01*
X0139750Y0056500D01*
X0141625Y0058375D01*
X0134750Y0055875D02*
X0132250Y0058375D01*
X0131000Y0058375D01*
X0127250Y0054625D01*
X0134750Y0054625D02*
X0134902Y0054500D01*
X0134750Y0054625D02*
X0134750Y0055875D01*
X0147500Y0054500D02*
X0147875Y0054000D01*
X0147875Y0053375D01*
X0150375Y0050875D01*
X0114750Y0058375D02*
X0101625Y0058375D01*
X0099750Y0056500D01*
X0099750Y0054625D01*
X0099626Y0054500D01*
X0101000Y0054000D02*
X0101201Y0054500D01*
X0101000Y0054000D02*
X0101000Y0052125D01*
X0099750Y0050875D01*
X0097875Y0052125D02*
X0094750Y0049000D01*
X0094125Y0051500D02*
X0091625Y0049000D01*
X0094125Y0051500D02*
X0094750Y0051500D01*
X0096625Y0053375D01*
X0096625Y0054000D01*
X0096476Y0054500D01*
X0097875Y0054000D02*
X0098051Y0054500D01*
X0097875Y0054000D02*
X0097875Y0052125D01*
X0094902Y0054500D02*
X0094750Y0054625D01*
X0094750Y0055875D01*
X0092250Y0058375D01*
X0091000Y0058375D01*
X0087250Y0054625D01*
X0074750Y0058375D02*
X0061625Y0058375D01*
X0059750Y0056500D01*
X0059750Y0054625D01*
X0059626Y0054500D01*
X0061000Y0054000D02*
X0061201Y0054500D01*
X0061000Y0054000D02*
X0061000Y0052125D01*
X0059750Y0050875D01*
X0057875Y0052125D02*
X0054750Y0049000D01*
X0054125Y0051500D02*
X0051625Y0049000D01*
X0054125Y0051500D02*
X0054750Y0051500D01*
X0056625Y0053375D01*
X0056625Y0054000D01*
X0056476Y0054500D01*
X0057875Y0054000D02*
X0058051Y0054500D01*
X0057875Y0054000D02*
X0057875Y0052125D01*
X0054902Y0054500D02*
X0054750Y0054625D01*
X0054750Y0055875D01*
X0052250Y0058375D01*
X0051000Y0058375D01*
X0047250Y0054625D01*
X0034750Y0058375D02*
X0021625Y0058375D01*
X0019750Y0056500D01*
X0019750Y0054625D01*
X0019626Y0054500D01*
X0021000Y0054000D02*
X0021201Y0054500D01*
X0021000Y0054000D02*
X0021000Y0052125D01*
X0019750Y0050875D01*
X0017875Y0052125D02*
X0014750Y0049000D01*
X0014125Y0051500D02*
X0011625Y0049000D01*
X0014125Y0051500D02*
X0014750Y0051500D01*
X0016625Y0053375D01*
X0016625Y0054000D01*
X0016476Y0054500D01*
X0017875Y0054000D02*
X0018051Y0054500D01*
X0017875Y0054000D02*
X0017875Y0052125D01*
X0014902Y0054500D02*
X0014750Y0054625D01*
X0014750Y0055875D01*
X0012250Y0058375D01*
X0011000Y0058375D01*
X0007250Y0054625D01*
X0009125Y0062750D02*
X0012250Y0062750D01*
X0014750Y0065250D01*
X0014750Y0066500D01*
X0014823Y0066626D01*
X0016398Y0066626D02*
X0016625Y0067125D01*
X0016625Y0067750D01*
X0015375Y0069000D01*
X0014125Y0069000D01*
X0011625Y0071500D01*
X0014750Y0071500D02*
X0017875Y0068375D01*
X0017875Y0067125D01*
X0017972Y0066626D01*
X0019547Y0066626D02*
X0019750Y0066500D01*
X0019750Y0064625D01*
X0021625Y0062750D01*
X0032250Y0062750D01*
X0030375Y0066500D02*
X0027875Y0064000D01*
X0027250Y0064000D01*
X0026000Y0065250D01*
X0026000Y0066500D01*
X0025846Y0066626D01*
X0024272Y0066626D02*
X0024125Y0067125D01*
X0024125Y0068375D01*
X0026000Y0070250D01*
X0022875Y0070250D02*
X0022875Y0067125D01*
X0022697Y0066626D01*
X0021122Y0066626D02*
X0021000Y0067125D01*
X0021000Y0069000D01*
X0019750Y0070250D01*
X0027250Y0057125D02*
X0027875Y0057125D01*
X0030375Y0054625D01*
X0030375Y0054000D01*
X0027875Y0054000D02*
X0027875Y0053375D01*
X0030375Y0050875D01*
X0026000Y0050875D02*
X0024125Y0052750D01*
X0024125Y0054000D01*
X0024350Y0054500D01*
X0022875Y0054000D02*
X0022776Y0054500D01*
X0022875Y0054000D02*
X0022875Y0050875D01*
X0027500Y0054500D02*
X0027875Y0054000D01*
X0026000Y0054625D02*
X0025925Y0054500D01*
X0026000Y0054625D02*
X0026000Y0055875D01*
X0027250Y0057125D01*
X0049125Y0062750D02*
X0052250Y0062750D01*
X0054750Y0065250D01*
X0054750Y0066500D01*
X0054823Y0066626D01*
X0056398Y0066626D02*
X0056625Y0067125D01*
X0056625Y0067750D01*
X0055375Y0069000D01*
X0054125Y0069000D01*
X0051625Y0071500D01*
X0054750Y0071500D02*
X0057875Y0068375D01*
X0057875Y0067125D01*
X0057972Y0066626D01*
X0059547Y0066626D02*
X0059750Y0066500D01*
X0059750Y0064625D01*
X0061625Y0062750D01*
X0072250Y0062750D01*
X0070375Y0066500D02*
X0067875Y0064000D01*
X0067250Y0064000D01*
X0066000Y0065250D01*
X0066000Y0066500D01*
X0065846Y0066626D01*
X0064272Y0066626D02*
X0064125Y0067125D01*
X0064125Y0068375D01*
X0066000Y0070250D01*
X0062875Y0070250D02*
X0062875Y0067125D01*
X0062697Y0066626D01*
X0061122Y0066626D02*
X0061000Y0067125D01*
X0061000Y0069000D01*
X0059750Y0070250D01*
X0067250Y0057125D02*
X0067875Y0057125D01*
X0070375Y0054625D01*
X0070375Y0054000D01*
X0067875Y0054000D02*
X0067875Y0053375D01*
X0070375Y0050875D01*
X0066000Y0050875D02*
X0064125Y0052750D01*
X0064125Y0054000D01*
X0064350Y0054500D01*
X0062875Y0054000D02*
X0062776Y0054500D01*
X0062875Y0054000D02*
X0062875Y0050875D01*
X0067500Y0054500D02*
X0067875Y0054000D01*
X0066000Y0054625D02*
X0066000Y0055875D01*
X0067250Y0057125D01*
X0066000Y0054625D02*
X0065925Y0054500D01*
X0089125Y0062750D02*
X0092250Y0062750D01*
X0094750Y0065250D01*
X0094750Y0066500D01*
X0094823Y0066626D01*
X0096398Y0066626D02*
X0096625Y0067125D01*
X0096625Y0067750D01*
X0095375Y0069000D01*
X0094125Y0069000D01*
X0091625Y0071500D01*
X0094750Y0071500D02*
X0097875Y0068375D01*
X0097875Y0067125D01*
X0097972Y0066626D01*
X0099547Y0066626D02*
X0099750Y0066500D01*
X0099750Y0064625D01*
X0101625Y0062750D01*
X0112250Y0062750D01*
X0110375Y0066500D02*
X0107875Y0064000D01*
X0107250Y0064000D01*
X0106000Y0065250D01*
X0106000Y0066500D01*
X0105846Y0066626D01*
X0104272Y0066626D02*
X0104125Y0067125D01*
X0104125Y0068375D01*
X0106000Y0070250D01*
X0102875Y0070250D02*
X0102875Y0067125D01*
X0102697Y0066626D01*
X0101122Y0066626D02*
X0101000Y0067125D01*
X0101000Y0069000D01*
X0099750Y0070250D01*
X0107250Y0057125D02*
X0107875Y0057125D01*
X0110375Y0054625D01*
X0110375Y0054000D01*
X0107875Y0054000D02*
X0107875Y0053375D01*
X0110375Y0050875D01*
X0106000Y0050875D02*
X0104125Y0052750D01*
X0104125Y0054000D01*
X0104350Y0054500D01*
X0102875Y0054000D02*
X0102776Y0054500D01*
X0102875Y0054000D02*
X0102875Y0050875D01*
X0107500Y0054500D02*
X0107875Y0054000D01*
X0106000Y0054625D02*
X0106000Y0055875D01*
X0107250Y0057125D01*
X0106000Y0054625D02*
X0105925Y0054500D01*
X0094750Y0031500D02*
X0097875Y0028375D01*
X0097875Y0027125D01*
X0097972Y0026626D01*
X0096625Y0027125D02*
X0096398Y0026626D01*
X0096625Y0027125D02*
X0096625Y0027750D01*
X0095375Y0029000D01*
X0094125Y0029000D01*
X0091625Y0031500D01*
X0099750Y0030250D02*
X0101000Y0029000D01*
X0101000Y0027125D01*
X0101122Y0026626D01*
X0099750Y0026500D02*
X0099547Y0026626D01*
X0099750Y0026500D02*
X0099750Y0024625D01*
X0101625Y0022750D01*
X0112250Y0022750D01*
X0110375Y0026500D02*
X0107875Y0024000D01*
X0107250Y0024000D01*
X0106000Y0025250D01*
X0106000Y0026500D01*
X0105846Y0026626D01*
X0104272Y0026626D02*
X0104125Y0027125D01*
X0104125Y0028375D01*
X0106000Y0030250D01*
X0102875Y0030250D02*
X0102875Y0027125D01*
X0102697Y0026626D01*
X0094823Y0026626D02*
X0094750Y0026500D01*
X0094750Y0025250D01*
X0092250Y0022750D01*
X0089125Y0022750D01*
X0091000Y0018375D02*
X0087250Y0014625D01*
X0091000Y0018375D02*
X0092250Y0018375D01*
X0094750Y0015875D01*
X0094750Y0014625D01*
X0094902Y0014500D01*
X0096476Y0014500D02*
X0096625Y0014000D01*
X0096625Y0013375D01*
X0094750Y0011500D01*
X0094125Y0011500D01*
X0091625Y0009000D01*
X0094750Y0009000D02*
X0097875Y0012125D01*
X0097875Y0014000D01*
X0098051Y0014500D01*
X0099626Y0014500D02*
X0099750Y0014625D01*
X0099750Y0016500D01*
X0101625Y0018375D01*
X0114750Y0018375D01*
X0110375Y0014625D02*
X0110375Y0014000D01*
X0110375Y0014625D02*
X0107875Y0017125D01*
X0107250Y0017125D01*
X0106000Y0015875D01*
X0106000Y0014625D01*
X0105925Y0014500D01*
X0104350Y0014500D02*
X0104125Y0014000D01*
X0104125Y0012750D01*
X0106000Y0010875D01*
X0102875Y0010875D02*
X0102875Y0014000D01*
X0102776Y0014500D01*
X0101201Y0014500D02*
X0101000Y0014000D01*
X0101000Y0012125D01*
X0099750Y0010875D01*
X0107500Y0014500D02*
X0107875Y0014000D01*
X0107875Y0013375D01*
X0110375Y0010875D01*
X0127250Y0014625D02*
X0131000Y0018375D01*
X0132250Y0018375D01*
X0134750Y0015875D01*
X0134750Y0014625D01*
X0134902Y0014500D01*
X0136476Y0014500D02*
X0136625Y0014000D01*
X0136625Y0013375D01*
X0134750Y0011500D01*
X0134125Y0011500D01*
X0131625Y0009000D01*
X0134750Y0009000D02*
X0137875Y0012125D01*
X0137875Y0014000D01*
X0138051Y0014500D01*
X0139626Y0014500D02*
X0139750Y0014625D01*
X0139750Y0016500D01*
X0141625Y0018375D01*
X0154750Y0018375D01*
X0150375Y0014625D02*
X0150375Y0014000D01*
X0150375Y0014625D02*
X0147875Y0017125D01*
X0147250Y0017125D01*
X0146000Y0015875D01*
X0146000Y0014625D01*
X0145925Y0014500D01*
X0144350Y0014500D02*
X0144125Y0014000D01*
X0144125Y0012750D01*
X0146000Y0010875D01*
X0142875Y0010875D02*
X0142875Y0014000D01*
X0142776Y0014500D01*
X0141201Y0014500D02*
X0141000Y0014000D01*
X0141000Y0012125D01*
X0139750Y0010875D01*
X0147875Y0013375D02*
X0150375Y0010875D01*
X0147875Y0013375D02*
X0147875Y0014000D01*
X0147500Y0014500D01*
X0152250Y0022750D02*
X0141625Y0022750D01*
X0139750Y0024625D01*
X0139750Y0026500D01*
X0139547Y0026626D01*
X0141000Y0027125D02*
X0141122Y0026626D01*
X0141000Y0027125D02*
X0141000Y0029000D01*
X0139750Y0030250D01*
X0137875Y0028375D02*
X0134750Y0031500D01*
X0134125Y0029000D02*
X0131625Y0031500D01*
X0134125Y0029000D02*
X0135375Y0029000D01*
X0136625Y0027750D01*
X0136625Y0027125D01*
X0136398Y0026626D01*
X0137875Y0027125D02*
X0137972Y0026626D01*
X0137875Y0027125D02*
X0137875Y0028375D01*
X0134823Y0026626D02*
X0134750Y0026500D01*
X0134750Y0025250D01*
X0132250Y0022750D01*
X0129125Y0022750D01*
X0142697Y0026626D02*
X0142875Y0027125D01*
X0142875Y0030250D01*
X0144125Y0028375D02*
X0146000Y0030250D01*
X0144125Y0028375D02*
X0144125Y0027125D01*
X0144272Y0026626D01*
X0145846Y0026626D02*
X0146000Y0026500D01*
X0146000Y0025250D01*
X0147250Y0024000D01*
X0147875Y0024000D01*
X0150375Y0026500D01*
X0074750Y0018375D02*
X0061625Y0018375D01*
X0059750Y0016500D01*
X0059750Y0014625D01*
X0059626Y0014500D01*
X0061000Y0014000D02*
X0061201Y0014500D01*
X0061000Y0014000D02*
X0061000Y0012125D01*
X0059750Y0010875D01*
X0057875Y0012125D02*
X0054750Y0009000D01*
X0054125Y0011500D02*
X0051625Y0009000D01*
X0054125Y0011500D02*
X0054750Y0011500D01*
X0056625Y0013375D01*
X0056625Y0014000D01*
X0056476Y0014500D01*
X0057875Y0014000D02*
X0058051Y0014500D01*
X0057875Y0014000D02*
X0057875Y0012125D01*
X0054902Y0014500D02*
X0054750Y0014625D01*
X0054750Y0015875D01*
X0052250Y0018375D01*
X0051000Y0018375D01*
X0047250Y0014625D01*
X0034750Y0018375D02*
X0021625Y0018375D01*
X0019750Y0016500D01*
X0019750Y0014625D01*
X0019626Y0014500D01*
X0021000Y0014000D02*
X0021201Y0014500D01*
X0021000Y0014000D02*
X0021000Y0012125D01*
X0019750Y0010875D01*
X0017875Y0012125D02*
X0014750Y0009000D01*
X0014125Y0011500D02*
X0011625Y0009000D01*
X0014125Y0011500D02*
X0014750Y0011500D01*
X0016625Y0013375D01*
X0016625Y0014000D01*
X0016476Y0014500D01*
X0017875Y0014000D02*
X0018051Y0014500D01*
X0017875Y0014000D02*
X0017875Y0012125D01*
X0014902Y0014500D02*
X0014750Y0014625D01*
X0014750Y0015875D01*
X0012250Y0018375D01*
X0011000Y0018375D01*
X0007250Y0014625D01*
X0009125Y0022750D02*
X0012250Y0022750D01*
X0014750Y0025250D01*
X0014750Y0026500D01*
X0014823Y0026626D01*
X0016398Y0026626D02*
X0016625Y0027125D01*
X0016625Y0027750D01*
X0015375Y0029000D01*
X0014125Y0029000D01*
X0011625Y0031500D01*
X0014750Y0031500D02*
X0017875Y0028375D01*
X0017875Y0027125D01*
X0017972Y0026626D01*
X0019547Y0026626D02*
X0019750Y0026500D01*
X0019750Y0024625D01*
X0021625Y0022750D01*
X0032250Y0022750D01*
X0030375Y0026500D02*
X0027875Y0024000D01*
X0027250Y0024000D01*
X0026000Y0025250D01*
X0026000Y0026500D01*
X0025846Y0026626D01*
X0024272Y0026626D02*
X0024125Y0027125D01*
X0024125Y0028375D01*
X0026000Y0030250D01*
X0022875Y0030250D02*
X0022875Y0027125D01*
X0022697Y0026626D01*
X0021122Y0026626D02*
X0021000Y0027125D01*
X0021000Y0029000D01*
X0019750Y0030250D01*
X0027250Y0017125D02*
X0027875Y0017125D01*
X0030375Y0014625D01*
X0030375Y0014000D01*
X0027875Y0014000D02*
X0027875Y0013375D01*
X0030375Y0010875D01*
X0026000Y0010875D02*
X0024125Y0012750D01*
X0024125Y0014000D01*
X0024350Y0014500D01*
X0022875Y0014000D02*
X0022776Y0014500D01*
X0022875Y0014000D02*
X0022875Y0010875D01*
X0025925Y0014500D02*
X0026000Y0014625D01*
X0026000Y0015875D01*
X0027250Y0017125D01*
X0027500Y0014500D02*
X0027875Y0014000D01*
X0049125Y0022750D02*
X0052250Y0022750D01*
X0054750Y0025250D01*
X0054750Y0026500D01*
X0054823Y0026626D01*
X0056398Y0026626D02*
X0056625Y0027125D01*
X0056625Y0027750D01*
X0055375Y0029000D01*
X0054125Y0029000D01*
X0051625Y0031500D01*
X0054750Y0031500D02*
X0057875Y0028375D01*
X0057875Y0027125D01*
X0057972Y0026626D01*
X0059547Y0026626D02*
X0059750Y0026500D01*
X0059750Y0024625D01*
X0061625Y0022750D01*
X0072250Y0022750D01*
X0070375Y0026500D02*
X0067875Y0024000D01*
X0067250Y0024000D01*
X0066000Y0025250D01*
X0066000Y0026500D01*
X0065846Y0026626D01*
X0064272Y0026626D02*
X0064125Y0027125D01*
X0064125Y0028375D01*
X0066000Y0030250D01*
X0062875Y0030250D02*
X0062875Y0027125D01*
X0062697Y0026626D01*
X0061122Y0026626D02*
X0061000Y0027125D01*
X0061000Y0029000D01*
X0059750Y0030250D01*
X0067250Y0017125D02*
X0067875Y0017125D01*
X0070375Y0014625D01*
X0070375Y0014000D01*
X0067875Y0014000D02*
X0067875Y0013375D01*
X0070375Y0010875D01*
X0066000Y0010875D02*
X0064125Y0012750D01*
X0064125Y0014000D01*
X0064350Y0014500D01*
X0062875Y0014000D02*
X0062776Y0014500D01*
X0062875Y0014000D02*
X0062875Y0010875D01*
X0065925Y0014500D02*
X0066000Y0014625D01*
X0066000Y0015875D01*
X0067250Y0017125D01*
X0067500Y0014500D02*
X0067875Y0014000D01*
M02*
