G75*
%MOIN*%
%OFA0B0*%
%FSLAX25Y25*%
%IPPOS*%
%LPD*%
%AMOC8*
5,1,8,0,0,1.08239X$1,22.5*
%
%ADD10C,0.00000*%
%ADD11R,0.01500X0.04000*%
%ADD12C,0.00300*%
%ADD13C,0.01300*%
D10*
X0001800Y0001300D02*
X0001800Y0050761D01*
X0076001Y0050761D01*
X0076001Y0001300D01*
X0001800Y0001300D01*
D11*
X0018300Y0017200D03*
X0020800Y0017200D03*
X0023300Y0017200D03*
X0025800Y0017200D03*
X0028300Y0017200D03*
X0030800Y0017200D03*
X0033300Y0017200D03*
X0035800Y0017200D03*
X0038300Y0017200D03*
X0040800Y0017200D03*
X0043300Y0017200D03*
X0045800Y0017200D03*
X0048300Y0017200D03*
X0050800Y0017200D03*
X0053300Y0017200D03*
X0055800Y0017200D03*
X0058300Y0017200D03*
X0060800Y0017200D03*
X0060800Y0022200D03*
X0058300Y0022200D03*
X0055800Y0022200D03*
X0053300Y0022200D03*
X0050800Y0022200D03*
X0048300Y0022200D03*
X0045800Y0022200D03*
X0043300Y0022200D03*
X0040800Y0022200D03*
X0038300Y0022200D03*
X0035800Y0022200D03*
X0033300Y0022200D03*
X0030800Y0022200D03*
X0028300Y0022200D03*
X0025800Y0022200D03*
X0023300Y0022200D03*
X0020800Y0022200D03*
X0018300Y0022200D03*
X0018300Y0029800D03*
X0020800Y0029800D03*
X0023300Y0029800D03*
X0025800Y0029800D03*
X0028300Y0029800D03*
X0030800Y0029800D03*
X0033300Y0029800D03*
X0035800Y0029800D03*
X0038300Y0029800D03*
X0040800Y0029800D03*
X0043300Y0029800D03*
X0045800Y0029800D03*
X0048300Y0029800D03*
X0050800Y0029800D03*
X0053300Y0029800D03*
X0055800Y0029800D03*
X0058300Y0029800D03*
X0060800Y0029800D03*
X0060800Y0034800D03*
X0058300Y0034800D03*
X0055800Y0034800D03*
X0053300Y0034800D03*
X0050800Y0034800D03*
X0048300Y0034800D03*
X0045800Y0034800D03*
X0043300Y0034800D03*
X0040800Y0034800D03*
X0038300Y0034800D03*
X0035800Y0034800D03*
X0033300Y0034800D03*
X0030800Y0034800D03*
X0028300Y0034800D03*
X0025800Y0034800D03*
X0023300Y0034800D03*
X0020800Y0034800D03*
X0018300Y0034800D03*
D12*
X0018300Y0036400D01*
X0022200Y0040300D01*
X0061200Y0040300D01*
X0065700Y0035800D01*
X0065700Y0034600D01*
X0060900Y0029800D01*
X0060800Y0029800D01*
X0060900Y0029800D02*
X0060900Y0026800D01*
X0062100Y0025600D01*
X0062100Y0017500D01*
X0065100Y0017500D01*
X0062100Y0017500D02*
X0061200Y0017500D01*
X0060900Y0017200D01*
X0060800Y0017200D01*
X0058300Y0017200D02*
X0058200Y0017200D01*
X0057300Y0016300D01*
X0057300Y0014200D01*
X0059100Y0012400D02*
X0054600Y0012400D01*
X0054000Y0011800D01*
X0050100Y0011800D01*
X0048300Y0013600D01*
X0048300Y0017200D01*
X0047100Y0016000D02*
X0045900Y0017200D01*
X0045800Y0017200D01*
X0047100Y0016000D02*
X0047100Y0014200D01*
X0048300Y0011200D02*
X0043500Y0016000D01*
X0043500Y0017200D01*
X0043300Y0017200D01*
X0040800Y0017200D02*
X0040800Y0016300D01*
X0046500Y0010600D01*
X0060000Y0010600D01*
X0063600Y0014200D01*
X0063600Y0015700D01*
X0061800Y0014200D02*
X0061800Y0013300D01*
X0059700Y0011200D01*
X0048300Y0011200D01*
X0050700Y0013000D02*
X0050700Y0017200D01*
X0050800Y0017200D01*
X0053300Y0017200D02*
X0053400Y0017200D01*
X0053400Y0013000D01*
X0054600Y0014200D02*
X0054600Y0016000D01*
X0055800Y0017200D01*
X0055800Y0022200D02*
X0055800Y0023200D01*
X0053700Y0025300D01*
X0054600Y0026800D02*
X0054600Y0028600D01*
X0055800Y0029800D01*
X0057000Y0028600D02*
X0058200Y0029800D01*
X0058300Y0029800D01*
X0057000Y0028600D02*
X0057000Y0026800D01*
X0056100Y0025300D02*
X0058200Y0023200D01*
X0058200Y0022300D01*
X0058300Y0022200D01*
X0060600Y0022300D02*
X0060800Y0022200D01*
X0060600Y0022300D02*
X0060600Y0025300D01*
X0053100Y0023500D02*
X0053100Y0022300D01*
X0053300Y0022200D01*
X0053100Y0023500D02*
X0051300Y0025300D01*
X0052200Y0026800D02*
X0052200Y0028900D01*
X0053100Y0029800D01*
X0053300Y0029800D01*
X0050800Y0029800D02*
X0050700Y0029800D01*
X0049500Y0028600D01*
X0049500Y0026800D01*
X0048600Y0025300D02*
X0050700Y0023200D01*
X0050700Y0022300D01*
X0050800Y0022200D01*
X0048300Y0022200D02*
X0048300Y0023200D01*
X0046200Y0025300D01*
X0045300Y0026800D02*
X0045300Y0029500D01*
X0045600Y0029800D01*
X0045800Y0029800D01*
X0047100Y0028600D02*
X0048300Y0029800D01*
X0047100Y0028600D02*
X0047100Y0026800D01*
X0044400Y0025300D02*
X0044400Y0024700D01*
X0045600Y0023500D01*
X0045600Y0022300D01*
X0045800Y0022200D01*
X0043300Y0022200D02*
X0042600Y0022900D01*
X0042600Y0025300D01*
X0041700Y0026800D02*
X0043200Y0028300D01*
X0043200Y0029800D01*
X0043300Y0029800D01*
X0040800Y0029800D02*
X0039900Y0028900D01*
X0039900Y0026800D01*
X0040800Y0025300D02*
X0040800Y0022200D01*
X0038400Y0022300D02*
X0038300Y0022200D01*
X0038400Y0022300D02*
X0038400Y0025300D01*
X0037500Y0026800D02*
X0037500Y0029200D01*
X0038100Y0029800D01*
X0038300Y0029800D01*
X0035800Y0029800D02*
X0035700Y0029800D01*
X0035700Y0026800D01*
X0034800Y0025300D02*
X0034800Y0024700D01*
X0033300Y0023200D01*
X0033300Y0022200D01*
X0030900Y0022300D02*
X0030800Y0022200D01*
X0030900Y0022300D02*
X0030900Y0023200D01*
X0033000Y0025300D01*
X0032100Y0026800D02*
X0032100Y0028600D01*
X0030900Y0029800D01*
X0030800Y0029800D01*
X0029400Y0028900D02*
X0028500Y0029800D01*
X0028300Y0029800D01*
X0029400Y0028900D02*
X0029400Y0026800D01*
X0030300Y0025300D02*
X0028500Y0023500D01*
X0028500Y0022300D01*
X0028300Y0022200D01*
X0025800Y0022200D02*
X0025800Y0023200D01*
X0027900Y0025300D01*
X0027000Y0026800D02*
X0027000Y0028600D01*
X0025800Y0029800D01*
X0024600Y0028600D02*
X0023400Y0029800D01*
X0023300Y0029800D01*
X0024600Y0028600D02*
X0024600Y0026800D01*
X0025500Y0025300D02*
X0023400Y0023200D01*
X0023400Y0022300D01*
X0023300Y0022200D01*
X0021000Y0022300D02*
X0020800Y0022200D01*
X0021000Y0022300D02*
X0021000Y0023500D01*
X0022200Y0024700D01*
X0022500Y0024700D01*
X0023100Y0025300D01*
X0022200Y0026800D02*
X0022200Y0027400D01*
X0021000Y0028600D01*
X0021000Y0029800D01*
X0020800Y0029800D01*
X0018300Y0029800D02*
X0018300Y0027100D01*
X0019500Y0025900D01*
X0019500Y0019000D01*
X0018000Y0017500D01*
X0018300Y0017200D01*
X0018000Y0017500D02*
X0013500Y0017500D01*
X0015000Y0016300D02*
X0015600Y0016300D01*
X0021300Y0010600D01*
X0032700Y0010600D01*
X0038100Y0016000D01*
X0038100Y0017200D01*
X0038300Y0017200D01*
X0035800Y0017200D02*
X0035700Y0017200D01*
X0035700Y0016000D01*
X0033900Y0014200D01*
X0031800Y0014200D02*
X0031800Y0014800D01*
X0033300Y0016300D01*
X0033300Y0017200D01*
X0030800Y0017200D02*
X0030600Y0017200D01*
X0030600Y0014800D01*
X0027000Y0011200D01*
X0024300Y0011200D01*
X0021300Y0014200D01*
X0019800Y0014200D01*
X0021000Y0015400D02*
X0021000Y0017200D01*
X0020800Y0017200D01*
X0021000Y0015400D02*
X0024600Y0011800D01*
X0025800Y0011800D01*
X0026400Y0012400D01*
X0026400Y0014200D01*
X0025200Y0013000D02*
X0025200Y0016600D01*
X0025800Y0017200D01*
X0024000Y0016600D02*
X0023400Y0017200D01*
X0023300Y0017200D01*
X0024000Y0016600D02*
X0024000Y0014200D01*
X0028200Y0014200D02*
X0028200Y0017200D01*
X0028300Y0017200D01*
X0035800Y0022200D02*
X0036000Y0022300D01*
X0036600Y0022900D01*
X0036600Y0025300D01*
X0033900Y0026800D02*
X0033900Y0029200D01*
X0033300Y0029800D01*
X0033300Y0034800D02*
X0033300Y0035800D01*
X0031200Y0037900D01*
X0030600Y0036100D02*
X0028800Y0037900D01*
X0027000Y0037900D02*
X0027000Y0036100D01*
X0028300Y0034800D01*
X0030600Y0034900D02*
X0030800Y0034800D01*
X0030600Y0034900D02*
X0030600Y0036100D01*
X0033600Y0037900D02*
X0035700Y0035800D01*
X0035700Y0034900D01*
X0035800Y0034800D01*
X0038100Y0034900D02*
X0038300Y0034800D01*
X0038100Y0034900D02*
X0038100Y0036100D01*
X0036300Y0037900D01*
X0040800Y0035800D02*
X0040800Y0034800D01*
X0040800Y0035800D02*
X0042300Y0037300D01*
X0042300Y0037900D01*
X0044100Y0037900D02*
X0044100Y0035500D01*
X0043500Y0034900D01*
X0043300Y0034800D01*
X0045800Y0034800D02*
X0045900Y0034900D01*
X0045900Y0037900D01*
X0048300Y0038500D02*
X0048300Y0034800D01*
X0050700Y0034900D02*
X0050800Y0034800D01*
X0050700Y0034900D02*
X0050700Y0039100D01*
X0053400Y0039100D02*
X0053400Y0034900D01*
X0053300Y0034800D01*
X0054600Y0036100D02*
X0055800Y0034900D01*
X0055800Y0034800D01*
X0054600Y0036100D02*
X0054600Y0037900D01*
X0057300Y0037900D02*
X0057300Y0035800D01*
X0058300Y0034800D01*
X0060800Y0034800D02*
X0061200Y0035200D01*
X0064500Y0035200D01*
X0025800Y0034800D02*
X0025800Y0037900D01*
X0024600Y0039100D01*
X0022800Y0039100D01*
X0024000Y0037900D02*
X0024000Y0035500D01*
X0023300Y0034800D01*
X0020800Y0034800D02*
X0020700Y0034600D01*
X0019500Y0033400D01*
X0019500Y0027700D01*
X0020400Y0026800D01*
X0018300Y0026200D02*
X0017100Y0027400D01*
X0017100Y0034600D01*
X0013800Y0034600D01*
X0017100Y0034600D02*
X0018300Y0034600D01*
X0018300Y0034800D01*
X0018300Y0026200D02*
X0018300Y0022200D01*
D13*
X0023100Y0025300D03*
X0022200Y0026800D03*
X0020400Y0026800D03*
X0024600Y0026800D03*
X0025500Y0025300D03*
X0027000Y0026800D03*
X0027900Y0025300D03*
X0029400Y0026800D03*
X0030300Y0025300D03*
X0032100Y0026800D03*
X0033000Y0025300D03*
X0033900Y0026800D03*
X0034800Y0025300D03*
X0035700Y0026800D03*
X0036600Y0025300D03*
X0037500Y0026800D03*
X0038400Y0025300D03*
X0039900Y0026800D03*
X0040800Y0025300D03*
X0041700Y0026800D03*
X0042600Y0025300D03*
X0044400Y0025300D03*
X0045300Y0026800D03*
X0046200Y0025300D03*
X0047100Y0026800D03*
X0048600Y0025300D03*
X0049500Y0026800D03*
X0051300Y0025300D03*
X0052200Y0026800D03*
X0053700Y0025300D03*
X0054600Y0026800D03*
X0056100Y0025300D03*
X0057000Y0026800D03*
X0060600Y0025300D03*
X0065100Y0017500D03*
X0063600Y0015700D03*
X0061800Y0014200D03*
X0059100Y0012400D03*
X0057300Y0014200D03*
X0054600Y0014200D03*
X0053400Y0013000D03*
X0050700Y0013000D03*
X0047100Y0014200D03*
X0033900Y0014200D03*
X0031800Y0014200D03*
X0028200Y0014200D03*
X0026400Y0014200D03*
X0025200Y0013000D03*
X0024000Y0014200D03*
X0019800Y0014200D03*
X0015000Y0016300D03*
X0013500Y0017500D03*
X0013800Y0034600D03*
X0022800Y0039100D03*
X0024000Y0037900D03*
X0027000Y0037900D03*
X0028800Y0037900D03*
X0031200Y0037900D03*
X0033600Y0037900D03*
X0036300Y0037900D03*
X0042300Y0037900D03*
X0044100Y0037900D03*
X0045900Y0037900D03*
X0048300Y0038500D03*
X0050700Y0039100D03*
X0053400Y0039100D03*
X0054600Y0037900D03*
X0057300Y0037900D03*
X0064500Y0035200D03*
M02*
