%
M48
M72
T01C0.00300
%
T01
X19800Y14200
X24000Y14200
X25200Y13000
X26400Y14200
X28200Y14200
X31800Y14200
X33900Y14200
X47100Y14200
X50700Y13000
X53400Y13000
X54600Y14200
X57300Y14200
X59100Y12400
X61800Y14200
X63600Y15700
X65100Y17500
X60600Y25300
X57000Y26800
X56100Y25300
X54600Y26800
X53700Y25300
X52200Y26800
X51300Y25300
X49500Y26800
X48600Y25300
X47100Y26800
X46200Y25300
X45300Y26800
X44400Y25300
X42600Y25300
X41700Y26800
X40800Y25300
X39900Y26800
X38400Y25300
X37500Y26800
X36600Y25300
X35700Y26800
X34800Y25300
X33900Y26800
X33000Y25300
X32100Y26800
X30300Y25300
X29400Y26800
X27900Y25300
X27000Y26800
X25500Y25300
X24600Y26800
X23100Y25300
X22200Y26800
X20400Y26800
X13800Y34600
X22800Y39100
X24000Y37900
X27000Y37900
X28800Y37900
X31200Y37900
X33600Y37900
X36300Y37900
X42300Y37900
X44100Y37900
X45900Y37900
X48300Y38500
X50700Y39100
X53400Y39100
X54600Y37900
X57300Y37900
X64500Y35200
X15000Y16300
X13500Y17500
M30
