G75*
%MOIN*%
%OFA0B0*%
%FSLAX25Y25*%
%IPPOS*%
%LPD*%
%AMOC8*
5,1,8,0,0,1.08239X$1,22.5*
%
%ADD10R,0.00787X0.02756*%
%ADD11C,0.00300*%
%ADD12C,0.01300*%
%ADD13C,0.01600*%
D10*
X0013257Y0020025D03*
X0014831Y0020025D03*
X0016406Y0020025D03*
X0017981Y0020025D03*
X0019556Y0020025D03*
X0021131Y0020025D03*
X0022706Y0020025D03*
X0024280Y0020025D03*
X0025855Y0020025D03*
X0027430Y0020025D03*
X0029005Y0020025D03*
X0030580Y0020025D03*
X0032154Y0020025D03*
X0033729Y0020025D03*
X0035304Y0020025D03*
X0036879Y0020025D03*
X0038454Y0020025D03*
X0040028Y0020025D03*
X0041603Y0020025D03*
X0043178Y0020025D03*
X0044753Y0020025D03*
X0046328Y0020025D03*
X0047902Y0020025D03*
X0049477Y0020025D03*
X0051052Y0020025D03*
X0052627Y0020025D03*
X0054202Y0020025D03*
X0055776Y0020025D03*
X0057351Y0020025D03*
X0058926Y0020025D03*
X0060501Y0020025D03*
X0062076Y0020025D03*
X0063650Y0020025D03*
X0065225Y0020025D03*
X0066800Y0020025D03*
X0066800Y0032151D03*
X0065146Y0032151D03*
X0063572Y0032151D03*
X0061997Y0032151D03*
X0060422Y0032151D03*
X0058847Y0032151D03*
X0057272Y0032151D03*
X0055698Y0032151D03*
X0054123Y0032151D03*
X0052548Y0032151D03*
X0050973Y0032151D03*
X0049398Y0032151D03*
X0047824Y0032151D03*
X0046249Y0032151D03*
X0044674Y0032151D03*
X0043099Y0032151D03*
X0041524Y0032151D03*
X0039950Y0032151D03*
X0038375Y0032151D03*
X0036800Y0032151D03*
X0035225Y0032151D03*
X0033650Y0032151D03*
X0032076Y0032151D03*
X0030501Y0032151D03*
X0028926Y0032151D03*
X0027351Y0032151D03*
X0025776Y0032151D03*
X0024202Y0032151D03*
X0022627Y0032151D03*
X0021052Y0032151D03*
X0019477Y0032151D03*
X0017902Y0032151D03*
X0016328Y0032151D03*
X0014753Y0032151D03*
X0013178Y0032151D03*
D11*
X0013200Y0032200D01*
X0013200Y0034000D01*
X0013800Y0034600D01*
X0015000Y0036700D02*
X0015000Y0032200D01*
X0014753Y0032151D01*
X0016328Y0032151D02*
X0016500Y0032200D01*
X0016500Y0037300D01*
X0021300Y0042100D01*
X0029400Y0042100D01*
X0033600Y0037900D01*
X0031200Y0037900D02*
X0027600Y0041500D01*
X0021600Y0041500D01*
X0018000Y0037900D01*
X0018000Y0032200D01*
X0017902Y0032151D01*
X0019477Y0032151D02*
X0019500Y0032200D01*
X0019500Y0038500D01*
X0021900Y0040900D01*
X0025800Y0040900D01*
X0028800Y0037900D01*
X0027000Y0037900D02*
X0024600Y0040300D01*
X0022200Y0040300D01*
X0021300Y0039400D01*
X0021300Y0032200D01*
X0021052Y0032151D01*
X0022627Y0032151D02*
X0022800Y0032200D01*
X0022800Y0039100D01*
X0024000Y0037900D02*
X0024000Y0032200D01*
X0024202Y0032151D01*
X0025500Y0031900D02*
X0025776Y0032151D01*
X0025500Y0031900D02*
X0025500Y0031000D01*
X0022500Y0028000D01*
X0021600Y0028000D01*
X0020400Y0026800D01*
X0022200Y0026800D02*
X0023400Y0028000D01*
X0024300Y0028000D01*
X0027300Y0031000D01*
X0027300Y0031900D01*
X0027351Y0032151D01*
X0028800Y0031900D02*
X0028926Y0032151D01*
X0028800Y0031900D02*
X0028800Y0031000D01*
X0024600Y0026800D01*
X0025500Y0025300D02*
X0028800Y0022000D01*
X0028800Y0020200D01*
X0029005Y0020025D01*
X0030300Y0020200D02*
X0030580Y0020025D01*
X0030300Y0020200D02*
X0030300Y0022900D01*
X0027900Y0025300D01*
X0027000Y0026800D02*
X0030300Y0030100D01*
X0030300Y0031900D01*
X0030501Y0032151D01*
X0031800Y0031900D02*
X0032076Y0032151D01*
X0031800Y0031900D02*
X0031800Y0029200D01*
X0029400Y0026800D01*
X0030300Y0025300D02*
X0032100Y0023500D01*
X0032100Y0020200D01*
X0032154Y0020025D01*
X0033600Y0020200D02*
X0033729Y0020025D01*
X0033600Y0020200D02*
X0033600Y0024700D01*
X0033000Y0025300D01*
X0032100Y0026800D02*
X0033600Y0028300D01*
X0033600Y0031900D01*
X0033650Y0032151D01*
X0035100Y0031900D02*
X0035225Y0032151D01*
X0035100Y0031900D02*
X0035100Y0028000D01*
X0033900Y0026800D01*
X0034800Y0025300D02*
X0035100Y0025000D01*
X0035100Y0020200D01*
X0035304Y0020025D01*
X0036600Y0020200D02*
X0036879Y0020025D01*
X0036600Y0020200D02*
X0036600Y0025300D01*
X0035700Y0026800D02*
X0036600Y0027700D01*
X0036600Y0031900D01*
X0036800Y0032151D01*
X0038100Y0031900D02*
X0038375Y0032151D01*
X0038100Y0031900D02*
X0038100Y0027400D01*
X0037500Y0026800D01*
X0038400Y0025300D02*
X0038400Y0020200D01*
X0038454Y0020025D01*
X0040028Y0020025D02*
X0040200Y0020200D01*
X0040200Y0024700D01*
X0040800Y0025300D01*
X0041700Y0024400D02*
X0042600Y0025300D01*
X0041700Y0024400D02*
X0041700Y0020200D01*
X0041603Y0020025D01*
X0043178Y0020025D02*
X0043200Y0020200D01*
X0043200Y0024100D01*
X0044400Y0025300D01*
X0045000Y0024100D02*
X0046200Y0025300D01*
X0045300Y0026800D02*
X0043200Y0028900D01*
X0043200Y0031900D01*
X0043099Y0032151D01*
X0041700Y0031900D02*
X0041524Y0032151D01*
X0041700Y0031900D02*
X0041700Y0026800D01*
X0039900Y0026800D02*
X0039900Y0031900D01*
X0039950Y0032151D01*
X0044674Y0032151D02*
X0044700Y0031900D01*
X0044700Y0029200D01*
X0047100Y0026800D01*
X0048600Y0025300D02*
X0046500Y0023200D01*
X0046500Y0020200D01*
X0046328Y0020025D01*
X0045000Y0020200D02*
X0044753Y0020025D01*
X0045000Y0020200D02*
X0045000Y0024100D01*
X0048000Y0022000D02*
X0051300Y0025300D01*
X0052200Y0026800D02*
X0048000Y0031000D01*
X0048000Y0031900D01*
X0047824Y0032151D01*
X0046500Y0031900D02*
X0046249Y0032151D01*
X0046500Y0031900D02*
X0046500Y0029800D01*
X0049500Y0026800D01*
X0052500Y0028000D02*
X0053400Y0028000D01*
X0054600Y0026800D01*
X0053700Y0025300D02*
X0049500Y0021100D01*
X0049500Y0020200D01*
X0049477Y0020025D01*
X0048000Y0020200D02*
X0047902Y0020025D01*
X0048000Y0020200D02*
X0048000Y0022000D01*
X0051052Y0020025D02*
X0051300Y0020200D01*
X0051300Y0021400D01*
X0054000Y0024100D01*
X0054900Y0024100D01*
X0056100Y0025300D01*
X0057000Y0026800D02*
X0055200Y0028600D01*
X0053400Y0028600D01*
X0051000Y0031000D01*
X0051000Y0031900D01*
X0050973Y0032151D01*
X0049500Y0031900D02*
X0049398Y0032151D01*
X0049500Y0031900D02*
X0049500Y0031000D01*
X0052500Y0028000D01*
X0052548Y0032151D02*
X0052500Y0032200D01*
X0052500Y0038200D01*
X0052200Y0038500D01*
X0052200Y0039700D01*
X0052800Y0040300D01*
X0054900Y0040300D01*
X0057300Y0037900D01*
X0058500Y0038500D02*
X0058500Y0037300D01*
X0057300Y0036100D01*
X0057300Y0032200D01*
X0057272Y0032151D01*
X0055800Y0032200D02*
X0055698Y0032151D01*
X0055800Y0032200D02*
X0055800Y0038500D01*
X0055200Y0039100D01*
X0053400Y0039100D01*
X0054600Y0037900D02*
X0054300Y0037600D01*
X0054300Y0032200D01*
X0054123Y0032151D01*
X0058847Y0032151D02*
X0059100Y0032200D01*
X0059100Y0038800D01*
X0056400Y0041500D01*
X0051300Y0041500D01*
X0048300Y0038500D01*
X0045900Y0037900D02*
X0050100Y0042100D01*
X0056700Y0042100D01*
X0060300Y0038500D01*
X0060300Y0032200D01*
X0060422Y0032151D01*
X0061800Y0032200D02*
X0061997Y0032151D01*
X0061800Y0032200D02*
X0061800Y0037900D01*
X0057000Y0042700D01*
X0048900Y0042700D01*
X0044100Y0037900D01*
X0042300Y0037900D02*
X0047700Y0043300D01*
X0057300Y0043300D01*
X0063300Y0037300D01*
X0063300Y0032200D01*
X0063572Y0032151D01*
X0065100Y0032200D02*
X0065146Y0032151D01*
X0065100Y0031900D01*
X0065100Y0031000D01*
X0061800Y0027700D01*
X0067800Y0021700D01*
X0067800Y0018100D01*
X0059700Y0010000D01*
X0019500Y0010000D01*
X0013500Y0016000D01*
X0013500Y0017500D01*
X0013500Y0019900D01*
X0013257Y0020025D01*
X0014831Y0020025D02*
X0015000Y0019900D01*
X0015000Y0016300D01*
X0016500Y0014800D02*
X0020700Y0010600D01*
X0030300Y0010600D01*
X0033900Y0014200D01*
X0031800Y0014200D02*
X0028800Y0011200D01*
X0021000Y0011200D01*
X0018000Y0014200D01*
X0018000Y0019900D01*
X0017981Y0020025D01*
X0016500Y0019900D02*
X0016406Y0020025D01*
X0016500Y0019900D02*
X0016500Y0014800D01*
X0019800Y0014200D02*
X0019800Y0019900D01*
X0019556Y0020025D01*
X0021131Y0020025D02*
X0021300Y0019900D01*
X0021300Y0014200D01*
X0023700Y0011800D01*
X0025800Y0011800D01*
X0028200Y0014200D01*
X0026400Y0014200D02*
X0026100Y0014500D01*
X0026100Y0019900D01*
X0025855Y0020025D01*
X0027300Y0020200D02*
X0027300Y0021100D01*
X0023100Y0025300D01*
X0022706Y0020025D02*
X0022800Y0019900D01*
X0022800Y0013600D01*
X0023400Y0013000D01*
X0025200Y0013000D01*
X0024000Y0014200D02*
X0024000Y0019900D01*
X0024280Y0020025D01*
X0027300Y0020200D02*
X0027430Y0020025D01*
X0047100Y0014200D02*
X0050700Y0010600D01*
X0059100Y0010600D01*
X0060300Y0011800D01*
X0060300Y0019900D01*
X0060501Y0020025D01*
X0059100Y0019900D02*
X0058926Y0020025D01*
X0059100Y0019900D02*
X0059100Y0012400D01*
X0058500Y0013600D02*
X0056100Y0011200D01*
X0052500Y0011200D01*
X0050700Y0013000D01*
X0052200Y0013600D02*
X0052500Y0013900D01*
X0052500Y0019900D01*
X0052627Y0020025D01*
X0054202Y0020025D02*
X0054300Y0019900D01*
X0054300Y0014500D01*
X0054600Y0014200D01*
X0055200Y0013000D02*
X0055800Y0013600D01*
X0055800Y0019900D01*
X0055776Y0020025D01*
X0057351Y0020025D02*
X0057600Y0019900D01*
X0057600Y0015700D01*
X0058500Y0014800D01*
X0058500Y0013600D01*
X0057300Y0014200D02*
X0054900Y0011800D01*
X0052800Y0011800D01*
X0052200Y0012400D01*
X0052200Y0013600D01*
X0053400Y0013000D02*
X0055200Y0013000D01*
X0061800Y0014200D02*
X0061800Y0019900D01*
X0062076Y0020025D01*
X0063600Y0019900D02*
X0063650Y0020025D01*
X0063600Y0019900D02*
X0063600Y0015700D01*
X0065100Y0017500D02*
X0065100Y0019900D01*
X0065225Y0020025D01*
X0060600Y0025300D02*
X0060600Y0026500D01*
X0061800Y0027700D01*
X0065100Y0032200D02*
X0065100Y0034600D01*
X0064500Y0035200D01*
X0058500Y0038500D02*
X0056100Y0040900D01*
X0052500Y0040900D01*
X0050700Y0039100D01*
X0036300Y0037900D02*
X0031500Y0042700D01*
X0021000Y0042700D01*
X0015000Y0036700D01*
D12*
X0013800Y0034600D03*
X0022800Y0039100D03*
X0024000Y0037900D03*
X0027000Y0037900D03*
X0028800Y0037900D03*
X0031200Y0037900D03*
X0033600Y0037900D03*
X0036300Y0037900D03*
X0042300Y0037900D03*
X0044100Y0037900D03*
X0045900Y0037900D03*
X0048300Y0038500D03*
X0050700Y0039100D03*
X0053400Y0039100D03*
X0054600Y0037900D03*
X0057300Y0037900D03*
X0064500Y0035200D03*
X0057000Y0026800D03*
X0056100Y0025300D03*
X0054600Y0026800D03*
X0053700Y0025300D03*
X0052200Y0026800D03*
X0051300Y0025300D03*
X0049500Y0026800D03*
X0048600Y0025300D03*
X0047100Y0026800D03*
X0046200Y0025300D03*
X0045300Y0026800D03*
X0044400Y0025300D03*
X0042600Y0025300D03*
X0041700Y0026800D03*
X0040800Y0025300D03*
X0039900Y0026800D03*
X0038400Y0025300D03*
X0037500Y0026800D03*
X0036600Y0025300D03*
X0035700Y0026800D03*
X0034800Y0025300D03*
X0033900Y0026800D03*
X0033000Y0025300D03*
X0032100Y0026800D03*
X0030300Y0025300D03*
X0029400Y0026800D03*
X0027900Y0025300D03*
X0027000Y0026800D03*
X0025500Y0025300D03*
X0024600Y0026800D03*
X0023100Y0025300D03*
X0022200Y0026800D03*
X0020400Y0026800D03*
X0013500Y0017500D03*
X0015000Y0016300D03*
X0019800Y0014200D03*
X0024000Y0014200D03*
X0025200Y0013000D03*
X0026400Y0014200D03*
X0028200Y0014200D03*
X0031800Y0014200D03*
X0033900Y0014200D03*
X0047100Y0014200D03*
X0050700Y0013000D03*
X0053400Y0013000D03*
X0054600Y0014200D03*
X0057300Y0014200D03*
X0059100Y0012400D03*
X0061800Y0014200D03*
X0063600Y0015700D03*
X0065100Y0017500D03*
X0060600Y0025300D03*
D13*
X0005100Y0004600D02*
X0005100Y0047461D01*
X0072701Y0047461D01*
X0072701Y0004600D01*
X0005100Y0004600D01*
X0005100Y0004856D02*
X0072701Y0004856D01*
X0072701Y0006454D02*
X0005100Y0006454D01*
X0005100Y0008053D02*
X0072701Y0008053D01*
X0072701Y0009651D02*
X0059919Y0009651D01*
X0059618Y0009350D02*
X0060350Y0010082D01*
X0061550Y0011282D01*
X0061550Y0012450D01*
X0062525Y0012450D01*
X0063550Y0013475D01*
X0063550Y0013950D01*
X0064325Y0013950D01*
X0065350Y0014975D01*
X0065350Y0015750D01*
X0065825Y0015750D01*
X0066850Y0016775D01*
X0066850Y0017547D01*
X0067649Y0017547D01*
X0068294Y0018191D01*
X0068294Y0021859D01*
X0067649Y0022503D01*
X0054171Y0022503D01*
X0054518Y0022850D01*
X0055418Y0022850D01*
X0056118Y0023550D01*
X0056825Y0023550D01*
X0057850Y0024575D01*
X0057850Y0025175D01*
X0058750Y0026075D01*
X0058750Y0027525D01*
X0057725Y0028550D01*
X0057018Y0028550D01*
X0055895Y0029673D01*
X0063309Y0029673D01*
X0063312Y0029668D01*
X0063648Y0029333D01*
X0064058Y0029096D01*
X0064516Y0028973D01*
X0065146Y0028973D01*
X0065146Y0032151D01*
X0065146Y0035329D01*
X0064550Y0035329D01*
X0064550Y0037818D01*
X0058550Y0043818D01*
X0057818Y0044550D01*
X0047182Y0044550D01*
X0042282Y0039650D01*
X0041575Y0039650D01*
X0040550Y0038625D01*
X0040550Y0037175D01*
X0041575Y0036150D01*
X0043025Y0036150D01*
X0043200Y0036325D01*
X0043375Y0036150D01*
X0044825Y0036150D01*
X0045000Y0036325D01*
X0045175Y0036150D01*
X0046625Y0036150D01*
X0047400Y0036925D01*
X0047575Y0036750D01*
X0049025Y0036750D01*
X0049800Y0037525D01*
X0049975Y0037350D01*
X0051250Y0037350D01*
X0051250Y0034629D01*
X0025250Y0034629D01*
X0025250Y0036675D01*
X0025500Y0036925D01*
X0026275Y0036150D01*
X0027725Y0036150D01*
X0027900Y0036325D01*
X0028075Y0036150D01*
X0029525Y0036150D01*
X0030000Y0036625D01*
X0030475Y0036150D01*
X0031925Y0036150D01*
X0032400Y0036625D01*
X0032875Y0036150D01*
X0034325Y0036150D01*
X0034950Y0036775D01*
X0035575Y0036150D01*
X0037025Y0036150D01*
X0038050Y0037175D01*
X0038050Y0038625D01*
X0037025Y0039650D01*
X0036318Y0039650D01*
X0032018Y0043950D01*
X0020482Y0043950D01*
X0019750Y0043218D01*
X0013750Y0037218D01*
X0013750Y0036350D01*
X0013075Y0036350D01*
X0012050Y0035325D01*
X0012050Y0034618D01*
X0011950Y0034518D01*
X0011950Y0034250D01*
X0011684Y0033985D01*
X0011684Y0030317D01*
X0012329Y0029673D01*
X0022405Y0029673D01*
X0021982Y0029250D01*
X0021082Y0029250D01*
X0020382Y0028550D01*
X0019675Y0028550D01*
X0018650Y0027525D01*
X0018650Y0026075D01*
X0019675Y0025050D01*
X0021125Y0025050D01*
X0021300Y0025225D01*
X0021350Y0025175D01*
X0021350Y0024575D01*
X0022375Y0023550D01*
X0023082Y0023550D01*
X0024129Y0022503D01*
X0015094Y0022503D01*
X0015091Y0022508D01*
X0014756Y0022843D01*
X0014345Y0023080D01*
X0013887Y0023203D01*
X0013257Y0023203D01*
X0013257Y0020025D01*
X0013257Y0020025D01*
X0013257Y0023203D01*
X0012626Y0023203D01*
X0012168Y0023080D01*
X0011758Y0022843D01*
X0011423Y0022508D01*
X0011186Y0022098D01*
X0011063Y0021640D01*
X0011063Y0020025D01*
X0013257Y0020025D01*
X0011063Y0020025D01*
X0011063Y0018410D01*
X0011186Y0017952D01*
X0011423Y0017542D01*
X0011758Y0017207D01*
X0012168Y0016970D01*
X0012626Y0016847D01*
X0013250Y0016847D01*
X0013250Y0015575D01*
X0014275Y0014550D01*
X0015250Y0014550D01*
X0015250Y0014282D01*
X0020182Y0009350D01*
X0030818Y0009350D01*
X0033918Y0012450D01*
X0034625Y0012450D01*
X0035650Y0013475D01*
X0035650Y0014925D01*
X0034625Y0015950D01*
X0033175Y0015950D01*
X0032850Y0015625D01*
X0032525Y0015950D01*
X0031075Y0015950D01*
X0030050Y0014925D01*
X0030050Y0014218D01*
X0029950Y0014118D01*
X0029950Y0014925D01*
X0028925Y0015950D01*
X0027475Y0015950D01*
X0027350Y0015825D01*
X0027350Y0017547D01*
X0051250Y0017547D01*
X0051250Y0014750D01*
X0049975Y0014750D01*
X0049146Y0013921D01*
X0048850Y0014218D01*
X0048850Y0014925D01*
X0047825Y0015950D01*
X0046375Y0015950D01*
X0045350Y0014925D01*
X0045350Y0013475D01*
X0046375Y0012450D01*
X0047082Y0012450D01*
X0050182Y0009350D01*
X0059618Y0009350D01*
X0061517Y0011250D02*
X0072701Y0011250D01*
X0072701Y0012848D02*
X0062923Y0012848D01*
X0064822Y0014447D02*
X0072701Y0014447D01*
X0072701Y0016045D02*
X0066120Y0016045D01*
X0067746Y0017644D02*
X0072701Y0017644D01*
X0072701Y0019242D02*
X0068294Y0019242D01*
X0068294Y0020841D02*
X0072701Y0020841D01*
X0072701Y0022439D02*
X0067713Y0022439D01*
X0072701Y0024038D02*
X0057313Y0024038D01*
X0058311Y0025636D02*
X0072701Y0025636D01*
X0072701Y0027235D02*
X0058750Y0027235D01*
X0056734Y0028833D02*
X0072701Y0028833D01*
X0072701Y0030432D02*
X0068294Y0030432D01*
X0068294Y0030317D02*
X0068294Y0033985D01*
X0067649Y0034629D01*
X0066984Y0034629D01*
X0066981Y0034634D01*
X0066645Y0034969D01*
X0066235Y0035206D01*
X0065777Y0035329D01*
X0065147Y0035329D01*
X0065147Y0032151D01*
X0065146Y0032151D01*
X0065147Y0032151D01*
X0065147Y0028973D01*
X0065777Y0028973D01*
X0066235Y0029096D01*
X0066645Y0029333D01*
X0066981Y0029668D01*
X0066984Y0029673D01*
X0067649Y0029673D01*
X0068294Y0030317D01*
X0068294Y0032030D02*
X0072701Y0032030D01*
X0072701Y0033629D02*
X0068294Y0033629D01*
X0066156Y0035227D02*
X0072701Y0035227D01*
X0072701Y0036826D02*
X0064550Y0036826D01*
X0063943Y0038424D02*
X0072701Y0038424D01*
X0072701Y0040023D02*
X0062345Y0040023D01*
X0060746Y0041621D02*
X0072701Y0041621D01*
X0072701Y0043220D02*
X0059148Y0043220D01*
X0051250Y0036826D02*
X0049101Y0036826D01*
X0047499Y0036826D02*
X0047301Y0036826D01*
X0051250Y0035227D02*
X0025250Y0035227D01*
X0025401Y0036826D02*
X0025599Y0036826D01*
X0018154Y0041621D02*
X0005100Y0041621D01*
X0005100Y0040023D02*
X0016555Y0040023D01*
X0014957Y0038424D02*
X0005100Y0038424D01*
X0005100Y0036826D02*
X0013750Y0036826D01*
X0012050Y0035227D02*
X0005100Y0035227D01*
X0005100Y0033629D02*
X0011684Y0033629D01*
X0011684Y0032030D02*
X0005100Y0032030D01*
X0005100Y0030432D02*
X0011684Y0030432D01*
X0005100Y0028833D02*
X0020666Y0028833D01*
X0018650Y0027235D02*
X0005100Y0027235D01*
X0005100Y0025636D02*
X0019089Y0025636D01*
X0021887Y0024038D02*
X0005100Y0024038D01*
X0005100Y0022439D02*
X0011383Y0022439D01*
X0011063Y0020841D02*
X0005100Y0020841D01*
X0005100Y0019242D02*
X0011063Y0019242D01*
X0011364Y0017644D02*
X0005100Y0017644D01*
X0005100Y0016045D02*
X0013250Y0016045D01*
X0015250Y0014447D02*
X0005100Y0014447D01*
X0005100Y0012848D02*
X0016684Y0012848D01*
X0018283Y0011250D02*
X0005100Y0011250D01*
X0005100Y0009651D02*
X0019881Y0009651D01*
X0027350Y0016045D02*
X0051250Y0016045D01*
X0049672Y0014447D02*
X0048850Y0014447D01*
X0045977Y0012848D02*
X0035023Y0012848D01*
X0035650Y0014447D02*
X0045350Y0014447D01*
X0048283Y0011250D02*
X0032717Y0011250D01*
X0031119Y0009651D02*
X0049881Y0009651D01*
X0030050Y0014447D02*
X0029950Y0014447D01*
X0013257Y0020025D02*
X0013257Y0020025D01*
X0013257Y0020841D02*
X0013257Y0020841D01*
X0013257Y0022439D02*
X0013257Y0022439D01*
X0037701Y0036826D02*
X0040899Y0036826D01*
X0040550Y0038424D02*
X0038050Y0038424D01*
X0035945Y0040023D02*
X0042655Y0040023D01*
X0044254Y0041621D02*
X0034346Y0041621D01*
X0032748Y0043220D02*
X0045852Y0043220D01*
X0065146Y0035227D02*
X0065147Y0035227D01*
X0065146Y0033629D02*
X0065147Y0033629D01*
X0065146Y0032030D02*
X0065147Y0032030D01*
X0065146Y0030432D02*
X0065147Y0030432D01*
X0072701Y0044818D02*
X0005100Y0044818D01*
X0005100Y0043220D02*
X0019752Y0043220D01*
X0005100Y0046417D02*
X0072701Y0046417D01*
M02*
