G75*
%MOIN*%
%OFA0B0*%
%FSLAX25Y25*%
%IPPOS*%
%LPD*%
%AMOC8*
5,1,8,0,0,1.08239X$1,22.5*
%
%ADD10C,0.01350*%
D10*
X0005675Y0013350D02*
X0005675Y0016000D01*
X0005825Y0016000D01*
X0005825Y0013350D01*
X0005675Y0013350D01*
X0005675Y0014699D02*
X0005825Y0014699D01*
X0008175Y0016000D02*
X0008175Y0013350D01*
X0008175Y0016000D02*
X0008325Y0016000D01*
X0008325Y0013350D01*
X0008175Y0013350D01*
X0008175Y0014699D02*
X0008325Y0014699D01*
X0010675Y0016000D02*
X0010675Y0013350D01*
X0010675Y0016000D02*
X0010825Y0016000D01*
X0010825Y0013350D01*
X0010675Y0013350D01*
X0010675Y0014699D02*
X0010825Y0014699D01*
X0013175Y0016000D02*
X0013175Y0013350D01*
X0013175Y0016000D02*
X0013325Y0016000D01*
X0013325Y0013350D01*
X0013175Y0013350D01*
X0013175Y0014699D02*
X0013325Y0014699D01*
X0015675Y0016000D02*
X0015675Y0013350D01*
X0015675Y0016000D02*
X0015825Y0016000D01*
X0015825Y0013350D01*
X0015675Y0013350D01*
X0015675Y0014699D02*
X0015825Y0014699D01*
X0018175Y0016000D02*
X0018175Y0013350D01*
X0018175Y0016000D02*
X0018325Y0016000D01*
X0018325Y0013350D01*
X0018175Y0013350D01*
X0018175Y0014699D02*
X0018325Y0014699D01*
X0020675Y0016000D02*
X0020675Y0013350D01*
X0020675Y0016000D02*
X0020825Y0016000D01*
X0020825Y0013350D01*
X0020675Y0013350D01*
X0020675Y0014699D02*
X0020825Y0014699D01*
X0023175Y0016000D02*
X0023175Y0013350D01*
X0023175Y0016000D02*
X0023325Y0016000D01*
X0023325Y0013350D01*
X0023175Y0013350D01*
X0023175Y0014699D02*
X0023325Y0014699D01*
X0025675Y0016000D02*
X0025675Y0013350D01*
X0025675Y0016000D02*
X0025825Y0016000D01*
X0025825Y0013350D01*
X0025675Y0013350D01*
X0025675Y0014699D02*
X0025825Y0014699D01*
X0028175Y0016000D02*
X0028175Y0013350D01*
X0028175Y0016000D02*
X0028325Y0016000D01*
X0028325Y0013350D01*
X0028175Y0013350D01*
X0028175Y0014699D02*
X0028325Y0014699D01*
X0025675Y0018350D02*
X0025675Y0021000D01*
X0025825Y0021000D01*
X0025825Y0018350D01*
X0025675Y0018350D01*
X0025675Y0019699D02*
X0025825Y0019699D01*
X0023175Y0021000D02*
X0023175Y0018350D01*
X0023175Y0021000D02*
X0023325Y0021000D01*
X0023325Y0018350D01*
X0023175Y0018350D01*
X0023175Y0019699D02*
X0023325Y0019699D01*
X0020675Y0021000D02*
X0020675Y0018350D01*
X0020675Y0021000D02*
X0020825Y0021000D01*
X0020825Y0018350D01*
X0020675Y0018350D01*
X0020675Y0019699D02*
X0020825Y0019699D01*
X0018175Y0021000D02*
X0018175Y0018350D01*
X0018175Y0021000D02*
X0018325Y0021000D01*
X0018325Y0018350D01*
X0018175Y0018350D01*
X0018175Y0019699D02*
X0018325Y0019699D01*
X0015675Y0021000D02*
X0015675Y0018350D01*
X0015675Y0021000D02*
X0015825Y0021000D01*
X0015825Y0018350D01*
X0015675Y0018350D01*
X0015675Y0019699D02*
X0015825Y0019699D01*
X0013175Y0021000D02*
X0013175Y0018350D01*
X0013175Y0021000D02*
X0013325Y0021000D01*
X0013325Y0018350D01*
X0013175Y0018350D01*
X0013175Y0019699D02*
X0013325Y0019699D01*
X0010675Y0021000D02*
X0010675Y0018350D01*
X0010675Y0021000D02*
X0010825Y0021000D01*
X0010825Y0018350D01*
X0010675Y0018350D01*
X0010675Y0019699D02*
X0010825Y0019699D01*
X0008175Y0021000D02*
X0008175Y0018350D01*
X0008175Y0021000D02*
X0008325Y0021000D01*
X0008325Y0018350D01*
X0008175Y0018350D01*
X0008175Y0019699D02*
X0008325Y0019699D01*
M02*
