G75*
%MOIN*%
%OFA0B0*%
%FSLAX25Y25*%
%IPPOS*%
%LPD*%
%AMOC8*
5,1,8,0,0,1.08239X$1,22.5*
%
%ADD10C,0.00000*%
%ADD11C,0.01350*%
%ADD12C,0.00600*%
%ADD13C,0.02700*%
D10*
X0002050Y0002175D02*
X0002050Y0032175D01*
X0032050Y0032175D01*
X0032050Y0002175D01*
X0002050Y0002175D01*
D11*
X0005675Y0013350D02*
X0005675Y0016000D01*
X0005825Y0016000D01*
X0005825Y0013350D01*
X0005675Y0013350D01*
X0005675Y0014699D02*
X0005825Y0014699D01*
X0008175Y0016000D02*
X0008175Y0013350D01*
X0008175Y0016000D02*
X0008325Y0016000D01*
X0008325Y0013350D01*
X0008175Y0013350D01*
X0008175Y0014699D02*
X0008325Y0014699D01*
X0010675Y0016000D02*
X0010675Y0013350D01*
X0010675Y0016000D02*
X0010825Y0016000D01*
X0010825Y0013350D01*
X0010675Y0013350D01*
X0010675Y0014699D02*
X0010825Y0014699D01*
X0013175Y0016000D02*
X0013175Y0013350D01*
X0013175Y0016000D02*
X0013325Y0016000D01*
X0013325Y0013350D01*
X0013175Y0013350D01*
X0013175Y0014699D02*
X0013325Y0014699D01*
X0015675Y0016000D02*
X0015675Y0013350D01*
X0015675Y0016000D02*
X0015825Y0016000D01*
X0015825Y0013350D01*
X0015675Y0013350D01*
X0015675Y0014699D02*
X0015825Y0014699D01*
X0018175Y0016000D02*
X0018175Y0013350D01*
X0018175Y0016000D02*
X0018325Y0016000D01*
X0018325Y0013350D01*
X0018175Y0013350D01*
X0018175Y0014699D02*
X0018325Y0014699D01*
X0020675Y0016000D02*
X0020675Y0013350D01*
X0020675Y0016000D02*
X0020825Y0016000D01*
X0020825Y0013350D01*
X0020675Y0013350D01*
X0020675Y0014699D02*
X0020825Y0014699D01*
X0023175Y0016000D02*
X0023175Y0013350D01*
X0023175Y0016000D02*
X0023325Y0016000D01*
X0023325Y0013350D01*
X0023175Y0013350D01*
X0023175Y0014699D02*
X0023325Y0014699D01*
X0025675Y0016000D02*
X0025675Y0013350D01*
X0025675Y0016000D02*
X0025825Y0016000D01*
X0025825Y0013350D01*
X0025675Y0013350D01*
X0025675Y0014699D02*
X0025825Y0014699D01*
X0028175Y0016000D02*
X0028175Y0013350D01*
X0028175Y0016000D02*
X0028325Y0016000D01*
X0028325Y0013350D01*
X0028175Y0013350D01*
X0028175Y0014699D02*
X0028325Y0014699D01*
X0025675Y0018350D02*
X0025675Y0021000D01*
X0025825Y0021000D01*
X0025825Y0018350D01*
X0025675Y0018350D01*
X0025675Y0019699D02*
X0025825Y0019699D01*
X0023175Y0021000D02*
X0023175Y0018350D01*
X0023175Y0021000D02*
X0023325Y0021000D01*
X0023325Y0018350D01*
X0023175Y0018350D01*
X0023175Y0019699D02*
X0023325Y0019699D01*
X0020675Y0021000D02*
X0020675Y0018350D01*
X0020675Y0021000D02*
X0020825Y0021000D01*
X0020825Y0018350D01*
X0020675Y0018350D01*
X0020675Y0019699D02*
X0020825Y0019699D01*
X0018175Y0021000D02*
X0018175Y0018350D01*
X0018175Y0021000D02*
X0018325Y0021000D01*
X0018325Y0018350D01*
X0018175Y0018350D01*
X0018175Y0019699D02*
X0018325Y0019699D01*
X0015675Y0021000D02*
X0015675Y0018350D01*
X0015675Y0021000D02*
X0015825Y0021000D01*
X0015825Y0018350D01*
X0015675Y0018350D01*
X0015675Y0019699D02*
X0015825Y0019699D01*
X0013175Y0021000D02*
X0013175Y0018350D01*
X0013175Y0021000D02*
X0013325Y0021000D01*
X0013325Y0018350D01*
X0013175Y0018350D01*
X0013175Y0019699D02*
X0013325Y0019699D01*
X0010675Y0021000D02*
X0010675Y0018350D01*
X0010675Y0021000D02*
X0010825Y0021000D01*
X0010825Y0018350D01*
X0010675Y0018350D01*
X0010675Y0019699D02*
X0010825Y0019699D01*
X0008175Y0021000D02*
X0008175Y0018350D01*
X0008175Y0021000D02*
X0008325Y0021000D01*
X0008325Y0018350D01*
X0008175Y0018350D01*
X0008175Y0019699D02*
X0008325Y0019699D01*
D12*
X0008250Y0019675D02*
X0008800Y0020050D01*
X0008800Y0026300D01*
X0009425Y0026925D01*
X0011300Y0025675D02*
X0011300Y0020050D01*
X0010750Y0019675D01*
X0013250Y0019675D02*
X0013800Y0020050D01*
X0013800Y0025050D01*
X0015675Y0026925D01*
X0018175Y0027550D02*
X0018175Y0023175D01*
X0016300Y0021300D01*
X0016300Y0020050D01*
X0015750Y0019675D01*
X0018250Y0019675D02*
X0018800Y0020050D01*
X0018800Y0021300D01*
X0019425Y0021925D01*
X0019425Y0029425D01*
X0018175Y0027550D02*
X0015675Y0030050D01*
X0012550Y0026925D02*
X0011300Y0025675D01*
X0005675Y0018800D02*
X0008175Y0016300D01*
X0008175Y0015050D01*
X0008250Y0014675D01*
X0010675Y0014425D02*
X0010675Y0013175D01*
X0007550Y0010050D01*
X0005050Y0007550D02*
X0005050Y0013800D01*
X0005675Y0014425D01*
X0005750Y0014675D01*
X0010675Y0014425D02*
X0010750Y0014675D01*
X0013175Y0014425D02*
X0013175Y0013175D01*
X0011925Y0011925D01*
X0011925Y0007550D01*
X0010675Y0006300D01*
X0013175Y0005050D02*
X0013175Y0010675D01*
X0015675Y0013175D01*
X0015675Y0014425D01*
X0015750Y0014675D01*
X0018175Y0014425D02*
X0018250Y0014675D01*
X0018175Y0014425D02*
X0018175Y0010050D01*
X0015675Y0007550D01*
X0013175Y0005050D02*
X0028800Y0005050D01*
X0026300Y0007550D02*
X0028800Y0010050D01*
X0028800Y0014425D01*
X0028250Y0014675D01*
X0026300Y0014425D02*
X0025750Y0014675D01*
X0026300Y0014425D02*
X0026300Y0010675D01*
X0023175Y0008800D02*
X0023175Y0014425D01*
X0023250Y0014675D01*
X0020750Y0014675D02*
X0020675Y0014425D01*
X0020675Y0009425D01*
X0018800Y0007550D01*
X0021925Y0007550D02*
X0023175Y0008800D01*
X0013175Y0014425D02*
X0013250Y0014675D01*
X0020750Y0019675D02*
X0020675Y0020050D01*
X0020675Y0027550D01*
X0021925Y0028800D01*
X0021925Y0029425D01*
X0023800Y0029425D01*
X0028800Y0024425D01*
X0028800Y0019425D01*
X0026300Y0020050D02*
X0025750Y0019675D01*
X0026300Y0020050D02*
X0026300Y0023800D01*
X0023175Y0026925D02*
X0023175Y0020050D01*
X0023250Y0019675D01*
D13*
X0026300Y0023800D03*
X0023175Y0026925D03*
X0019425Y0029425D03*
X0015675Y0030050D03*
X0015675Y0026925D03*
X0012550Y0026925D03*
X0009425Y0026925D03*
X0005675Y0018800D03*
X0007550Y0010050D03*
X0005050Y0007550D03*
X0010675Y0006300D03*
X0015675Y0007550D03*
X0018800Y0007550D03*
X0021925Y0007550D03*
X0026300Y0007550D03*
X0028800Y0005050D03*
X0026300Y0010675D03*
X0028800Y0019425D03*
M02*
