G75*
%MOIN*%
%OFA0B0*%
%FSLAX25Y25*%
%IPPOS*%
%LPD*%
%AMOC8*
5,1,8,0,0,1.08239X$1,22.5*
%
%ADD10C,0.02070*%
%ADD11C,0.03500*%
D10*
X0005635Y0013310D02*
X0005635Y0016040D01*
X0005865Y0016040D01*
X0005865Y0013310D01*
X0005635Y0013310D01*
X0005635Y0015379D02*
X0005865Y0015379D01*
X0008135Y0016040D02*
X0008135Y0013310D01*
X0008135Y0016040D02*
X0008365Y0016040D01*
X0008365Y0013310D01*
X0008135Y0013310D01*
X0008135Y0015379D02*
X0008365Y0015379D01*
X0010635Y0016040D02*
X0010635Y0013310D01*
X0010635Y0016040D02*
X0010865Y0016040D01*
X0010865Y0013310D01*
X0010635Y0013310D01*
X0010635Y0015379D02*
X0010865Y0015379D01*
X0013135Y0016040D02*
X0013135Y0013310D01*
X0013135Y0016040D02*
X0013365Y0016040D01*
X0013365Y0013310D01*
X0013135Y0013310D01*
X0013135Y0015379D02*
X0013365Y0015379D01*
X0015635Y0016040D02*
X0015635Y0013310D01*
X0015635Y0016040D02*
X0015865Y0016040D01*
X0015865Y0013310D01*
X0015635Y0013310D01*
X0015635Y0015379D02*
X0015865Y0015379D01*
X0018135Y0016040D02*
X0018135Y0013310D01*
X0018135Y0016040D02*
X0018365Y0016040D01*
X0018365Y0013310D01*
X0018135Y0013310D01*
X0018135Y0015379D02*
X0018365Y0015379D01*
X0020635Y0016040D02*
X0020635Y0013310D01*
X0020635Y0016040D02*
X0020865Y0016040D01*
X0020865Y0013310D01*
X0020635Y0013310D01*
X0020635Y0015379D02*
X0020865Y0015379D01*
X0023135Y0016040D02*
X0023135Y0013310D01*
X0023135Y0016040D02*
X0023365Y0016040D01*
X0023365Y0013310D01*
X0023135Y0013310D01*
X0023135Y0015379D02*
X0023365Y0015379D01*
X0025635Y0016040D02*
X0025635Y0013310D01*
X0025635Y0016040D02*
X0025865Y0016040D01*
X0025865Y0013310D01*
X0025635Y0013310D01*
X0025635Y0015379D02*
X0025865Y0015379D01*
X0028135Y0016040D02*
X0028135Y0013310D01*
X0028135Y0016040D02*
X0028365Y0016040D01*
X0028365Y0013310D01*
X0028135Y0013310D01*
X0028135Y0015379D02*
X0028365Y0015379D01*
X0025635Y0018310D02*
X0025635Y0021040D01*
X0025865Y0021040D01*
X0025865Y0018310D01*
X0025635Y0018310D01*
X0025635Y0020379D02*
X0025865Y0020379D01*
X0023135Y0021040D02*
X0023135Y0018310D01*
X0023135Y0021040D02*
X0023365Y0021040D01*
X0023365Y0018310D01*
X0023135Y0018310D01*
X0023135Y0020379D02*
X0023365Y0020379D01*
X0020635Y0021040D02*
X0020635Y0018310D01*
X0020635Y0021040D02*
X0020865Y0021040D01*
X0020865Y0018310D01*
X0020635Y0018310D01*
X0020635Y0020379D02*
X0020865Y0020379D01*
X0018135Y0021040D02*
X0018135Y0018310D01*
X0018135Y0021040D02*
X0018365Y0021040D01*
X0018365Y0018310D01*
X0018135Y0018310D01*
X0018135Y0020379D02*
X0018365Y0020379D01*
X0015635Y0021040D02*
X0015635Y0018310D01*
X0015635Y0021040D02*
X0015865Y0021040D01*
X0015865Y0018310D01*
X0015635Y0018310D01*
X0015635Y0020379D02*
X0015865Y0020379D01*
X0013135Y0021040D02*
X0013135Y0018310D01*
X0013135Y0021040D02*
X0013365Y0021040D01*
X0013365Y0018310D01*
X0013135Y0018310D01*
X0013135Y0020379D02*
X0013365Y0020379D01*
X0010635Y0021040D02*
X0010635Y0018310D01*
X0010635Y0021040D02*
X0010865Y0021040D01*
X0010865Y0018310D01*
X0010635Y0018310D01*
X0010635Y0020379D02*
X0010865Y0020379D01*
X0008135Y0021040D02*
X0008135Y0018310D01*
X0008135Y0021040D02*
X0008365Y0021040D01*
X0008365Y0018310D01*
X0008135Y0018310D01*
X0008135Y0020379D02*
X0008365Y0020379D01*
D11*
X0005050Y0007550D03*
X0007550Y0010050D03*
X0010675Y0006300D03*
X0015675Y0007550D03*
X0018800Y0007550D03*
X0021925Y0007550D03*
X0026300Y0007550D03*
X0028800Y0005050D03*
X0026300Y0010675D03*
X0028800Y0019425D03*
X0026300Y0023800D03*
X0023175Y0026925D03*
X0019425Y0029425D03*
X0015675Y0030050D03*
X0015675Y0026925D03*
X0012550Y0026925D03*
X0009425Y0026925D03*
X0005675Y0018800D03*
M02*
