%
M48
M72
T01C0.00800
%
T01
X7250Y19061
X7250Y22998
X7250Y26935
X19061Y20636
X37171Y6463
X41108Y6463
X44258Y32053
X58431Y11187
X59612Y15124
X59612Y19061
X67880Y17093
X67880Y21030
X67880Y24967
X67880Y28904
X67880Y13156
X66699Y65911
X66305Y80872
X60793Y85596
X60793Y89140
X65518Y95636
X63943Y102919
X55281Y99770
X52919Y103116
X36384Y106463
X32447Y106463
X15124Y101738
X13943Y97801
X13943Y93864
X5675Y91896
X5675Y95833
X5675Y99770
X5675Y87959
X5675Y84022
X27329Y78510
M30
