G75*
%MOIN*%
%OFA0B0*%
%FSLAX25Y25*%
%IPPOS*%
%LPD*%
%AMOC8*
5,1,8,0,0,1.08239X$1,22.5*
%
%ADD10R,0.02362X0.06299*%
%ADD11R,0.03346X0.07087*%
%ADD12R,0.02913X0.03642*%
%ADD13R,0.02756X0.03543*%
%ADD14R,0.03642X0.02913*%
%ADD15R,0.01969X0.01378*%
%ADD16R,0.01378X0.01969*%
%ADD17R,0.07677X0.07677*%
%ADD18C,0.02500*%
%ADD19C,0.00984*%
%ADD20C,0.00689*%
D10*
X0019061Y0045439D03*
X0022998Y0045439D03*
X0026935Y0045439D03*
X0030872Y0045439D03*
X0034809Y0045439D03*
X0038746Y0045439D03*
X0042683Y0045439D03*
X0046620Y0045439D03*
X0050557Y0045439D03*
X0054494Y0045439D03*
X0054494Y0067486D03*
X0050557Y0067486D03*
X0046620Y0067486D03*
X0042683Y0067486D03*
X0038746Y0067486D03*
X0034809Y0067486D03*
X0030872Y0067486D03*
X0026935Y0067486D03*
X0022998Y0067486D03*
X0019061Y0067486D03*
D11*
X0013844Y0058037D03*
X0059711Y0058037D03*
D12*
X0052722Y0015518D03*
X0052722Y0010793D03*
X0020833Y0097407D03*
X0020833Y0102132D03*
D13*
X0025163Y0102132D03*
X0030281Y0102132D03*
X0049967Y0074179D03*
X0055085Y0074179D03*
X0018274Y0034848D03*
X0013156Y0034848D03*
X0014691Y0012998D03*
X0019809Y0012998D03*
X0038274Y0016069D03*
X0043392Y0016069D03*
D14*
X0050754Y0021817D03*
X0055478Y0021817D03*
X0040793Y0079297D03*
X0036069Y0079297D03*
X0022801Y0091108D03*
X0018077Y0091108D03*
X0038352Y0101738D03*
X0043077Y0101738D03*
X0051935Y0091699D03*
X0051935Y0086581D03*
X0056659Y0086581D03*
X0056659Y0091699D03*
D15*
X0047604Y0091600D03*
X0047604Y0094159D03*
X0047604Y0089041D03*
X0047604Y0086482D03*
X0033825Y0086482D03*
X0033825Y0089041D03*
X0033825Y0091600D03*
X0033825Y0094159D03*
D16*
X0036876Y0097211D03*
X0039435Y0097211D03*
X0041994Y0097211D03*
X0044553Y0097211D03*
X0044553Y0083431D03*
X0041994Y0083431D03*
X0039435Y0083431D03*
X0036876Y0083431D03*
D17*
X0040715Y0090321D03*
D18*
X0036384Y0106463D03*
X0032447Y0106463D03*
X0015124Y0101738D03*
X0013943Y0097801D03*
X0013943Y0093864D03*
X0005675Y0091896D03*
X0005675Y0095833D03*
X0005675Y0099770D03*
X0005675Y0087959D03*
X0005675Y0084022D03*
X0027329Y0078510D03*
X0052919Y0103116D03*
X0055281Y0099770D03*
X0060793Y0089140D03*
X0060793Y0085596D03*
X0066305Y0080872D03*
X0065518Y0095636D03*
X0063943Y0102919D03*
X0066699Y0065911D03*
X0044258Y0032053D03*
X0058431Y0011187D03*
X0059612Y0015124D03*
X0059612Y0019061D03*
X0067880Y0017093D03*
X0067880Y0021030D03*
X0067880Y0024967D03*
X0067880Y0028904D03*
X0067880Y0013156D03*
X0041108Y0006463D03*
X0037171Y0006463D03*
X0019061Y0020636D03*
X0007250Y0019061D03*
X0007250Y0022998D03*
X0007250Y0026935D03*
D19*
X0027329Y0078510D02*
X0022604Y0083234D01*
X0022604Y0091108D01*
X0022801Y0091108D02*
X0020833Y0097407D01*
X0020439Y0097801D02*
X0013943Y0097801D01*
X0013943Y0093864D02*
X0018077Y0091108D01*
X0033825Y0091600D02*
X0041994Y0091600D01*
X0040715Y0090321D01*
X0039435Y0091600D01*
X0039435Y0097211D01*
X0036876Y0097211D01*
X0036876Y0100262D01*
X0038352Y0101738D01*
X0041994Y0097211D02*
X0041994Y0091600D01*
X0040714Y0090321D02*
X0040767Y0090253D01*
X0040823Y0090188D01*
X0040881Y0090125D01*
X0040943Y0090065D01*
X0041007Y0090008D01*
X0041073Y0089953D01*
X0041142Y0089902D01*
X0041213Y0089853D01*
X0041286Y0089808D01*
X0041361Y0089766D01*
X0041437Y0089727D01*
X0041516Y0089691D01*
X0041595Y0089659D01*
X0041676Y0089631D01*
X0041759Y0089606D01*
X0041842Y0089584D01*
X0041926Y0089567D01*
X0042011Y0089553D01*
X0042096Y0089542D01*
X0042181Y0089536D01*
X0042267Y0089533D01*
X0042353Y0089534D01*
X0042439Y0089539D01*
X0042525Y0089547D01*
X0042610Y0089559D01*
X0042694Y0089575D01*
X0042778Y0089595D01*
X0042860Y0089618D01*
X0042942Y0089644D01*
X0043022Y0089675D01*
X0043101Y0089708D01*
X0043179Y0089746D01*
X0043255Y0089786D01*
X0043329Y0089830D01*
X0043401Y0089877D01*
X0043470Y0089927D01*
X0040715Y0090321D02*
X0039533Y0091502D01*
X0039435Y0083431D02*
X0039435Y0080656D01*
X0040793Y0079297D01*
X0041994Y0080498D01*
X0041994Y0083431D01*
X0046620Y0067486D02*
X0046620Y0062368D01*
X0050951Y0058037D01*
X0059711Y0058037D01*
X0066699Y0065026D01*
X0066699Y0065911D01*
X0056659Y0086581D02*
X0056659Y0091699D01*
X0044258Y0032053D02*
X0050951Y0025360D01*
X0050951Y0021817D01*
X0050754Y0021817D02*
X0052722Y0015518D01*
X0053116Y0015124D02*
X0059612Y0015124D01*
X0059612Y0019061D02*
X0055478Y0021817D01*
D20*
X0014730Y0006463D02*
X0004494Y0016699D01*
X0004494Y0039533D01*
X0021030Y0056069D01*
X0036384Y0056069D01*
X0042683Y0062368D01*
X0042683Y0067486D01*
X0042683Y0070636D01*
X0039533Y0073785D01*
X0036384Y0073785D01*
X0032841Y0077329D01*
X0032841Y0081659D01*
X0029297Y0085203D01*
X0029297Y0095833D01*
X0032841Y0099376D01*
X0032841Y0102132D01*
X0036384Y0105675D01*
X0036384Y0106463D01*
X0038352Y0104494D02*
X0038352Y0101738D01*
X0038352Y0104494D02*
X0041502Y0107644D01*
X0056069Y0107644D01*
X0059219Y0104494D01*
X0059219Y0097801D01*
X0056659Y0095242D01*
X0056659Y0091699D01*
X0060793Y0089140D02*
X0063156Y0086778D01*
X0063156Y0084415D01*
X0058037Y0079297D01*
X0040793Y0079297D01*
X0041896Y0075360D02*
X0037959Y0075360D01*
X0036069Y0077250D01*
X0036069Y0079297D01*
X0036069Y0080400D01*
X0030872Y0085596D01*
X0030872Y0090715D01*
X0031758Y0091600D01*
X0033825Y0091600D01*
X0027722Y0096817D02*
X0030281Y0099376D01*
X0030281Y0102132D01*
X0030281Y0104297D01*
X0032447Y0106463D01*
X0025163Y0099376D02*
X0026148Y0098392D01*
X0026148Y0083628D01*
X0029691Y0080085D01*
X0029691Y0075754D01*
X0034809Y0070636D01*
X0034809Y0067486D01*
X0035596Y0072211D02*
X0037171Y0072211D01*
X0038746Y0070636D01*
X0038746Y0067486D01*
X0035596Y0072211D02*
X0031266Y0076541D01*
X0031266Y0080872D01*
X0027722Y0084415D01*
X0027722Y0096817D01*
X0025163Y0099376D02*
X0025163Y0102132D01*
X0025163Y0106069D01*
X0023589Y0107644D01*
X0013549Y0107644D01*
X0005675Y0099770D01*
X0005675Y0095833D02*
X0030872Y0070636D01*
X0030872Y0067486D01*
X0026935Y0067486D02*
X0026935Y0070636D01*
X0005675Y0091896D01*
X0005675Y0087959D02*
X0022998Y0070636D01*
X0022998Y0067486D01*
X0019061Y0067486D02*
X0019061Y0070636D01*
X0005675Y0084022D01*
X0015124Y0101738D02*
X0020439Y0101738D01*
X0020833Y0102132D01*
X0020439Y0097801D02*
X0020833Y0097407D01*
X0041896Y0075360D02*
X0046620Y0070636D01*
X0046620Y0067486D01*
X0050557Y0067486D02*
X0050557Y0073589D01*
X0049967Y0074179D01*
X0049967Y0075951D01*
X0051344Y0077329D01*
X0058825Y0077329D01*
X0065518Y0084022D01*
X0065518Y0095636D01*
X0069061Y0097801D02*
X0063943Y0102919D01*
X0069061Y0097801D02*
X0069061Y0057644D01*
X0063943Y0052526D01*
X0030872Y0052526D01*
X0026935Y0048589D01*
X0026935Y0045439D01*
X0026935Y0034809D01*
X0011187Y0019061D01*
X0014691Y0015557D01*
X0014691Y0012998D01*
X0011187Y0019061D02*
X0007250Y0019061D01*
X0007250Y0022998D02*
X0009022Y0022998D01*
X0018274Y0032250D01*
X0018274Y0034848D01*
X0022998Y0039573D01*
X0022998Y0045439D01*
X0019061Y0045439D02*
X0013156Y0039533D01*
X0013156Y0034848D01*
X0007250Y0028943D01*
X0007250Y0026935D01*
X0019061Y0020636D02*
X0030872Y0032447D01*
X0030872Y0045439D01*
X0034809Y0045439D02*
X0034809Y0016069D01*
X0034809Y0015518D01*
X0034809Y0012762D01*
X0041108Y0006463D01*
X0037171Y0006463D02*
X0019848Y0006463D01*
X0019848Y0012959D01*
X0019809Y0012998D01*
X0019848Y0006463D02*
X0014730Y0006463D01*
X0034809Y0016069D02*
X0038274Y0016069D01*
X0043392Y0016069D02*
X0047014Y0016069D01*
X0047014Y0019848D01*
X0038746Y0028116D01*
X0038746Y0045439D01*
X0042683Y0045439D02*
X0042683Y0042289D01*
X0067880Y0017093D01*
X0067880Y0021030D02*
X0046620Y0042289D01*
X0046620Y0045439D01*
X0050557Y0045439D02*
X0050557Y0042289D01*
X0067880Y0024967D01*
X0067880Y0028904D02*
X0054494Y0042289D01*
X0054494Y0045439D01*
X0054494Y0067486D02*
X0054494Y0073589D01*
X0055085Y0074179D01*
X0059612Y0074179D01*
X0066305Y0080872D01*
X0060793Y0085596D02*
X0058431Y0083234D01*
X0052919Y0083234D01*
X0051935Y0084219D01*
X0051935Y0086581D01*
X0051837Y0086482D01*
X0047604Y0086482D01*
X0047604Y0091600D02*
X0051837Y0091600D01*
X0051935Y0091699D01*
X0051935Y0096423D01*
X0055281Y0099770D01*
X0052919Y0103116D02*
X0051541Y0101738D01*
X0043077Y0101738D01*
X0044553Y0100262D01*
X0044553Y0097211D01*
X0047014Y0016069D02*
X0047014Y0009415D01*
X0050951Y0005478D01*
X0060203Y0005478D01*
X0067880Y0013156D01*
X0058431Y0011187D02*
X0053116Y0011187D01*
X0052722Y0010793D01*
X0053116Y0015124D02*
X0052722Y0015518D01*
M02*
