G75*
%MOIN*%
%OFA0B0*%
%FSLAX25Y25*%
%IPPOS*%
%LPD*%
%AMOC8*
5,1,8,0,0,1.08239X$1,22.5*
%
%ADD10R,0.03543X0.00984*%
%ADD11R,0.00984X0.03543*%
%ADD12R,0.07874X0.07874*%
%ADD13R,0.00906X0.02598*%
%ADD14R,0.01378X0.02598*%
D10*
X0023195Y0014140D03*
X0023195Y0016108D03*
X0023195Y0018077D03*
X0023195Y0020045D03*
X0023195Y0022014D03*
X0023195Y0023982D03*
X0023195Y0025951D03*
X0023195Y0027919D03*
X0023195Y0029888D03*
X0023195Y0031856D03*
X0023195Y0033825D03*
X0023195Y0035793D03*
X0023195Y0037762D03*
X0023195Y0039730D03*
X0018470Y0073195D03*
X0018470Y0075163D03*
X0018470Y0077132D03*
X0018470Y0079100D03*
X0018470Y0081069D03*
X0018470Y0083037D03*
X0018470Y0085006D03*
X0018470Y0086974D03*
X0018470Y0088943D03*
X0018470Y0090911D03*
X0018470Y0092880D03*
X0018470Y0094848D03*
X0018470Y0096817D03*
X0018470Y0098785D03*
X0050360Y0098785D03*
X0050360Y0096817D03*
X0050360Y0094848D03*
X0050360Y0092880D03*
X0050360Y0090911D03*
X0050360Y0088943D03*
X0050360Y0086974D03*
X0050360Y0085006D03*
X0050360Y0083037D03*
X0050360Y0081069D03*
X0050360Y0079100D03*
X0050360Y0077132D03*
X0050360Y0075163D03*
X0050360Y0073195D03*
X0055085Y0039730D03*
X0055085Y0037762D03*
X0055085Y0035793D03*
X0055085Y0033825D03*
X0055085Y0031856D03*
X0055085Y0029888D03*
X0055085Y0027919D03*
X0055085Y0025951D03*
X0055085Y0023982D03*
X0055085Y0022014D03*
X0055085Y0020045D03*
X0055085Y0018077D03*
X0055085Y0016108D03*
X0055085Y0014140D03*
D11*
X0051935Y0010990D03*
X0049967Y0010990D03*
X0047998Y0010990D03*
X0046030Y0010990D03*
X0044061Y0010990D03*
X0042093Y0010990D03*
X0040124Y0010990D03*
X0038156Y0010990D03*
X0036187Y0010990D03*
X0034219Y0010990D03*
X0032250Y0010990D03*
X0030281Y0010990D03*
X0028313Y0010990D03*
X0026344Y0010990D03*
X0026344Y0042880D03*
X0028313Y0042880D03*
X0030281Y0042880D03*
X0032250Y0042880D03*
X0034219Y0042880D03*
X0036187Y0042880D03*
X0038156Y0042880D03*
X0040124Y0042880D03*
X0042093Y0042880D03*
X0044061Y0042880D03*
X0046030Y0042880D03*
X0047998Y0042880D03*
X0049967Y0042880D03*
X0051935Y0042880D03*
X0047211Y0070045D03*
X0045242Y0070045D03*
X0043274Y0070045D03*
X0041305Y0070045D03*
X0039337Y0070045D03*
X0037368Y0070045D03*
X0035400Y0070045D03*
X0033431Y0070045D03*
X0031463Y0070045D03*
X0029494Y0070045D03*
X0027526Y0070045D03*
X0025557Y0070045D03*
X0023589Y0070045D03*
X0021620Y0070045D03*
X0021620Y0101935D03*
X0023589Y0101935D03*
X0025557Y0101935D03*
X0027526Y0101935D03*
X0029494Y0101935D03*
X0031463Y0101935D03*
X0033431Y0101935D03*
X0035400Y0101935D03*
X0037368Y0101935D03*
X0039337Y0101935D03*
X0041305Y0101935D03*
X0043274Y0101935D03*
X0045242Y0101935D03*
X0047211Y0101935D03*
D12*
X0039927Y0091502D03*
X0039927Y0080478D03*
X0028904Y0080478D03*
X0028904Y0091502D03*
X0033628Y0032447D03*
X0033628Y0021423D03*
X0044652Y0021423D03*
X0044652Y0032447D03*
D13*
X0044652Y0051128D03*
X0046226Y0051128D03*
X0047801Y0051128D03*
X0049376Y0051128D03*
X0050951Y0051128D03*
X0052526Y0051128D03*
X0054100Y0051128D03*
X0055675Y0051128D03*
X0057250Y0051128D03*
X0058825Y0051128D03*
X0060400Y0051128D03*
X0061974Y0051128D03*
X0063549Y0051128D03*
X0063549Y0061797D03*
X0061974Y0061797D03*
X0060400Y0061797D03*
X0058825Y0061797D03*
X0057250Y0061797D03*
X0055675Y0061797D03*
X0054100Y0061797D03*
X0052526Y0061797D03*
X0050951Y0061797D03*
X0049376Y0061797D03*
X0047801Y0061797D03*
X0046226Y0061797D03*
X0044652Y0061797D03*
X0043077Y0061797D03*
X0041502Y0061797D03*
X0039927Y0061797D03*
X0038352Y0061797D03*
X0036778Y0061797D03*
X0035203Y0061797D03*
X0033628Y0061797D03*
X0032053Y0061797D03*
X0030478Y0061797D03*
X0028904Y0061797D03*
X0027329Y0061797D03*
X0025754Y0061797D03*
X0024179Y0061797D03*
X0022604Y0061797D03*
X0021030Y0061797D03*
X0019455Y0061797D03*
X0017880Y0061797D03*
X0016305Y0061797D03*
X0014730Y0061797D03*
X0013156Y0061797D03*
X0011581Y0061797D03*
X0010006Y0061797D03*
X0010006Y0051128D03*
X0011581Y0051128D03*
X0013156Y0051128D03*
X0014730Y0051128D03*
X0016305Y0051128D03*
X0017880Y0051128D03*
X0019455Y0051128D03*
X0021030Y0051128D03*
X0022604Y0051128D03*
X0024179Y0051128D03*
X0025754Y0051128D03*
X0027329Y0051128D03*
X0028904Y0051128D03*
X0030478Y0051128D03*
X0032053Y0051128D03*
X0033628Y0051128D03*
X0035203Y0051128D03*
X0036778Y0051128D03*
X0038352Y0051128D03*
X0039927Y0051128D03*
X0041502Y0051128D03*
X0043077Y0051128D03*
D14*
X0065419Y0051128D03*
X0065419Y0061797D03*
X0008136Y0061797D03*
X0008136Y0051128D03*
M02*
