G75*
%MOIN*%
%OFA0B0*%
%FSLAX25Y25*%
%IPPOS*%
%LPD*%
%AMOC8*
5,1,8,0,0,1.08239X$1,22.5*
%
%ADD10C,0.00500*%
%ADD11C,0.00400*%
D10*
X0012762Y0039927D02*
X0060793Y0039927D01*
X0060793Y0053707D01*
X0060793Y0062368D02*
X0060793Y0068667D01*
X0056463Y0068667D01*
X0048589Y0082447D02*
X0048589Y0085203D01*
X0048589Y0082447D02*
X0045833Y0082447D01*
X0048589Y0095439D02*
X0048589Y0098195D01*
X0045833Y0098195D01*
X0035596Y0098195D02*
X0032841Y0098195D01*
X0032841Y0095439D01*
X0032841Y0085203D02*
X0032841Y0082447D01*
X0035596Y0082447D01*
X0033929Y0084415D02*
X0033931Y0084474D01*
X0033937Y0084532D01*
X0033947Y0084590D01*
X0033960Y0084647D01*
X0033978Y0084704D01*
X0033999Y0084759D01*
X0034024Y0084812D01*
X0034052Y0084863D01*
X0034083Y0084913D01*
X0034118Y0084960D01*
X0034156Y0085005D01*
X0034197Y0085048D01*
X0034241Y0085087D01*
X0034287Y0085123D01*
X0034335Y0085157D01*
X0034386Y0085187D01*
X0034439Y0085213D01*
X0034493Y0085236D01*
X0034548Y0085255D01*
X0034605Y0085271D01*
X0034663Y0085283D01*
X0034721Y0085291D01*
X0034780Y0085295D01*
X0034838Y0085295D01*
X0034897Y0085291D01*
X0034955Y0085283D01*
X0035013Y0085271D01*
X0035070Y0085255D01*
X0035125Y0085236D01*
X0035179Y0085213D01*
X0035232Y0085187D01*
X0035283Y0085157D01*
X0035331Y0085123D01*
X0035377Y0085087D01*
X0035421Y0085048D01*
X0035462Y0085005D01*
X0035500Y0084960D01*
X0035535Y0084913D01*
X0035566Y0084863D01*
X0035594Y0084812D01*
X0035619Y0084759D01*
X0035640Y0084704D01*
X0035658Y0084647D01*
X0035671Y0084590D01*
X0035681Y0084532D01*
X0035687Y0084474D01*
X0035689Y0084415D01*
X0035687Y0084356D01*
X0035681Y0084298D01*
X0035671Y0084240D01*
X0035658Y0084183D01*
X0035640Y0084126D01*
X0035619Y0084071D01*
X0035594Y0084018D01*
X0035566Y0083967D01*
X0035535Y0083917D01*
X0035500Y0083870D01*
X0035462Y0083825D01*
X0035421Y0083782D01*
X0035377Y0083743D01*
X0035331Y0083707D01*
X0035283Y0083673D01*
X0035232Y0083643D01*
X0035179Y0083617D01*
X0035125Y0083594D01*
X0035070Y0083575D01*
X0035013Y0083559D01*
X0034955Y0083547D01*
X0034897Y0083539D01*
X0034838Y0083535D01*
X0034780Y0083535D01*
X0034721Y0083539D01*
X0034663Y0083547D01*
X0034605Y0083559D01*
X0034548Y0083575D01*
X0034493Y0083594D01*
X0034439Y0083617D01*
X0034386Y0083643D01*
X0034335Y0083673D01*
X0034287Y0083707D01*
X0034241Y0083743D01*
X0034197Y0083782D01*
X0034156Y0083825D01*
X0034118Y0083870D01*
X0034083Y0083917D01*
X0034052Y0083967D01*
X0034024Y0084018D01*
X0033999Y0084071D01*
X0033978Y0084126D01*
X0033960Y0084183D01*
X0033947Y0084240D01*
X0033937Y0084298D01*
X0033931Y0084356D01*
X0033929Y0084415D01*
X0017093Y0068667D02*
X0012762Y0068667D01*
X0012762Y0062368D01*
X0012762Y0053707D02*
X0012762Y0039927D01*
X0061187Y0038746D02*
X0061189Y0038802D01*
X0061195Y0038857D01*
X0061205Y0038911D01*
X0061218Y0038965D01*
X0061236Y0039018D01*
X0061257Y0039069D01*
X0061281Y0039119D01*
X0061309Y0039167D01*
X0061341Y0039213D01*
X0061375Y0039257D01*
X0061413Y0039298D01*
X0061453Y0039336D01*
X0061496Y0039371D01*
X0061541Y0039403D01*
X0061589Y0039432D01*
X0061638Y0039458D01*
X0061689Y0039480D01*
X0061741Y0039498D01*
X0061795Y0039512D01*
X0061850Y0039523D01*
X0061905Y0039530D01*
X0061960Y0039533D01*
X0062016Y0039532D01*
X0062071Y0039527D01*
X0062126Y0039518D01*
X0062180Y0039506D01*
X0062233Y0039489D01*
X0062285Y0039469D01*
X0062335Y0039445D01*
X0062383Y0039418D01*
X0062430Y0039388D01*
X0062474Y0039354D01*
X0062516Y0039317D01*
X0062554Y0039277D01*
X0062591Y0039235D01*
X0062624Y0039190D01*
X0062653Y0039144D01*
X0062680Y0039095D01*
X0062702Y0039044D01*
X0062722Y0038992D01*
X0062737Y0038938D01*
X0062749Y0038884D01*
X0062757Y0038829D01*
X0062761Y0038774D01*
X0062761Y0038718D01*
X0062757Y0038663D01*
X0062749Y0038608D01*
X0062737Y0038554D01*
X0062722Y0038500D01*
X0062702Y0038448D01*
X0062680Y0038397D01*
X0062653Y0038348D01*
X0062624Y0038302D01*
X0062591Y0038257D01*
X0062554Y0038215D01*
X0062516Y0038175D01*
X0062474Y0038138D01*
X0062430Y0038104D01*
X0062383Y0038074D01*
X0062335Y0038047D01*
X0062285Y0038023D01*
X0062233Y0038003D01*
X0062180Y0037986D01*
X0062126Y0037974D01*
X0062071Y0037965D01*
X0062016Y0037960D01*
X0061960Y0037959D01*
X0061905Y0037962D01*
X0061850Y0037969D01*
X0061795Y0037980D01*
X0061741Y0037994D01*
X0061689Y0038012D01*
X0061638Y0038034D01*
X0061589Y0038060D01*
X0061541Y0038089D01*
X0061496Y0038121D01*
X0061453Y0038156D01*
X0061413Y0038194D01*
X0061375Y0038235D01*
X0061341Y0038279D01*
X0061309Y0038325D01*
X0061281Y0038373D01*
X0061257Y0038423D01*
X0061236Y0038474D01*
X0061218Y0038527D01*
X0061205Y0038581D01*
X0061195Y0038635D01*
X0061189Y0038690D01*
X0061187Y0038746D01*
D11*
X0031857Y0085644D02*
X0028020Y0085644D01*
X0027253Y0086411D01*
X0027253Y0087946D01*
X0028020Y0088713D01*
X0031857Y0088713D01*
X0031090Y0090248D02*
X0031857Y0091015D01*
X0031857Y0092550D01*
X0031090Y0093317D01*
X0030322Y0093317D01*
X0029555Y0092550D01*
X0028788Y0093317D01*
X0028020Y0093317D01*
X0027253Y0092550D01*
X0027253Y0091015D01*
X0028020Y0090248D01*
X0029555Y0091782D02*
X0029555Y0092550D01*
M02*
