G75*
%MOIN*%
%OFA0B0*%
%FSLAX25Y25*%
%IPPOS*%
%LPD*%
%AMOC8*
5,1,8,0,0,1.08239X$1,22.5*
%
%ADD10R,0.02962X0.06899*%
%ADD11R,0.03946X0.07687*%
%ADD12R,0.03513X0.04242*%
%ADD13R,0.03356X0.04143*%
%ADD14R,0.04242X0.03513*%
%ADD15R,0.08268X0.08268*%
%ADD16R,0.02569X0.01978*%
%ADD17R,0.01978X0.02569*%
%ADD18R,0.08277X0.08277*%
%ADD19C,0.03100*%
D10*
X0019061Y0045439D03*
X0022998Y0045439D03*
X0026935Y0045439D03*
X0030872Y0045439D03*
X0034809Y0045439D03*
X0038746Y0045439D03*
X0042683Y0045439D03*
X0046620Y0045439D03*
X0050557Y0045439D03*
X0054494Y0045439D03*
X0054494Y0067486D03*
X0050557Y0067486D03*
X0046620Y0067486D03*
X0042683Y0067486D03*
X0038746Y0067486D03*
X0034809Y0067486D03*
X0030872Y0067486D03*
X0026935Y0067486D03*
X0022998Y0067486D03*
X0019061Y0067486D03*
D11*
X0013844Y0058037D03*
X0059711Y0058037D03*
D12*
X0052722Y0015518D03*
X0052722Y0010793D03*
X0020833Y0097407D03*
X0020833Y0102132D03*
D13*
X0025163Y0102132D03*
X0030281Y0102132D03*
X0049967Y0074179D03*
X0055085Y0074179D03*
X0018274Y0034848D03*
X0013156Y0034848D03*
X0014691Y0012998D03*
X0019809Y0012998D03*
X0038274Y0016069D03*
X0043392Y0016069D03*
D14*
X0050754Y0021817D03*
X0055478Y0021817D03*
X0040793Y0079297D03*
X0036069Y0079297D03*
X0022801Y0091108D03*
X0018077Y0091108D03*
X0038352Y0101738D03*
X0043077Y0101738D03*
X0051935Y0091699D03*
X0051935Y0086581D03*
X0056659Y0086581D03*
X0056659Y0091699D03*
D15*
X0040715Y0090321D03*
D16*
X0047604Y0091600D03*
X0047604Y0094159D03*
X0047604Y0089041D03*
X0047604Y0086482D03*
X0033825Y0086482D03*
X0033825Y0089041D03*
X0033825Y0091600D03*
X0033825Y0094159D03*
D17*
X0036876Y0097211D03*
X0039435Y0097211D03*
X0041994Y0097211D03*
X0044553Y0097211D03*
X0044553Y0083431D03*
X0041994Y0083431D03*
X0039435Y0083431D03*
X0036876Y0083431D03*
D18*
X0040715Y0090321D03*
D19*
X0007250Y0019061D03*
X0007250Y0022998D03*
X0007250Y0026935D03*
X0019061Y0020636D03*
X0037171Y0006463D03*
X0041108Y0006463D03*
X0044258Y0032053D03*
X0058431Y0011187D03*
X0059612Y0015124D03*
X0059612Y0019061D03*
X0067880Y0017093D03*
X0067880Y0021030D03*
X0067880Y0024967D03*
X0067880Y0028904D03*
X0067880Y0013156D03*
X0066699Y0065911D03*
X0066305Y0080872D03*
X0060793Y0085596D03*
X0060793Y0089140D03*
X0065518Y0095636D03*
X0063943Y0102919D03*
X0055281Y0099770D03*
X0052919Y0103116D03*
X0036384Y0106463D03*
X0032447Y0106463D03*
X0015124Y0101738D03*
X0013943Y0097801D03*
X0013943Y0093864D03*
X0005675Y0091896D03*
X0005675Y0095833D03*
X0005675Y0099770D03*
X0005675Y0087959D03*
X0005675Y0084022D03*
X0027329Y0078510D03*
M02*
