G75*
%MOIN*%
%OFA0B0*%
%FSLAX25Y25*%
%IPPOS*%
%LPD*%
%AMOC8*
5,1,8,0,0,1.08239X$1,22.5*
%
%ADD10C,0.00500*%
D10*
X0023392Y0011187D02*
X0024770Y0011187D01*
X0023392Y0011187D02*
X0023392Y0012565D01*
X0023392Y0041305D02*
X0023392Y0042683D01*
X0024770Y0042683D01*
X0021331Y0043864D02*
X0021333Y0043923D01*
X0021339Y0043981D01*
X0021349Y0044039D01*
X0021362Y0044096D01*
X0021380Y0044153D01*
X0021401Y0044208D01*
X0021426Y0044261D01*
X0021454Y0044312D01*
X0021485Y0044362D01*
X0021520Y0044409D01*
X0021558Y0044454D01*
X0021599Y0044497D01*
X0021643Y0044536D01*
X0021689Y0044572D01*
X0021737Y0044606D01*
X0021788Y0044636D01*
X0021841Y0044662D01*
X0021895Y0044685D01*
X0021950Y0044704D01*
X0022007Y0044720D01*
X0022065Y0044732D01*
X0022123Y0044740D01*
X0022182Y0044744D01*
X0022240Y0044744D01*
X0022299Y0044740D01*
X0022357Y0044732D01*
X0022415Y0044720D01*
X0022472Y0044704D01*
X0022527Y0044685D01*
X0022581Y0044662D01*
X0022634Y0044636D01*
X0022685Y0044606D01*
X0022733Y0044572D01*
X0022779Y0044536D01*
X0022823Y0044497D01*
X0022864Y0044454D01*
X0022902Y0044409D01*
X0022937Y0044362D01*
X0022968Y0044312D01*
X0022996Y0044261D01*
X0023021Y0044208D01*
X0023042Y0044153D01*
X0023060Y0044096D01*
X0023073Y0044039D01*
X0023083Y0043981D01*
X0023089Y0043923D01*
X0023091Y0043864D01*
X0023089Y0043805D01*
X0023083Y0043747D01*
X0023073Y0043689D01*
X0023060Y0043632D01*
X0023042Y0043575D01*
X0023021Y0043520D01*
X0022996Y0043467D01*
X0022968Y0043416D01*
X0022937Y0043366D01*
X0022902Y0043319D01*
X0022864Y0043274D01*
X0022823Y0043231D01*
X0022779Y0043192D01*
X0022733Y0043156D01*
X0022685Y0043122D01*
X0022634Y0043092D01*
X0022581Y0043066D01*
X0022527Y0043043D01*
X0022472Y0043024D01*
X0022415Y0043008D01*
X0022357Y0042996D01*
X0022299Y0042988D01*
X0022240Y0042984D01*
X0022182Y0042984D01*
X0022123Y0042988D01*
X0022065Y0042996D01*
X0022007Y0043008D01*
X0021950Y0043024D01*
X0021895Y0043043D01*
X0021841Y0043066D01*
X0021788Y0043092D01*
X0021737Y0043122D01*
X0021689Y0043156D01*
X0021643Y0043192D01*
X0021599Y0043231D01*
X0021558Y0043274D01*
X0021520Y0043319D01*
X0021485Y0043366D01*
X0021454Y0043416D01*
X0021426Y0043467D01*
X0021401Y0043520D01*
X0021380Y0043575D01*
X0021362Y0043632D01*
X0021349Y0043689D01*
X0021339Y0043747D01*
X0021333Y0043805D01*
X0021331Y0043864D01*
X0006778Y0050616D02*
X0006226Y0050616D01*
X0006226Y0062309D01*
X0006778Y0062309D01*
X0004494Y0049376D02*
X0004496Y0049432D01*
X0004502Y0049487D01*
X0004512Y0049541D01*
X0004525Y0049595D01*
X0004543Y0049648D01*
X0004564Y0049699D01*
X0004588Y0049749D01*
X0004616Y0049797D01*
X0004648Y0049843D01*
X0004682Y0049887D01*
X0004720Y0049928D01*
X0004760Y0049966D01*
X0004803Y0050001D01*
X0004848Y0050033D01*
X0004896Y0050062D01*
X0004945Y0050088D01*
X0004996Y0050110D01*
X0005048Y0050128D01*
X0005102Y0050142D01*
X0005157Y0050153D01*
X0005212Y0050160D01*
X0005267Y0050163D01*
X0005323Y0050162D01*
X0005378Y0050157D01*
X0005433Y0050148D01*
X0005487Y0050136D01*
X0005540Y0050119D01*
X0005592Y0050099D01*
X0005642Y0050075D01*
X0005690Y0050048D01*
X0005737Y0050018D01*
X0005781Y0049984D01*
X0005823Y0049947D01*
X0005861Y0049907D01*
X0005898Y0049865D01*
X0005931Y0049820D01*
X0005960Y0049774D01*
X0005987Y0049725D01*
X0006009Y0049674D01*
X0006029Y0049622D01*
X0006044Y0049568D01*
X0006056Y0049514D01*
X0006064Y0049459D01*
X0006068Y0049404D01*
X0006068Y0049348D01*
X0006064Y0049293D01*
X0006056Y0049238D01*
X0006044Y0049184D01*
X0006029Y0049130D01*
X0006009Y0049078D01*
X0005987Y0049027D01*
X0005960Y0048978D01*
X0005931Y0048932D01*
X0005898Y0048887D01*
X0005861Y0048845D01*
X0005823Y0048805D01*
X0005781Y0048768D01*
X0005737Y0048734D01*
X0005690Y0048704D01*
X0005642Y0048677D01*
X0005592Y0048653D01*
X0005540Y0048633D01*
X0005487Y0048616D01*
X0005433Y0048604D01*
X0005378Y0048595D01*
X0005323Y0048590D01*
X0005267Y0048589D01*
X0005212Y0048592D01*
X0005157Y0048599D01*
X0005102Y0048610D01*
X0005048Y0048624D01*
X0004996Y0048642D01*
X0004945Y0048664D01*
X0004896Y0048690D01*
X0004848Y0048719D01*
X0004803Y0048751D01*
X0004760Y0048786D01*
X0004720Y0048824D01*
X0004682Y0048865D01*
X0004648Y0048909D01*
X0004616Y0048955D01*
X0004588Y0049003D01*
X0004564Y0049053D01*
X0004543Y0049104D01*
X0004525Y0049157D01*
X0004512Y0049211D01*
X0004502Y0049265D01*
X0004496Y0049320D01*
X0004494Y0049376D01*
X0018667Y0070242D02*
X0018667Y0071620D01*
X0018667Y0070242D02*
X0020045Y0070242D01*
X0018667Y0100360D02*
X0018667Y0101738D01*
X0020045Y0101738D01*
X0048785Y0101738D02*
X0050163Y0101738D01*
X0050163Y0100360D01*
X0050163Y0071620D02*
X0050163Y0070242D01*
X0048785Y0070242D01*
X0050464Y0069061D02*
X0050466Y0069120D01*
X0050472Y0069178D01*
X0050482Y0069236D01*
X0050495Y0069293D01*
X0050513Y0069350D01*
X0050534Y0069405D01*
X0050559Y0069458D01*
X0050587Y0069509D01*
X0050618Y0069559D01*
X0050653Y0069606D01*
X0050691Y0069651D01*
X0050732Y0069694D01*
X0050776Y0069733D01*
X0050822Y0069769D01*
X0050870Y0069803D01*
X0050921Y0069833D01*
X0050974Y0069859D01*
X0051028Y0069882D01*
X0051083Y0069901D01*
X0051140Y0069917D01*
X0051198Y0069929D01*
X0051256Y0069937D01*
X0051315Y0069941D01*
X0051373Y0069941D01*
X0051432Y0069937D01*
X0051490Y0069929D01*
X0051548Y0069917D01*
X0051605Y0069901D01*
X0051660Y0069882D01*
X0051714Y0069859D01*
X0051767Y0069833D01*
X0051818Y0069803D01*
X0051866Y0069769D01*
X0051912Y0069733D01*
X0051956Y0069694D01*
X0051997Y0069651D01*
X0052035Y0069606D01*
X0052070Y0069559D01*
X0052101Y0069509D01*
X0052129Y0069458D01*
X0052154Y0069405D01*
X0052175Y0069350D01*
X0052193Y0069293D01*
X0052206Y0069236D01*
X0052216Y0069178D01*
X0052222Y0069120D01*
X0052224Y0069061D01*
X0052222Y0069002D01*
X0052216Y0068944D01*
X0052206Y0068886D01*
X0052193Y0068829D01*
X0052175Y0068772D01*
X0052154Y0068717D01*
X0052129Y0068664D01*
X0052101Y0068613D01*
X0052070Y0068563D01*
X0052035Y0068516D01*
X0051997Y0068471D01*
X0051956Y0068428D01*
X0051912Y0068389D01*
X0051866Y0068353D01*
X0051818Y0068319D01*
X0051767Y0068289D01*
X0051714Y0068263D01*
X0051660Y0068240D01*
X0051605Y0068221D01*
X0051548Y0068205D01*
X0051490Y0068193D01*
X0051432Y0068185D01*
X0051373Y0068181D01*
X0051315Y0068181D01*
X0051256Y0068185D01*
X0051198Y0068193D01*
X0051140Y0068205D01*
X0051083Y0068221D01*
X0051028Y0068240D01*
X0050974Y0068263D01*
X0050921Y0068289D01*
X0050870Y0068319D01*
X0050822Y0068353D01*
X0050776Y0068389D01*
X0050732Y0068428D01*
X0050691Y0068471D01*
X0050653Y0068516D01*
X0050618Y0068563D01*
X0050587Y0068613D01*
X0050559Y0068664D01*
X0050534Y0068717D01*
X0050513Y0068772D01*
X0050495Y0068829D01*
X0050482Y0068886D01*
X0050472Y0068944D01*
X0050466Y0069002D01*
X0050464Y0069061D01*
X0066778Y0062309D02*
X0067329Y0062309D01*
X0067329Y0050616D01*
X0066778Y0050616D01*
X0054888Y0042683D02*
X0054888Y0041305D01*
X0054888Y0042683D02*
X0053510Y0042683D01*
X0054888Y0012565D02*
X0054888Y0011187D01*
X0053510Y0011187D01*
M02*
