%
M48
M72
T01C0.01500
%
T01
X20700Y12200
X23300Y10000
X27100Y8800
X29400Y13200
X34200Y16200
X36600Y13800
X55200Y16200
X59100Y12700
X62700Y12200
X65300Y10000
X69100Y8800
X71400Y13200
X76200Y16200
X78600Y13800
X97200Y16200
X101100Y12700
X104700Y12200
X107300Y10000
X111100Y8800
X113400Y13200
X118200Y16200
X120600Y13800
X139200Y16200
X143100Y12700
X146700Y12200
X149300Y10000
X153100Y8800
X155400Y13200
X160200Y16200
X162600Y13800
X137400Y24600
X137400Y28200
X141000Y33000
X145100Y36500
X141500Y37500
X148800Y37100
X153000Y37000
X156500Y36500
X148200Y33500
X161400Y31800
X153100Y50800
X149300Y52000
X146700Y54200
X143100Y54700
X139200Y58200
X137400Y66600
X137400Y70200
X141000Y75000
X145100Y78500
X141500Y79500
X148800Y79100
X153000Y79000
X156500Y78500
X148200Y75500
X161400Y73800
X160200Y58200
X162600Y55800
X155400Y55200
X120600Y55800
X118200Y58200
X113400Y55200
X107300Y52000
X104700Y54200
X101100Y54700
X97200Y58200
X95400Y66600
X95400Y70200
X99000Y75000
X103100Y78500
X99500Y79500
X106800Y79100
X111000Y79000
X114500Y78500
X106200Y75500
X119400Y73800
X77400Y73800
X72500Y78500
X69000Y79000
X64800Y79100
X61100Y78500
X57500Y79500
X57000Y75000
X64200Y75500
X53400Y70200
X53400Y66600
X55200Y58200
X59100Y54700
X62700Y54200
X65300Y52000
X69100Y50800
X71400Y55200
X76200Y58200
X78600Y55800
X111100Y50800
X111000Y37000
X114500Y36500
X106800Y37100
X103100Y36500
X99500Y37500
X106200Y33500
X99000Y33000
X95400Y28200
X95400Y24600
X77400Y31800
X72500Y36500
X69000Y37000
X64800Y37100
X61100Y36500
X57500Y37500
X64200Y33500
X57000Y33000
X53400Y28200
X53400Y24600
X35400Y31800
X30500Y36500
X27000Y37000
X22800Y37100
X19100Y36500
X15500Y37500
X22200Y33500
X15000Y33000
X11400Y28200
X11400Y24600
X13200Y16200
X17100Y12700
X27100Y50800
X23300Y52000
X20700Y54200
X17100Y54700
X13200Y58200
X11400Y66600
X11400Y70200
X15000Y75000
X19100Y78500
X15500Y79500
X22800Y79100
X27000Y79000
X30500Y78500
X22200Y75500
X35400Y73800
X34200Y58200
X36600Y55800
X29400Y55200
X119400Y31800
M30
