G75*
%MOIN*%
%OFA0B0*%
%FSLAX25Y25*%
%IPPOS*%
%LPD*%
%AMOC8*
5,1,8,0,0,1.08239X$1,22.5*
%
%ADD10C,0.02070*%
%ADD11C,0.03500*%
D10*
X0011585Y0019135D02*
X0011585Y0021865D01*
X0011815Y0021865D01*
X0011815Y0019135D01*
X0011585Y0019135D01*
X0011585Y0021204D02*
X0011815Y0021204D01*
X0014085Y0021865D02*
X0014085Y0019135D01*
X0014085Y0021865D02*
X0014315Y0021865D01*
X0014315Y0019135D01*
X0014085Y0019135D01*
X0014085Y0021204D02*
X0014315Y0021204D01*
X0016585Y0021865D02*
X0016585Y0019135D01*
X0016585Y0021865D02*
X0016815Y0021865D01*
X0016815Y0019135D01*
X0016585Y0019135D01*
X0016585Y0021204D02*
X0016815Y0021204D01*
X0019085Y0021865D02*
X0019085Y0019135D01*
X0019085Y0021865D02*
X0019315Y0021865D01*
X0019315Y0019135D01*
X0019085Y0019135D01*
X0019085Y0021204D02*
X0019315Y0021204D01*
X0021585Y0021865D02*
X0021585Y0019135D01*
X0021585Y0021865D02*
X0021815Y0021865D01*
X0021815Y0019135D01*
X0021585Y0019135D01*
X0021585Y0021204D02*
X0021815Y0021204D01*
X0024085Y0021865D02*
X0024085Y0019135D01*
X0024085Y0021865D02*
X0024315Y0021865D01*
X0024315Y0019135D01*
X0024085Y0019135D01*
X0024085Y0021204D02*
X0024315Y0021204D01*
X0026585Y0021865D02*
X0026585Y0019135D01*
X0026585Y0021865D02*
X0026815Y0021865D01*
X0026815Y0019135D01*
X0026585Y0019135D01*
X0026585Y0021204D02*
X0026815Y0021204D01*
X0029085Y0021865D02*
X0029085Y0019135D01*
X0029085Y0021865D02*
X0029315Y0021865D01*
X0029315Y0019135D01*
X0029085Y0019135D01*
X0029085Y0021204D02*
X0029315Y0021204D01*
X0031585Y0021865D02*
X0031585Y0019135D01*
X0031585Y0021865D02*
X0031815Y0021865D01*
X0031815Y0019135D01*
X0031585Y0019135D01*
X0031585Y0021204D02*
X0031815Y0021204D01*
X0034085Y0021865D02*
X0034085Y0019135D01*
X0034085Y0021865D02*
X0034315Y0021865D01*
X0034315Y0019135D01*
X0034085Y0019135D01*
X0034085Y0021204D02*
X0034315Y0021204D01*
X0031585Y0024135D02*
X0031585Y0026865D01*
X0031815Y0026865D01*
X0031815Y0024135D01*
X0031585Y0024135D01*
X0031585Y0026204D02*
X0031815Y0026204D01*
X0029085Y0026865D02*
X0029085Y0024135D01*
X0029085Y0026865D02*
X0029315Y0026865D01*
X0029315Y0024135D01*
X0029085Y0024135D01*
X0029085Y0026204D02*
X0029315Y0026204D01*
X0026585Y0026865D02*
X0026585Y0024135D01*
X0026585Y0026865D02*
X0026815Y0026865D01*
X0026815Y0024135D01*
X0026585Y0024135D01*
X0026585Y0026204D02*
X0026815Y0026204D01*
X0024085Y0026865D02*
X0024085Y0024135D01*
X0024085Y0026865D02*
X0024315Y0026865D01*
X0024315Y0024135D01*
X0024085Y0024135D01*
X0024085Y0026204D02*
X0024315Y0026204D01*
X0021585Y0026865D02*
X0021585Y0024135D01*
X0021585Y0026865D02*
X0021815Y0026865D01*
X0021815Y0024135D01*
X0021585Y0024135D01*
X0021585Y0026204D02*
X0021815Y0026204D01*
X0019085Y0026865D02*
X0019085Y0024135D01*
X0019085Y0026865D02*
X0019315Y0026865D01*
X0019315Y0024135D01*
X0019085Y0024135D01*
X0019085Y0026204D02*
X0019315Y0026204D01*
X0016585Y0026865D02*
X0016585Y0024135D01*
X0016585Y0026865D02*
X0016815Y0026865D01*
X0016815Y0024135D01*
X0016585Y0024135D01*
X0016585Y0026204D02*
X0016815Y0026204D01*
X0014085Y0026865D02*
X0014085Y0024135D01*
X0014085Y0026865D02*
X0014315Y0026865D01*
X0014315Y0024135D01*
X0014085Y0024135D01*
X0014085Y0026204D02*
X0014315Y0026204D01*
X0053585Y0021865D02*
X0053585Y0019135D01*
X0053585Y0021865D02*
X0053815Y0021865D01*
X0053815Y0019135D01*
X0053585Y0019135D01*
X0053585Y0021204D02*
X0053815Y0021204D01*
X0056085Y0021865D02*
X0056085Y0019135D01*
X0056085Y0021865D02*
X0056315Y0021865D01*
X0056315Y0019135D01*
X0056085Y0019135D01*
X0056085Y0021204D02*
X0056315Y0021204D01*
X0058585Y0021865D02*
X0058585Y0019135D01*
X0058585Y0021865D02*
X0058815Y0021865D01*
X0058815Y0019135D01*
X0058585Y0019135D01*
X0058585Y0021204D02*
X0058815Y0021204D01*
X0061085Y0021865D02*
X0061085Y0019135D01*
X0061085Y0021865D02*
X0061315Y0021865D01*
X0061315Y0019135D01*
X0061085Y0019135D01*
X0061085Y0021204D02*
X0061315Y0021204D01*
X0063585Y0021865D02*
X0063585Y0019135D01*
X0063585Y0021865D02*
X0063815Y0021865D01*
X0063815Y0019135D01*
X0063585Y0019135D01*
X0063585Y0021204D02*
X0063815Y0021204D01*
X0066085Y0021865D02*
X0066085Y0019135D01*
X0066085Y0021865D02*
X0066315Y0021865D01*
X0066315Y0019135D01*
X0066085Y0019135D01*
X0066085Y0021204D02*
X0066315Y0021204D01*
X0068585Y0021865D02*
X0068585Y0019135D01*
X0068585Y0021865D02*
X0068815Y0021865D01*
X0068815Y0019135D01*
X0068585Y0019135D01*
X0068585Y0021204D02*
X0068815Y0021204D01*
X0071085Y0021865D02*
X0071085Y0019135D01*
X0071085Y0021865D02*
X0071315Y0021865D01*
X0071315Y0019135D01*
X0071085Y0019135D01*
X0071085Y0021204D02*
X0071315Y0021204D01*
X0073585Y0021865D02*
X0073585Y0019135D01*
X0073585Y0021865D02*
X0073815Y0021865D01*
X0073815Y0019135D01*
X0073585Y0019135D01*
X0073585Y0021204D02*
X0073815Y0021204D01*
X0076085Y0021865D02*
X0076085Y0019135D01*
X0076085Y0021865D02*
X0076315Y0021865D01*
X0076315Y0019135D01*
X0076085Y0019135D01*
X0076085Y0021204D02*
X0076315Y0021204D01*
X0073585Y0024135D02*
X0073585Y0026865D01*
X0073815Y0026865D01*
X0073815Y0024135D01*
X0073585Y0024135D01*
X0073585Y0026204D02*
X0073815Y0026204D01*
X0071085Y0026865D02*
X0071085Y0024135D01*
X0071085Y0026865D02*
X0071315Y0026865D01*
X0071315Y0024135D01*
X0071085Y0024135D01*
X0071085Y0026204D02*
X0071315Y0026204D01*
X0068585Y0026865D02*
X0068585Y0024135D01*
X0068585Y0026865D02*
X0068815Y0026865D01*
X0068815Y0024135D01*
X0068585Y0024135D01*
X0068585Y0026204D02*
X0068815Y0026204D01*
X0066085Y0026865D02*
X0066085Y0024135D01*
X0066085Y0026865D02*
X0066315Y0026865D01*
X0066315Y0024135D01*
X0066085Y0024135D01*
X0066085Y0026204D02*
X0066315Y0026204D01*
X0063585Y0026865D02*
X0063585Y0024135D01*
X0063585Y0026865D02*
X0063815Y0026865D01*
X0063815Y0024135D01*
X0063585Y0024135D01*
X0063585Y0026204D02*
X0063815Y0026204D01*
X0061085Y0026865D02*
X0061085Y0024135D01*
X0061085Y0026865D02*
X0061315Y0026865D01*
X0061315Y0024135D01*
X0061085Y0024135D01*
X0061085Y0026204D02*
X0061315Y0026204D01*
X0058585Y0026865D02*
X0058585Y0024135D01*
X0058585Y0026865D02*
X0058815Y0026865D01*
X0058815Y0024135D01*
X0058585Y0024135D01*
X0058585Y0026204D02*
X0058815Y0026204D01*
X0056085Y0026865D02*
X0056085Y0024135D01*
X0056085Y0026865D02*
X0056315Y0026865D01*
X0056315Y0024135D01*
X0056085Y0024135D01*
X0056085Y0026204D02*
X0056315Y0026204D01*
X0095585Y0021865D02*
X0095585Y0019135D01*
X0095585Y0021865D02*
X0095815Y0021865D01*
X0095815Y0019135D01*
X0095585Y0019135D01*
X0095585Y0021204D02*
X0095815Y0021204D01*
X0098085Y0021865D02*
X0098085Y0019135D01*
X0098085Y0021865D02*
X0098315Y0021865D01*
X0098315Y0019135D01*
X0098085Y0019135D01*
X0098085Y0021204D02*
X0098315Y0021204D01*
X0100585Y0021865D02*
X0100585Y0019135D01*
X0100585Y0021865D02*
X0100815Y0021865D01*
X0100815Y0019135D01*
X0100585Y0019135D01*
X0100585Y0021204D02*
X0100815Y0021204D01*
X0103085Y0021865D02*
X0103085Y0019135D01*
X0103085Y0021865D02*
X0103315Y0021865D01*
X0103315Y0019135D01*
X0103085Y0019135D01*
X0103085Y0021204D02*
X0103315Y0021204D01*
X0105585Y0021865D02*
X0105585Y0019135D01*
X0105585Y0021865D02*
X0105815Y0021865D01*
X0105815Y0019135D01*
X0105585Y0019135D01*
X0105585Y0021204D02*
X0105815Y0021204D01*
X0108085Y0021865D02*
X0108085Y0019135D01*
X0108085Y0021865D02*
X0108315Y0021865D01*
X0108315Y0019135D01*
X0108085Y0019135D01*
X0108085Y0021204D02*
X0108315Y0021204D01*
X0110585Y0021865D02*
X0110585Y0019135D01*
X0110585Y0021865D02*
X0110815Y0021865D01*
X0110815Y0019135D01*
X0110585Y0019135D01*
X0110585Y0021204D02*
X0110815Y0021204D01*
X0113085Y0021865D02*
X0113085Y0019135D01*
X0113085Y0021865D02*
X0113315Y0021865D01*
X0113315Y0019135D01*
X0113085Y0019135D01*
X0113085Y0021204D02*
X0113315Y0021204D01*
X0115585Y0021865D02*
X0115585Y0019135D01*
X0115585Y0021865D02*
X0115815Y0021865D01*
X0115815Y0019135D01*
X0115585Y0019135D01*
X0115585Y0021204D02*
X0115815Y0021204D01*
X0118085Y0021865D02*
X0118085Y0019135D01*
X0118085Y0021865D02*
X0118315Y0021865D01*
X0118315Y0019135D01*
X0118085Y0019135D01*
X0118085Y0021204D02*
X0118315Y0021204D01*
X0115585Y0024135D02*
X0115585Y0026865D01*
X0115815Y0026865D01*
X0115815Y0024135D01*
X0115585Y0024135D01*
X0115585Y0026204D02*
X0115815Y0026204D01*
X0113085Y0026865D02*
X0113085Y0024135D01*
X0113085Y0026865D02*
X0113315Y0026865D01*
X0113315Y0024135D01*
X0113085Y0024135D01*
X0113085Y0026204D02*
X0113315Y0026204D01*
X0110585Y0026865D02*
X0110585Y0024135D01*
X0110585Y0026865D02*
X0110815Y0026865D01*
X0110815Y0024135D01*
X0110585Y0024135D01*
X0110585Y0026204D02*
X0110815Y0026204D01*
X0108085Y0026865D02*
X0108085Y0024135D01*
X0108085Y0026865D02*
X0108315Y0026865D01*
X0108315Y0024135D01*
X0108085Y0024135D01*
X0108085Y0026204D02*
X0108315Y0026204D01*
X0105585Y0026865D02*
X0105585Y0024135D01*
X0105585Y0026865D02*
X0105815Y0026865D01*
X0105815Y0024135D01*
X0105585Y0024135D01*
X0105585Y0026204D02*
X0105815Y0026204D01*
X0103085Y0026865D02*
X0103085Y0024135D01*
X0103085Y0026865D02*
X0103315Y0026865D01*
X0103315Y0024135D01*
X0103085Y0024135D01*
X0103085Y0026204D02*
X0103315Y0026204D01*
X0100585Y0026865D02*
X0100585Y0024135D01*
X0100585Y0026865D02*
X0100815Y0026865D01*
X0100815Y0024135D01*
X0100585Y0024135D01*
X0100585Y0026204D02*
X0100815Y0026204D01*
X0098085Y0026865D02*
X0098085Y0024135D01*
X0098085Y0026865D02*
X0098315Y0026865D01*
X0098315Y0024135D01*
X0098085Y0024135D01*
X0098085Y0026204D02*
X0098315Y0026204D01*
X0137585Y0021865D02*
X0137585Y0019135D01*
X0137585Y0021865D02*
X0137815Y0021865D01*
X0137815Y0019135D01*
X0137585Y0019135D01*
X0137585Y0021204D02*
X0137815Y0021204D01*
X0140085Y0021865D02*
X0140085Y0019135D01*
X0140085Y0021865D02*
X0140315Y0021865D01*
X0140315Y0019135D01*
X0140085Y0019135D01*
X0140085Y0021204D02*
X0140315Y0021204D01*
X0142585Y0021865D02*
X0142585Y0019135D01*
X0142585Y0021865D02*
X0142815Y0021865D01*
X0142815Y0019135D01*
X0142585Y0019135D01*
X0142585Y0021204D02*
X0142815Y0021204D01*
X0145085Y0021865D02*
X0145085Y0019135D01*
X0145085Y0021865D02*
X0145315Y0021865D01*
X0145315Y0019135D01*
X0145085Y0019135D01*
X0145085Y0021204D02*
X0145315Y0021204D01*
X0147585Y0021865D02*
X0147585Y0019135D01*
X0147585Y0021865D02*
X0147815Y0021865D01*
X0147815Y0019135D01*
X0147585Y0019135D01*
X0147585Y0021204D02*
X0147815Y0021204D01*
X0150085Y0021865D02*
X0150085Y0019135D01*
X0150085Y0021865D02*
X0150315Y0021865D01*
X0150315Y0019135D01*
X0150085Y0019135D01*
X0150085Y0021204D02*
X0150315Y0021204D01*
X0152585Y0021865D02*
X0152585Y0019135D01*
X0152585Y0021865D02*
X0152815Y0021865D01*
X0152815Y0019135D01*
X0152585Y0019135D01*
X0152585Y0021204D02*
X0152815Y0021204D01*
X0155085Y0021865D02*
X0155085Y0019135D01*
X0155085Y0021865D02*
X0155315Y0021865D01*
X0155315Y0019135D01*
X0155085Y0019135D01*
X0155085Y0021204D02*
X0155315Y0021204D01*
X0157585Y0021865D02*
X0157585Y0019135D01*
X0157585Y0021865D02*
X0157815Y0021865D01*
X0157815Y0019135D01*
X0157585Y0019135D01*
X0157585Y0021204D02*
X0157815Y0021204D01*
X0160085Y0021865D02*
X0160085Y0019135D01*
X0160085Y0021865D02*
X0160315Y0021865D01*
X0160315Y0019135D01*
X0160085Y0019135D01*
X0160085Y0021204D02*
X0160315Y0021204D01*
X0157585Y0024135D02*
X0157585Y0026865D01*
X0157815Y0026865D01*
X0157815Y0024135D01*
X0157585Y0024135D01*
X0157585Y0026204D02*
X0157815Y0026204D01*
X0155085Y0026865D02*
X0155085Y0024135D01*
X0155085Y0026865D02*
X0155315Y0026865D01*
X0155315Y0024135D01*
X0155085Y0024135D01*
X0155085Y0026204D02*
X0155315Y0026204D01*
X0152585Y0026865D02*
X0152585Y0024135D01*
X0152585Y0026865D02*
X0152815Y0026865D01*
X0152815Y0024135D01*
X0152585Y0024135D01*
X0152585Y0026204D02*
X0152815Y0026204D01*
X0150085Y0026865D02*
X0150085Y0024135D01*
X0150085Y0026865D02*
X0150315Y0026865D01*
X0150315Y0024135D01*
X0150085Y0024135D01*
X0150085Y0026204D02*
X0150315Y0026204D01*
X0147585Y0026865D02*
X0147585Y0024135D01*
X0147585Y0026865D02*
X0147815Y0026865D01*
X0147815Y0024135D01*
X0147585Y0024135D01*
X0147585Y0026204D02*
X0147815Y0026204D01*
X0145085Y0026865D02*
X0145085Y0024135D01*
X0145085Y0026865D02*
X0145315Y0026865D01*
X0145315Y0024135D01*
X0145085Y0024135D01*
X0145085Y0026204D02*
X0145315Y0026204D01*
X0142585Y0026865D02*
X0142585Y0024135D01*
X0142585Y0026865D02*
X0142815Y0026865D01*
X0142815Y0024135D01*
X0142585Y0024135D01*
X0142585Y0026204D02*
X0142815Y0026204D01*
X0140085Y0026865D02*
X0140085Y0024135D01*
X0140085Y0026865D02*
X0140315Y0026865D01*
X0140315Y0024135D01*
X0140085Y0024135D01*
X0140085Y0026204D02*
X0140315Y0026204D01*
X0140085Y0061135D02*
X0140085Y0063865D01*
X0140315Y0063865D01*
X0140315Y0061135D01*
X0140085Y0061135D01*
X0140085Y0063204D02*
X0140315Y0063204D01*
X0142585Y0063865D02*
X0142585Y0061135D01*
X0142585Y0063865D02*
X0142815Y0063865D01*
X0142815Y0061135D01*
X0142585Y0061135D01*
X0142585Y0063204D02*
X0142815Y0063204D01*
X0145085Y0063865D02*
X0145085Y0061135D01*
X0145085Y0063865D02*
X0145315Y0063865D01*
X0145315Y0061135D01*
X0145085Y0061135D01*
X0145085Y0063204D02*
X0145315Y0063204D01*
X0147585Y0063865D02*
X0147585Y0061135D01*
X0147585Y0063865D02*
X0147815Y0063865D01*
X0147815Y0061135D01*
X0147585Y0061135D01*
X0147585Y0063204D02*
X0147815Y0063204D01*
X0150085Y0063865D02*
X0150085Y0061135D01*
X0150085Y0063865D02*
X0150315Y0063865D01*
X0150315Y0061135D01*
X0150085Y0061135D01*
X0150085Y0063204D02*
X0150315Y0063204D01*
X0152585Y0063865D02*
X0152585Y0061135D01*
X0152585Y0063865D02*
X0152815Y0063865D01*
X0152815Y0061135D01*
X0152585Y0061135D01*
X0152585Y0063204D02*
X0152815Y0063204D01*
X0155085Y0063865D02*
X0155085Y0061135D01*
X0155085Y0063865D02*
X0155315Y0063865D01*
X0155315Y0061135D01*
X0155085Y0061135D01*
X0155085Y0063204D02*
X0155315Y0063204D01*
X0157585Y0063865D02*
X0157585Y0061135D01*
X0157585Y0063865D02*
X0157815Y0063865D01*
X0157815Y0061135D01*
X0157585Y0061135D01*
X0157585Y0063204D02*
X0157815Y0063204D01*
X0160085Y0063865D02*
X0160085Y0061135D01*
X0160085Y0063865D02*
X0160315Y0063865D01*
X0160315Y0061135D01*
X0160085Y0061135D01*
X0160085Y0063204D02*
X0160315Y0063204D01*
X0157585Y0066135D02*
X0157585Y0068865D01*
X0157815Y0068865D01*
X0157815Y0066135D01*
X0157585Y0066135D01*
X0157585Y0068204D02*
X0157815Y0068204D01*
X0155085Y0068865D02*
X0155085Y0066135D01*
X0155085Y0068865D02*
X0155315Y0068865D01*
X0155315Y0066135D01*
X0155085Y0066135D01*
X0155085Y0068204D02*
X0155315Y0068204D01*
X0152585Y0068865D02*
X0152585Y0066135D01*
X0152585Y0068865D02*
X0152815Y0068865D01*
X0152815Y0066135D01*
X0152585Y0066135D01*
X0152585Y0068204D02*
X0152815Y0068204D01*
X0150085Y0068865D02*
X0150085Y0066135D01*
X0150085Y0068865D02*
X0150315Y0068865D01*
X0150315Y0066135D01*
X0150085Y0066135D01*
X0150085Y0068204D02*
X0150315Y0068204D01*
X0147585Y0068865D02*
X0147585Y0066135D01*
X0147585Y0068865D02*
X0147815Y0068865D01*
X0147815Y0066135D01*
X0147585Y0066135D01*
X0147585Y0068204D02*
X0147815Y0068204D01*
X0145085Y0068865D02*
X0145085Y0066135D01*
X0145085Y0068865D02*
X0145315Y0068865D01*
X0145315Y0066135D01*
X0145085Y0066135D01*
X0145085Y0068204D02*
X0145315Y0068204D01*
X0142585Y0068865D02*
X0142585Y0066135D01*
X0142585Y0068865D02*
X0142815Y0068865D01*
X0142815Y0066135D01*
X0142585Y0066135D01*
X0142585Y0068204D02*
X0142815Y0068204D01*
X0140085Y0068865D02*
X0140085Y0066135D01*
X0140085Y0068865D02*
X0140315Y0068865D01*
X0140315Y0066135D01*
X0140085Y0066135D01*
X0140085Y0068204D02*
X0140315Y0068204D01*
X0137585Y0063865D02*
X0137585Y0061135D01*
X0137585Y0063865D02*
X0137815Y0063865D01*
X0137815Y0061135D01*
X0137585Y0061135D01*
X0137585Y0063204D02*
X0137815Y0063204D01*
X0118085Y0063865D02*
X0118085Y0061135D01*
X0118085Y0063865D02*
X0118315Y0063865D01*
X0118315Y0061135D01*
X0118085Y0061135D01*
X0118085Y0063204D02*
X0118315Y0063204D01*
X0115585Y0063865D02*
X0115585Y0061135D01*
X0115585Y0063865D02*
X0115815Y0063865D01*
X0115815Y0061135D01*
X0115585Y0061135D01*
X0115585Y0063204D02*
X0115815Y0063204D01*
X0113085Y0063865D02*
X0113085Y0061135D01*
X0113085Y0063865D02*
X0113315Y0063865D01*
X0113315Y0061135D01*
X0113085Y0061135D01*
X0113085Y0063204D02*
X0113315Y0063204D01*
X0110585Y0063865D02*
X0110585Y0061135D01*
X0110585Y0063865D02*
X0110815Y0063865D01*
X0110815Y0061135D01*
X0110585Y0061135D01*
X0110585Y0063204D02*
X0110815Y0063204D01*
X0108085Y0063865D02*
X0108085Y0061135D01*
X0108085Y0063865D02*
X0108315Y0063865D01*
X0108315Y0061135D01*
X0108085Y0061135D01*
X0108085Y0063204D02*
X0108315Y0063204D01*
X0105585Y0063865D02*
X0105585Y0061135D01*
X0105585Y0063865D02*
X0105815Y0063865D01*
X0105815Y0061135D01*
X0105585Y0061135D01*
X0105585Y0063204D02*
X0105815Y0063204D01*
X0103085Y0063865D02*
X0103085Y0061135D01*
X0103085Y0063865D02*
X0103315Y0063865D01*
X0103315Y0061135D01*
X0103085Y0061135D01*
X0103085Y0063204D02*
X0103315Y0063204D01*
X0100585Y0063865D02*
X0100585Y0061135D01*
X0100585Y0063865D02*
X0100815Y0063865D01*
X0100815Y0061135D01*
X0100585Y0061135D01*
X0100585Y0063204D02*
X0100815Y0063204D01*
X0098085Y0063865D02*
X0098085Y0061135D01*
X0098085Y0063865D02*
X0098315Y0063865D01*
X0098315Y0061135D01*
X0098085Y0061135D01*
X0098085Y0063204D02*
X0098315Y0063204D01*
X0095585Y0063865D02*
X0095585Y0061135D01*
X0095585Y0063865D02*
X0095815Y0063865D01*
X0095815Y0061135D01*
X0095585Y0061135D01*
X0095585Y0063204D02*
X0095815Y0063204D01*
X0098085Y0066135D02*
X0098085Y0068865D01*
X0098315Y0068865D01*
X0098315Y0066135D01*
X0098085Y0066135D01*
X0098085Y0068204D02*
X0098315Y0068204D01*
X0100585Y0068865D02*
X0100585Y0066135D01*
X0100585Y0068865D02*
X0100815Y0068865D01*
X0100815Y0066135D01*
X0100585Y0066135D01*
X0100585Y0068204D02*
X0100815Y0068204D01*
X0103085Y0068865D02*
X0103085Y0066135D01*
X0103085Y0068865D02*
X0103315Y0068865D01*
X0103315Y0066135D01*
X0103085Y0066135D01*
X0103085Y0068204D02*
X0103315Y0068204D01*
X0105585Y0068865D02*
X0105585Y0066135D01*
X0105585Y0068865D02*
X0105815Y0068865D01*
X0105815Y0066135D01*
X0105585Y0066135D01*
X0105585Y0068204D02*
X0105815Y0068204D01*
X0108085Y0068865D02*
X0108085Y0066135D01*
X0108085Y0068865D02*
X0108315Y0068865D01*
X0108315Y0066135D01*
X0108085Y0066135D01*
X0108085Y0068204D02*
X0108315Y0068204D01*
X0110585Y0068865D02*
X0110585Y0066135D01*
X0110585Y0068865D02*
X0110815Y0068865D01*
X0110815Y0066135D01*
X0110585Y0066135D01*
X0110585Y0068204D02*
X0110815Y0068204D01*
X0113085Y0068865D02*
X0113085Y0066135D01*
X0113085Y0068865D02*
X0113315Y0068865D01*
X0113315Y0066135D01*
X0113085Y0066135D01*
X0113085Y0068204D02*
X0113315Y0068204D01*
X0115585Y0068865D02*
X0115585Y0066135D01*
X0115585Y0068865D02*
X0115815Y0068865D01*
X0115815Y0066135D01*
X0115585Y0066135D01*
X0115585Y0068204D02*
X0115815Y0068204D01*
X0076085Y0063865D02*
X0076085Y0061135D01*
X0076085Y0063865D02*
X0076315Y0063865D01*
X0076315Y0061135D01*
X0076085Y0061135D01*
X0076085Y0063204D02*
X0076315Y0063204D01*
X0073585Y0063865D02*
X0073585Y0061135D01*
X0073585Y0063865D02*
X0073815Y0063865D01*
X0073815Y0061135D01*
X0073585Y0061135D01*
X0073585Y0063204D02*
X0073815Y0063204D01*
X0071085Y0063865D02*
X0071085Y0061135D01*
X0071085Y0063865D02*
X0071315Y0063865D01*
X0071315Y0061135D01*
X0071085Y0061135D01*
X0071085Y0063204D02*
X0071315Y0063204D01*
X0068585Y0063865D02*
X0068585Y0061135D01*
X0068585Y0063865D02*
X0068815Y0063865D01*
X0068815Y0061135D01*
X0068585Y0061135D01*
X0068585Y0063204D02*
X0068815Y0063204D01*
X0066085Y0063865D02*
X0066085Y0061135D01*
X0066085Y0063865D02*
X0066315Y0063865D01*
X0066315Y0061135D01*
X0066085Y0061135D01*
X0066085Y0063204D02*
X0066315Y0063204D01*
X0063585Y0063865D02*
X0063585Y0061135D01*
X0063585Y0063865D02*
X0063815Y0063865D01*
X0063815Y0061135D01*
X0063585Y0061135D01*
X0063585Y0063204D02*
X0063815Y0063204D01*
X0061085Y0063865D02*
X0061085Y0061135D01*
X0061085Y0063865D02*
X0061315Y0063865D01*
X0061315Y0061135D01*
X0061085Y0061135D01*
X0061085Y0063204D02*
X0061315Y0063204D01*
X0058585Y0063865D02*
X0058585Y0061135D01*
X0058585Y0063865D02*
X0058815Y0063865D01*
X0058815Y0061135D01*
X0058585Y0061135D01*
X0058585Y0063204D02*
X0058815Y0063204D01*
X0056085Y0063865D02*
X0056085Y0061135D01*
X0056085Y0063865D02*
X0056315Y0063865D01*
X0056315Y0061135D01*
X0056085Y0061135D01*
X0056085Y0063204D02*
X0056315Y0063204D01*
X0053585Y0063865D02*
X0053585Y0061135D01*
X0053585Y0063865D02*
X0053815Y0063865D01*
X0053815Y0061135D01*
X0053585Y0061135D01*
X0053585Y0063204D02*
X0053815Y0063204D01*
X0056085Y0066135D02*
X0056085Y0068865D01*
X0056315Y0068865D01*
X0056315Y0066135D01*
X0056085Y0066135D01*
X0056085Y0068204D02*
X0056315Y0068204D01*
X0058585Y0068865D02*
X0058585Y0066135D01*
X0058585Y0068865D02*
X0058815Y0068865D01*
X0058815Y0066135D01*
X0058585Y0066135D01*
X0058585Y0068204D02*
X0058815Y0068204D01*
X0061085Y0068865D02*
X0061085Y0066135D01*
X0061085Y0068865D02*
X0061315Y0068865D01*
X0061315Y0066135D01*
X0061085Y0066135D01*
X0061085Y0068204D02*
X0061315Y0068204D01*
X0063585Y0068865D02*
X0063585Y0066135D01*
X0063585Y0068865D02*
X0063815Y0068865D01*
X0063815Y0066135D01*
X0063585Y0066135D01*
X0063585Y0068204D02*
X0063815Y0068204D01*
X0066085Y0068865D02*
X0066085Y0066135D01*
X0066085Y0068865D02*
X0066315Y0068865D01*
X0066315Y0066135D01*
X0066085Y0066135D01*
X0066085Y0068204D02*
X0066315Y0068204D01*
X0068585Y0068865D02*
X0068585Y0066135D01*
X0068585Y0068865D02*
X0068815Y0068865D01*
X0068815Y0066135D01*
X0068585Y0066135D01*
X0068585Y0068204D02*
X0068815Y0068204D01*
X0071085Y0068865D02*
X0071085Y0066135D01*
X0071085Y0068865D02*
X0071315Y0068865D01*
X0071315Y0066135D01*
X0071085Y0066135D01*
X0071085Y0068204D02*
X0071315Y0068204D01*
X0073585Y0068865D02*
X0073585Y0066135D01*
X0073585Y0068865D02*
X0073815Y0068865D01*
X0073815Y0066135D01*
X0073585Y0066135D01*
X0073585Y0068204D02*
X0073815Y0068204D01*
X0034085Y0063865D02*
X0034085Y0061135D01*
X0034085Y0063865D02*
X0034315Y0063865D01*
X0034315Y0061135D01*
X0034085Y0061135D01*
X0034085Y0063204D02*
X0034315Y0063204D01*
X0031585Y0063865D02*
X0031585Y0061135D01*
X0031585Y0063865D02*
X0031815Y0063865D01*
X0031815Y0061135D01*
X0031585Y0061135D01*
X0031585Y0063204D02*
X0031815Y0063204D01*
X0029085Y0063865D02*
X0029085Y0061135D01*
X0029085Y0063865D02*
X0029315Y0063865D01*
X0029315Y0061135D01*
X0029085Y0061135D01*
X0029085Y0063204D02*
X0029315Y0063204D01*
X0026585Y0063865D02*
X0026585Y0061135D01*
X0026585Y0063865D02*
X0026815Y0063865D01*
X0026815Y0061135D01*
X0026585Y0061135D01*
X0026585Y0063204D02*
X0026815Y0063204D01*
X0024085Y0063865D02*
X0024085Y0061135D01*
X0024085Y0063865D02*
X0024315Y0063865D01*
X0024315Y0061135D01*
X0024085Y0061135D01*
X0024085Y0063204D02*
X0024315Y0063204D01*
X0021585Y0063865D02*
X0021585Y0061135D01*
X0021585Y0063865D02*
X0021815Y0063865D01*
X0021815Y0061135D01*
X0021585Y0061135D01*
X0021585Y0063204D02*
X0021815Y0063204D01*
X0019085Y0063865D02*
X0019085Y0061135D01*
X0019085Y0063865D02*
X0019315Y0063865D01*
X0019315Y0061135D01*
X0019085Y0061135D01*
X0019085Y0063204D02*
X0019315Y0063204D01*
X0016585Y0063865D02*
X0016585Y0061135D01*
X0016585Y0063865D02*
X0016815Y0063865D01*
X0016815Y0061135D01*
X0016585Y0061135D01*
X0016585Y0063204D02*
X0016815Y0063204D01*
X0014085Y0063865D02*
X0014085Y0061135D01*
X0014085Y0063865D02*
X0014315Y0063865D01*
X0014315Y0061135D01*
X0014085Y0061135D01*
X0014085Y0063204D02*
X0014315Y0063204D01*
X0011585Y0063865D02*
X0011585Y0061135D01*
X0011585Y0063865D02*
X0011815Y0063865D01*
X0011815Y0061135D01*
X0011585Y0061135D01*
X0011585Y0063204D02*
X0011815Y0063204D01*
X0014085Y0066135D02*
X0014085Y0068865D01*
X0014315Y0068865D01*
X0014315Y0066135D01*
X0014085Y0066135D01*
X0014085Y0068204D02*
X0014315Y0068204D01*
X0016585Y0068865D02*
X0016585Y0066135D01*
X0016585Y0068865D02*
X0016815Y0068865D01*
X0016815Y0066135D01*
X0016585Y0066135D01*
X0016585Y0068204D02*
X0016815Y0068204D01*
X0019085Y0068865D02*
X0019085Y0066135D01*
X0019085Y0068865D02*
X0019315Y0068865D01*
X0019315Y0066135D01*
X0019085Y0066135D01*
X0019085Y0068204D02*
X0019315Y0068204D01*
X0021585Y0068865D02*
X0021585Y0066135D01*
X0021585Y0068865D02*
X0021815Y0068865D01*
X0021815Y0066135D01*
X0021585Y0066135D01*
X0021585Y0068204D02*
X0021815Y0068204D01*
X0024085Y0068865D02*
X0024085Y0066135D01*
X0024085Y0068865D02*
X0024315Y0068865D01*
X0024315Y0066135D01*
X0024085Y0066135D01*
X0024085Y0068204D02*
X0024315Y0068204D01*
X0026585Y0068865D02*
X0026585Y0066135D01*
X0026585Y0068865D02*
X0026815Y0068865D01*
X0026815Y0066135D01*
X0026585Y0066135D01*
X0026585Y0068204D02*
X0026815Y0068204D01*
X0029085Y0068865D02*
X0029085Y0066135D01*
X0029085Y0068865D02*
X0029315Y0068865D01*
X0029315Y0066135D01*
X0029085Y0066135D01*
X0029085Y0068204D02*
X0029315Y0068204D01*
X0031585Y0068865D02*
X0031585Y0066135D01*
X0031585Y0068865D02*
X0031815Y0068865D01*
X0031815Y0066135D01*
X0031585Y0066135D01*
X0031585Y0068204D02*
X0031815Y0068204D01*
D11*
X0020700Y0012200D03*
X0023300Y0010000D03*
X0027100Y0008800D03*
X0029400Y0013200D03*
X0034200Y0016200D03*
X0036600Y0013800D03*
X0055200Y0016200D03*
X0059100Y0012700D03*
X0062700Y0012200D03*
X0065300Y0010000D03*
X0069100Y0008800D03*
X0071400Y0013200D03*
X0076200Y0016200D03*
X0078600Y0013800D03*
X0097200Y0016200D03*
X0101100Y0012700D03*
X0104700Y0012200D03*
X0107300Y0010000D03*
X0111100Y0008800D03*
X0113400Y0013200D03*
X0118200Y0016200D03*
X0120600Y0013800D03*
X0139200Y0016200D03*
X0143100Y0012700D03*
X0146700Y0012200D03*
X0149300Y0010000D03*
X0153100Y0008800D03*
X0155400Y0013200D03*
X0160200Y0016200D03*
X0162600Y0013800D03*
X0137400Y0024600D03*
X0137400Y0028200D03*
X0141000Y0033000D03*
X0145100Y0036500D03*
X0141500Y0037500D03*
X0148800Y0037100D03*
X0153000Y0037000D03*
X0156500Y0036500D03*
X0148200Y0033500D03*
X0161400Y0031800D03*
X0153100Y0050800D03*
X0149300Y0052000D03*
X0146700Y0054200D03*
X0143100Y0054700D03*
X0139200Y0058200D03*
X0137400Y0066600D03*
X0137400Y0070200D03*
X0141000Y0075000D03*
X0145100Y0078500D03*
X0141500Y0079500D03*
X0148800Y0079100D03*
X0153000Y0079000D03*
X0156500Y0078500D03*
X0148200Y0075500D03*
X0161400Y0073800D03*
X0160200Y0058200D03*
X0162600Y0055800D03*
X0155400Y0055200D03*
X0120600Y0055800D03*
X0118200Y0058200D03*
X0113400Y0055200D03*
X0107300Y0052000D03*
X0104700Y0054200D03*
X0101100Y0054700D03*
X0097200Y0058200D03*
X0095400Y0066600D03*
X0095400Y0070200D03*
X0099000Y0075000D03*
X0103100Y0078500D03*
X0099500Y0079500D03*
X0106800Y0079100D03*
X0111000Y0079000D03*
X0114500Y0078500D03*
X0106200Y0075500D03*
X0119400Y0073800D03*
X0077400Y0073800D03*
X0072500Y0078500D03*
X0069000Y0079000D03*
X0064800Y0079100D03*
X0061100Y0078500D03*
X0057500Y0079500D03*
X0057000Y0075000D03*
X0064200Y0075500D03*
X0053400Y0070200D03*
X0053400Y0066600D03*
X0055200Y0058200D03*
X0059100Y0054700D03*
X0062700Y0054200D03*
X0065300Y0052000D03*
X0069100Y0050800D03*
X0071400Y0055200D03*
X0076200Y0058200D03*
X0078600Y0055800D03*
X0111100Y0050800D03*
X0111000Y0037000D03*
X0114500Y0036500D03*
X0106800Y0037100D03*
X0103100Y0036500D03*
X0099500Y0037500D03*
X0106200Y0033500D03*
X0099000Y0033000D03*
X0095400Y0028200D03*
X0095400Y0024600D03*
X0077400Y0031800D03*
X0072500Y0036500D03*
X0069000Y0037000D03*
X0064800Y0037100D03*
X0061100Y0036500D03*
X0057500Y0037500D03*
X0064200Y0033500D03*
X0057000Y0033000D03*
X0053400Y0028200D03*
X0053400Y0024600D03*
X0035400Y0031800D03*
X0030500Y0036500D03*
X0027000Y0037000D03*
X0022800Y0037100D03*
X0019100Y0036500D03*
X0015500Y0037500D03*
X0022200Y0033500D03*
X0015000Y0033000D03*
X0011400Y0028200D03*
X0011400Y0024600D03*
X0013200Y0016200D03*
X0017100Y0012700D03*
X0027100Y0050800D03*
X0023300Y0052000D03*
X0020700Y0054200D03*
X0017100Y0054700D03*
X0013200Y0058200D03*
X0011400Y0066600D03*
X0011400Y0070200D03*
X0015000Y0075000D03*
X0019100Y0078500D03*
X0015500Y0079500D03*
X0022800Y0079100D03*
X0027000Y0079000D03*
X0030500Y0078500D03*
X0022200Y0075500D03*
X0035400Y0073800D03*
X0034200Y0058200D03*
X0036600Y0055800D03*
X0029400Y0055200D03*
X0119400Y0031800D03*
M02*
