G75*
%MOIN*%
%OFA0B0*%
%FSLAX25Y25*%
%IPPOS*%
%LPD*%
%AMOC8*
5,1,8,0,0,1.08239X$1,22.5*
%
%ADD10R,0.00787X0.02756*%
%ADD11C,0.00600*%
%ADD12C,0.02700*%
%ADD13C,0.01600*%
D10*
X0015827Y0017000D03*
X0017402Y0017000D03*
X0018976Y0017000D03*
X0020551Y0017000D03*
X0022126Y0017000D03*
X0023701Y0017000D03*
X0025276Y0017000D03*
X0026850Y0017000D03*
X0028425Y0017000D03*
X0030000Y0017000D03*
X0030000Y0029126D03*
X0028346Y0029126D03*
X0026772Y0029126D03*
X0025197Y0029126D03*
X0023622Y0029126D03*
X0022047Y0029126D03*
X0020472Y0029126D03*
X0018898Y0029126D03*
X0017323Y0029126D03*
X0015748Y0029126D03*
X0057748Y0029126D03*
X0059323Y0029126D03*
X0060898Y0029126D03*
X0062472Y0029126D03*
X0064047Y0029126D03*
X0065622Y0029126D03*
X0067197Y0029126D03*
X0068772Y0029126D03*
X0070346Y0029126D03*
X0072000Y0029126D03*
X0072000Y0017000D03*
X0070425Y0017000D03*
X0068850Y0017000D03*
X0067276Y0017000D03*
X0065701Y0017000D03*
X0064126Y0017000D03*
X0062551Y0017000D03*
X0060976Y0017000D03*
X0059402Y0017000D03*
X0057827Y0017000D03*
X0099748Y0029126D03*
X0101323Y0029126D03*
X0102898Y0029126D03*
X0104472Y0029126D03*
X0106047Y0029126D03*
X0107622Y0029126D03*
X0109197Y0029126D03*
X0110772Y0029126D03*
X0112346Y0029126D03*
X0114000Y0029126D03*
X0114000Y0017000D03*
X0112425Y0017000D03*
X0110850Y0017000D03*
X0109276Y0017000D03*
X0107701Y0017000D03*
X0106126Y0017000D03*
X0104551Y0017000D03*
X0102976Y0017000D03*
X0101402Y0017000D03*
X0099827Y0017000D03*
X0141827Y0017000D03*
X0143402Y0017000D03*
X0144976Y0017000D03*
X0146551Y0017000D03*
X0148126Y0017000D03*
X0149701Y0017000D03*
X0151276Y0017000D03*
X0152850Y0017000D03*
X0154425Y0017000D03*
X0156000Y0017000D03*
X0156000Y0029126D03*
X0154346Y0029126D03*
X0152772Y0029126D03*
X0151197Y0029126D03*
X0149622Y0029126D03*
X0148047Y0029126D03*
X0146472Y0029126D03*
X0144898Y0029126D03*
X0143323Y0029126D03*
X0141748Y0029126D03*
X0141827Y0059000D03*
X0143402Y0059000D03*
X0144976Y0059000D03*
X0146551Y0059000D03*
X0148126Y0059000D03*
X0149701Y0059000D03*
X0151276Y0059000D03*
X0152850Y0059000D03*
X0154425Y0059000D03*
X0156000Y0059000D03*
X0156000Y0071126D03*
X0154346Y0071126D03*
X0152772Y0071126D03*
X0151197Y0071126D03*
X0149622Y0071126D03*
X0148047Y0071126D03*
X0146472Y0071126D03*
X0144898Y0071126D03*
X0143323Y0071126D03*
X0141748Y0071126D03*
X0114000Y0071126D03*
X0112346Y0071126D03*
X0110772Y0071126D03*
X0109197Y0071126D03*
X0107622Y0071126D03*
X0106047Y0071126D03*
X0104472Y0071126D03*
X0102898Y0071126D03*
X0101323Y0071126D03*
X0099748Y0071126D03*
X0099827Y0059000D03*
X0101402Y0059000D03*
X0102976Y0059000D03*
X0104551Y0059000D03*
X0106126Y0059000D03*
X0107701Y0059000D03*
X0109276Y0059000D03*
X0110850Y0059000D03*
X0112425Y0059000D03*
X0114000Y0059000D03*
X0072000Y0059000D03*
X0070425Y0059000D03*
X0068850Y0059000D03*
X0067276Y0059000D03*
X0065701Y0059000D03*
X0064126Y0059000D03*
X0062551Y0059000D03*
X0060976Y0059000D03*
X0059402Y0059000D03*
X0057827Y0059000D03*
X0057748Y0071126D03*
X0059323Y0071126D03*
X0060898Y0071126D03*
X0062472Y0071126D03*
X0064047Y0071126D03*
X0065622Y0071126D03*
X0067197Y0071126D03*
X0068772Y0071126D03*
X0070346Y0071126D03*
X0072000Y0071126D03*
X0030000Y0071126D03*
X0028346Y0071126D03*
X0026772Y0071126D03*
X0025197Y0071126D03*
X0023622Y0071126D03*
X0022047Y0071126D03*
X0020472Y0071126D03*
X0018898Y0071126D03*
X0017323Y0071126D03*
X0015748Y0071126D03*
X0015827Y0059000D03*
X0017402Y0059000D03*
X0018976Y0059000D03*
X0020551Y0059000D03*
X0022126Y0059000D03*
X0023701Y0059000D03*
X0025276Y0059000D03*
X0026850Y0059000D03*
X0028425Y0059000D03*
X0030000Y0059000D03*
D11*
X0030000Y0058800D01*
X0033000Y0055800D01*
X0036600Y0055800D01*
X0034200Y0058200D02*
X0034200Y0061200D01*
X0031800Y0063600D01*
X0029400Y0063600D01*
X0027000Y0061200D01*
X0027000Y0059400D01*
X0026850Y0059000D01*
X0028200Y0058800D02*
X0028425Y0059000D01*
X0028200Y0058800D02*
X0028200Y0056400D01*
X0029400Y0055200D01*
X0025200Y0053400D02*
X0027100Y0050800D01*
X0023875Y0052000D02*
X0023700Y0052000D01*
X0023300Y0052000D01*
X0023700Y0052000D02*
X0023700Y0058799D01*
X0023701Y0059000D01*
X0025200Y0058800D02*
X0025276Y0059000D01*
X0025200Y0058800D02*
X0025200Y0053400D01*
X0022000Y0056500D02*
X0020700Y0054200D01*
X0022000Y0056500D02*
X0022000Y0058800D01*
X0022200Y0058800D01*
X0022126Y0059000D01*
X0020551Y0059000D02*
X0020400Y0058800D01*
X0020400Y0057000D01*
X0017100Y0054700D01*
X0015600Y0058800D02*
X0013800Y0058800D01*
X0013200Y0058200D01*
X0015600Y0058800D02*
X0015827Y0059000D01*
X0017402Y0059000D02*
X0017400Y0059400D01*
X0017400Y0061800D01*
X0012600Y0066600D01*
X0011400Y0066600D01*
X0011400Y0070200D02*
X0019200Y0062400D01*
X0019200Y0059400D01*
X0018976Y0059000D01*
X0029400Y0068400D02*
X0030600Y0068400D01*
X0032400Y0070200D01*
X0032400Y0070800D01*
X0035400Y0073800D01*
X0028346Y0071126D02*
X0028200Y0070800D01*
X0028200Y0069600D01*
X0029400Y0068400D01*
X0026772Y0071126D02*
X0027000Y0071400D01*
X0027000Y0073500D01*
X0030500Y0078500D01*
X0027000Y0079000D02*
X0026000Y0079000D01*
X0026000Y0074500D01*
X0025197Y0073126D01*
X0025197Y0071126D01*
X0023622Y0071126D02*
X0023600Y0070800D01*
X0023600Y0072900D01*
X0024500Y0074600D01*
X0024500Y0079100D01*
X0022800Y0079100D01*
X0019100Y0078500D02*
X0020400Y0073200D01*
X0020400Y0071400D01*
X0020472Y0071126D01*
X0019000Y0071126D02*
X0019000Y0073500D01*
X0017500Y0075000D01*
X0017500Y0076500D01*
X0015500Y0078500D01*
X0015500Y0079500D01*
X0015000Y0075000D02*
X0017400Y0072600D01*
X0017400Y0071400D01*
X0017323Y0071126D01*
X0018898Y0071126D02*
X0019000Y0071126D01*
X0022047Y0071126D02*
X0022200Y0071400D01*
X0022200Y0075500D01*
X0053400Y0070200D02*
X0061200Y0062400D01*
X0061200Y0059400D01*
X0060976Y0059000D01*
X0062400Y0058800D02*
X0062551Y0059000D01*
X0062400Y0058800D02*
X0062400Y0057000D01*
X0059100Y0054700D01*
X0062700Y0054200D02*
X0064000Y0056500D01*
X0064000Y0058800D01*
X0064200Y0058800D01*
X0064126Y0059000D01*
X0065701Y0059000D02*
X0065700Y0058799D01*
X0065700Y0052000D01*
X0065300Y0052000D01*
X0065700Y0052000D02*
X0065875Y0052000D01*
X0067200Y0053400D02*
X0069100Y0050800D01*
X0067200Y0053400D02*
X0067200Y0058800D01*
X0067276Y0059000D01*
X0068850Y0059000D02*
X0069000Y0059400D01*
X0069000Y0061200D01*
X0071400Y0063600D01*
X0073800Y0063600D01*
X0076200Y0061200D01*
X0076200Y0058200D01*
X0075000Y0055800D02*
X0078600Y0055800D01*
X0075000Y0055800D02*
X0072000Y0058800D01*
X0072000Y0059000D01*
X0070425Y0059000D02*
X0070200Y0058800D01*
X0070200Y0056400D01*
X0071400Y0055200D01*
X0059402Y0059000D02*
X0059400Y0059400D01*
X0059400Y0061800D01*
X0054600Y0066600D01*
X0053400Y0066600D01*
X0059323Y0071126D02*
X0059400Y0071400D01*
X0059400Y0072600D01*
X0057000Y0075000D01*
X0059500Y0075000D02*
X0059500Y0076500D01*
X0057500Y0078500D01*
X0057500Y0079500D01*
X0061100Y0078500D02*
X0062400Y0073200D01*
X0062400Y0071400D01*
X0062472Y0071126D01*
X0061000Y0071126D02*
X0061000Y0073500D01*
X0059500Y0075000D01*
X0064200Y0075500D02*
X0064200Y0071400D01*
X0064047Y0071126D01*
X0065622Y0071126D02*
X0065600Y0070800D01*
X0065600Y0072900D01*
X0066500Y0074600D01*
X0066500Y0079100D01*
X0064800Y0079100D01*
X0068000Y0079000D02*
X0069000Y0079000D01*
X0068000Y0079000D02*
X0068000Y0074500D01*
X0067197Y0073126D01*
X0067197Y0071126D01*
X0068772Y0071126D02*
X0069000Y0071400D01*
X0069000Y0073500D01*
X0072500Y0078500D01*
X0077400Y0073800D02*
X0074400Y0070800D01*
X0074400Y0070200D01*
X0072600Y0068400D01*
X0071400Y0068400D01*
X0070200Y0069600D01*
X0070200Y0070800D01*
X0070346Y0071126D01*
X0061000Y0071126D02*
X0060898Y0071126D01*
X0057827Y0059000D02*
X0057600Y0058800D01*
X0055800Y0058800D01*
X0055200Y0058200D01*
X0095400Y0066600D02*
X0096600Y0066600D01*
X0101400Y0061800D01*
X0101400Y0059400D01*
X0101402Y0059000D01*
X0102976Y0059000D02*
X0103200Y0059400D01*
X0103200Y0062400D01*
X0095400Y0070200D01*
X0101323Y0071126D02*
X0101400Y0071400D01*
X0101400Y0072600D01*
X0099000Y0075000D01*
X0101500Y0075000D02*
X0103000Y0073500D01*
X0103000Y0071126D01*
X0102898Y0071126D01*
X0104400Y0071400D02*
X0104472Y0071126D01*
X0104400Y0071400D02*
X0104400Y0073200D01*
X0103100Y0078500D01*
X0101500Y0076500D02*
X0099500Y0078500D01*
X0099500Y0079500D01*
X0101500Y0076500D02*
X0101500Y0075000D01*
X0106200Y0075500D02*
X0106200Y0071400D01*
X0106047Y0071126D01*
X0107622Y0071126D02*
X0107600Y0070800D01*
X0107600Y0072900D01*
X0108500Y0074600D01*
X0108500Y0079100D01*
X0106800Y0079100D01*
X0110000Y0079000D02*
X0111000Y0079000D01*
X0110000Y0079000D02*
X0110000Y0074500D01*
X0109197Y0073126D01*
X0109197Y0071126D01*
X0110772Y0071126D02*
X0111000Y0071400D01*
X0111000Y0073500D01*
X0114500Y0078500D01*
X0119400Y0073800D02*
X0116400Y0070800D01*
X0116400Y0070200D01*
X0114600Y0068400D01*
X0113400Y0068400D01*
X0112200Y0069600D01*
X0112200Y0070800D01*
X0112346Y0071126D01*
X0113400Y0063600D02*
X0115800Y0063600D01*
X0118200Y0061200D01*
X0118200Y0058200D01*
X0117000Y0055800D02*
X0114000Y0058800D01*
X0114000Y0059000D01*
X0112425Y0059000D02*
X0112200Y0058800D01*
X0112200Y0056400D01*
X0113400Y0055200D01*
X0109200Y0053400D02*
X0111100Y0050800D01*
X0107875Y0052000D02*
X0107700Y0052000D01*
X0107300Y0052000D01*
X0107700Y0052000D02*
X0107700Y0058799D01*
X0107701Y0059000D01*
X0109200Y0058800D02*
X0109276Y0059000D01*
X0109200Y0058800D02*
X0109200Y0053400D01*
X0106000Y0056500D02*
X0104700Y0054200D01*
X0104400Y0057000D02*
X0101100Y0054700D01*
X0104400Y0057000D02*
X0104400Y0058800D01*
X0104551Y0059000D01*
X0106000Y0058800D02*
X0106200Y0058800D01*
X0106126Y0059000D01*
X0106000Y0058800D02*
X0106000Y0056500D01*
X0110850Y0059000D02*
X0111000Y0059400D01*
X0111000Y0061200D01*
X0113400Y0063600D01*
X0099827Y0059000D02*
X0099600Y0058800D01*
X0097800Y0058800D01*
X0097200Y0058200D01*
X0117000Y0055800D02*
X0120600Y0055800D01*
X0139200Y0058200D02*
X0139800Y0058800D01*
X0141600Y0058800D01*
X0141827Y0059000D01*
X0143402Y0059000D02*
X0143400Y0059400D01*
X0143400Y0061800D01*
X0138600Y0066600D01*
X0137400Y0066600D01*
X0137400Y0070200D02*
X0145200Y0062400D01*
X0145200Y0059400D01*
X0144976Y0059000D01*
X0146400Y0058800D02*
X0146551Y0059000D01*
X0146400Y0058800D02*
X0146400Y0057000D01*
X0143100Y0054700D01*
X0146700Y0054200D02*
X0148000Y0056500D01*
X0148000Y0058800D01*
X0148200Y0058800D01*
X0148126Y0059000D01*
X0149701Y0059000D02*
X0149700Y0058799D01*
X0149700Y0052000D01*
X0149300Y0052000D01*
X0149700Y0052000D02*
X0149875Y0052000D01*
X0151200Y0053400D02*
X0153100Y0050800D01*
X0151200Y0053400D02*
X0151200Y0058800D01*
X0151276Y0059000D01*
X0152850Y0059000D02*
X0153000Y0059400D01*
X0153000Y0061200D01*
X0155400Y0063600D01*
X0157800Y0063600D01*
X0160200Y0061200D01*
X0160200Y0058200D01*
X0159000Y0055800D02*
X0162600Y0055800D01*
X0159000Y0055800D02*
X0156000Y0058800D01*
X0156000Y0059000D01*
X0154425Y0059000D02*
X0154200Y0058800D01*
X0154200Y0056400D01*
X0155400Y0055200D01*
X0155400Y0068400D02*
X0156600Y0068400D01*
X0158400Y0070200D01*
X0158400Y0070800D01*
X0161400Y0073800D01*
X0154346Y0071126D02*
X0154200Y0070800D01*
X0154200Y0069600D01*
X0155400Y0068400D01*
X0152772Y0071126D02*
X0153000Y0071400D01*
X0153000Y0073500D01*
X0156500Y0078500D01*
X0153000Y0079000D02*
X0152000Y0079000D01*
X0152000Y0074500D01*
X0151197Y0073126D01*
X0151197Y0071126D01*
X0149622Y0071126D02*
X0149600Y0070800D01*
X0149600Y0072900D01*
X0150500Y0074600D01*
X0150500Y0079100D01*
X0148800Y0079100D01*
X0145100Y0078500D02*
X0146400Y0073200D01*
X0146400Y0071400D01*
X0146472Y0071126D01*
X0145000Y0071126D02*
X0145000Y0073500D01*
X0143500Y0075000D01*
X0143500Y0076500D01*
X0141500Y0078500D01*
X0141500Y0079500D01*
X0141000Y0075000D02*
X0143400Y0072600D01*
X0143400Y0071400D01*
X0143323Y0071126D01*
X0144898Y0071126D02*
X0145000Y0071126D01*
X0148047Y0071126D02*
X0148200Y0071400D01*
X0148200Y0075500D01*
X0148800Y0037100D02*
X0150500Y0037100D01*
X0150500Y0032600D01*
X0149600Y0030900D01*
X0149600Y0028800D01*
X0149622Y0029126D01*
X0148200Y0029400D02*
X0148047Y0029126D01*
X0148200Y0029400D02*
X0148200Y0033500D01*
X0151197Y0031126D02*
X0152000Y0032500D01*
X0152000Y0037000D01*
X0153000Y0037000D01*
X0156500Y0036500D02*
X0153000Y0031500D01*
X0153000Y0029400D01*
X0152772Y0029126D01*
X0154200Y0028800D02*
X0154346Y0029126D01*
X0154200Y0028800D02*
X0154200Y0027600D01*
X0155400Y0026400D01*
X0156600Y0026400D01*
X0158400Y0028200D01*
X0158400Y0028800D01*
X0161400Y0031800D01*
X0151197Y0031126D02*
X0151197Y0029126D01*
X0146472Y0029126D02*
X0146400Y0029400D01*
X0146400Y0031200D01*
X0145100Y0036500D01*
X0143500Y0034500D02*
X0141500Y0036500D01*
X0141500Y0037500D01*
X0143500Y0034500D02*
X0143500Y0033000D01*
X0145000Y0031500D01*
X0145000Y0029126D01*
X0144898Y0029126D01*
X0143400Y0029400D02*
X0143400Y0030600D01*
X0141000Y0033000D01*
X0143400Y0029400D02*
X0143323Y0029126D01*
X0137400Y0028200D02*
X0145200Y0020400D01*
X0145200Y0017400D01*
X0144976Y0017000D01*
X0146400Y0016800D02*
X0146551Y0017000D01*
X0146400Y0016800D02*
X0146400Y0015000D01*
X0143100Y0012700D01*
X0146700Y0012200D02*
X0148000Y0014500D01*
X0148000Y0016800D01*
X0148200Y0016800D01*
X0148126Y0017000D01*
X0149701Y0017000D02*
X0149700Y0016799D01*
X0149700Y0010000D01*
X0149300Y0010000D01*
X0149700Y0010000D02*
X0149875Y0010000D01*
X0151200Y0011400D02*
X0153100Y0008800D01*
X0151200Y0011400D02*
X0151200Y0016800D01*
X0151276Y0017000D01*
X0152850Y0017000D02*
X0153000Y0017400D01*
X0153000Y0019200D01*
X0155400Y0021600D01*
X0157800Y0021600D01*
X0160200Y0019200D01*
X0160200Y0016200D01*
X0159000Y0013800D02*
X0162600Y0013800D01*
X0159000Y0013800D02*
X0156000Y0016800D01*
X0156000Y0017000D01*
X0154425Y0017000D02*
X0154200Y0016800D01*
X0154200Y0014400D01*
X0155400Y0013200D01*
X0143402Y0017000D02*
X0143400Y0017400D01*
X0143400Y0019800D01*
X0138600Y0024600D01*
X0137400Y0024600D01*
X0139800Y0016800D02*
X0139200Y0016200D01*
X0139800Y0016800D02*
X0141600Y0016800D01*
X0141827Y0017000D01*
X0120600Y0013800D02*
X0117000Y0013800D01*
X0114000Y0016800D01*
X0114000Y0017000D01*
X0112425Y0017000D02*
X0112200Y0016800D01*
X0112200Y0014400D01*
X0113400Y0013200D01*
X0109200Y0011400D02*
X0111100Y0008800D01*
X0109200Y0011400D02*
X0109200Y0016800D01*
X0109276Y0017000D01*
X0110850Y0017000D02*
X0111000Y0017400D01*
X0111000Y0019200D01*
X0113400Y0021600D01*
X0115800Y0021600D01*
X0118200Y0019200D01*
X0118200Y0016200D01*
X0107700Y0016799D02*
X0107700Y0010000D01*
X0107300Y0010000D01*
X0107700Y0010000D02*
X0107875Y0010000D01*
X0104700Y0012200D02*
X0106000Y0014500D01*
X0106000Y0016800D01*
X0106200Y0016800D01*
X0106126Y0017000D01*
X0107701Y0017000D02*
X0107700Y0016799D01*
X0104551Y0017000D02*
X0104400Y0016800D01*
X0104400Y0015000D01*
X0101100Y0012700D01*
X0097200Y0016200D02*
X0097800Y0016800D01*
X0099600Y0016800D01*
X0099827Y0017000D01*
X0101402Y0017000D02*
X0101400Y0017400D01*
X0101400Y0019800D01*
X0096600Y0024600D01*
X0095400Y0024600D01*
X0095400Y0028200D02*
X0103200Y0020400D01*
X0103200Y0017400D01*
X0102976Y0017000D01*
X0113400Y0026400D02*
X0114600Y0026400D01*
X0116400Y0028200D01*
X0116400Y0028800D01*
X0119400Y0031800D01*
X0112346Y0029126D02*
X0112200Y0028800D01*
X0112200Y0027600D01*
X0113400Y0026400D01*
X0110772Y0029126D02*
X0111000Y0029400D01*
X0111000Y0031500D01*
X0114500Y0036500D01*
X0111000Y0037000D02*
X0110000Y0037000D01*
X0110000Y0032500D01*
X0109197Y0031126D01*
X0109197Y0029126D01*
X0107622Y0029126D02*
X0107600Y0028800D01*
X0107600Y0030900D01*
X0108500Y0032600D01*
X0108500Y0037100D01*
X0106800Y0037100D01*
X0103100Y0036500D02*
X0104400Y0031200D01*
X0104400Y0029400D01*
X0104472Y0029126D01*
X0103000Y0029126D02*
X0103000Y0031500D01*
X0101500Y0033000D01*
X0101500Y0034500D01*
X0099500Y0036500D01*
X0099500Y0037500D01*
X0106200Y0033500D02*
X0106200Y0029400D01*
X0106047Y0029126D01*
X0103000Y0029126D02*
X0102898Y0029126D01*
X0101400Y0029400D02*
X0101400Y0030600D01*
X0099000Y0033000D01*
X0101400Y0029400D02*
X0101323Y0029126D01*
X0077400Y0031800D02*
X0074400Y0028800D01*
X0074400Y0028200D01*
X0072600Y0026400D01*
X0071400Y0026400D01*
X0070200Y0027600D01*
X0070200Y0028800D01*
X0070346Y0029126D01*
X0069000Y0029400D02*
X0068772Y0029126D01*
X0069000Y0029400D02*
X0069000Y0031500D01*
X0072500Y0036500D01*
X0069000Y0037000D02*
X0068000Y0037000D01*
X0068000Y0032500D01*
X0067197Y0031126D01*
X0067197Y0029126D01*
X0065622Y0029126D02*
X0065600Y0028800D01*
X0065600Y0030900D01*
X0066500Y0032600D01*
X0066500Y0037100D01*
X0064800Y0037100D01*
X0061100Y0036500D02*
X0062400Y0031200D01*
X0062400Y0029400D01*
X0062472Y0029126D01*
X0061000Y0029126D02*
X0061000Y0031500D01*
X0059500Y0033000D01*
X0059500Y0034500D01*
X0057500Y0036500D01*
X0057500Y0037500D01*
X0064200Y0033500D02*
X0064200Y0029400D01*
X0064047Y0029126D01*
X0061000Y0029126D02*
X0060898Y0029126D01*
X0059400Y0029400D02*
X0059400Y0030600D01*
X0057000Y0033000D01*
X0059400Y0029400D02*
X0059323Y0029126D01*
X0053400Y0028200D02*
X0061200Y0020400D01*
X0061200Y0017400D01*
X0060976Y0017000D01*
X0062400Y0016800D02*
X0062551Y0017000D01*
X0062400Y0016800D02*
X0062400Y0015000D01*
X0059100Y0012700D01*
X0062700Y0012200D02*
X0064000Y0014500D01*
X0064000Y0016800D01*
X0064200Y0016800D01*
X0064126Y0017000D01*
X0065701Y0017000D02*
X0065700Y0016799D01*
X0065700Y0010000D01*
X0065300Y0010000D01*
X0065700Y0010000D02*
X0065875Y0010000D01*
X0067200Y0011400D02*
X0069100Y0008800D01*
X0067200Y0011400D02*
X0067200Y0016800D01*
X0067276Y0017000D01*
X0068850Y0017000D02*
X0069000Y0017400D01*
X0069000Y0019200D01*
X0071400Y0021600D01*
X0073800Y0021600D01*
X0076200Y0019200D01*
X0076200Y0016200D01*
X0075000Y0013800D02*
X0078600Y0013800D01*
X0075000Y0013800D02*
X0072000Y0016800D01*
X0072000Y0017000D01*
X0070425Y0017000D02*
X0070200Y0016800D01*
X0070200Y0014400D01*
X0071400Y0013200D01*
X0059402Y0017000D02*
X0059400Y0017400D01*
X0059400Y0019800D01*
X0054600Y0024600D01*
X0053400Y0024600D01*
X0055800Y0016800D02*
X0055200Y0016200D01*
X0055800Y0016800D02*
X0057600Y0016800D01*
X0057827Y0017000D01*
X0036600Y0013800D02*
X0033000Y0013800D01*
X0030000Y0016800D01*
X0030000Y0017000D01*
X0028425Y0017000D02*
X0028200Y0016800D01*
X0028200Y0014400D01*
X0029400Y0013200D01*
X0025200Y0011400D02*
X0027100Y0008800D01*
X0025200Y0011400D02*
X0025200Y0016800D01*
X0025276Y0017000D01*
X0026850Y0017000D02*
X0027000Y0017400D01*
X0027000Y0019200D01*
X0029400Y0021600D01*
X0031800Y0021600D01*
X0034200Y0019200D01*
X0034200Y0016200D01*
X0023700Y0016799D02*
X0023700Y0010000D01*
X0023300Y0010000D01*
X0023700Y0010000D02*
X0023875Y0010000D01*
X0020700Y0012200D02*
X0022000Y0014500D01*
X0022000Y0016800D01*
X0022200Y0016800D01*
X0022126Y0017000D01*
X0023701Y0017000D02*
X0023700Y0016799D01*
X0020551Y0017000D02*
X0020400Y0016800D01*
X0020400Y0015000D01*
X0017100Y0012700D01*
X0013200Y0016200D02*
X0013800Y0016800D01*
X0015600Y0016800D01*
X0015827Y0017000D01*
X0017402Y0017000D02*
X0017400Y0017400D01*
X0017400Y0019800D01*
X0012600Y0024600D01*
X0011400Y0024600D01*
X0011400Y0028200D02*
X0019200Y0020400D01*
X0019200Y0017400D01*
X0018976Y0017000D01*
X0029400Y0026400D02*
X0030600Y0026400D01*
X0032400Y0028200D01*
X0032400Y0028800D01*
X0035400Y0031800D01*
X0028346Y0029126D02*
X0028200Y0028800D01*
X0028200Y0027600D01*
X0029400Y0026400D01*
X0026772Y0029126D02*
X0027000Y0029400D01*
X0027000Y0031500D01*
X0030500Y0036500D01*
X0027000Y0037000D02*
X0026000Y0037000D01*
X0026000Y0032500D01*
X0025197Y0031126D01*
X0025197Y0029126D01*
X0023622Y0029126D02*
X0023600Y0028800D01*
X0023600Y0030900D01*
X0024500Y0032600D01*
X0024500Y0037100D01*
X0022800Y0037100D01*
X0019100Y0036500D02*
X0020400Y0031200D01*
X0020400Y0029400D01*
X0020472Y0029126D01*
X0019000Y0029126D02*
X0019000Y0031500D01*
X0017500Y0033000D01*
X0017500Y0034500D01*
X0015500Y0036500D01*
X0015500Y0037500D01*
X0022200Y0033500D02*
X0022200Y0029400D01*
X0022047Y0029126D01*
X0019000Y0029126D02*
X0018898Y0029126D01*
X0017400Y0029400D02*
X0017323Y0029126D01*
X0017400Y0029400D02*
X0017400Y0030600D01*
X0015000Y0033000D01*
D12*
X0015000Y0033000D03*
X0019100Y0036500D03*
X0015500Y0037500D03*
X0022800Y0037100D03*
X0027000Y0037000D03*
X0030500Y0036500D03*
X0035400Y0031800D03*
X0022200Y0033500D03*
X0011400Y0028200D03*
X0011400Y0024600D03*
X0013200Y0016200D03*
X0017100Y0012700D03*
X0020700Y0012200D03*
X0023300Y0010000D03*
X0027100Y0008800D03*
X0029400Y0013200D03*
X0034200Y0016200D03*
X0036600Y0013800D03*
X0055200Y0016200D03*
X0059100Y0012700D03*
X0062700Y0012200D03*
X0065300Y0010000D03*
X0069100Y0008800D03*
X0071400Y0013200D03*
X0076200Y0016200D03*
X0078600Y0013800D03*
X0097200Y0016200D03*
X0101100Y0012700D03*
X0104700Y0012200D03*
X0107300Y0010000D03*
X0111100Y0008800D03*
X0113400Y0013200D03*
X0118200Y0016200D03*
X0120600Y0013800D03*
X0139200Y0016200D03*
X0143100Y0012700D03*
X0146700Y0012200D03*
X0149300Y0010000D03*
X0153100Y0008800D03*
X0155400Y0013200D03*
X0160200Y0016200D03*
X0162600Y0013800D03*
X0137400Y0024600D03*
X0137400Y0028200D03*
X0141000Y0033000D03*
X0145100Y0036500D03*
X0141500Y0037500D03*
X0148800Y0037100D03*
X0153000Y0037000D03*
X0156500Y0036500D03*
X0148200Y0033500D03*
X0161400Y0031800D03*
X0153100Y0050800D03*
X0149300Y0052000D03*
X0146700Y0054200D03*
X0143100Y0054700D03*
X0139200Y0058200D03*
X0137400Y0066600D03*
X0137400Y0070200D03*
X0141000Y0075000D03*
X0145100Y0078500D03*
X0141500Y0079500D03*
X0148800Y0079100D03*
X0153000Y0079000D03*
X0156500Y0078500D03*
X0148200Y0075500D03*
X0161400Y0073800D03*
X0160200Y0058200D03*
X0162600Y0055800D03*
X0155400Y0055200D03*
X0120600Y0055800D03*
X0118200Y0058200D03*
X0113400Y0055200D03*
X0107300Y0052000D03*
X0104700Y0054200D03*
X0101100Y0054700D03*
X0097200Y0058200D03*
X0095400Y0066600D03*
X0095400Y0070200D03*
X0099000Y0075000D03*
X0103100Y0078500D03*
X0099500Y0079500D03*
X0106800Y0079100D03*
X0111000Y0079000D03*
X0114500Y0078500D03*
X0106200Y0075500D03*
X0119400Y0073800D03*
X0077400Y0073800D03*
X0072500Y0078500D03*
X0069000Y0079000D03*
X0064800Y0079100D03*
X0061100Y0078500D03*
X0057500Y0079500D03*
X0057000Y0075000D03*
X0064200Y0075500D03*
X0053400Y0070200D03*
X0053400Y0066600D03*
X0055200Y0058200D03*
X0059100Y0054700D03*
X0062700Y0054200D03*
X0065300Y0052000D03*
X0069100Y0050800D03*
X0071400Y0055200D03*
X0076200Y0058200D03*
X0078600Y0055800D03*
X0111100Y0050800D03*
X0111000Y0037000D03*
X0114500Y0036500D03*
X0106800Y0037100D03*
X0103100Y0036500D03*
X0099500Y0037500D03*
X0106200Y0033500D03*
X0099000Y0033000D03*
X0095400Y0028200D03*
X0095400Y0024600D03*
X0077400Y0031800D03*
X0072500Y0036500D03*
X0069000Y0037000D03*
X0064800Y0037100D03*
X0061100Y0036500D03*
X0057500Y0037500D03*
X0064200Y0033500D03*
X0057000Y0033000D03*
X0053400Y0028200D03*
X0053400Y0024600D03*
X0027100Y0050800D03*
X0023300Y0052000D03*
X0020700Y0054200D03*
X0017100Y0054700D03*
X0013200Y0058200D03*
X0011400Y0066600D03*
X0011400Y0070200D03*
X0015000Y0075000D03*
X0019100Y0078500D03*
X0015500Y0079500D03*
X0022800Y0079100D03*
X0027000Y0079000D03*
X0030500Y0078500D03*
X0022200Y0075500D03*
X0035400Y0073800D03*
X0034200Y0058200D03*
X0036600Y0055800D03*
X0029400Y0055200D03*
X0119400Y0031800D03*
D13*
X0003800Y0043000D02*
X0003800Y0003800D01*
X0043000Y0003800D01*
X0043000Y0043000D01*
X0003800Y0043000D01*
X0003800Y0041647D02*
X0043000Y0041647D01*
X0045000Y0041647D02*
X0085000Y0041647D01*
X0085000Y0043000D02*
X0085000Y0003800D01*
X0045000Y0003800D01*
X0045000Y0043000D01*
X0085000Y0043000D01*
X0087000Y0043000D02*
X0087000Y0003800D01*
X0127000Y0003800D01*
X0127000Y0043000D01*
X0087000Y0043000D01*
X0087000Y0041647D02*
X0127000Y0041647D01*
X0127000Y0040048D02*
X0100534Y0040048D01*
X0100047Y0040250D02*
X0098953Y0040250D01*
X0097942Y0039831D01*
X0097169Y0039058D01*
X0096750Y0038047D01*
X0096750Y0036953D01*
X0097169Y0035942D01*
X0097681Y0035430D01*
X0097442Y0035331D01*
X0096669Y0034558D01*
X0096250Y0033547D01*
X0096250Y0032453D01*
X0096669Y0031442D01*
X0097442Y0030669D01*
X0097954Y0030457D01*
X0097954Y0029219D01*
X0097731Y0029758D01*
X0096958Y0030531D01*
X0095947Y0030950D01*
X0094853Y0030950D01*
X0093842Y0030531D01*
X0093069Y0029758D01*
X0092650Y0028747D01*
X0092650Y0027653D01*
X0093069Y0026642D01*
X0093311Y0026400D01*
X0093069Y0026158D01*
X0092650Y0025147D01*
X0092650Y0024053D01*
X0093069Y0023042D01*
X0093842Y0022269D01*
X0094853Y0021850D01*
X0095947Y0021850D01*
X0096653Y0022143D01*
X0098740Y0020056D01*
X0098738Y0020055D01*
X0098328Y0019818D01*
X0097993Y0019483D01*
X0097756Y0019073D01*
X0097633Y0018615D01*
X0097633Y0017000D01*
X0099608Y0017000D01*
X0099608Y0017000D01*
X0097633Y0017000D01*
X0097633Y0015385D01*
X0097756Y0014927D01*
X0097993Y0014517D01*
X0098328Y0014182D01*
X0098658Y0013991D01*
X0098350Y0013247D01*
X0098350Y0012153D01*
X0098769Y0011142D01*
X0099542Y0010369D01*
X0100553Y0009950D01*
X0101647Y0009950D01*
X0102647Y0010364D01*
X0103142Y0009869D01*
X0104153Y0009450D01*
X0104551Y0009450D01*
X0104969Y0008442D01*
X0105742Y0007669D01*
X0106753Y0007250D01*
X0107847Y0007250D01*
X0108631Y0007575D01*
X0108769Y0007242D01*
X0109542Y0006469D01*
X0110553Y0006050D01*
X0111647Y0006050D01*
X0112658Y0006469D01*
X0113431Y0007242D01*
X0113850Y0008253D01*
X0113850Y0009347D01*
X0113431Y0010358D01*
X0113339Y0010450D01*
X0113947Y0010450D01*
X0114958Y0010869D01*
X0115731Y0011642D01*
X0116031Y0012365D01*
X0116296Y0012100D01*
X0118411Y0012100D01*
X0119042Y0011469D01*
X0120053Y0011050D01*
X0121147Y0011050D01*
X0122158Y0011469D01*
X0122931Y0012242D01*
X0123350Y0013253D01*
X0123350Y0014347D01*
X0122931Y0015358D01*
X0122158Y0016131D01*
X0121147Y0016550D01*
X0120950Y0016550D01*
X0120950Y0016747D01*
X0120531Y0017758D01*
X0119900Y0018389D01*
X0119900Y0019904D01*
X0116504Y0023300D01*
X0112696Y0023300D01*
X0111700Y0022304D01*
X0109300Y0019904D01*
X0109300Y0019778D01*
X0104900Y0019778D01*
X0104900Y0021104D01*
X0099656Y0026348D01*
X0111048Y0026348D01*
X0111700Y0025696D01*
X0112696Y0024700D01*
X0115304Y0024700D01*
X0117104Y0026500D01*
X0118100Y0027496D01*
X0118100Y0028096D01*
X0119054Y0029050D01*
X0119947Y0029050D01*
X0120958Y0029469D01*
X0121731Y0030242D01*
X0122150Y0031253D01*
X0122150Y0032347D01*
X0121731Y0033358D01*
X0120958Y0034131D01*
X0119947Y0034550D01*
X0118853Y0034550D01*
X0117842Y0034131D01*
X0117069Y0033358D01*
X0116650Y0032347D01*
X0116650Y0031454D01*
X0115794Y0030598D01*
X0115794Y0031084D01*
X0114974Y0031904D01*
X0113358Y0031904D01*
X0114650Y0033750D01*
X0115047Y0033750D01*
X0116058Y0034169D01*
X0116831Y0034942D01*
X0117250Y0035953D01*
X0117250Y0037047D01*
X0116831Y0038058D01*
X0116058Y0038831D01*
X0115047Y0039250D01*
X0113953Y0039250D01*
X0113024Y0038865D01*
X0112558Y0039331D01*
X0111547Y0039750D01*
X0110453Y0039750D01*
X0109442Y0039331D01*
X0108950Y0038839D01*
X0108358Y0039431D01*
X0107347Y0039850D01*
X0106253Y0039850D01*
X0105242Y0039431D01*
X0104647Y0038836D01*
X0103647Y0039250D01*
X0102553Y0039250D01*
X0101869Y0038967D01*
X0101831Y0039058D01*
X0101058Y0039831D01*
X0100047Y0040250D01*
X0098466Y0040048D02*
X0087000Y0040048D01*
X0085000Y0040048D02*
X0058534Y0040048D01*
X0058047Y0040250D02*
X0059058Y0039831D01*
X0059831Y0039058D01*
X0059869Y0038967D01*
X0060553Y0039250D01*
X0061647Y0039250D01*
X0062647Y0038836D01*
X0063242Y0039431D01*
X0064253Y0039850D01*
X0065347Y0039850D01*
X0066358Y0039431D01*
X0066950Y0038839D01*
X0067442Y0039331D01*
X0068453Y0039750D01*
X0069547Y0039750D01*
X0070558Y0039331D01*
X0071024Y0038865D01*
X0071953Y0039250D01*
X0073047Y0039250D01*
X0074058Y0038831D01*
X0074831Y0038058D01*
X0075250Y0037047D01*
X0075250Y0035953D01*
X0074831Y0034942D01*
X0074058Y0034169D01*
X0073047Y0033750D01*
X0072650Y0033750D01*
X0071358Y0031904D01*
X0072974Y0031904D01*
X0073794Y0031084D01*
X0073794Y0030598D01*
X0074650Y0031454D01*
X0074650Y0032347D01*
X0075069Y0033358D01*
X0075842Y0034131D01*
X0076853Y0034550D01*
X0077947Y0034550D01*
X0078958Y0034131D01*
X0079731Y0033358D01*
X0080150Y0032347D01*
X0080150Y0031253D01*
X0079731Y0030242D01*
X0078958Y0029469D01*
X0077947Y0029050D01*
X0077054Y0029050D01*
X0076100Y0028096D01*
X0076100Y0027496D01*
X0075104Y0026500D01*
X0073304Y0024700D01*
X0070696Y0024700D01*
X0069700Y0025696D01*
X0069700Y0025696D01*
X0069496Y0025900D01*
X0069496Y0025900D01*
X0069048Y0026348D01*
X0057656Y0026348D01*
X0062900Y0021104D01*
X0062900Y0019778D01*
X0067300Y0019778D01*
X0067300Y0019904D01*
X0069700Y0022304D01*
X0070696Y0023300D01*
X0074504Y0023300D01*
X0076904Y0020900D01*
X0077900Y0019904D01*
X0077900Y0018389D01*
X0078531Y0017758D01*
X0078950Y0016747D01*
X0078950Y0016550D01*
X0079147Y0016550D01*
X0080158Y0016131D01*
X0080931Y0015358D01*
X0081350Y0014347D01*
X0081350Y0013253D01*
X0080931Y0012242D01*
X0080158Y0011469D01*
X0079147Y0011050D01*
X0078053Y0011050D01*
X0077042Y0011469D01*
X0076411Y0012100D01*
X0074296Y0012100D01*
X0074031Y0012365D01*
X0073731Y0011642D01*
X0072958Y0010869D01*
X0071947Y0010450D01*
X0071339Y0010450D01*
X0071431Y0010358D01*
X0071850Y0009347D01*
X0071850Y0008253D01*
X0071431Y0007242D01*
X0070658Y0006469D01*
X0069647Y0006050D01*
X0068553Y0006050D01*
X0067542Y0006469D01*
X0066769Y0007242D01*
X0066631Y0007575D01*
X0065847Y0007250D01*
X0064753Y0007250D01*
X0063742Y0007669D01*
X0062969Y0008442D01*
X0062551Y0009450D01*
X0062153Y0009450D01*
X0061142Y0009869D01*
X0060647Y0010364D01*
X0059647Y0009950D01*
X0058553Y0009950D01*
X0057542Y0010369D01*
X0056769Y0011142D01*
X0056350Y0012153D01*
X0056350Y0013247D01*
X0056658Y0013991D01*
X0056328Y0014182D01*
X0055993Y0014517D01*
X0055756Y0014927D01*
X0055633Y0015385D01*
X0055633Y0017000D01*
X0057608Y0017000D01*
X0057608Y0017000D01*
X0055633Y0017000D01*
X0055633Y0018615D01*
X0055756Y0019073D01*
X0055993Y0019483D01*
X0056328Y0019818D01*
X0056738Y0020055D01*
X0056740Y0020056D01*
X0054653Y0022143D01*
X0053947Y0021850D01*
X0052853Y0021850D01*
X0051842Y0022269D01*
X0051069Y0023042D01*
X0050650Y0024053D01*
X0050650Y0025147D01*
X0051069Y0026158D01*
X0051311Y0026400D01*
X0051069Y0026642D01*
X0050650Y0027653D01*
X0050650Y0028747D01*
X0051069Y0029758D01*
X0051842Y0030531D01*
X0052853Y0030950D01*
X0053947Y0030950D01*
X0054958Y0030531D01*
X0055731Y0029758D01*
X0055954Y0029219D01*
X0055954Y0030457D01*
X0055442Y0030669D01*
X0054669Y0031442D01*
X0054250Y0032453D01*
X0054250Y0033547D01*
X0054669Y0034558D01*
X0055442Y0035331D01*
X0055681Y0035430D01*
X0055169Y0035942D01*
X0054750Y0036953D01*
X0054750Y0038047D01*
X0055169Y0039058D01*
X0055942Y0039831D01*
X0056953Y0040250D01*
X0058047Y0040250D01*
X0056466Y0040048D02*
X0045000Y0040048D01*
X0043000Y0040048D02*
X0016534Y0040048D01*
X0016047Y0040250D02*
X0014953Y0040250D01*
X0013942Y0039831D01*
X0013169Y0039058D01*
X0012750Y0038047D01*
X0012750Y0036953D01*
X0013169Y0035942D01*
X0013681Y0035430D01*
X0013442Y0035331D01*
X0012669Y0034558D01*
X0012250Y0033547D01*
X0012250Y0032453D01*
X0012669Y0031442D01*
X0013442Y0030669D01*
X0013954Y0030457D01*
X0013954Y0029219D01*
X0013731Y0029758D01*
X0012958Y0030531D01*
X0011947Y0030950D01*
X0010853Y0030950D01*
X0009842Y0030531D01*
X0009069Y0029758D01*
X0008650Y0028747D01*
X0008650Y0027653D01*
X0009069Y0026642D01*
X0009311Y0026400D01*
X0009069Y0026158D01*
X0008650Y0025147D01*
X0008650Y0024053D01*
X0009069Y0023042D01*
X0009842Y0022269D01*
X0010853Y0021850D01*
X0011947Y0021850D01*
X0012653Y0022143D01*
X0014740Y0020056D01*
X0014738Y0020055D01*
X0014328Y0019818D01*
X0013993Y0019483D01*
X0013756Y0019073D01*
X0013633Y0018615D01*
X0013633Y0017000D01*
X0015608Y0017000D01*
X0015608Y0017000D01*
X0013633Y0017000D01*
X0013633Y0015385D01*
X0013756Y0014927D01*
X0013993Y0014517D01*
X0014328Y0014182D01*
X0014658Y0013991D01*
X0014350Y0013247D01*
X0014350Y0012153D01*
X0014769Y0011142D01*
X0015542Y0010369D01*
X0016553Y0009950D01*
X0017647Y0009950D01*
X0018647Y0010364D01*
X0019142Y0009869D01*
X0020153Y0009450D01*
X0020551Y0009450D01*
X0020969Y0008442D01*
X0021742Y0007669D01*
X0022753Y0007250D01*
X0023847Y0007250D01*
X0024631Y0007575D01*
X0024769Y0007242D01*
X0025542Y0006469D01*
X0026553Y0006050D01*
X0027647Y0006050D01*
X0028658Y0006469D01*
X0029431Y0007242D01*
X0029850Y0008253D01*
X0029850Y0009347D01*
X0029431Y0010358D01*
X0029339Y0010450D01*
X0029947Y0010450D01*
X0030958Y0010869D01*
X0031731Y0011642D01*
X0032031Y0012365D01*
X0032296Y0012100D01*
X0034411Y0012100D01*
X0035042Y0011469D01*
X0036053Y0011050D01*
X0037147Y0011050D01*
X0038158Y0011469D01*
X0038931Y0012242D01*
X0039350Y0013253D01*
X0039350Y0014347D01*
X0038931Y0015358D01*
X0038158Y0016131D01*
X0037147Y0016550D01*
X0036950Y0016550D01*
X0036950Y0016747D01*
X0036531Y0017758D01*
X0035900Y0018389D01*
X0035900Y0019904D01*
X0034904Y0020900D01*
X0032504Y0023300D01*
X0028696Y0023300D01*
X0027700Y0022304D01*
X0025300Y0019904D01*
X0025300Y0019778D01*
X0020900Y0019778D01*
X0020900Y0021104D01*
X0015656Y0026348D01*
X0027048Y0026348D01*
X0027700Y0025696D01*
X0028696Y0024700D01*
X0031304Y0024700D01*
X0033104Y0026500D01*
X0034100Y0027496D01*
X0034100Y0028096D01*
X0035054Y0029050D01*
X0035947Y0029050D01*
X0036958Y0029469D01*
X0037731Y0030242D01*
X0038150Y0031253D01*
X0038150Y0032347D01*
X0037731Y0033358D01*
X0036958Y0034131D01*
X0035947Y0034550D01*
X0034853Y0034550D01*
X0033842Y0034131D01*
X0033069Y0033358D01*
X0032650Y0032347D01*
X0032650Y0031454D01*
X0031794Y0030598D01*
X0031794Y0031084D01*
X0030974Y0031904D01*
X0029358Y0031904D01*
X0030650Y0033750D01*
X0031047Y0033750D01*
X0032058Y0034169D01*
X0032831Y0034942D01*
X0033250Y0035953D01*
X0033250Y0037047D01*
X0032831Y0038058D01*
X0032058Y0038831D01*
X0031047Y0039250D01*
X0029953Y0039250D01*
X0029024Y0038865D01*
X0028558Y0039331D01*
X0027547Y0039750D01*
X0026453Y0039750D01*
X0025442Y0039331D01*
X0024950Y0038839D01*
X0024358Y0039431D01*
X0023347Y0039850D01*
X0022253Y0039850D01*
X0021242Y0039431D01*
X0020647Y0038836D01*
X0019647Y0039250D01*
X0018553Y0039250D01*
X0017869Y0038967D01*
X0017831Y0039058D01*
X0017058Y0039831D01*
X0016047Y0040250D01*
X0014466Y0040048D02*
X0003800Y0040048D01*
X0003800Y0038450D02*
X0012917Y0038450D01*
X0012792Y0036851D02*
X0003800Y0036851D01*
X0003800Y0035253D02*
X0013364Y0035253D01*
X0012294Y0033654D02*
X0003800Y0033654D01*
X0003800Y0032056D02*
X0012415Y0032056D01*
X0013032Y0030457D02*
X0013953Y0030457D01*
X0009768Y0030457D02*
X0003800Y0030457D01*
X0003800Y0028859D02*
X0008696Y0028859D01*
X0008813Y0027260D02*
X0003800Y0027260D01*
X0003800Y0025662D02*
X0008863Y0025662D01*
X0008650Y0024063D02*
X0003800Y0024063D01*
X0003800Y0022465D02*
X0009646Y0022465D01*
X0013930Y0020866D02*
X0003800Y0020866D01*
X0003800Y0019268D02*
X0013868Y0019268D01*
X0013633Y0017669D02*
X0003800Y0017669D01*
X0003800Y0016070D02*
X0013633Y0016070D01*
X0014038Y0014472D02*
X0003800Y0014472D01*
X0003800Y0012873D02*
X0014350Y0012873D01*
X0014714Y0011275D02*
X0003800Y0011275D01*
X0003800Y0009676D02*
X0019606Y0009676D01*
X0021333Y0008078D02*
X0003800Y0008078D01*
X0003800Y0006479D02*
X0025531Y0006479D01*
X0028668Y0006479D02*
X0043000Y0006479D01*
X0045000Y0006479D02*
X0067531Y0006479D01*
X0070668Y0006479D02*
X0085000Y0006479D01*
X0087000Y0006479D02*
X0109531Y0006479D01*
X0112668Y0006479D02*
X0127000Y0006479D01*
X0127000Y0004881D02*
X0087000Y0004881D01*
X0085000Y0004881D02*
X0045000Y0004881D01*
X0043000Y0004881D02*
X0003800Y0004881D01*
X0029777Y0008078D02*
X0043000Y0008078D01*
X0043000Y0009676D02*
X0029714Y0009676D01*
X0031364Y0011275D02*
X0035510Y0011275D01*
X0037690Y0011275D02*
X0043000Y0011275D01*
X0045000Y0011275D02*
X0056714Y0011275D01*
X0056350Y0012873D02*
X0045000Y0012873D01*
X0043000Y0012873D02*
X0039193Y0012873D01*
X0039298Y0014472D02*
X0043000Y0014472D01*
X0045000Y0014472D02*
X0056038Y0014472D01*
X0055633Y0016070D02*
X0045000Y0016070D01*
X0043000Y0016070D02*
X0038219Y0016070D01*
X0036568Y0017669D02*
X0043000Y0017669D01*
X0043000Y0019268D02*
X0035900Y0019268D01*
X0034938Y0020866D02*
X0043000Y0020866D01*
X0045000Y0020866D02*
X0055930Y0020866D01*
X0055868Y0019268D02*
X0045000Y0019268D01*
X0045000Y0017669D02*
X0055633Y0017669D01*
X0062900Y0020866D02*
X0068262Y0020866D01*
X0069860Y0022465D02*
X0061540Y0022465D01*
X0059941Y0024063D02*
X0085000Y0024063D01*
X0087000Y0024063D02*
X0092650Y0024063D01*
X0092863Y0025662D02*
X0087000Y0025662D01*
X0087000Y0027260D02*
X0092813Y0027260D01*
X0092696Y0028859D02*
X0087000Y0028859D01*
X0085000Y0028859D02*
X0076863Y0028859D01*
X0075864Y0027260D02*
X0085000Y0027260D01*
X0085000Y0025662D02*
X0074266Y0025662D01*
X0069734Y0025662D02*
X0058343Y0025662D01*
X0051646Y0022465D02*
X0045000Y0022465D01*
X0043000Y0022465D02*
X0033340Y0022465D01*
X0027860Y0022465D02*
X0019540Y0022465D01*
X0020900Y0020866D02*
X0026262Y0020866D01*
X0017941Y0024063D02*
X0043000Y0024063D01*
X0045000Y0024063D02*
X0050650Y0024063D01*
X0050863Y0025662D02*
X0045000Y0025662D01*
X0045000Y0027260D02*
X0050813Y0027260D01*
X0050696Y0028859D02*
X0045000Y0028859D01*
X0043000Y0028859D02*
X0034863Y0028859D01*
X0033864Y0027260D02*
X0043000Y0027260D01*
X0043000Y0025662D02*
X0032266Y0025662D01*
X0027734Y0025662D02*
X0016343Y0025662D01*
X0029464Y0032056D02*
X0032650Y0032056D01*
X0033365Y0033654D02*
X0030583Y0033654D01*
X0032960Y0035253D02*
X0043000Y0035253D01*
X0043000Y0036851D02*
X0033250Y0036851D01*
X0032439Y0038450D02*
X0043000Y0038450D01*
X0045000Y0038450D02*
X0054917Y0038450D01*
X0054792Y0036851D02*
X0045000Y0036851D01*
X0045000Y0035253D02*
X0055364Y0035253D01*
X0054294Y0033654D02*
X0045000Y0033654D01*
X0043000Y0033654D02*
X0037435Y0033654D01*
X0038150Y0032056D02*
X0043000Y0032056D01*
X0045000Y0032056D02*
X0054415Y0032056D01*
X0055032Y0030457D02*
X0055953Y0030457D01*
X0051768Y0030457D02*
X0045000Y0030457D01*
X0043000Y0030457D02*
X0037820Y0030457D01*
X0043000Y0045000D02*
X0043000Y0084200D01*
X0003800Y0084200D01*
X0003800Y0045000D01*
X0043000Y0045000D01*
X0043000Y0046442D02*
X0003800Y0046442D01*
X0003800Y0048041D02*
X0043000Y0048041D01*
X0045000Y0048041D02*
X0085000Y0048041D01*
X0087000Y0048041D02*
X0127000Y0048041D01*
X0127000Y0049639D02*
X0113596Y0049639D01*
X0113431Y0049242D02*
X0113850Y0050253D01*
X0113850Y0051347D01*
X0113431Y0052358D01*
X0113339Y0052450D01*
X0113947Y0052450D01*
X0114958Y0052869D01*
X0115731Y0053642D01*
X0116031Y0054365D01*
X0116296Y0054100D01*
X0118411Y0054100D01*
X0119042Y0053469D01*
X0120053Y0053050D01*
X0121147Y0053050D01*
X0122158Y0053469D01*
X0122931Y0054242D01*
X0123350Y0055253D01*
X0123350Y0056347D01*
X0122931Y0057358D01*
X0122158Y0058131D01*
X0121147Y0058550D01*
X0120950Y0058550D01*
X0120950Y0058747D01*
X0120531Y0059758D01*
X0119900Y0060389D01*
X0119900Y0061904D01*
X0118904Y0062900D01*
X0116504Y0065300D01*
X0112696Y0065300D01*
X0111700Y0064304D01*
X0109300Y0061904D01*
X0109300Y0061778D01*
X0104900Y0061778D01*
X0104900Y0063104D01*
X0099656Y0068348D01*
X0111048Y0068348D01*
X0111700Y0067696D01*
X0112696Y0066700D01*
X0115304Y0066700D01*
X0117104Y0068500D01*
X0118100Y0069496D01*
X0118100Y0070096D01*
X0119054Y0071050D01*
X0119947Y0071050D01*
X0120958Y0071469D01*
X0121731Y0072242D01*
X0122150Y0073253D01*
X0122150Y0074347D01*
X0121731Y0075358D01*
X0120958Y0076131D01*
X0119947Y0076550D01*
X0118853Y0076550D01*
X0117842Y0076131D01*
X0117069Y0075358D01*
X0116650Y0074347D01*
X0116650Y0073454D01*
X0115794Y0072598D01*
X0115794Y0073084D01*
X0114974Y0073904D01*
X0113358Y0073904D01*
X0114650Y0075750D01*
X0115047Y0075750D01*
X0116058Y0076169D01*
X0116831Y0076942D01*
X0117250Y0077953D01*
X0117250Y0079047D01*
X0116831Y0080058D01*
X0116058Y0080831D01*
X0115047Y0081250D01*
X0113953Y0081250D01*
X0113024Y0080865D01*
X0112558Y0081331D01*
X0111547Y0081750D01*
X0110453Y0081750D01*
X0109442Y0081331D01*
X0108950Y0080839D01*
X0108358Y0081431D01*
X0107347Y0081850D01*
X0106253Y0081850D01*
X0105242Y0081431D01*
X0104647Y0080836D01*
X0103647Y0081250D01*
X0102553Y0081250D01*
X0101869Y0080967D01*
X0101831Y0081058D01*
X0101058Y0081831D01*
X0100047Y0082250D01*
X0098953Y0082250D01*
X0097942Y0081831D01*
X0097169Y0081058D01*
X0096750Y0080047D01*
X0096750Y0078953D01*
X0097169Y0077942D01*
X0097681Y0077430D01*
X0097442Y0077331D01*
X0096669Y0076558D01*
X0096250Y0075547D01*
X0096250Y0074453D01*
X0096669Y0073442D01*
X0097442Y0072669D01*
X0097954Y0072457D01*
X0097954Y0071219D01*
X0097731Y0071758D01*
X0096958Y0072531D01*
X0095947Y0072950D01*
X0094853Y0072950D01*
X0093842Y0072531D01*
X0093069Y0071758D01*
X0092650Y0070747D01*
X0092650Y0069653D01*
X0093069Y0068642D01*
X0093311Y0068400D01*
X0093069Y0068158D01*
X0092650Y0067147D01*
X0092650Y0066053D01*
X0093069Y0065042D01*
X0093842Y0064269D01*
X0094853Y0063850D01*
X0095947Y0063850D01*
X0096653Y0064143D01*
X0098740Y0062056D01*
X0098738Y0062055D01*
X0098328Y0061818D01*
X0097993Y0061483D01*
X0097756Y0061073D01*
X0097633Y0060615D01*
X0097633Y0059000D01*
X0099608Y0059000D01*
X0099608Y0059000D01*
X0097633Y0059000D01*
X0097633Y0057385D01*
X0097756Y0056927D01*
X0097993Y0056517D01*
X0098328Y0056182D01*
X0098658Y0055991D01*
X0098350Y0055247D01*
X0098350Y0054153D01*
X0098769Y0053142D01*
X0099542Y0052369D01*
X0100553Y0051950D01*
X0101647Y0051950D01*
X0102647Y0052364D01*
X0103142Y0051869D01*
X0104153Y0051450D01*
X0104551Y0051450D01*
X0104969Y0050442D01*
X0105742Y0049669D01*
X0106753Y0049250D01*
X0107847Y0049250D01*
X0108631Y0049575D01*
X0108769Y0049242D01*
X0109542Y0048469D01*
X0110553Y0048050D01*
X0111647Y0048050D01*
X0112658Y0048469D01*
X0113431Y0049242D01*
X0113850Y0051238D02*
X0127000Y0051238D01*
X0127000Y0052836D02*
X0114879Y0052836D01*
X0123011Y0054435D02*
X0127000Y0054435D01*
X0127000Y0056033D02*
X0123350Y0056033D01*
X0122657Y0057632D02*
X0127000Y0057632D01*
X0127000Y0059230D02*
X0120750Y0059230D01*
X0119900Y0060829D02*
X0127000Y0060829D01*
X0127000Y0062427D02*
X0119377Y0062427D01*
X0117778Y0064026D02*
X0127000Y0064026D01*
X0127000Y0065624D02*
X0102380Y0065624D01*
X0103978Y0064026D02*
X0111422Y0064026D01*
X0109823Y0062427D02*
X0104900Y0062427D01*
X0098369Y0062427D02*
X0087000Y0062427D01*
X0087000Y0060829D02*
X0097690Y0060829D01*
X0097633Y0059230D02*
X0087000Y0059230D01*
X0085000Y0059230D02*
X0078750Y0059230D01*
X0078950Y0058747D02*
X0078531Y0059758D01*
X0077900Y0060389D01*
X0077900Y0061904D01*
X0076904Y0062900D01*
X0074504Y0065300D01*
X0070696Y0065300D01*
X0069700Y0064304D01*
X0067300Y0061904D01*
X0067300Y0061778D01*
X0062900Y0061778D01*
X0062900Y0063104D01*
X0057656Y0068348D01*
X0069048Y0068348D01*
X0069700Y0067696D01*
X0070696Y0066700D01*
X0073304Y0066700D01*
X0075104Y0068500D01*
X0076100Y0069496D01*
X0076100Y0070096D01*
X0077054Y0071050D01*
X0077947Y0071050D01*
X0078958Y0071469D01*
X0079731Y0072242D01*
X0080150Y0073253D01*
X0080150Y0074347D01*
X0079731Y0075358D01*
X0078958Y0076131D01*
X0077947Y0076550D01*
X0076853Y0076550D01*
X0075842Y0076131D01*
X0075069Y0075358D01*
X0074650Y0074347D01*
X0074650Y0073454D01*
X0073794Y0072598D01*
X0073794Y0073084D01*
X0072974Y0073904D01*
X0071358Y0073904D01*
X0072650Y0075750D01*
X0073047Y0075750D01*
X0074058Y0076169D01*
X0074831Y0076942D01*
X0075250Y0077953D01*
X0075250Y0079047D01*
X0074831Y0080058D01*
X0074058Y0080831D01*
X0073047Y0081250D01*
X0071953Y0081250D01*
X0071024Y0080865D01*
X0070558Y0081331D01*
X0069547Y0081750D01*
X0068453Y0081750D01*
X0067442Y0081331D01*
X0066950Y0080839D01*
X0066358Y0081431D01*
X0065347Y0081850D01*
X0064253Y0081850D01*
X0063242Y0081431D01*
X0062647Y0080836D01*
X0061647Y0081250D01*
X0060553Y0081250D01*
X0059869Y0080967D01*
X0059831Y0081058D01*
X0059058Y0081831D01*
X0058047Y0082250D01*
X0056953Y0082250D01*
X0055942Y0081831D01*
X0055169Y0081058D01*
X0054750Y0080047D01*
X0054750Y0078953D01*
X0055169Y0077942D01*
X0055681Y0077430D01*
X0055442Y0077331D01*
X0054669Y0076558D01*
X0054250Y0075547D01*
X0054250Y0074453D01*
X0054669Y0073442D01*
X0055442Y0072669D01*
X0055954Y0072457D01*
X0055954Y0071219D01*
X0055731Y0071758D01*
X0054958Y0072531D01*
X0053947Y0072950D01*
X0052853Y0072950D01*
X0051842Y0072531D01*
X0051069Y0071758D01*
X0050650Y0070747D01*
X0050650Y0069653D01*
X0051069Y0068642D01*
X0051311Y0068400D01*
X0051069Y0068158D01*
X0050650Y0067147D01*
X0050650Y0066053D01*
X0051069Y0065042D01*
X0051842Y0064269D01*
X0052853Y0063850D01*
X0053947Y0063850D01*
X0054653Y0064143D01*
X0056740Y0062056D01*
X0056738Y0062055D01*
X0056328Y0061818D01*
X0055993Y0061483D01*
X0055756Y0061073D01*
X0055633Y0060615D01*
X0055633Y0059000D01*
X0057608Y0059000D01*
X0057608Y0059000D01*
X0055633Y0059000D01*
X0055633Y0057385D01*
X0055756Y0056927D01*
X0055993Y0056517D01*
X0056328Y0056182D01*
X0056658Y0055991D01*
X0056350Y0055247D01*
X0056350Y0054153D01*
X0056769Y0053142D01*
X0057542Y0052369D01*
X0058553Y0051950D01*
X0059647Y0051950D01*
X0060647Y0052364D01*
X0061142Y0051869D01*
X0062153Y0051450D01*
X0062551Y0051450D01*
X0062969Y0050442D01*
X0063742Y0049669D01*
X0064753Y0049250D01*
X0065847Y0049250D01*
X0066631Y0049575D01*
X0066769Y0049242D01*
X0067542Y0048469D01*
X0068553Y0048050D01*
X0069647Y0048050D01*
X0070658Y0048469D01*
X0071431Y0049242D01*
X0071850Y0050253D01*
X0071850Y0051347D01*
X0071431Y0052358D01*
X0071339Y0052450D01*
X0071947Y0052450D01*
X0072958Y0052869D01*
X0073731Y0053642D01*
X0074031Y0054365D01*
X0074296Y0054100D01*
X0076411Y0054100D01*
X0077042Y0053469D01*
X0078053Y0053050D01*
X0079147Y0053050D01*
X0080158Y0053469D01*
X0080931Y0054242D01*
X0081350Y0055253D01*
X0081350Y0056347D01*
X0080931Y0057358D01*
X0080158Y0058131D01*
X0079147Y0058550D01*
X0078950Y0058550D01*
X0078950Y0058747D01*
X0080657Y0057632D02*
X0085000Y0057632D01*
X0087000Y0057632D02*
X0097633Y0057632D01*
X0098585Y0056033D02*
X0087000Y0056033D01*
X0085000Y0056033D02*
X0081350Y0056033D01*
X0081011Y0054435D02*
X0085000Y0054435D01*
X0085000Y0052836D02*
X0072879Y0052836D01*
X0071850Y0051238D02*
X0085000Y0051238D01*
X0087000Y0051238D02*
X0104639Y0051238D01*
X0105813Y0049639D02*
X0087000Y0049639D01*
X0085000Y0049639D02*
X0071596Y0049639D01*
X0063813Y0049639D02*
X0045000Y0049639D01*
X0043000Y0049639D02*
X0029596Y0049639D01*
X0029431Y0049242D02*
X0028658Y0048469D01*
X0027647Y0048050D01*
X0026553Y0048050D01*
X0025542Y0048469D01*
X0024769Y0049242D01*
X0024631Y0049575D01*
X0023847Y0049250D01*
X0022753Y0049250D01*
X0021742Y0049669D01*
X0020969Y0050442D01*
X0020551Y0051450D01*
X0020153Y0051450D01*
X0019142Y0051869D01*
X0018647Y0052364D01*
X0017647Y0051950D01*
X0016553Y0051950D01*
X0015542Y0052369D01*
X0014769Y0053142D01*
X0014350Y0054153D01*
X0014350Y0055247D01*
X0014658Y0055991D01*
X0014328Y0056182D01*
X0013993Y0056517D01*
X0013756Y0056927D01*
X0013633Y0057385D01*
X0013633Y0059000D01*
X0015608Y0059000D01*
X0015608Y0059000D01*
X0013633Y0059000D01*
X0013633Y0060615D01*
X0013756Y0061073D01*
X0013993Y0061483D01*
X0014328Y0061818D01*
X0014738Y0062055D01*
X0014740Y0062056D01*
X0012653Y0064143D01*
X0011947Y0063850D01*
X0010853Y0063850D01*
X0009842Y0064269D01*
X0009069Y0065042D01*
X0008650Y0066053D01*
X0008650Y0067147D01*
X0009069Y0068158D01*
X0009311Y0068400D01*
X0009069Y0068642D01*
X0008650Y0069653D01*
X0008650Y0070747D01*
X0009069Y0071758D01*
X0009842Y0072531D01*
X0010853Y0072950D01*
X0011947Y0072950D01*
X0012958Y0072531D01*
X0013731Y0071758D01*
X0013954Y0071219D01*
X0013954Y0072457D01*
X0013442Y0072669D01*
X0012669Y0073442D01*
X0012250Y0074453D01*
X0012250Y0075547D01*
X0012669Y0076558D01*
X0013442Y0077331D01*
X0013681Y0077430D01*
X0013169Y0077942D01*
X0012750Y0078953D01*
X0012750Y0080047D01*
X0013169Y0081058D01*
X0013942Y0081831D01*
X0014953Y0082250D01*
X0016047Y0082250D01*
X0017058Y0081831D01*
X0017831Y0081058D01*
X0017869Y0080967D01*
X0018553Y0081250D01*
X0019647Y0081250D01*
X0020647Y0080836D01*
X0021242Y0081431D01*
X0022253Y0081850D01*
X0023347Y0081850D01*
X0024358Y0081431D01*
X0024950Y0080839D01*
X0025442Y0081331D01*
X0026453Y0081750D01*
X0027547Y0081750D01*
X0028558Y0081331D01*
X0029024Y0080865D01*
X0029953Y0081250D01*
X0031047Y0081250D01*
X0032058Y0080831D01*
X0032831Y0080058D01*
X0033250Y0079047D01*
X0033250Y0077953D01*
X0032831Y0076942D01*
X0032058Y0076169D01*
X0031047Y0075750D01*
X0030650Y0075750D01*
X0029358Y0073904D01*
X0030974Y0073904D01*
X0031794Y0073084D01*
X0031794Y0072598D01*
X0032650Y0073454D01*
X0032650Y0074347D01*
X0033069Y0075358D01*
X0033842Y0076131D01*
X0034853Y0076550D01*
X0035947Y0076550D01*
X0036958Y0076131D01*
X0037731Y0075358D01*
X0038150Y0074347D01*
X0038150Y0073253D01*
X0037731Y0072242D01*
X0036958Y0071469D01*
X0035947Y0071050D01*
X0035054Y0071050D01*
X0034100Y0070096D01*
X0034100Y0069496D01*
X0033104Y0068500D01*
X0031304Y0066700D01*
X0028696Y0066700D01*
X0027700Y0067696D01*
X0027048Y0068348D01*
X0015656Y0068348D01*
X0020900Y0063104D01*
X0020900Y0061778D01*
X0025300Y0061778D01*
X0025300Y0061904D01*
X0027700Y0064304D01*
X0028696Y0065300D01*
X0032504Y0065300D01*
X0034904Y0062900D01*
X0035900Y0061904D01*
X0035900Y0060389D01*
X0036531Y0059758D01*
X0036950Y0058747D01*
X0036950Y0058550D01*
X0037147Y0058550D01*
X0038158Y0058131D01*
X0038931Y0057358D01*
X0039350Y0056347D01*
X0039350Y0055253D01*
X0038931Y0054242D01*
X0038158Y0053469D01*
X0037147Y0053050D01*
X0036053Y0053050D01*
X0035042Y0053469D01*
X0034411Y0054100D01*
X0032296Y0054100D01*
X0032031Y0054365D01*
X0031731Y0053642D01*
X0030958Y0052869D01*
X0029947Y0052450D01*
X0029339Y0052450D01*
X0029431Y0052358D01*
X0029850Y0051347D01*
X0029850Y0050253D01*
X0029431Y0049242D01*
X0029850Y0051238D02*
X0043000Y0051238D01*
X0045000Y0051238D02*
X0062639Y0051238D01*
X0057075Y0052836D02*
X0045000Y0052836D01*
X0045000Y0054435D02*
X0056350Y0054435D01*
X0056585Y0056033D02*
X0045000Y0056033D01*
X0043000Y0056033D02*
X0039350Y0056033D01*
X0039011Y0054435D02*
X0043000Y0054435D01*
X0043000Y0052836D02*
X0030879Y0052836D01*
X0038657Y0057632D02*
X0043000Y0057632D01*
X0045000Y0057632D02*
X0055633Y0057632D01*
X0055633Y0059230D02*
X0045000Y0059230D01*
X0043000Y0059230D02*
X0036750Y0059230D01*
X0035900Y0060829D02*
X0043000Y0060829D01*
X0043000Y0062427D02*
X0035377Y0062427D01*
X0033778Y0064026D02*
X0043000Y0064026D01*
X0045000Y0064026D02*
X0052429Y0064026D01*
X0054371Y0064026D02*
X0054770Y0064026D01*
X0056369Y0062427D02*
X0045000Y0062427D01*
X0045000Y0060829D02*
X0055690Y0060829D01*
X0061978Y0064026D02*
X0069422Y0064026D01*
X0067823Y0062427D02*
X0062900Y0062427D01*
X0060380Y0065624D02*
X0085000Y0065624D01*
X0087000Y0065624D02*
X0092828Y0065624D01*
X0092681Y0067223D02*
X0087000Y0067223D01*
X0085000Y0067223D02*
X0073827Y0067223D01*
X0075426Y0068821D02*
X0085000Y0068821D01*
X0087000Y0068821D02*
X0092994Y0068821D01*
X0092650Y0070420D02*
X0087000Y0070420D01*
X0087000Y0072018D02*
X0093329Y0072018D01*
X0096596Y0073617D02*
X0087000Y0073617D01*
X0085000Y0073617D02*
X0080150Y0073617D01*
X0079790Y0075215D02*
X0085000Y0075215D01*
X0087000Y0075215D02*
X0096250Y0075215D01*
X0096925Y0076814D02*
X0087000Y0076814D01*
X0085000Y0076814D02*
X0074703Y0076814D01*
X0075010Y0075215D02*
X0072276Y0075215D01*
X0073261Y0073617D02*
X0074650Y0073617D01*
X0076424Y0070420D02*
X0085000Y0070420D01*
X0085000Y0072018D02*
X0079507Y0072018D01*
X0070173Y0067223D02*
X0058781Y0067223D01*
X0055954Y0072018D02*
X0055471Y0072018D01*
X0054596Y0073617D02*
X0045000Y0073617D01*
X0043000Y0073617D02*
X0038150Y0073617D01*
X0037790Y0075215D02*
X0043000Y0075215D01*
X0045000Y0075215D02*
X0054250Y0075215D01*
X0054925Y0076814D02*
X0045000Y0076814D01*
X0043000Y0076814D02*
X0032703Y0076814D01*
X0033010Y0075215D02*
X0030276Y0075215D01*
X0031261Y0073617D02*
X0032650Y0073617D01*
X0034424Y0070420D02*
X0043000Y0070420D01*
X0043000Y0072018D02*
X0037507Y0072018D01*
X0033426Y0068821D02*
X0043000Y0068821D01*
X0045000Y0068821D02*
X0050994Y0068821D01*
X0050681Y0067223D02*
X0045000Y0067223D01*
X0043000Y0067223D02*
X0031827Y0067223D01*
X0028173Y0067223D02*
X0016781Y0067223D01*
X0018380Y0065624D02*
X0043000Y0065624D01*
X0045000Y0065624D02*
X0050828Y0065624D01*
X0050650Y0070420D02*
X0045000Y0070420D01*
X0045000Y0072018D02*
X0051329Y0072018D01*
X0054974Y0078412D02*
X0045000Y0078412D01*
X0045000Y0080011D02*
X0054750Y0080011D01*
X0055720Y0081609D02*
X0045000Y0081609D01*
X0043000Y0081609D02*
X0027886Y0081609D01*
X0026114Y0081609D02*
X0023928Y0081609D01*
X0021672Y0081609D02*
X0017280Y0081609D01*
X0013720Y0081609D02*
X0003800Y0081609D01*
X0003800Y0080011D02*
X0012750Y0080011D01*
X0012974Y0078412D02*
X0003800Y0078412D01*
X0003800Y0076814D02*
X0012925Y0076814D01*
X0012250Y0075215D02*
X0003800Y0075215D01*
X0003800Y0073617D02*
X0012596Y0073617D01*
X0013471Y0072018D02*
X0013954Y0072018D01*
X0009329Y0072018D02*
X0003800Y0072018D01*
X0003800Y0070420D02*
X0008650Y0070420D01*
X0008994Y0068821D02*
X0003800Y0068821D01*
X0003800Y0067223D02*
X0008681Y0067223D01*
X0008828Y0065624D02*
X0003800Y0065624D01*
X0003800Y0064026D02*
X0010429Y0064026D01*
X0012371Y0064026D02*
X0012770Y0064026D01*
X0014369Y0062427D02*
X0003800Y0062427D01*
X0003800Y0060829D02*
X0013690Y0060829D01*
X0013633Y0059230D02*
X0003800Y0059230D01*
X0003800Y0057632D02*
X0013633Y0057632D01*
X0014585Y0056033D02*
X0003800Y0056033D01*
X0003800Y0054435D02*
X0014350Y0054435D01*
X0015075Y0052836D02*
X0003800Y0052836D01*
X0003800Y0051238D02*
X0020639Y0051238D01*
X0021813Y0049639D02*
X0003800Y0049639D01*
X0020900Y0062427D02*
X0025823Y0062427D01*
X0027422Y0064026D02*
X0019978Y0064026D01*
X0033250Y0078412D02*
X0043000Y0078412D01*
X0043000Y0080011D02*
X0032851Y0080011D01*
X0043000Y0083208D02*
X0003800Y0083208D01*
X0045000Y0083208D02*
X0085000Y0083208D01*
X0085000Y0084200D02*
X0085000Y0045000D01*
X0045000Y0045000D01*
X0045000Y0084200D01*
X0085000Y0084200D01*
X0087000Y0084200D02*
X0127000Y0084200D01*
X0127000Y0045000D01*
X0087000Y0045000D01*
X0087000Y0084200D01*
X0087000Y0083208D02*
X0127000Y0083208D01*
X0127000Y0081609D02*
X0111886Y0081609D01*
X0110114Y0081609D02*
X0107928Y0081609D01*
X0105672Y0081609D02*
X0101280Y0081609D01*
X0097720Y0081609D02*
X0087000Y0081609D01*
X0085000Y0081609D02*
X0069886Y0081609D01*
X0068114Y0081609D02*
X0065928Y0081609D01*
X0063672Y0081609D02*
X0059280Y0081609D01*
X0074851Y0080011D02*
X0085000Y0080011D01*
X0085000Y0078412D02*
X0075250Y0078412D01*
X0087000Y0078412D02*
X0096974Y0078412D01*
X0096750Y0080011D02*
X0087000Y0080011D01*
X0097471Y0072018D02*
X0097954Y0072018D01*
X0100781Y0067223D02*
X0112173Y0067223D01*
X0115827Y0067223D02*
X0127000Y0067223D01*
X0127000Y0068821D02*
X0117426Y0068821D01*
X0118424Y0070420D02*
X0127000Y0070420D01*
X0127000Y0072018D02*
X0121507Y0072018D01*
X0122150Y0073617D02*
X0127000Y0073617D01*
X0127000Y0075215D02*
X0121790Y0075215D01*
X0117010Y0075215D02*
X0114276Y0075215D01*
X0115261Y0073617D02*
X0116650Y0073617D01*
X0116703Y0076814D02*
X0127000Y0076814D01*
X0127000Y0078412D02*
X0117250Y0078412D01*
X0116851Y0080011D02*
X0127000Y0080011D01*
X0129000Y0080011D02*
X0138750Y0080011D01*
X0138750Y0080047D02*
X0138750Y0078953D01*
X0139169Y0077942D01*
X0139681Y0077430D01*
X0139442Y0077331D01*
X0138669Y0076558D01*
X0138250Y0075547D01*
X0138250Y0074453D01*
X0138669Y0073442D01*
X0139442Y0072669D01*
X0139954Y0072457D01*
X0139954Y0071219D01*
X0139731Y0071758D01*
X0138958Y0072531D01*
X0137947Y0072950D01*
X0136853Y0072950D01*
X0135842Y0072531D01*
X0135069Y0071758D01*
X0134650Y0070747D01*
X0134650Y0069653D01*
X0135069Y0068642D01*
X0135311Y0068400D01*
X0135069Y0068158D01*
X0134650Y0067147D01*
X0134650Y0066053D01*
X0135069Y0065042D01*
X0135842Y0064269D01*
X0136853Y0063850D01*
X0137947Y0063850D01*
X0138653Y0064143D01*
X0140740Y0062056D01*
X0140738Y0062055D01*
X0140328Y0061818D01*
X0139993Y0061483D01*
X0139756Y0061073D01*
X0139633Y0060615D01*
X0139633Y0059000D01*
X0141608Y0059000D01*
X0141608Y0059000D01*
X0139633Y0059000D01*
X0139633Y0057385D01*
X0139756Y0056927D01*
X0139993Y0056517D01*
X0140328Y0056182D01*
X0140658Y0055991D01*
X0140350Y0055247D01*
X0140350Y0054153D01*
X0140769Y0053142D01*
X0141542Y0052369D01*
X0142553Y0051950D01*
X0143647Y0051950D01*
X0144647Y0052364D01*
X0145142Y0051869D01*
X0146153Y0051450D01*
X0146551Y0051450D01*
X0146969Y0050442D01*
X0147742Y0049669D01*
X0148753Y0049250D01*
X0149847Y0049250D01*
X0150631Y0049575D01*
X0150769Y0049242D01*
X0151542Y0048469D01*
X0152553Y0048050D01*
X0153647Y0048050D01*
X0154658Y0048469D01*
X0155431Y0049242D01*
X0155850Y0050253D01*
X0155850Y0051347D01*
X0155431Y0052358D01*
X0155339Y0052450D01*
X0155947Y0052450D01*
X0156958Y0052869D01*
X0157731Y0053642D01*
X0158031Y0054365D01*
X0158296Y0054100D01*
X0160411Y0054100D01*
X0161042Y0053469D01*
X0162053Y0053050D01*
X0163147Y0053050D01*
X0164158Y0053469D01*
X0164931Y0054242D01*
X0165350Y0055253D01*
X0165350Y0056347D01*
X0164931Y0057358D01*
X0164158Y0058131D01*
X0163147Y0058550D01*
X0162950Y0058550D01*
X0162950Y0058747D01*
X0162531Y0059758D01*
X0161900Y0060389D01*
X0161900Y0061904D01*
X0160904Y0062900D01*
X0158504Y0065300D01*
X0154696Y0065300D01*
X0153700Y0064304D01*
X0151300Y0061904D01*
X0151300Y0061778D01*
X0146900Y0061778D01*
X0146900Y0063104D01*
X0141656Y0068348D01*
X0153048Y0068348D01*
X0153700Y0067696D01*
X0154696Y0066700D01*
X0157304Y0066700D01*
X0159104Y0068500D01*
X0160100Y0069496D01*
X0160100Y0070096D01*
X0161054Y0071050D01*
X0161947Y0071050D01*
X0162958Y0071469D01*
X0163731Y0072242D01*
X0164150Y0073253D01*
X0164150Y0074347D01*
X0163731Y0075358D01*
X0162958Y0076131D01*
X0161947Y0076550D01*
X0160853Y0076550D01*
X0159842Y0076131D01*
X0159069Y0075358D01*
X0158650Y0074347D01*
X0158650Y0073454D01*
X0157794Y0072598D01*
X0157794Y0073084D01*
X0156974Y0073904D01*
X0155358Y0073904D01*
X0156650Y0075750D01*
X0157047Y0075750D01*
X0158058Y0076169D01*
X0158831Y0076942D01*
X0159250Y0077953D01*
X0159250Y0079047D01*
X0158831Y0080058D01*
X0158058Y0080831D01*
X0157047Y0081250D01*
X0155953Y0081250D01*
X0155024Y0080865D01*
X0154558Y0081331D01*
X0153547Y0081750D01*
X0152453Y0081750D01*
X0151442Y0081331D01*
X0150950Y0080839D01*
X0150358Y0081431D01*
X0149347Y0081850D01*
X0148253Y0081850D01*
X0147242Y0081431D01*
X0146647Y0080836D01*
X0145647Y0081250D01*
X0144553Y0081250D01*
X0143869Y0080967D01*
X0143831Y0081058D01*
X0143058Y0081831D01*
X0142047Y0082250D01*
X0140953Y0082250D01*
X0139942Y0081831D01*
X0139169Y0081058D01*
X0138750Y0080047D01*
X0138974Y0078412D02*
X0129000Y0078412D01*
X0129000Y0076814D02*
X0138925Y0076814D01*
X0138250Y0075215D02*
X0129000Y0075215D01*
X0129000Y0073617D02*
X0138596Y0073617D01*
X0139471Y0072018D02*
X0139954Y0072018D01*
X0135329Y0072018D02*
X0129000Y0072018D01*
X0129000Y0070420D02*
X0134650Y0070420D01*
X0134994Y0068821D02*
X0129000Y0068821D01*
X0129000Y0067223D02*
X0134681Y0067223D01*
X0134828Y0065624D02*
X0129000Y0065624D01*
X0129000Y0064026D02*
X0136429Y0064026D01*
X0138371Y0064026D02*
X0138770Y0064026D01*
X0140369Y0062427D02*
X0129000Y0062427D01*
X0129000Y0060829D02*
X0139690Y0060829D01*
X0139633Y0059230D02*
X0129000Y0059230D01*
X0129000Y0057632D02*
X0139633Y0057632D01*
X0140585Y0056033D02*
X0129000Y0056033D01*
X0129000Y0054435D02*
X0140350Y0054435D01*
X0141075Y0052836D02*
X0129000Y0052836D01*
X0129000Y0051238D02*
X0146639Y0051238D01*
X0147813Y0049639D02*
X0129000Y0049639D01*
X0129000Y0048041D02*
X0168200Y0048041D01*
X0168200Y0049639D02*
X0155596Y0049639D01*
X0155850Y0051238D02*
X0168200Y0051238D01*
X0168200Y0052836D02*
X0156879Y0052836D01*
X0165011Y0054435D02*
X0168200Y0054435D01*
X0168200Y0056033D02*
X0165350Y0056033D01*
X0164657Y0057632D02*
X0168200Y0057632D01*
X0168200Y0059230D02*
X0162750Y0059230D01*
X0161900Y0060829D02*
X0168200Y0060829D01*
X0168200Y0062427D02*
X0161377Y0062427D01*
X0159778Y0064026D02*
X0168200Y0064026D01*
X0168200Y0065624D02*
X0144380Y0065624D01*
X0145978Y0064026D02*
X0153422Y0064026D01*
X0151823Y0062427D02*
X0146900Y0062427D01*
X0142781Y0067223D02*
X0154173Y0067223D01*
X0157827Y0067223D02*
X0168200Y0067223D01*
X0168200Y0068821D02*
X0159426Y0068821D01*
X0160424Y0070420D02*
X0168200Y0070420D01*
X0168200Y0072018D02*
X0163507Y0072018D01*
X0164150Y0073617D02*
X0168200Y0073617D01*
X0168200Y0075215D02*
X0163790Y0075215D01*
X0168200Y0076814D02*
X0158703Y0076814D01*
X0159010Y0075215D02*
X0156276Y0075215D01*
X0157261Y0073617D02*
X0158650Y0073617D01*
X0159250Y0078412D02*
X0168200Y0078412D01*
X0168200Y0080011D02*
X0158851Y0080011D01*
X0153886Y0081609D02*
X0168200Y0081609D01*
X0168200Y0083208D02*
X0129000Y0083208D01*
X0129000Y0084200D02*
X0168200Y0084200D01*
X0168200Y0045000D01*
X0129000Y0045000D01*
X0129000Y0084200D01*
X0129000Y0081609D02*
X0139720Y0081609D01*
X0143280Y0081609D02*
X0147672Y0081609D01*
X0149928Y0081609D02*
X0152114Y0081609D01*
X0098350Y0054435D02*
X0087000Y0054435D01*
X0087000Y0052836D02*
X0099075Y0052836D01*
X0087000Y0046442D02*
X0127000Y0046442D01*
X0129000Y0046442D02*
X0168200Y0046442D01*
X0168200Y0043000D02*
X0168200Y0003800D01*
X0129000Y0003800D01*
X0129000Y0043000D01*
X0168200Y0043000D01*
X0168200Y0041647D02*
X0129000Y0041647D01*
X0129000Y0040048D02*
X0140466Y0040048D01*
X0140953Y0040250D02*
X0139942Y0039831D01*
X0139169Y0039058D01*
X0138750Y0038047D01*
X0138750Y0036953D01*
X0139169Y0035942D01*
X0139681Y0035430D01*
X0139442Y0035331D01*
X0138669Y0034558D01*
X0138250Y0033547D01*
X0138250Y0032453D01*
X0138669Y0031442D01*
X0139442Y0030669D01*
X0139954Y0030457D01*
X0139954Y0029219D01*
X0139731Y0029758D01*
X0138958Y0030531D01*
X0137947Y0030950D01*
X0136853Y0030950D01*
X0135842Y0030531D01*
X0135069Y0029758D01*
X0134650Y0028747D01*
X0134650Y0027653D01*
X0135069Y0026642D01*
X0135311Y0026400D01*
X0135069Y0026158D01*
X0134650Y0025147D01*
X0134650Y0024053D01*
X0135069Y0023042D01*
X0135842Y0022269D01*
X0136853Y0021850D01*
X0137947Y0021850D01*
X0138653Y0022143D01*
X0140740Y0020056D01*
X0140738Y0020055D01*
X0140328Y0019818D01*
X0139993Y0019483D01*
X0139756Y0019073D01*
X0139633Y0018615D01*
X0139633Y0017000D01*
X0141608Y0017000D01*
X0141608Y0017000D01*
X0139633Y0017000D01*
X0139633Y0015385D01*
X0139756Y0014927D01*
X0139993Y0014517D01*
X0140328Y0014182D01*
X0140658Y0013991D01*
X0140350Y0013247D01*
X0140350Y0012153D01*
X0140769Y0011142D01*
X0141542Y0010369D01*
X0142553Y0009950D01*
X0143647Y0009950D01*
X0144647Y0010364D01*
X0145142Y0009869D01*
X0146153Y0009450D01*
X0146551Y0009450D01*
X0146969Y0008442D01*
X0147742Y0007669D01*
X0148753Y0007250D01*
X0149847Y0007250D01*
X0150631Y0007575D01*
X0150769Y0007242D01*
X0151542Y0006469D01*
X0152553Y0006050D01*
X0153647Y0006050D01*
X0154658Y0006469D01*
X0155431Y0007242D01*
X0155850Y0008253D01*
X0155850Y0009347D01*
X0155431Y0010358D01*
X0155339Y0010450D01*
X0155947Y0010450D01*
X0156958Y0010869D01*
X0157731Y0011642D01*
X0158031Y0012365D01*
X0158296Y0012100D01*
X0160411Y0012100D01*
X0161042Y0011469D01*
X0162053Y0011050D01*
X0163147Y0011050D01*
X0164158Y0011469D01*
X0164931Y0012242D01*
X0165350Y0013253D01*
X0165350Y0014347D01*
X0164931Y0015358D01*
X0164158Y0016131D01*
X0163147Y0016550D01*
X0162950Y0016550D01*
X0162950Y0016747D01*
X0162531Y0017758D01*
X0161900Y0018389D01*
X0161900Y0019904D01*
X0160904Y0020900D01*
X0158504Y0023300D01*
X0154696Y0023300D01*
X0153700Y0022304D01*
X0151300Y0019904D01*
X0151300Y0019778D01*
X0146900Y0019778D01*
X0146900Y0021104D01*
X0141656Y0026348D01*
X0153048Y0026348D01*
X0153700Y0025696D01*
X0154696Y0024700D01*
X0157304Y0024700D01*
X0159104Y0026500D01*
X0160100Y0027496D01*
X0160100Y0028096D01*
X0161054Y0029050D01*
X0161947Y0029050D01*
X0162958Y0029469D01*
X0163731Y0030242D01*
X0164150Y0031253D01*
X0164150Y0032347D01*
X0163731Y0033358D01*
X0162958Y0034131D01*
X0161947Y0034550D01*
X0160853Y0034550D01*
X0159842Y0034131D01*
X0159069Y0033358D01*
X0158650Y0032347D01*
X0158650Y0031454D01*
X0157794Y0030598D01*
X0157794Y0031084D01*
X0156974Y0031904D01*
X0155358Y0031904D01*
X0156650Y0033750D01*
X0157047Y0033750D01*
X0158058Y0034169D01*
X0158831Y0034942D01*
X0159250Y0035953D01*
X0159250Y0037047D01*
X0158831Y0038058D01*
X0158058Y0038831D01*
X0157047Y0039250D01*
X0155953Y0039250D01*
X0155024Y0038865D01*
X0154558Y0039331D01*
X0153547Y0039750D01*
X0152453Y0039750D01*
X0151442Y0039331D01*
X0150950Y0038839D01*
X0150358Y0039431D01*
X0149347Y0039850D01*
X0148253Y0039850D01*
X0147242Y0039431D01*
X0146647Y0038836D01*
X0145647Y0039250D01*
X0144553Y0039250D01*
X0143869Y0038967D01*
X0143831Y0039058D01*
X0143058Y0039831D01*
X0142047Y0040250D01*
X0140953Y0040250D01*
X0142534Y0040048D02*
X0168200Y0040048D01*
X0168200Y0038450D02*
X0158439Y0038450D01*
X0159250Y0036851D02*
X0168200Y0036851D01*
X0168200Y0035253D02*
X0158960Y0035253D01*
X0159365Y0033654D02*
X0156583Y0033654D01*
X0155464Y0032056D02*
X0158650Y0032056D01*
X0163435Y0033654D02*
X0168200Y0033654D01*
X0168200Y0032056D02*
X0164150Y0032056D01*
X0163820Y0030457D02*
X0168200Y0030457D01*
X0168200Y0028859D02*
X0160863Y0028859D01*
X0159864Y0027260D02*
X0168200Y0027260D01*
X0168200Y0025662D02*
X0158266Y0025662D01*
X0153734Y0025662D02*
X0142343Y0025662D01*
X0143941Y0024063D02*
X0168200Y0024063D01*
X0168200Y0022465D02*
X0159340Y0022465D01*
X0160938Y0020866D02*
X0168200Y0020866D01*
X0168200Y0019268D02*
X0161900Y0019268D01*
X0162568Y0017669D02*
X0168200Y0017669D01*
X0168200Y0016070D02*
X0164219Y0016070D01*
X0165298Y0014472D02*
X0168200Y0014472D01*
X0168200Y0012873D02*
X0165193Y0012873D01*
X0163690Y0011275D02*
X0168200Y0011275D01*
X0168200Y0009676D02*
X0155714Y0009676D01*
X0155777Y0008078D02*
X0168200Y0008078D01*
X0168200Y0006479D02*
X0154668Y0006479D01*
X0151531Y0006479D02*
X0129000Y0006479D01*
X0129000Y0004881D02*
X0168200Y0004881D01*
X0161510Y0011275D02*
X0157364Y0011275D01*
X0147333Y0008078D02*
X0129000Y0008078D01*
X0129000Y0009676D02*
X0145606Y0009676D01*
X0140714Y0011275D02*
X0129000Y0011275D01*
X0129000Y0012873D02*
X0140350Y0012873D01*
X0140038Y0014472D02*
X0129000Y0014472D01*
X0129000Y0016070D02*
X0139633Y0016070D01*
X0139633Y0017669D02*
X0129000Y0017669D01*
X0129000Y0019268D02*
X0139868Y0019268D01*
X0139930Y0020866D02*
X0129000Y0020866D01*
X0129000Y0022465D02*
X0135646Y0022465D01*
X0134650Y0024063D02*
X0129000Y0024063D01*
X0129000Y0025662D02*
X0134863Y0025662D01*
X0134813Y0027260D02*
X0129000Y0027260D01*
X0129000Y0028859D02*
X0134696Y0028859D01*
X0135768Y0030457D02*
X0129000Y0030457D01*
X0129000Y0032056D02*
X0138415Y0032056D01*
X0138294Y0033654D02*
X0129000Y0033654D01*
X0129000Y0035253D02*
X0139364Y0035253D01*
X0138792Y0036851D02*
X0129000Y0036851D01*
X0129000Y0038450D02*
X0138917Y0038450D01*
X0127000Y0038450D02*
X0116439Y0038450D01*
X0117250Y0036851D02*
X0127000Y0036851D01*
X0127000Y0035253D02*
X0116960Y0035253D01*
X0117365Y0033654D02*
X0114583Y0033654D01*
X0113464Y0032056D02*
X0116650Y0032056D01*
X0121435Y0033654D02*
X0127000Y0033654D01*
X0127000Y0032056D02*
X0122150Y0032056D01*
X0121820Y0030457D02*
X0127000Y0030457D01*
X0127000Y0028859D02*
X0118863Y0028859D01*
X0117864Y0027260D02*
X0127000Y0027260D01*
X0127000Y0025662D02*
X0116266Y0025662D01*
X0111734Y0025662D02*
X0100343Y0025662D01*
X0101941Y0024063D02*
X0127000Y0024063D01*
X0127000Y0022465D02*
X0117340Y0022465D01*
X0118938Y0020866D02*
X0127000Y0020866D01*
X0127000Y0019268D02*
X0119900Y0019268D01*
X0120568Y0017669D02*
X0127000Y0017669D01*
X0127000Y0016070D02*
X0122219Y0016070D01*
X0123298Y0014472D02*
X0127000Y0014472D01*
X0127000Y0012873D02*
X0123193Y0012873D01*
X0121690Y0011275D02*
X0127000Y0011275D01*
X0127000Y0009676D02*
X0113714Y0009676D01*
X0113777Y0008078D02*
X0127000Y0008078D01*
X0119510Y0011275D02*
X0115364Y0011275D01*
X0105333Y0008078D02*
X0087000Y0008078D01*
X0087000Y0009676D02*
X0103606Y0009676D01*
X0098714Y0011275D02*
X0087000Y0011275D01*
X0085000Y0011275D02*
X0079690Y0011275D01*
X0077510Y0011275D02*
X0073364Y0011275D01*
X0071714Y0009676D02*
X0085000Y0009676D01*
X0085000Y0008078D02*
X0071777Y0008078D01*
X0063333Y0008078D02*
X0045000Y0008078D01*
X0045000Y0009676D02*
X0061606Y0009676D01*
X0078568Y0017669D02*
X0085000Y0017669D01*
X0085000Y0019268D02*
X0077900Y0019268D01*
X0076938Y0020866D02*
X0085000Y0020866D01*
X0087000Y0020866D02*
X0097930Y0020866D01*
X0097868Y0019268D02*
X0087000Y0019268D01*
X0087000Y0017669D02*
X0097633Y0017669D01*
X0097633Y0016070D02*
X0087000Y0016070D01*
X0085000Y0016070D02*
X0080219Y0016070D01*
X0081298Y0014472D02*
X0085000Y0014472D01*
X0087000Y0014472D02*
X0098038Y0014472D01*
X0098350Y0012873D02*
X0087000Y0012873D01*
X0085000Y0012873D02*
X0081193Y0012873D01*
X0085000Y0022465D02*
X0075340Y0022465D01*
X0087000Y0022465D02*
X0093646Y0022465D01*
X0103540Y0022465D02*
X0111860Y0022465D01*
X0110262Y0020866D02*
X0104900Y0020866D01*
X0097953Y0030457D02*
X0097032Y0030457D01*
X0096415Y0032056D02*
X0087000Y0032056D01*
X0085000Y0032056D02*
X0080150Y0032056D01*
X0079820Y0030457D02*
X0085000Y0030457D01*
X0087000Y0030457D02*
X0093768Y0030457D01*
X0096294Y0033654D02*
X0087000Y0033654D01*
X0085000Y0033654D02*
X0079435Y0033654D01*
X0075365Y0033654D02*
X0072583Y0033654D01*
X0071464Y0032056D02*
X0074650Y0032056D01*
X0074960Y0035253D02*
X0085000Y0035253D01*
X0085000Y0036851D02*
X0075250Y0036851D01*
X0074439Y0038450D02*
X0085000Y0038450D01*
X0087000Y0038450D02*
X0096917Y0038450D01*
X0096792Y0036851D02*
X0087000Y0036851D01*
X0087000Y0035253D02*
X0097364Y0035253D01*
X0085000Y0046442D02*
X0045000Y0046442D01*
X0077377Y0062427D02*
X0085000Y0062427D01*
X0085000Y0060829D02*
X0077900Y0060829D01*
X0075778Y0064026D02*
X0085000Y0064026D01*
X0087000Y0064026D02*
X0094429Y0064026D01*
X0096371Y0064026D02*
X0096770Y0064026D01*
X0139032Y0030457D02*
X0139953Y0030457D01*
X0145540Y0022465D02*
X0153860Y0022465D01*
X0152262Y0020866D02*
X0146900Y0020866D01*
M02*
