G75*
%MOIN*%
%OFA0B0*%
%FSLAX25Y25*%
%IPPOS*%
%LPD*%
%AMOC8*
5,1,8,0,0,1.08239X$1,22.5*
%
%ADD10C,0.00000*%
%ADD11C,0.01350*%
%ADD12C,0.00600*%
%ADD13C,0.02700*%
D10*
X0001000Y0001000D02*
X0171000Y0001000D01*
X0171000Y0087000D01*
X0001000Y0087000D01*
X0001000Y0001000D01*
D11*
X0011625Y0019175D02*
X0011625Y0021825D01*
X0011775Y0021825D01*
X0011775Y0019175D01*
X0011625Y0019175D01*
X0011625Y0020524D02*
X0011775Y0020524D01*
X0014125Y0021825D02*
X0014125Y0019175D01*
X0014125Y0021825D02*
X0014275Y0021825D01*
X0014275Y0019175D01*
X0014125Y0019175D01*
X0014125Y0020524D02*
X0014275Y0020524D01*
X0016625Y0021825D02*
X0016625Y0019175D01*
X0016625Y0021825D02*
X0016775Y0021825D01*
X0016775Y0019175D01*
X0016625Y0019175D01*
X0016625Y0020524D02*
X0016775Y0020524D01*
X0019125Y0021825D02*
X0019125Y0019175D01*
X0019125Y0021825D02*
X0019275Y0021825D01*
X0019275Y0019175D01*
X0019125Y0019175D01*
X0019125Y0020524D02*
X0019275Y0020524D01*
X0021625Y0021825D02*
X0021625Y0019175D01*
X0021625Y0021825D02*
X0021775Y0021825D01*
X0021775Y0019175D01*
X0021625Y0019175D01*
X0021625Y0020524D02*
X0021775Y0020524D01*
X0024125Y0021825D02*
X0024125Y0019175D01*
X0024125Y0021825D02*
X0024275Y0021825D01*
X0024275Y0019175D01*
X0024125Y0019175D01*
X0024125Y0020524D02*
X0024275Y0020524D01*
X0026625Y0021825D02*
X0026625Y0019175D01*
X0026625Y0021825D02*
X0026775Y0021825D01*
X0026775Y0019175D01*
X0026625Y0019175D01*
X0026625Y0020524D02*
X0026775Y0020524D01*
X0029125Y0021825D02*
X0029125Y0019175D01*
X0029125Y0021825D02*
X0029275Y0021825D01*
X0029275Y0019175D01*
X0029125Y0019175D01*
X0029125Y0020524D02*
X0029275Y0020524D01*
X0031625Y0021825D02*
X0031625Y0019175D01*
X0031625Y0021825D02*
X0031775Y0021825D01*
X0031775Y0019175D01*
X0031625Y0019175D01*
X0031625Y0020524D02*
X0031775Y0020524D01*
X0034125Y0021825D02*
X0034125Y0019175D01*
X0034125Y0021825D02*
X0034275Y0021825D01*
X0034275Y0019175D01*
X0034125Y0019175D01*
X0034125Y0020524D02*
X0034275Y0020524D01*
X0031625Y0024175D02*
X0031625Y0026825D01*
X0031775Y0026825D01*
X0031775Y0024175D01*
X0031625Y0024175D01*
X0031625Y0025524D02*
X0031775Y0025524D01*
X0029125Y0026825D02*
X0029125Y0024175D01*
X0029125Y0026825D02*
X0029275Y0026825D01*
X0029275Y0024175D01*
X0029125Y0024175D01*
X0029125Y0025524D02*
X0029275Y0025524D01*
X0026625Y0026825D02*
X0026625Y0024175D01*
X0026625Y0026825D02*
X0026775Y0026825D01*
X0026775Y0024175D01*
X0026625Y0024175D01*
X0026625Y0025524D02*
X0026775Y0025524D01*
X0024125Y0026825D02*
X0024125Y0024175D01*
X0024125Y0026825D02*
X0024275Y0026825D01*
X0024275Y0024175D01*
X0024125Y0024175D01*
X0024125Y0025524D02*
X0024275Y0025524D01*
X0021625Y0026825D02*
X0021625Y0024175D01*
X0021625Y0026825D02*
X0021775Y0026825D01*
X0021775Y0024175D01*
X0021625Y0024175D01*
X0021625Y0025524D02*
X0021775Y0025524D01*
X0019125Y0026825D02*
X0019125Y0024175D01*
X0019125Y0026825D02*
X0019275Y0026825D01*
X0019275Y0024175D01*
X0019125Y0024175D01*
X0019125Y0025524D02*
X0019275Y0025524D01*
X0016625Y0026825D02*
X0016625Y0024175D01*
X0016625Y0026825D02*
X0016775Y0026825D01*
X0016775Y0024175D01*
X0016625Y0024175D01*
X0016625Y0025524D02*
X0016775Y0025524D01*
X0014125Y0026825D02*
X0014125Y0024175D01*
X0014125Y0026825D02*
X0014275Y0026825D01*
X0014275Y0024175D01*
X0014125Y0024175D01*
X0014125Y0025524D02*
X0014275Y0025524D01*
X0053625Y0021825D02*
X0053625Y0019175D01*
X0053625Y0021825D02*
X0053775Y0021825D01*
X0053775Y0019175D01*
X0053625Y0019175D01*
X0053625Y0020524D02*
X0053775Y0020524D01*
X0056125Y0021825D02*
X0056125Y0019175D01*
X0056125Y0021825D02*
X0056275Y0021825D01*
X0056275Y0019175D01*
X0056125Y0019175D01*
X0056125Y0020524D02*
X0056275Y0020524D01*
X0058625Y0021825D02*
X0058625Y0019175D01*
X0058625Y0021825D02*
X0058775Y0021825D01*
X0058775Y0019175D01*
X0058625Y0019175D01*
X0058625Y0020524D02*
X0058775Y0020524D01*
X0061125Y0021825D02*
X0061125Y0019175D01*
X0061125Y0021825D02*
X0061275Y0021825D01*
X0061275Y0019175D01*
X0061125Y0019175D01*
X0061125Y0020524D02*
X0061275Y0020524D01*
X0063625Y0021825D02*
X0063625Y0019175D01*
X0063625Y0021825D02*
X0063775Y0021825D01*
X0063775Y0019175D01*
X0063625Y0019175D01*
X0063625Y0020524D02*
X0063775Y0020524D01*
X0066125Y0021825D02*
X0066125Y0019175D01*
X0066125Y0021825D02*
X0066275Y0021825D01*
X0066275Y0019175D01*
X0066125Y0019175D01*
X0066125Y0020524D02*
X0066275Y0020524D01*
X0068625Y0021825D02*
X0068625Y0019175D01*
X0068625Y0021825D02*
X0068775Y0021825D01*
X0068775Y0019175D01*
X0068625Y0019175D01*
X0068625Y0020524D02*
X0068775Y0020524D01*
X0071125Y0021825D02*
X0071125Y0019175D01*
X0071125Y0021825D02*
X0071275Y0021825D01*
X0071275Y0019175D01*
X0071125Y0019175D01*
X0071125Y0020524D02*
X0071275Y0020524D01*
X0073625Y0021825D02*
X0073625Y0019175D01*
X0073625Y0021825D02*
X0073775Y0021825D01*
X0073775Y0019175D01*
X0073625Y0019175D01*
X0073625Y0020524D02*
X0073775Y0020524D01*
X0076125Y0021825D02*
X0076125Y0019175D01*
X0076125Y0021825D02*
X0076275Y0021825D01*
X0076275Y0019175D01*
X0076125Y0019175D01*
X0076125Y0020524D02*
X0076275Y0020524D01*
X0073625Y0024175D02*
X0073625Y0026825D01*
X0073775Y0026825D01*
X0073775Y0024175D01*
X0073625Y0024175D01*
X0073625Y0025524D02*
X0073775Y0025524D01*
X0071125Y0026825D02*
X0071125Y0024175D01*
X0071125Y0026825D02*
X0071275Y0026825D01*
X0071275Y0024175D01*
X0071125Y0024175D01*
X0071125Y0025524D02*
X0071275Y0025524D01*
X0068625Y0026825D02*
X0068625Y0024175D01*
X0068625Y0026825D02*
X0068775Y0026825D01*
X0068775Y0024175D01*
X0068625Y0024175D01*
X0068625Y0025524D02*
X0068775Y0025524D01*
X0066125Y0026825D02*
X0066125Y0024175D01*
X0066125Y0026825D02*
X0066275Y0026825D01*
X0066275Y0024175D01*
X0066125Y0024175D01*
X0066125Y0025524D02*
X0066275Y0025524D01*
X0063625Y0026825D02*
X0063625Y0024175D01*
X0063625Y0026825D02*
X0063775Y0026825D01*
X0063775Y0024175D01*
X0063625Y0024175D01*
X0063625Y0025524D02*
X0063775Y0025524D01*
X0061125Y0026825D02*
X0061125Y0024175D01*
X0061125Y0026825D02*
X0061275Y0026825D01*
X0061275Y0024175D01*
X0061125Y0024175D01*
X0061125Y0025524D02*
X0061275Y0025524D01*
X0058625Y0026825D02*
X0058625Y0024175D01*
X0058625Y0026825D02*
X0058775Y0026825D01*
X0058775Y0024175D01*
X0058625Y0024175D01*
X0058625Y0025524D02*
X0058775Y0025524D01*
X0056125Y0026825D02*
X0056125Y0024175D01*
X0056125Y0026825D02*
X0056275Y0026825D01*
X0056275Y0024175D01*
X0056125Y0024175D01*
X0056125Y0025524D02*
X0056275Y0025524D01*
X0095625Y0021825D02*
X0095625Y0019175D01*
X0095625Y0021825D02*
X0095775Y0021825D01*
X0095775Y0019175D01*
X0095625Y0019175D01*
X0095625Y0020524D02*
X0095775Y0020524D01*
X0098125Y0021825D02*
X0098125Y0019175D01*
X0098125Y0021825D02*
X0098275Y0021825D01*
X0098275Y0019175D01*
X0098125Y0019175D01*
X0098125Y0020524D02*
X0098275Y0020524D01*
X0100625Y0021825D02*
X0100625Y0019175D01*
X0100625Y0021825D02*
X0100775Y0021825D01*
X0100775Y0019175D01*
X0100625Y0019175D01*
X0100625Y0020524D02*
X0100775Y0020524D01*
X0103125Y0021825D02*
X0103125Y0019175D01*
X0103125Y0021825D02*
X0103275Y0021825D01*
X0103275Y0019175D01*
X0103125Y0019175D01*
X0103125Y0020524D02*
X0103275Y0020524D01*
X0105625Y0021825D02*
X0105625Y0019175D01*
X0105625Y0021825D02*
X0105775Y0021825D01*
X0105775Y0019175D01*
X0105625Y0019175D01*
X0105625Y0020524D02*
X0105775Y0020524D01*
X0108125Y0021825D02*
X0108125Y0019175D01*
X0108125Y0021825D02*
X0108275Y0021825D01*
X0108275Y0019175D01*
X0108125Y0019175D01*
X0108125Y0020524D02*
X0108275Y0020524D01*
X0110625Y0021825D02*
X0110625Y0019175D01*
X0110625Y0021825D02*
X0110775Y0021825D01*
X0110775Y0019175D01*
X0110625Y0019175D01*
X0110625Y0020524D02*
X0110775Y0020524D01*
X0113125Y0021825D02*
X0113125Y0019175D01*
X0113125Y0021825D02*
X0113275Y0021825D01*
X0113275Y0019175D01*
X0113125Y0019175D01*
X0113125Y0020524D02*
X0113275Y0020524D01*
X0115625Y0021825D02*
X0115625Y0019175D01*
X0115625Y0021825D02*
X0115775Y0021825D01*
X0115775Y0019175D01*
X0115625Y0019175D01*
X0115625Y0020524D02*
X0115775Y0020524D01*
X0118125Y0021825D02*
X0118125Y0019175D01*
X0118125Y0021825D02*
X0118275Y0021825D01*
X0118275Y0019175D01*
X0118125Y0019175D01*
X0118125Y0020524D02*
X0118275Y0020524D01*
X0115625Y0024175D02*
X0115625Y0026825D01*
X0115775Y0026825D01*
X0115775Y0024175D01*
X0115625Y0024175D01*
X0115625Y0025524D02*
X0115775Y0025524D01*
X0113125Y0026825D02*
X0113125Y0024175D01*
X0113125Y0026825D02*
X0113275Y0026825D01*
X0113275Y0024175D01*
X0113125Y0024175D01*
X0113125Y0025524D02*
X0113275Y0025524D01*
X0110625Y0026825D02*
X0110625Y0024175D01*
X0110625Y0026825D02*
X0110775Y0026825D01*
X0110775Y0024175D01*
X0110625Y0024175D01*
X0110625Y0025524D02*
X0110775Y0025524D01*
X0108125Y0026825D02*
X0108125Y0024175D01*
X0108125Y0026825D02*
X0108275Y0026825D01*
X0108275Y0024175D01*
X0108125Y0024175D01*
X0108125Y0025524D02*
X0108275Y0025524D01*
X0105625Y0026825D02*
X0105625Y0024175D01*
X0105625Y0026825D02*
X0105775Y0026825D01*
X0105775Y0024175D01*
X0105625Y0024175D01*
X0105625Y0025524D02*
X0105775Y0025524D01*
X0103125Y0026825D02*
X0103125Y0024175D01*
X0103125Y0026825D02*
X0103275Y0026825D01*
X0103275Y0024175D01*
X0103125Y0024175D01*
X0103125Y0025524D02*
X0103275Y0025524D01*
X0100625Y0026825D02*
X0100625Y0024175D01*
X0100625Y0026825D02*
X0100775Y0026825D01*
X0100775Y0024175D01*
X0100625Y0024175D01*
X0100625Y0025524D02*
X0100775Y0025524D01*
X0098125Y0026825D02*
X0098125Y0024175D01*
X0098125Y0026825D02*
X0098275Y0026825D01*
X0098275Y0024175D01*
X0098125Y0024175D01*
X0098125Y0025524D02*
X0098275Y0025524D01*
X0137625Y0021825D02*
X0137625Y0019175D01*
X0137625Y0021825D02*
X0137775Y0021825D01*
X0137775Y0019175D01*
X0137625Y0019175D01*
X0137625Y0020524D02*
X0137775Y0020524D01*
X0140125Y0021825D02*
X0140125Y0019175D01*
X0140125Y0021825D02*
X0140275Y0021825D01*
X0140275Y0019175D01*
X0140125Y0019175D01*
X0140125Y0020524D02*
X0140275Y0020524D01*
X0142625Y0021825D02*
X0142625Y0019175D01*
X0142625Y0021825D02*
X0142775Y0021825D01*
X0142775Y0019175D01*
X0142625Y0019175D01*
X0142625Y0020524D02*
X0142775Y0020524D01*
X0145125Y0021825D02*
X0145125Y0019175D01*
X0145125Y0021825D02*
X0145275Y0021825D01*
X0145275Y0019175D01*
X0145125Y0019175D01*
X0145125Y0020524D02*
X0145275Y0020524D01*
X0147625Y0021825D02*
X0147625Y0019175D01*
X0147625Y0021825D02*
X0147775Y0021825D01*
X0147775Y0019175D01*
X0147625Y0019175D01*
X0147625Y0020524D02*
X0147775Y0020524D01*
X0150125Y0021825D02*
X0150125Y0019175D01*
X0150125Y0021825D02*
X0150275Y0021825D01*
X0150275Y0019175D01*
X0150125Y0019175D01*
X0150125Y0020524D02*
X0150275Y0020524D01*
X0152625Y0021825D02*
X0152625Y0019175D01*
X0152625Y0021825D02*
X0152775Y0021825D01*
X0152775Y0019175D01*
X0152625Y0019175D01*
X0152625Y0020524D02*
X0152775Y0020524D01*
X0155125Y0021825D02*
X0155125Y0019175D01*
X0155125Y0021825D02*
X0155275Y0021825D01*
X0155275Y0019175D01*
X0155125Y0019175D01*
X0155125Y0020524D02*
X0155275Y0020524D01*
X0157625Y0021825D02*
X0157625Y0019175D01*
X0157625Y0021825D02*
X0157775Y0021825D01*
X0157775Y0019175D01*
X0157625Y0019175D01*
X0157625Y0020524D02*
X0157775Y0020524D01*
X0160125Y0021825D02*
X0160125Y0019175D01*
X0160125Y0021825D02*
X0160275Y0021825D01*
X0160275Y0019175D01*
X0160125Y0019175D01*
X0160125Y0020524D02*
X0160275Y0020524D01*
X0157625Y0024175D02*
X0157625Y0026825D01*
X0157775Y0026825D01*
X0157775Y0024175D01*
X0157625Y0024175D01*
X0157625Y0025524D02*
X0157775Y0025524D01*
X0155125Y0026825D02*
X0155125Y0024175D01*
X0155125Y0026825D02*
X0155275Y0026825D01*
X0155275Y0024175D01*
X0155125Y0024175D01*
X0155125Y0025524D02*
X0155275Y0025524D01*
X0152625Y0026825D02*
X0152625Y0024175D01*
X0152625Y0026825D02*
X0152775Y0026825D01*
X0152775Y0024175D01*
X0152625Y0024175D01*
X0152625Y0025524D02*
X0152775Y0025524D01*
X0150125Y0026825D02*
X0150125Y0024175D01*
X0150125Y0026825D02*
X0150275Y0026825D01*
X0150275Y0024175D01*
X0150125Y0024175D01*
X0150125Y0025524D02*
X0150275Y0025524D01*
X0147625Y0026825D02*
X0147625Y0024175D01*
X0147625Y0026825D02*
X0147775Y0026825D01*
X0147775Y0024175D01*
X0147625Y0024175D01*
X0147625Y0025524D02*
X0147775Y0025524D01*
X0145125Y0026825D02*
X0145125Y0024175D01*
X0145125Y0026825D02*
X0145275Y0026825D01*
X0145275Y0024175D01*
X0145125Y0024175D01*
X0145125Y0025524D02*
X0145275Y0025524D01*
X0142625Y0026825D02*
X0142625Y0024175D01*
X0142625Y0026825D02*
X0142775Y0026825D01*
X0142775Y0024175D01*
X0142625Y0024175D01*
X0142625Y0025524D02*
X0142775Y0025524D01*
X0140125Y0026825D02*
X0140125Y0024175D01*
X0140125Y0026825D02*
X0140275Y0026825D01*
X0140275Y0024175D01*
X0140125Y0024175D01*
X0140125Y0025524D02*
X0140275Y0025524D01*
X0140125Y0061175D02*
X0140125Y0063825D01*
X0140275Y0063825D01*
X0140275Y0061175D01*
X0140125Y0061175D01*
X0140125Y0062524D02*
X0140275Y0062524D01*
X0142625Y0063825D02*
X0142625Y0061175D01*
X0142625Y0063825D02*
X0142775Y0063825D01*
X0142775Y0061175D01*
X0142625Y0061175D01*
X0142625Y0062524D02*
X0142775Y0062524D01*
X0145125Y0063825D02*
X0145125Y0061175D01*
X0145125Y0063825D02*
X0145275Y0063825D01*
X0145275Y0061175D01*
X0145125Y0061175D01*
X0145125Y0062524D02*
X0145275Y0062524D01*
X0147625Y0063825D02*
X0147625Y0061175D01*
X0147625Y0063825D02*
X0147775Y0063825D01*
X0147775Y0061175D01*
X0147625Y0061175D01*
X0147625Y0062524D02*
X0147775Y0062524D01*
X0150125Y0063825D02*
X0150125Y0061175D01*
X0150125Y0063825D02*
X0150275Y0063825D01*
X0150275Y0061175D01*
X0150125Y0061175D01*
X0150125Y0062524D02*
X0150275Y0062524D01*
X0152625Y0063825D02*
X0152625Y0061175D01*
X0152625Y0063825D02*
X0152775Y0063825D01*
X0152775Y0061175D01*
X0152625Y0061175D01*
X0152625Y0062524D02*
X0152775Y0062524D01*
X0155125Y0063825D02*
X0155125Y0061175D01*
X0155125Y0063825D02*
X0155275Y0063825D01*
X0155275Y0061175D01*
X0155125Y0061175D01*
X0155125Y0062524D02*
X0155275Y0062524D01*
X0157625Y0063825D02*
X0157625Y0061175D01*
X0157625Y0063825D02*
X0157775Y0063825D01*
X0157775Y0061175D01*
X0157625Y0061175D01*
X0157625Y0062524D02*
X0157775Y0062524D01*
X0160125Y0063825D02*
X0160125Y0061175D01*
X0160125Y0063825D02*
X0160275Y0063825D01*
X0160275Y0061175D01*
X0160125Y0061175D01*
X0160125Y0062524D02*
X0160275Y0062524D01*
X0157625Y0066175D02*
X0157625Y0068825D01*
X0157775Y0068825D01*
X0157775Y0066175D01*
X0157625Y0066175D01*
X0157625Y0067524D02*
X0157775Y0067524D01*
X0155125Y0068825D02*
X0155125Y0066175D01*
X0155125Y0068825D02*
X0155275Y0068825D01*
X0155275Y0066175D01*
X0155125Y0066175D01*
X0155125Y0067524D02*
X0155275Y0067524D01*
X0152625Y0068825D02*
X0152625Y0066175D01*
X0152625Y0068825D02*
X0152775Y0068825D01*
X0152775Y0066175D01*
X0152625Y0066175D01*
X0152625Y0067524D02*
X0152775Y0067524D01*
X0150125Y0068825D02*
X0150125Y0066175D01*
X0150125Y0068825D02*
X0150275Y0068825D01*
X0150275Y0066175D01*
X0150125Y0066175D01*
X0150125Y0067524D02*
X0150275Y0067524D01*
X0147625Y0068825D02*
X0147625Y0066175D01*
X0147625Y0068825D02*
X0147775Y0068825D01*
X0147775Y0066175D01*
X0147625Y0066175D01*
X0147625Y0067524D02*
X0147775Y0067524D01*
X0145125Y0068825D02*
X0145125Y0066175D01*
X0145125Y0068825D02*
X0145275Y0068825D01*
X0145275Y0066175D01*
X0145125Y0066175D01*
X0145125Y0067524D02*
X0145275Y0067524D01*
X0142625Y0068825D02*
X0142625Y0066175D01*
X0142625Y0068825D02*
X0142775Y0068825D01*
X0142775Y0066175D01*
X0142625Y0066175D01*
X0142625Y0067524D02*
X0142775Y0067524D01*
X0140125Y0068825D02*
X0140125Y0066175D01*
X0140125Y0068825D02*
X0140275Y0068825D01*
X0140275Y0066175D01*
X0140125Y0066175D01*
X0140125Y0067524D02*
X0140275Y0067524D01*
X0137625Y0063825D02*
X0137625Y0061175D01*
X0137625Y0063825D02*
X0137775Y0063825D01*
X0137775Y0061175D01*
X0137625Y0061175D01*
X0137625Y0062524D02*
X0137775Y0062524D01*
X0118125Y0063825D02*
X0118125Y0061175D01*
X0118125Y0063825D02*
X0118275Y0063825D01*
X0118275Y0061175D01*
X0118125Y0061175D01*
X0118125Y0062524D02*
X0118275Y0062524D01*
X0115625Y0063825D02*
X0115625Y0061175D01*
X0115625Y0063825D02*
X0115775Y0063825D01*
X0115775Y0061175D01*
X0115625Y0061175D01*
X0115625Y0062524D02*
X0115775Y0062524D01*
X0113125Y0063825D02*
X0113125Y0061175D01*
X0113125Y0063825D02*
X0113275Y0063825D01*
X0113275Y0061175D01*
X0113125Y0061175D01*
X0113125Y0062524D02*
X0113275Y0062524D01*
X0110625Y0063825D02*
X0110625Y0061175D01*
X0110625Y0063825D02*
X0110775Y0063825D01*
X0110775Y0061175D01*
X0110625Y0061175D01*
X0110625Y0062524D02*
X0110775Y0062524D01*
X0108125Y0063825D02*
X0108125Y0061175D01*
X0108125Y0063825D02*
X0108275Y0063825D01*
X0108275Y0061175D01*
X0108125Y0061175D01*
X0108125Y0062524D02*
X0108275Y0062524D01*
X0105625Y0063825D02*
X0105625Y0061175D01*
X0105625Y0063825D02*
X0105775Y0063825D01*
X0105775Y0061175D01*
X0105625Y0061175D01*
X0105625Y0062524D02*
X0105775Y0062524D01*
X0103125Y0063825D02*
X0103125Y0061175D01*
X0103125Y0063825D02*
X0103275Y0063825D01*
X0103275Y0061175D01*
X0103125Y0061175D01*
X0103125Y0062524D02*
X0103275Y0062524D01*
X0100625Y0063825D02*
X0100625Y0061175D01*
X0100625Y0063825D02*
X0100775Y0063825D01*
X0100775Y0061175D01*
X0100625Y0061175D01*
X0100625Y0062524D02*
X0100775Y0062524D01*
X0098125Y0063825D02*
X0098125Y0061175D01*
X0098125Y0063825D02*
X0098275Y0063825D01*
X0098275Y0061175D01*
X0098125Y0061175D01*
X0098125Y0062524D02*
X0098275Y0062524D01*
X0095625Y0063825D02*
X0095625Y0061175D01*
X0095625Y0063825D02*
X0095775Y0063825D01*
X0095775Y0061175D01*
X0095625Y0061175D01*
X0095625Y0062524D02*
X0095775Y0062524D01*
X0098125Y0066175D02*
X0098125Y0068825D01*
X0098275Y0068825D01*
X0098275Y0066175D01*
X0098125Y0066175D01*
X0098125Y0067524D02*
X0098275Y0067524D01*
X0100625Y0068825D02*
X0100625Y0066175D01*
X0100625Y0068825D02*
X0100775Y0068825D01*
X0100775Y0066175D01*
X0100625Y0066175D01*
X0100625Y0067524D02*
X0100775Y0067524D01*
X0103125Y0068825D02*
X0103125Y0066175D01*
X0103125Y0068825D02*
X0103275Y0068825D01*
X0103275Y0066175D01*
X0103125Y0066175D01*
X0103125Y0067524D02*
X0103275Y0067524D01*
X0105625Y0068825D02*
X0105625Y0066175D01*
X0105625Y0068825D02*
X0105775Y0068825D01*
X0105775Y0066175D01*
X0105625Y0066175D01*
X0105625Y0067524D02*
X0105775Y0067524D01*
X0108125Y0068825D02*
X0108125Y0066175D01*
X0108125Y0068825D02*
X0108275Y0068825D01*
X0108275Y0066175D01*
X0108125Y0066175D01*
X0108125Y0067524D02*
X0108275Y0067524D01*
X0110625Y0068825D02*
X0110625Y0066175D01*
X0110625Y0068825D02*
X0110775Y0068825D01*
X0110775Y0066175D01*
X0110625Y0066175D01*
X0110625Y0067524D02*
X0110775Y0067524D01*
X0113125Y0068825D02*
X0113125Y0066175D01*
X0113125Y0068825D02*
X0113275Y0068825D01*
X0113275Y0066175D01*
X0113125Y0066175D01*
X0113125Y0067524D02*
X0113275Y0067524D01*
X0115625Y0068825D02*
X0115625Y0066175D01*
X0115625Y0068825D02*
X0115775Y0068825D01*
X0115775Y0066175D01*
X0115625Y0066175D01*
X0115625Y0067524D02*
X0115775Y0067524D01*
X0076125Y0063825D02*
X0076125Y0061175D01*
X0076125Y0063825D02*
X0076275Y0063825D01*
X0076275Y0061175D01*
X0076125Y0061175D01*
X0076125Y0062524D02*
X0076275Y0062524D01*
X0073625Y0063825D02*
X0073625Y0061175D01*
X0073625Y0063825D02*
X0073775Y0063825D01*
X0073775Y0061175D01*
X0073625Y0061175D01*
X0073625Y0062524D02*
X0073775Y0062524D01*
X0071125Y0063825D02*
X0071125Y0061175D01*
X0071125Y0063825D02*
X0071275Y0063825D01*
X0071275Y0061175D01*
X0071125Y0061175D01*
X0071125Y0062524D02*
X0071275Y0062524D01*
X0068625Y0063825D02*
X0068625Y0061175D01*
X0068625Y0063825D02*
X0068775Y0063825D01*
X0068775Y0061175D01*
X0068625Y0061175D01*
X0068625Y0062524D02*
X0068775Y0062524D01*
X0066125Y0063825D02*
X0066125Y0061175D01*
X0066125Y0063825D02*
X0066275Y0063825D01*
X0066275Y0061175D01*
X0066125Y0061175D01*
X0066125Y0062524D02*
X0066275Y0062524D01*
X0063625Y0063825D02*
X0063625Y0061175D01*
X0063625Y0063825D02*
X0063775Y0063825D01*
X0063775Y0061175D01*
X0063625Y0061175D01*
X0063625Y0062524D02*
X0063775Y0062524D01*
X0061125Y0063825D02*
X0061125Y0061175D01*
X0061125Y0063825D02*
X0061275Y0063825D01*
X0061275Y0061175D01*
X0061125Y0061175D01*
X0061125Y0062524D02*
X0061275Y0062524D01*
X0058625Y0063825D02*
X0058625Y0061175D01*
X0058625Y0063825D02*
X0058775Y0063825D01*
X0058775Y0061175D01*
X0058625Y0061175D01*
X0058625Y0062524D02*
X0058775Y0062524D01*
X0056125Y0063825D02*
X0056125Y0061175D01*
X0056125Y0063825D02*
X0056275Y0063825D01*
X0056275Y0061175D01*
X0056125Y0061175D01*
X0056125Y0062524D02*
X0056275Y0062524D01*
X0053625Y0063825D02*
X0053625Y0061175D01*
X0053625Y0063825D02*
X0053775Y0063825D01*
X0053775Y0061175D01*
X0053625Y0061175D01*
X0053625Y0062524D02*
X0053775Y0062524D01*
X0056125Y0066175D02*
X0056125Y0068825D01*
X0056275Y0068825D01*
X0056275Y0066175D01*
X0056125Y0066175D01*
X0056125Y0067524D02*
X0056275Y0067524D01*
X0058625Y0068825D02*
X0058625Y0066175D01*
X0058625Y0068825D02*
X0058775Y0068825D01*
X0058775Y0066175D01*
X0058625Y0066175D01*
X0058625Y0067524D02*
X0058775Y0067524D01*
X0061125Y0068825D02*
X0061125Y0066175D01*
X0061125Y0068825D02*
X0061275Y0068825D01*
X0061275Y0066175D01*
X0061125Y0066175D01*
X0061125Y0067524D02*
X0061275Y0067524D01*
X0063625Y0068825D02*
X0063625Y0066175D01*
X0063625Y0068825D02*
X0063775Y0068825D01*
X0063775Y0066175D01*
X0063625Y0066175D01*
X0063625Y0067524D02*
X0063775Y0067524D01*
X0066125Y0068825D02*
X0066125Y0066175D01*
X0066125Y0068825D02*
X0066275Y0068825D01*
X0066275Y0066175D01*
X0066125Y0066175D01*
X0066125Y0067524D02*
X0066275Y0067524D01*
X0068625Y0068825D02*
X0068625Y0066175D01*
X0068625Y0068825D02*
X0068775Y0068825D01*
X0068775Y0066175D01*
X0068625Y0066175D01*
X0068625Y0067524D02*
X0068775Y0067524D01*
X0071125Y0068825D02*
X0071125Y0066175D01*
X0071125Y0068825D02*
X0071275Y0068825D01*
X0071275Y0066175D01*
X0071125Y0066175D01*
X0071125Y0067524D02*
X0071275Y0067524D01*
X0073625Y0068825D02*
X0073625Y0066175D01*
X0073625Y0068825D02*
X0073775Y0068825D01*
X0073775Y0066175D01*
X0073625Y0066175D01*
X0073625Y0067524D02*
X0073775Y0067524D01*
X0034125Y0063825D02*
X0034125Y0061175D01*
X0034125Y0063825D02*
X0034275Y0063825D01*
X0034275Y0061175D01*
X0034125Y0061175D01*
X0034125Y0062524D02*
X0034275Y0062524D01*
X0031625Y0063825D02*
X0031625Y0061175D01*
X0031625Y0063825D02*
X0031775Y0063825D01*
X0031775Y0061175D01*
X0031625Y0061175D01*
X0031625Y0062524D02*
X0031775Y0062524D01*
X0029125Y0063825D02*
X0029125Y0061175D01*
X0029125Y0063825D02*
X0029275Y0063825D01*
X0029275Y0061175D01*
X0029125Y0061175D01*
X0029125Y0062524D02*
X0029275Y0062524D01*
X0026625Y0063825D02*
X0026625Y0061175D01*
X0026625Y0063825D02*
X0026775Y0063825D01*
X0026775Y0061175D01*
X0026625Y0061175D01*
X0026625Y0062524D02*
X0026775Y0062524D01*
X0024125Y0063825D02*
X0024125Y0061175D01*
X0024125Y0063825D02*
X0024275Y0063825D01*
X0024275Y0061175D01*
X0024125Y0061175D01*
X0024125Y0062524D02*
X0024275Y0062524D01*
X0021625Y0063825D02*
X0021625Y0061175D01*
X0021625Y0063825D02*
X0021775Y0063825D01*
X0021775Y0061175D01*
X0021625Y0061175D01*
X0021625Y0062524D02*
X0021775Y0062524D01*
X0019125Y0063825D02*
X0019125Y0061175D01*
X0019125Y0063825D02*
X0019275Y0063825D01*
X0019275Y0061175D01*
X0019125Y0061175D01*
X0019125Y0062524D02*
X0019275Y0062524D01*
X0016625Y0063825D02*
X0016625Y0061175D01*
X0016625Y0063825D02*
X0016775Y0063825D01*
X0016775Y0061175D01*
X0016625Y0061175D01*
X0016625Y0062524D02*
X0016775Y0062524D01*
X0014125Y0063825D02*
X0014125Y0061175D01*
X0014125Y0063825D02*
X0014275Y0063825D01*
X0014275Y0061175D01*
X0014125Y0061175D01*
X0014125Y0062524D02*
X0014275Y0062524D01*
X0011625Y0063825D02*
X0011625Y0061175D01*
X0011625Y0063825D02*
X0011775Y0063825D01*
X0011775Y0061175D01*
X0011625Y0061175D01*
X0011625Y0062524D02*
X0011775Y0062524D01*
X0014125Y0066175D02*
X0014125Y0068825D01*
X0014275Y0068825D01*
X0014275Y0066175D01*
X0014125Y0066175D01*
X0014125Y0067524D02*
X0014275Y0067524D01*
X0016625Y0068825D02*
X0016625Y0066175D01*
X0016625Y0068825D02*
X0016775Y0068825D01*
X0016775Y0066175D01*
X0016625Y0066175D01*
X0016625Y0067524D02*
X0016775Y0067524D01*
X0019125Y0068825D02*
X0019125Y0066175D01*
X0019125Y0068825D02*
X0019275Y0068825D01*
X0019275Y0066175D01*
X0019125Y0066175D01*
X0019125Y0067524D02*
X0019275Y0067524D01*
X0021625Y0068825D02*
X0021625Y0066175D01*
X0021625Y0068825D02*
X0021775Y0068825D01*
X0021775Y0066175D01*
X0021625Y0066175D01*
X0021625Y0067524D02*
X0021775Y0067524D01*
X0024125Y0068825D02*
X0024125Y0066175D01*
X0024125Y0068825D02*
X0024275Y0068825D01*
X0024275Y0066175D01*
X0024125Y0066175D01*
X0024125Y0067524D02*
X0024275Y0067524D01*
X0026625Y0068825D02*
X0026625Y0066175D01*
X0026625Y0068825D02*
X0026775Y0068825D01*
X0026775Y0066175D01*
X0026625Y0066175D01*
X0026625Y0067524D02*
X0026775Y0067524D01*
X0029125Y0068825D02*
X0029125Y0066175D01*
X0029125Y0068825D02*
X0029275Y0068825D01*
X0029275Y0066175D01*
X0029125Y0066175D01*
X0029125Y0067524D02*
X0029275Y0067524D01*
X0031625Y0068825D02*
X0031625Y0066175D01*
X0031625Y0068825D02*
X0031775Y0068825D01*
X0031775Y0066175D01*
X0031625Y0066175D01*
X0031625Y0067524D02*
X0031775Y0067524D01*
D12*
X0031700Y0067500D02*
X0031800Y0067200D01*
X0036000Y0067200D01*
X0037200Y0068400D01*
X0037200Y0070800D01*
X0035400Y0072600D01*
X0035400Y0073800D01*
X0029200Y0072400D02*
X0029200Y0069600D01*
X0028800Y0067800D01*
X0029200Y0067500D01*
X0026700Y0067500D02*
X0026700Y0074000D01*
X0027000Y0079000D01*
X0030500Y0078500D02*
X0029200Y0072400D01*
X0024600Y0076200D02*
X0024600Y0067800D01*
X0024200Y0067500D01*
X0022200Y0067800D02*
X0021700Y0067500D01*
X0022200Y0067800D02*
X0022200Y0075500D01*
X0023800Y0077400D02*
X0024600Y0076200D01*
X0023800Y0077400D02*
X0023200Y0078400D01*
X0022800Y0079300D01*
X0022800Y0079100D01*
X0019100Y0078500D02*
X0019100Y0068400D01*
X0019200Y0067800D01*
X0019200Y0067500D01*
X0017000Y0067800D02*
X0016700Y0067500D01*
X0017000Y0067800D02*
X0017000Y0072000D01*
X0017500Y0072500D01*
X0017500Y0076000D01*
X0015500Y0078000D01*
X0015500Y0079500D01*
X0015000Y0075000D02*
X0015000Y0068400D01*
X0014400Y0067800D01*
X0014200Y0067500D01*
X0011400Y0066600D02*
X0013800Y0064200D01*
X0013800Y0063000D01*
X0014200Y0062500D01*
X0016200Y0062400D02*
X0016700Y0062500D01*
X0016200Y0062400D02*
X0016200Y0057600D01*
X0014400Y0055800D01*
X0012000Y0055800D01*
X0009000Y0058800D01*
X0009000Y0067800D01*
X0011400Y0070200D01*
X0011700Y0062500D02*
X0012000Y0062400D01*
X0012000Y0060600D01*
X0013200Y0059400D01*
X0013200Y0058200D01*
X0017000Y0054700D02*
X0017100Y0054700D01*
X0017000Y0054700D02*
X0019300Y0058500D01*
X0019300Y0061800D01*
X0019200Y0062400D01*
X0019200Y0062500D01*
X0021700Y0062500D02*
X0021700Y0056000D01*
X0021500Y0055700D01*
X0020700Y0054200D01*
X0023300Y0052000D02*
X0023300Y0058800D01*
X0024200Y0062500D01*
X0026400Y0062400D02*
X0026700Y0062500D01*
X0026400Y0062400D02*
X0026400Y0060600D01*
X0025100Y0058800D01*
X0025100Y0053500D01*
X0027000Y0050800D01*
X0027100Y0050800D01*
X0028200Y0052800D02*
X0027000Y0054000D01*
X0027000Y0058800D01*
X0028800Y0060600D01*
X0028800Y0062400D01*
X0029200Y0062500D01*
X0031200Y0062400D02*
X0031700Y0062500D01*
X0031200Y0062400D02*
X0031200Y0060600D01*
X0029400Y0058800D01*
X0029400Y0055200D01*
X0028200Y0052800D02*
X0030600Y0052800D01*
X0034200Y0056400D01*
X0034200Y0058200D01*
X0036600Y0060000D02*
X0034200Y0062400D01*
X0034200Y0062500D01*
X0036600Y0060000D02*
X0036600Y0055800D01*
X0051000Y0058800D02*
X0054000Y0055800D01*
X0056400Y0055800D01*
X0058200Y0057600D01*
X0058200Y0062400D01*
X0058700Y0062500D01*
X0061200Y0062500D02*
X0061200Y0062400D01*
X0061300Y0061800D01*
X0061300Y0058500D01*
X0059000Y0054700D01*
X0059100Y0054700D01*
X0062700Y0054200D02*
X0063500Y0055700D01*
X0063700Y0056000D01*
X0063700Y0062500D01*
X0066200Y0062500D02*
X0065300Y0058800D01*
X0065300Y0052000D01*
X0067100Y0053500D02*
X0069000Y0050800D01*
X0069100Y0050800D01*
X0070200Y0052800D02*
X0069000Y0054000D01*
X0069000Y0058800D01*
X0070800Y0060600D01*
X0070800Y0062400D01*
X0071200Y0062500D01*
X0073200Y0062400D02*
X0073700Y0062500D01*
X0073200Y0062400D02*
X0073200Y0060600D01*
X0071400Y0058800D01*
X0071400Y0055200D01*
X0070200Y0052800D02*
X0072600Y0052800D01*
X0076200Y0056400D01*
X0076200Y0058200D01*
X0078600Y0060000D02*
X0076200Y0062400D01*
X0076200Y0062500D01*
X0078600Y0060000D02*
X0078600Y0055800D01*
X0068400Y0060600D02*
X0067100Y0058800D01*
X0067100Y0053500D01*
X0055200Y0058200D02*
X0055200Y0059400D01*
X0054000Y0060600D01*
X0054000Y0062400D01*
X0053700Y0062500D01*
X0055800Y0063000D02*
X0055800Y0064200D01*
X0053400Y0066600D01*
X0056200Y0067500D02*
X0056400Y0067800D01*
X0057000Y0068400D01*
X0057000Y0075000D01*
X0059500Y0076000D02*
X0057500Y0078000D01*
X0057500Y0079500D01*
X0061100Y0078500D02*
X0061100Y0068400D01*
X0061200Y0067800D01*
X0061200Y0067500D01*
X0059000Y0067800D02*
X0059000Y0072000D01*
X0059500Y0072500D01*
X0059500Y0076000D01*
X0064200Y0075500D02*
X0064200Y0067800D01*
X0063700Y0067500D01*
X0066200Y0067500D02*
X0066600Y0067800D01*
X0066600Y0076200D01*
X0065800Y0077400D01*
X0065200Y0078400D01*
X0064800Y0079300D01*
X0064800Y0079100D01*
X0069000Y0079000D02*
X0068700Y0074000D01*
X0068700Y0067500D01*
X0070800Y0067800D02*
X0071200Y0067500D01*
X0070800Y0067800D02*
X0071200Y0069600D01*
X0071200Y0072400D01*
X0072500Y0078500D01*
X0077400Y0073800D02*
X0077400Y0072600D01*
X0079200Y0070800D01*
X0079200Y0068400D01*
X0078000Y0067200D01*
X0073800Y0067200D01*
X0073700Y0067500D01*
X0068700Y0062500D02*
X0068400Y0062400D01*
X0068400Y0060600D01*
X0056200Y0062500D02*
X0055800Y0063000D01*
X0058700Y0067500D02*
X0059000Y0067800D01*
X0053400Y0070200D02*
X0051000Y0067800D01*
X0051000Y0058800D01*
X0057500Y0037500D02*
X0057500Y0036000D01*
X0059500Y0034000D01*
X0059500Y0030500D01*
X0059000Y0030000D01*
X0059000Y0025800D01*
X0058700Y0025500D01*
X0061200Y0025500D02*
X0061200Y0025800D01*
X0061100Y0026400D01*
X0061100Y0036500D01*
X0064800Y0037100D02*
X0064800Y0037300D01*
X0065200Y0036400D01*
X0065800Y0035400D01*
X0066600Y0034200D01*
X0066600Y0025800D01*
X0066200Y0025500D01*
X0064200Y0025800D02*
X0063700Y0025500D01*
X0064200Y0025800D02*
X0064200Y0033500D01*
X0068700Y0032000D02*
X0069000Y0037000D01*
X0072500Y0036500D02*
X0071200Y0030400D01*
X0071200Y0027600D01*
X0070800Y0025800D01*
X0071200Y0025500D01*
X0073700Y0025500D02*
X0073800Y0025200D01*
X0078000Y0025200D01*
X0079200Y0026400D01*
X0079200Y0028800D01*
X0077400Y0030600D01*
X0077400Y0031800D01*
X0068700Y0032000D02*
X0068700Y0025500D01*
X0068700Y0020500D02*
X0068400Y0020400D01*
X0068400Y0018600D01*
X0067100Y0016800D01*
X0067100Y0011500D01*
X0069000Y0008800D01*
X0069100Y0008800D01*
X0070200Y0010800D02*
X0069000Y0012000D01*
X0069000Y0016800D01*
X0070800Y0018600D01*
X0070800Y0020400D01*
X0071200Y0020500D01*
X0073200Y0020400D02*
X0073700Y0020500D01*
X0073200Y0020400D02*
X0073200Y0018600D01*
X0071400Y0016800D01*
X0071400Y0013200D01*
X0070200Y0010800D02*
X0072600Y0010800D01*
X0076200Y0014400D01*
X0076200Y0016200D01*
X0078600Y0018000D02*
X0076200Y0020400D01*
X0076200Y0020500D01*
X0078600Y0018000D02*
X0078600Y0013800D01*
X0065300Y0016800D02*
X0066200Y0020500D01*
X0063700Y0020500D02*
X0063700Y0014000D01*
X0063500Y0013700D01*
X0062700Y0012200D01*
X0065300Y0010000D02*
X0065300Y0016800D01*
X0061300Y0016500D02*
X0059000Y0012700D01*
X0059100Y0012700D01*
X0056400Y0013800D02*
X0058200Y0015600D01*
X0058200Y0020400D01*
X0058700Y0020500D01*
X0061200Y0020500D02*
X0061200Y0020400D01*
X0061300Y0019800D01*
X0061300Y0016500D01*
X0056400Y0013800D02*
X0054000Y0013800D01*
X0051000Y0016800D01*
X0051000Y0025800D01*
X0053400Y0028200D01*
X0056400Y0025800D02*
X0057000Y0026400D01*
X0057000Y0033000D01*
X0056400Y0025800D02*
X0056200Y0025500D01*
X0053400Y0024600D02*
X0055800Y0022200D01*
X0055800Y0021000D01*
X0056200Y0020500D01*
X0054000Y0020400D02*
X0053700Y0020500D01*
X0054000Y0020400D02*
X0054000Y0018600D01*
X0055200Y0017400D01*
X0055200Y0016200D01*
X0036600Y0018000D02*
X0036600Y0013800D01*
X0034200Y0014400D02*
X0030600Y0010800D01*
X0028200Y0010800D01*
X0027000Y0012000D01*
X0027000Y0016800D01*
X0028800Y0018600D01*
X0028800Y0020400D01*
X0029200Y0020500D01*
X0026700Y0020500D02*
X0026400Y0020400D01*
X0026400Y0018600D01*
X0025100Y0016800D01*
X0025100Y0011500D01*
X0027000Y0008800D01*
X0027100Y0008800D01*
X0023300Y0010000D02*
X0023300Y0016800D01*
X0024200Y0020500D01*
X0021700Y0020500D02*
X0021700Y0014000D01*
X0021500Y0013700D01*
X0020700Y0012200D01*
X0017100Y0012700D02*
X0017000Y0012700D01*
X0019300Y0016500D01*
X0019300Y0019800D01*
X0019200Y0020400D01*
X0019200Y0020500D01*
X0016700Y0020500D02*
X0016200Y0020400D01*
X0016200Y0015600D01*
X0014400Y0013800D01*
X0012000Y0013800D01*
X0009000Y0016800D01*
X0009000Y0025800D01*
X0011400Y0028200D01*
X0014400Y0025800D02*
X0015000Y0026400D01*
X0015000Y0033000D01*
X0017500Y0034000D02*
X0015500Y0036000D01*
X0015500Y0037500D01*
X0019100Y0036500D02*
X0019100Y0026400D01*
X0019200Y0025800D01*
X0019200Y0025500D01*
X0021700Y0025500D02*
X0022200Y0025800D01*
X0022200Y0033500D01*
X0023800Y0035400D02*
X0024600Y0034200D01*
X0024600Y0025800D01*
X0024200Y0025500D01*
X0026700Y0025500D02*
X0026700Y0032000D01*
X0027000Y0037000D01*
X0030500Y0036500D02*
X0029200Y0030400D01*
X0029200Y0027600D01*
X0028800Y0025800D01*
X0029200Y0025500D01*
X0031700Y0025500D02*
X0031800Y0025200D01*
X0036000Y0025200D01*
X0037200Y0026400D01*
X0037200Y0028800D01*
X0035400Y0030600D01*
X0035400Y0031800D01*
X0023800Y0035400D02*
X0023200Y0036400D01*
X0022800Y0037300D01*
X0022800Y0037100D01*
X0017500Y0034000D02*
X0017500Y0030500D01*
X0017000Y0030000D01*
X0017000Y0025800D01*
X0016700Y0025500D01*
X0014400Y0025800D02*
X0014200Y0025500D01*
X0011400Y0024600D02*
X0013800Y0022200D01*
X0013800Y0021000D01*
X0014200Y0020500D01*
X0012000Y0020400D02*
X0012000Y0018600D01*
X0013200Y0017400D01*
X0013200Y0016200D01*
X0012000Y0020400D02*
X0011700Y0020500D01*
X0029400Y0016800D02*
X0029400Y0013200D01*
X0034200Y0014400D02*
X0034200Y0016200D01*
X0036600Y0018000D02*
X0034200Y0020400D01*
X0034200Y0020500D01*
X0031700Y0020500D02*
X0031200Y0020400D01*
X0031200Y0018600D01*
X0029400Y0016800D01*
X0093000Y0016800D02*
X0096000Y0013800D01*
X0098400Y0013800D01*
X0100200Y0015600D01*
X0100200Y0020400D01*
X0100700Y0020500D01*
X0098200Y0020500D02*
X0097800Y0021000D01*
X0097800Y0022200D01*
X0095400Y0024600D01*
X0093000Y0025800D02*
X0093000Y0016800D01*
X0096000Y0018600D02*
X0096000Y0020400D01*
X0095700Y0020500D01*
X0096000Y0018600D02*
X0097200Y0017400D01*
X0097200Y0016200D01*
X0101000Y0012700D02*
X0101100Y0012700D01*
X0101000Y0012700D02*
X0103300Y0016500D01*
X0103300Y0019800D01*
X0103200Y0020400D01*
X0103200Y0020500D01*
X0105700Y0020500D02*
X0105700Y0014000D01*
X0105500Y0013700D01*
X0104700Y0012200D01*
X0107300Y0010000D02*
X0107300Y0016800D01*
X0108200Y0020500D01*
X0110400Y0020400D02*
X0110400Y0018600D01*
X0109100Y0016800D01*
X0109100Y0011500D01*
X0111000Y0008800D01*
X0111100Y0008800D01*
X0112200Y0010800D02*
X0111000Y0012000D01*
X0111000Y0016800D01*
X0112800Y0018600D01*
X0112800Y0020400D01*
X0113200Y0020500D01*
X0115200Y0020400D02*
X0115700Y0020500D01*
X0115200Y0020400D02*
X0115200Y0018600D01*
X0113400Y0016800D01*
X0113400Y0013200D01*
X0112200Y0010800D02*
X0114600Y0010800D01*
X0118200Y0014400D01*
X0118200Y0016200D01*
X0120600Y0018000D02*
X0118200Y0020400D01*
X0118200Y0020500D01*
X0120600Y0018000D02*
X0120600Y0013800D01*
X0110700Y0020500D02*
X0110400Y0020400D01*
X0110700Y0025500D02*
X0110700Y0032000D01*
X0111000Y0037000D01*
X0114500Y0036500D02*
X0113200Y0030400D01*
X0113200Y0027600D01*
X0112800Y0025800D01*
X0113200Y0025500D01*
X0115700Y0025500D02*
X0115800Y0025200D01*
X0120000Y0025200D01*
X0121200Y0026400D01*
X0121200Y0028800D01*
X0119400Y0030600D01*
X0119400Y0031800D01*
X0108600Y0034200D02*
X0108600Y0025800D01*
X0108200Y0025500D01*
X0106200Y0025800D02*
X0105700Y0025500D01*
X0106200Y0025800D02*
X0106200Y0033500D01*
X0107800Y0035400D02*
X0108600Y0034200D01*
X0107800Y0035400D02*
X0107200Y0036400D01*
X0106800Y0037300D01*
X0106800Y0037100D01*
X0103100Y0036500D02*
X0103100Y0026400D01*
X0103200Y0025800D01*
X0103200Y0025500D01*
X0101000Y0025800D02*
X0100700Y0025500D01*
X0101000Y0025800D02*
X0101000Y0030000D01*
X0101500Y0030500D01*
X0101500Y0034000D01*
X0099500Y0036000D01*
X0099500Y0037500D01*
X0099000Y0033000D02*
X0099000Y0026400D01*
X0098400Y0025800D01*
X0098200Y0025500D01*
X0095400Y0028200D02*
X0093000Y0025800D01*
X0135000Y0025800D02*
X0135000Y0016800D01*
X0138000Y0013800D01*
X0140400Y0013800D01*
X0142200Y0015600D01*
X0142200Y0020400D01*
X0142700Y0020500D01*
X0140200Y0020500D02*
X0139800Y0021000D01*
X0139800Y0022200D01*
X0137400Y0024600D01*
X0135000Y0025800D02*
X0137400Y0028200D01*
X0140400Y0025800D02*
X0141000Y0026400D01*
X0141000Y0033000D01*
X0143500Y0034000D02*
X0141500Y0036000D01*
X0141500Y0037500D01*
X0145100Y0036500D02*
X0145100Y0026400D01*
X0145200Y0025800D01*
X0145200Y0025500D01*
X0143000Y0025800D02*
X0143000Y0030000D01*
X0143500Y0030500D01*
X0143500Y0034000D01*
X0148200Y0033500D02*
X0148200Y0025800D01*
X0147700Y0025500D01*
X0150200Y0025500D02*
X0150600Y0025800D01*
X0150600Y0034200D01*
X0149800Y0035400D01*
X0149200Y0036400D01*
X0148800Y0037300D01*
X0148800Y0037100D01*
X0153000Y0037000D02*
X0152700Y0032000D01*
X0152700Y0025500D01*
X0154800Y0025800D02*
X0155200Y0025500D01*
X0154800Y0025800D02*
X0155200Y0027600D01*
X0155200Y0030400D01*
X0156500Y0036500D01*
X0161400Y0031800D02*
X0161400Y0030600D01*
X0163200Y0028800D01*
X0163200Y0026400D01*
X0162000Y0025200D01*
X0157800Y0025200D01*
X0157700Y0025500D01*
X0157700Y0020500D02*
X0157200Y0020400D01*
X0157200Y0018600D01*
X0155400Y0016800D01*
X0155400Y0013200D01*
X0153000Y0012000D02*
X0153000Y0016800D01*
X0154800Y0018600D01*
X0154800Y0020400D01*
X0155200Y0020500D01*
X0152700Y0020500D02*
X0152400Y0020400D01*
X0152400Y0018600D01*
X0151100Y0016800D01*
X0151100Y0011500D01*
X0153000Y0008800D01*
X0153100Y0008800D01*
X0154200Y0010800D02*
X0153000Y0012000D01*
X0154200Y0010800D02*
X0156600Y0010800D01*
X0160200Y0014400D01*
X0160200Y0016200D01*
X0162600Y0018000D02*
X0160200Y0020400D01*
X0160200Y0020500D01*
X0162600Y0018000D02*
X0162600Y0013800D01*
X0149300Y0016800D02*
X0150200Y0020500D01*
X0147700Y0020500D02*
X0147700Y0014000D01*
X0147500Y0013700D01*
X0146700Y0012200D01*
X0149300Y0010000D02*
X0149300Y0016800D01*
X0145300Y0016500D02*
X0143000Y0012700D01*
X0143100Y0012700D01*
X0145300Y0016500D02*
X0145300Y0019800D01*
X0145200Y0020400D01*
X0145200Y0020500D01*
X0139200Y0017400D02*
X0138000Y0018600D01*
X0138000Y0020400D01*
X0137700Y0020500D01*
X0139200Y0017400D02*
X0139200Y0016200D01*
X0140200Y0025500D02*
X0140400Y0025800D01*
X0142700Y0025500D02*
X0143000Y0025800D01*
X0153000Y0050800D02*
X0153100Y0050800D01*
X0153000Y0050800D02*
X0151100Y0053500D01*
X0151100Y0058800D01*
X0152400Y0060600D01*
X0152400Y0062400D01*
X0152700Y0062500D01*
X0150200Y0062500D02*
X0149300Y0058800D01*
X0149300Y0052000D01*
X0146700Y0054200D02*
X0147500Y0055700D01*
X0147700Y0056000D01*
X0147700Y0062500D01*
X0145200Y0062500D02*
X0145200Y0062400D01*
X0145300Y0061800D01*
X0145300Y0058500D01*
X0143000Y0054700D01*
X0143100Y0054700D01*
X0140400Y0055800D02*
X0142200Y0057600D01*
X0142200Y0062400D01*
X0142700Y0062500D01*
X0140200Y0062500D02*
X0139800Y0063000D01*
X0139800Y0064200D01*
X0137400Y0066600D01*
X0135000Y0067800D02*
X0135000Y0058800D01*
X0138000Y0055800D01*
X0140400Y0055800D01*
X0139200Y0058200D02*
X0139200Y0059400D01*
X0138000Y0060600D01*
X0138000Y0062400D01*
X0137700Y0062500D01*
X0140200Y0067500D02*
X0140400Y0067800D01*
X0141000Y0068400D01*
X0141000Y0075000D01*
X0143500Y0076000D02*
X0141500Y0078000D01*
X0141500Y0079500D01*
X0145100Y0078500D02*
X0145100Y0068400D01*
X0145200Y0067800D01*
X0145200Y0067500D01*
X0143000Y0067800D02*
X0143000Y0072000D01*
X0143500Y0072500D01*
X0143500Y0076000D01*
X0148200Y0075500D02*
X0148200Y0067800D01*
X0147700Y0067500D01*
X0150200Y0067500D02*
X0150600Y0067800D01*
X0150600Y0076200D01*
X0149800Y0077400D01*
X0149200Y0078400D01*
X0148800Y0079300D01*
X0148800Y0079100D01*
X0153000Y0079000D02*
X0152700Y0074000D01*
X0152700Y0067500D01*
X0154800Y0067800D02*
X0155200Y0067500D01*
X0154800Y0067800D02*
X0155200Y0069600D01*
X0155200Y0072400D01*
X0156500Y0078500D01*
X0161400Y0073800D02*
X0161400Y0072600D01*
X0163200Y0070800D01*
X0163200Y0068400D01*
X0162000Y0067200D01*
X0157800Y0067200D01*
X0157700Y0067500D01*
X0157700Y0062500D02*
X0157200Y0062400D01*
X0157200Y0060600D01*
X0155400Y0058800D01*
X0155400Y0055200D01*
X0153000Y0054000D02*
X0154200Y0052800D01*
X0156600Y0052800D01*
X0160200Y0056400D01*
X0160200Y0058200D01*
X0162600Y0060000D02*
X0160200Y0062400D01*
X0160200Y0062500D01*
X0162600Y0060000D02*
X0162600Y0055800D01*
X0154800Y0060600D02*
X0154800Y0062400D01*
X0155200Y0062500D01*
X0154800Y0060600D02*
X0153000Y0058800D01*
X0153000Y0054000D01*
X0142700Y0067500D02*
X0143000Y0067800D01*
X0137400Y0070200D02*
X0135000Y0067800D01*
X0121200Y0068400D02*
X0120000Y0067200D01*
X0115800Y0067200D01*
X0115700Y0067500D01*
X0113200Y0067500D02*
X0112800Y0067800D01*
X0113200Y0069600D01*
X0113200Y0072400D01*
X0114500Y0078500D01*
X0111000Y0079000D02*
X0110700Y0074000D01*
X0110700Y0067500D01*
X0108600Y0067800D02*
X0108200Y0067500D01*
X0108600Y0067800D02*
X0108600Y0076200D01*
X0107800Y0077400D01*
X0107200Y0078400D01*
X0106800Y0079300D01*
X0106800Y0079100D01*
X0103100Y0078500D02*
X0103100Y0068400D01*
X0103200Y0067800D01*
X0103200Y0067500D01*
X0105700Y0067500D02*
X0106200Y0067800D01*
X0106200Y0075500D01*
X0101500Y0076000D02*
X0099500Y0078000D01*
X0099500Y0079500D01*
X0101500Y0076000D02*
X0101500Y0072500D01*
X0101000Y0072000D01*
X0101000Y0067800D01*
X0100700Y0067500D01*
X0099000Y0068400D02*
X0098400Y0067800D01*
X0098200Y0067500D01*
X0099000Y0068400D02*
X0099000Y0075000D01*
X0095400Y0070200D02*
X0093000Y0067800D01*
X0093000Y0058800D01*
X0096000Y0055800D01*
X0098400Y0055800D01*
X0100200Y0057600D01*
X0100200Y0062400D01*
X0100700Y0062500D01*
X0098200Y0062500D02*
X0097800Y0063000D01*
X0097800Y0064200D01*
X0095400Y0066600D01*
X0095700Y0062500D02*
X0096000Y0062400D01*
X0096000Y0060600D01*
X0097200Y0059400D01*
X0097200Y0058200D01*
X0101000Y0054700D02*
X0101100Y0054700D01*
X0101000Y0054700D02*
X0103300Y0058500D01*
X0103300Y0061800D01*
X0103200Y0062400D01*
X0103200Y0062500D01*
X0105700Y0062500D02*
X0105700Y0056000D01*
X0105500Y0055700D01*
X0104700Y0054200D01*
X0107300Y0052000D02*
X0107300Y0058800D01*
X0108200Y0062500D01*
X0110400Y0062400D02*
X0110700Y0062500D01*
X0110400Y0062400D02*
X0110400Y0060600D01*
X0109100Y0058800D01*
X0109100Y0053500D01*
X0111000Y0050800D01*
X0111100Y0050800D01*
X0112200Y0052800D02*
X0111000Y0054000D01*
X0111000Y0058800D01*
X0112800Y0060600D01*
X0112800Y0062400D01*
X0113200Y0062500D01*
X0115200Y0062400D02*
X0115700Y0062500D01*
X0115200Y0062400D02*
X0115200Y0060600D01*
X0113400Y0058800D01*
X0113400Y0055200D01*
X0112200Y0052800D02*
X0114600Y0052800D01*
X0118200Y0056400D01*
X0118200Y0058200D01*
X0120600Y0060000D02*
X0118200Y0062400D01*
X0118200Y0062500D01*
X0120600Y0060000D02*
X0120600Y0055800D01*
X0121200Y0068400D02*
X0121200Y0070800D01*
X0119400Y0072600D01*
X0119400Y0073800D01*
D13*
X0119400Y0073800D03*
X0114500Y0078500D03*
X0111000Y0079000D03*
X0106800Y0079100D03*
X0103100Y0078500D03*
X0099500Y0079500D03*
X0099000Y0075000D03*
X0106200Y0075500D03*
X0095400Y0070200D03*
X0095400Y0066600D03*
X0097200Y0058200D03*
X0101100Y0054700D03*
X0104700Y0054200D03*
X0107300Y0052000D03*
X0111100Y0050800D03*
X0113400Y0055200D03*
X0118200Y0058200D03*
X0120600Y0055800D03*
X0139200Y0058200D03*
X0143100Y0054700D03*
X0146700Y0054200D03*
X0149300Y0052000D03*
X0153100Y0050800D03*
X0155400Y0055200D03*
X0160200Y0058200D03*
X0162600Y0055800D03*
X0137400Y0066600D03*
X0137400Y0070200D03*
X0141000Y0075000D03*
X0145100Y0078500D03*
X0141500Y0079500D03*
X0148800Y0079100D03*
X0153000Y0079000D03*
X0156500Y0078500D03*
X0148200Y0075500D03*
X0161400Y0073800D03*
X0153000Y0037000D03*
X0156500Y0036500D03*
X0148800Y0037100D03*
X0145100Y0036500D03*
X0141500Y0037500D03*
X0148200Y0033500D03*
X0141000Y0033000D03*
X0137400Y0028200D03*
X0137400Y0024600D03*
X0139200Y0016200D03*
X0143100Y0012700D03*
X0146700Y0012200D03*
X0149300Y0010000D03*
X0153100Y0008800D03*
X0155400Y0013200D03*
X0160200Y0016200D03*
X0162600Y0013800D03*
X0161400Y0031800D03*
X0120600Y0013800D03*
X0118200Y0016200D03*
X0113400Y0013200D03*
X0107300Y0010000D03*
X0104700Y0012200D03*
X0101100Y0012700D03*
X0097200Y0016200D03*
X0111100Y0008800D03*
X0095400Y0024600D03*
X0095400Y0028200D03*
X0099000Y0033000D03*
X0103100Y0036500D03*
X0099500Y0037500D03*
X0106200Y0033500D03*
X0106800Y0037100D03*
X0111000Y0037000D03*
X0114500Y0036500D03*
X0119400Y0031800D03*
X0077400Y0031800D03*
X0072500Y0036500D03*
X0069000Y0037000D03*
X0064800Y0037100D03*
X0061100Y0036500D03*
X0057500Y0037500D03*
X0064200Y0033500D03*
X0057000Y0033000D03*
X0053400Y0028200D03*
X0053400Y0024600D03*
X0055200Y0016200D03*
X0059100Y0012700D03*
X0062700Y0012200D03*
X0065300Y0010000D03*
X0069100Y0008800D03*
X0071400Y0013200D03*
X0076200Y0016200D03*
X0078600Y0013800D03*
X0036600Y0013800D03*
X0034200Y0016200D03*
X0029400Y0013200D03*
X0023300Y0010000D03*
X0020700Y0012200D03*
X0017100Y0012700D03*
X0013200Y0016200D03*
X0027100Y0008800D03*
X0011400Y0024600D03*
X0011400Y0028200D03*
X0015000Y0033000D03*
X0019100Y0036500D03*
X0015500Y0037500D03*
X0022800Y0037100D03*
X0027000Y0037000D03*
X0030500Y0036500D03*
X0035400Y0031800D03*
X0022200Y0033500D03*
X0027100Y0050800D03*
X0023300Y0052000D03*
X0020700Y0054200D03*
X0017100Y0054700D03*
X0013200Y0058200D03*
X0011400Y0066600D03*
X0011400Y0070200D03*
X0015000Y0075000D03*
X0019100Y0078500D03*
X0015500Y0079500D03*
X0022800Y0079100D03*
X0027000Y0079000D03*
X0030500Y0078500D03*
X0022200Y0075500D03*
X0035400Y0073800D03*
X0053400Y0070200D03*
X0053400Y0066600D03*
X0055200Y0058200D03*
X0059100Y0054700D03*
X0062700Y0054200D03*
X0065300Y0052000D03*
X0069100Y0050800D03*
X0071400Y0055200D03*
X0076200Y0058200D03*
X0078600Y0055800D03*
X0077400Y0073800D03*
X0072500Y0078500D03*
X0069000Y0079000D03*
X0064800Y0079100D03*
X0061100Y0078500D03*
X0057500Y0079500D03*
X0057000Y0075000D03*
X0064200Y0075500D03*
X0034200Y0058200D03*
X0036600Y0055800D03*
X0029400Y0055200D03*
M02*
