G75*
G70*
%OFA0B0*%
%FSLAX24Y24*%
%IPPOS*%
%LPD*%
%AMOC8*
5,1,8,0,0,1.08239X$1,22.5*
%
%ADD10R,0.0300X0.0270*%
%ADD11R,0.0150X0.0300*%
%ADD12R,0.0150X0.0400*%
%ADD13R,0.1890X0.1890*%
%ADD14R,0.0354X0.0098*%
%ADD15R,0.0098X0.0354*%
%ADD16R,0.0270X0.0300*%
%ADD17OC8,0.0520*%
%ADD18R,0.0630X0.0630*%
%ADD19R,0.0138X0.0197*%
%ADD20R,0.0197X0.0138*%
%ADD21C,0.0050*%
%ADD22C,0.0180*%
D10*
X001430Y000665D03*
X001430Y001085D03*
X002180Y001085D03*
X002180Y000665D03*
X002805Y001040D03*
X002805Y001460D03*
X002805Y002165D03*
X002805Y002585D03*
X000555Y003665D03*
X000555Y004085D03*
X000555Y004665D03*
X000555Y005085D03*
X000680Y006535D03*
X000680Y006955D03*
X005430Y002085D03*
X005430Y001665D03*
X005555Y003540D03*
X005555Y003960D03*
D11*
X004680Y002150D03*
X004430Y002150D03*
X004180Y002150D03*
X003930Y002150D03*
X003680Y002150D03*
X003430Y002150D03*
X003305Y008100D03*
X003055Y008100D03*
X002805Y008100D03*
X002555Y008100D03*
X002305Y008100D03*
X002055Y008100D03*
X001805Y008100D03*
X001555Y008100D03*
X001305Y008100D03*
X001055Y008100D03*
X003555Y008100D03*
X003805Y008100D03*
X004055Y008100D03*
X004305Y008100D03*
X004555Y008100D03*
X004805Y008100D03*
X005055Y008100D03*
X005305Y008100D03*
D12*
X005305Y007650D03*
X005055Y007650D03*
X004805Y007650D03*
X004555Y007650D03*
X004305Y007650D03*
X004055Y007650D03*
X003805Y007650D03*
X003555Y007650D03*
X003305Y007650D03*
X003055Y007650D03*
X002805Y007650D03*
X002555Y007650D03*
X002305Y007650D03*
X002055Y007650D03*
X001805Y007650D03*
X001555Y007650D03*
X001305Y007650D03*
X001055Y007650D03*
X003430Y002600D03*
X003680Y002600D03*
X003930Y002600D03*
X004180Y002600D03*
X004430Y002600D03*
X004680Y002600D03*
D13*
X003180Y005250D03*
D14*
X001586Y005152D03*
X001586Y005348D03*
X001586Y005545D03*
X001586Y005742D03*
X001586Y005939D03*
X001586Y006136D03*
X001586Y006333D03*
X001586Y006530D03*
X001586Y004955D03*
X001586Y004758D03*
X001586Y004561D03*
X001586Y004364D03*
X001586Y004167D03*
X001586Y003970D03*
X004774Y003970D03*
X004774Y004167D03*
X004774Y004364D03*
X004774Y004561D03*
X004774Y004758D03*
X004774Y004955D03*
X004774Y005152D03*
X004774Y005348D03*
X004774Y005545D03*
X004774Y005742D03*
X004774Y005939D03*
X004774Y006136D03*
X004774Y006333D03*
X004774Y006530D03*
D15*
X004460Y006844D03*
X004263Y006844D03*
X004066Y006844D03*
X003869Y006844D03*
X003672Y006844D03*
X003475Y006844D03*
X003278Y006844D03*
X003082Y006844D03*
X002885Y006844D03*
X002688Y006844D03*
X002491Y006844D03*
X002294Y006844D03*
X002097Y006844D03*
X001900Y006844D03*
X001900Y003656D03*
X002097Y003656D03*
X002294Y003656D03*
X002491Y003656D03*
X002688Y003656D03*
X002885Y003656D03*
X003082Y003656D03*
X003278Y003656D03*
X003475Y003656D03*
X003672Y003656D03*
X003869Y003656D03*
X004066Y003656D03*
X004263Y003656D03*
X004460Y003656D03*
D16*
X005220Y002875D03*
X005640Y002875D03*
D17*
X005555Y004625D03*
X005555Y006875D03*
X005555Y000875D03*
X000805Y000875D03*
D18*
X001305Y002375D03*
D19*
X001177Y001686D03*
X000921Y001686D03*
X001433Y001686D03*
X001689Y001686D03*
X001689Y003064D03*
X001433Y003064D03*
X001177Y003064D03*
X000921Y003064D03*
D20*
X000616Y002759D03*
X000616Y002503D03*
X000616Y002247D03*
X000616Y001991D03*
X001994Y001991D03*
X001994Y002247D03*
X001994Y002503D03*
X001994Y002759D03*
D21*
X000805Y000875D02*
X000820Y000850D01*
X000980Y000690D01*
X001420Y000690D01*
X001430Y000665D01*
X001460Y000650D01*
X001940Y001130D01*
X001540Y001530D01*
X001540Y001570D01*
X001460Y001650D01*
X001433Y001686D01*
X001420Y001690D01*
X001180Y001690D01*
X001177Y001686D01*
X001220Y001090D02*
X001420Y001090D01*
X001430Y001085D01*
X001220Y001090D02*
X000420Y001890D01*
X000420Y002090D01*
X000420Y003010D01*
X001060Y003650D01*
X001060Y003810D01*
X001260Y004010D01*
X001380Y004130D01*
X001580Y004130D01*
X001586Y004167D01*
X001580Y003970D02*
X001586Y003970D01*
X001580Y003970D02*
X001340Y003730D01*
X001340Y003450D01*
X001460Y003210D02*
X001900Y003650D01*
X001900Y003656D01*
X002060Y003450D02*
X002020Y003410D01*
X002020Y003290D01*
X001860Y003290D01*
X002020Y003290D02*
X002020Y002770D01*
X001994Y002759D01*
X001994Y002503D02*
X002020Y002490D01*
X002260Y002730D01*
X002260Y003650D01*
X002294Y003656D01*
X002260Y003690D01*
X002260Y003850D01*
X003420Y005010D01*
X003180Y005250D01*
X003420Y005010D02*
X003860Y004570D01*
X004740Y004570D01*
X004774Y004561D01*
X004780Y004370D02*
X004774Y004364D01*
X004780Y004330D01*
X004780Y004170D01*
X004774Y004167D01*
X004740Y004130D01*
X004380Y004130D01*
X004100Y003850D01*
X004100Y003690D01*
X004066Y003656D01*
X003900Y003650D02*
X003900Y003450D01*
X004180Y003170D01*
X004180Y002600D01*
X003980Y002650D02*
X003930Y002600D01*
X003980Y002650D02*
X003980Y002890D01*
X003980Y002970D01*
X003980Y002890D02*
X003500Y003370D01*
X003500Y003650D01*
X003475Y003656D01*
X003300Y003650D02*
X003300Y003330D01*
X003100Y003290D02*
X003100Y003650D01*
X003082Y003656D01*
X002900Y003650D02*
X002900Y003330D01*
X003100Y003290D02*
X002900Y003090D01*
X002900Y002890D01*
X003540Y002890D01*
X003660Y002770D01*
X003660Y002610D01*
X003680Y002600D01*
X003430Y002600D02*
X003420Y002610D01*
X002820Y002610D01*
X002805Y002585D01*
X002700Y002690D01*
X002700Y003650D01*
X002688Y003656D01*
X002500Y003650D02*
X002491Y003656D01*
X002500Y003650D02*
X002500Y002450D01*
X002780Y002170D01*
X002805Y002165D01*
X002820Y002170D01*
X003420Y002170D01*
X003430Y002150D01*
X003660Y001890D02*
X003620Y001850D01*
X002820Y001050D01*
X002805Y001040D01*
X002460Y000810D02*
X002180Y001090D01*
X002180Y001085D01*
X002180Y001090D02*
X001980Y001090D01*
X001980Y001970D01*
X001994Y001991D01*
X001980Y002010D01*
X001980Y002210D01*
X001994Y002247D01*
X001980Y002250D01*
X001980Y002490D01*
X001994Y002503D01*
X001460Y003090D02*
X001433Y003064D01*
X001460Y003090D02*
X001100Y003450D01*
X000860Y003690D02*
X000580Y003690D01*
X000555Y003665D01*
X000555Y004085D02*
X000580Y004090D01*
X000780Y004090D01*
X000780Y004850D01*
X000580Y005050D01*
X000555Y005085D01*
X000540Y005090D01*
X000420Y005210D01*
X000420Y006690D01*
X000660Y006930D01*
X000680Y006955D01*
X000700Y006970D01*
X000700Y007770D01*
X001020Y008090D01*
X001055Y008100D01*
X001300Y008130D02*
X001305Y008100D01*
X001300Y008130D02*
X001300Y008410D01*
X001540Y008410D02*
X001540Y008130D01*
X001555Y008100D01*
X001780Y008130D02*
X001780Y008410D01*
X001780Y008130D02*
X001805Y008100D01*
X002020Y008130D02*
X002020Y008410D01*
X002020Y008130D02*
X002055Y008100D01*
X002300Y008130D02*
X002300Y008410D01*
X002300Y008130D02*
X002305Y008100D01*
X002540Y008130D02*
X002555Y008100D01*
X002540Y008130D02*
X002540Y008410D01*
X002780Y008410D02*
X002780Y008130D01*
X002805Y008100D01*
X003020Y008130D02*
X003055Y008100D01*
X003020Y008130D02*
X003020Y008410D01*
X003305Y008100D02*
X003340Y008130D01*
X003340Y008410D01*
X003580Y008410D02*
X003580Y008130D01*
X003555Y008100D01*
X003805Y008100D02*
X003820Y008130D01*
X003820Y008410D01*
X004060Y008410D02*
X004060Y008130D01*
X004055Y008100D01*
X004305Y008100D02*
X004340Y008130D01*
X004340Y008810D01*
X004580Y008410D02*
X004580Y008130D01*
X004555Y008100D01*
X004805Y008100D02*
X004820Y008130D01*
X004820Y008410D01*
X005060Y008210D02*
X005060Y008130D01*
X005055Y008100D01*
X005060Y008210D02*
X005180Y008330D01*
X005420Y008330D01*
X005900Y007850D01*
X005900Y006730D01*
X005540Y006370D01*
X004780Y006370D01*
X004774Y006333D01*
X004780Y006170D02*
X004774Y006136D01*
X004780Y006170D02*
X005100Y006170D01*
X005100Y005930D02*
X004780Y005930D01*
X004774Y005939D01*
X004774Y005742D02*
X004780Y005730D01*
X005140Y005730D01*
X005340Y005930D01*
X005340Y006170D02*
X005900Y005610D01*
X005900Y003890D01*
X005580Y003570D01*
X005555Y003540D01*
X005580Y003530D01*
X005580Y003170D01*
X004780Y003970D01*
X004774Y003970D01*
X004780Y004370D02*
X005580Y004370D01*
X005555Y004625D01*
X005580Y004610D01*
X005580Y004370D01*
X005580Y003970D01*
X005555Y003960D01*
X005580Y003170D02*
X005580Y002810D01*
X005640Y002875D01*
X005620Y002850D01*
X005580Y002810D01*
X005420Y002650D01*
X005380Y002650D01*
X005340Y002610D01*
X005660Y002290D01*
X005660Y001490D01*
X004980Y000810D01*
X002460Y000810D01*
X002180Y000690D02*
X002180Y000665D01*
X002180Y000690D02*
X001860Y000690D01*
X001980Y001090D02*
X001940Y001130D01*
X002805Y001460D02*
X002820Y001490D01*
X002820Y001770D01*
X003660Y001890D02*
X003660Y002130D01*
X003680Y002150D01*
X003930Y002150D02*
X003940Y002130D01*
X003940Y001850D01*
X004140Y001650D01*
X005420Y001650D01*
X005430Y001665D01*
X005430Y002085D02*
X005420Y002090D01*
X005060Y002090D01*
X004900Y002170D02*
X005340Y002610D01*
X005220Y002875D02*
X005220Y002890D01*
X004460Y003650D01*
X004460Y003656D01*
X004300Y003650D02*
X004300Y003330D01*
X004300Y003650D02*
X004263Y003656D01*
X003900Y003650D02*
X003869Y003656D01*
X003700Y003490D02*
X003780Y003410D01*
X003780Y003330D01*
X003700Y003490D02*
X003700Y003650D01*
X003672Y003656D01*
X003300Y003650D02*
X003278Y003656D01*
X002900Y003650D02*
X002885Y003656D01*
X002260Y003850D02*
X002260Y003890D01*
X001700Y004450D01*
X001620Y004370D01*
X001586Y004364D01*
X001700Y004450D02*
X001620Y004530D01*
X001586Y004561D01*
X001580Y004570D01*
X001100Y004090D01*
X000780Y004090D01*
X000580Y004370D02*
X000580Y004650D01*
X000555Y004665D01*
X000780Y005090D02*
X000780Y006650D01*
X000680Y006535D01*
X000700Y006570D01*
X000780Y006650D01*
X001020Y006890D01*
X001020Y007290D01*
X001020Y007650D01*
X001055Y007650D01*
X001305Y007650D02*
X001340Y007650D01*
X001340Y007450D01*
X001580Y007210D01*
X001580Y006530D01*
X001586Y006530D01*
X001580Y006370D02*
X001586Y006333D01*
X001580Y006370D02*
X001380Y006370D01*
X001300Y006450D01*
X001300Y007210D01*
X001580Y007490D02*
X001580Y007650D01*
X001555Y007650D01*
X001580Y007490D02*
X001900Y007170D01*
X001900Y006850D01*
X001900Y006844D01*
X002060Y006850D02*
X002097Y006844D01*
X002060Y006850D02*
X002060Y007250D01*
X001820Y007490D01*
X001820Y007650D01*
X001805Y007650D01*
X002055Y007650D02*
X002060Y007650D01*
X002060Y007490D01*
X002260Y007290D01*
X002260Y006850D01*
X002294Y006844D01*
X002460Y006850D02*
X002491Y006844D01*
X002460Y006850D02*
X002460Y007330D01*
X002340Y007450D01*
X002340Y007650D01*
X002305Y007650D01*
X002555Y007650D02*
X002580Y007650D01*
X002580Y007490D01*
X002660Y007410D01*
X002660Y006850D01*
X002688Y006844D01*
X002860Y006850D02*
X002885Y006844D01*
X002860Y006850D02*
X002860Y007610D01*
X002820Y007650D01*
X002805Y007650D01*
X003055Y007650D02*
X003060Y007650D01*
X003060Y006850D01*
X003082Y006844D01*
X003278Y006844D02*
X003300Y006850D01*
X003300Y007650D01*
X003305Y007650D01*
X003500Y007610D02*
X003540Y007650D01*
X003555Y007650D01*
X003500Y007610D02*
X003500Y006850D01*
X003475Y006844D01*
X003672Y006844D02*
X003700Y006850D01*
X003700Y007410D01*
X003780Y007490D01*
X003780Y007650D01*
X003805Y007650D01*
X004020Y007650D02*
X004020Y007450D01*
X003900Y007330D01*
X003900Y006850D01*
X003869Y006844D01*
X004066Y006844D02*
X004100Y006850D01*
X004100Y007290D01*
X004300Y007490D01*
X004300Y007650D01*
X004305Y007650D01*
X004540Y007650D02*
X004540Y007490D01*
X004300Y007250D01*
X004300Y006850D01*
X004263Y006844D01*
X004460Y006850D02*
X004460Y006844D01*
X004460Y006850D02*
X004460Y007170D01*
X004780Y007490D01*
X004780Y007650D01*
X004805Y007650D01*
X005020Y007650D02*
X005020Y007450D01*
X004780Y007210D01*
X004780Y006530D01*
X004774Y006530D01*
X005300Y007290D02*
X005300Y007650D01*
X005305Y007650D01*
X005055Y007650D02*
X005020Y007650D01*
X005340Y008010D02*
X005340Y008090D01*
X005305Y008100D01*
X005340Y008010D02*
X005540Y007810D01*
X005540Y006890D01*
X005555Y006875D01*
X005220Y005570D02*
X004780Y005570D01*
X004774Y005545D01*
X004774Y005348D02*
X004780Y005330D01*
X005100Y005330D01*
X005100Y005090D02*
X004820Y005090D01*
X004780Y005130D01*
X004774Y005152D01*
X004774Y004955D02*
X004780Y004930D01*
X004940Y004930D01*
X005020Y004850D01*
X005100Y004850D01*
X004700Y002970D02*
X004700Y002610D01*
X004680Y002600D01*
X004700Y002170D02*
X004680Y002150D01*
X004700Y002170D02*
X004900Y002170D01*
X004180Y002150D02*
X004180Y001850D01*
X002060Y003450D02*
X002060Y003650D01*
X002097Y003656D01*
X001460Y003210D02*
X001460Y003090D01*
X000921Y003064D02*
X000900Y003050D01*
X000700Y003050D01*
X000616Y002503D02*
X000620Y002490D01*
X000620Y002250D01*
X000616Y002247D01*
X000580Y002210D01*
X000540Y002210D01*
X000420Y002090D01*
X001220Y004650D02*
X000780Y005090D01*
X001260Y005090D02*
X001540Y005090D01*
X001580Y005130D01*
X001586Y005152D01*
X001580Y005330D02*
X001586Y005348D01*
X001580Y005330D02*
X001260Y005330D01*
X001260Y005570D02*
X001580Y005570D01*
X001586Y005545D01*
X001586Y005742D02*
X001580Y005770D01*
X001540Y005810D01*
X001260Y005810D01*
X001340Y005970D02*
X001260Y006050D01*
X001340Y005970D02*
X001580Y005970D01*
X001586Y005939D01*
X001586Y006136D02*
X001580Y006170D01*
X001380Y006170D01*
X001260Y006290D01*
X001220Y006290D01*
X001420Y004930D02*
X001580Y004930D01*
X001586Y004955D01*
X001420Y004930D02*
X001340Y004850D01*
X001260Y004850D01*
X001380Y004730D02*
X001300Y004650D01*
X001220Y004650D01*
X001380Y004730D02*
X001580Y004730D01*
X001586Y004758D01*
X004020Y007650D02*
X004055Y007650D01*
X004540Y007650D02*
X004555Y007650D01*
D22*
X004580Y008410D03*
X004820Y008410D03*
X004340Y008810D03*
X004060Y008410D03*
X003820Y008410D03*
X003580Y008410D03*
X003340Y008410D03*
X003020Y008410D03*
X002780Y008410D03*
X002540Y008410D03*
X002300Y008410D03*
X002020Y008410D03*
X001780Y008410D03*
X001540Y008410D03*
X001300Y008410D03*
X000800Y007875D03*
X001020Y007290D03*
X001300Y007210D03*
X001220Y006290D03*
X001260Y006050D03*
X001260Y005810D03*
X001260Y005570D03*
X001260Y005330D03*
X001260Y005090D03*
X001260Y004850D03*
X000925Y004100D03*
X000860Y003690D03*
X001100Y003450D03*
X001340Y003450D03*
X001260Y004010D03*
X001860Y003290D03*
X002255Y003075D03*
X002900Y002890D03*
X002900Y003330D03*
X003300Y003330D03*
X003780Y003330D03*
X003980Y002970D03*
X004300Y003330D03*
X004700Y002970D03*
X005130Y003625D03*
X005505Y002450D03*
X005060Y002090D03*
X004180Y001850D03*
X003940Y001850D03*
X003620Y001850D03*
X002820Y001770D03*
X001860Y000690D03*
X000700Y003050D03*
X000580Y004370D03*
X005100Y004850D03*
X005100Y005090D03*
X005100Y005330D03*
X005220Y005570D03*
X005100Y005930D03*
X005100Y006170D03*
X005340Y006170D03*
X005340Y005930D03*
X005300Y007290D03*
M02*
