G75*
G70*
%OFA0B0*%
%FSLAX24Y24*%
%IPPOS*%
%LPD*%
%AMOC8*
5,1,8,0,0,1.08239X$1,22.5*
%
%ADD10C,0.0520*%
%ADD11C,0.0180*%
%ADD12C,0.0050*%
D10*
X000805Y000875D03*
X005555Y000875D03*
X005555Y004625D03*
X005555Y006875D03*
D11*
X005300Y007290D03*
X005340Y006170D03*
X005340Y005930D03*
X005100Y005930D03*
X005100Y006170D03*
X005220Y005570D03*
X005100Y005330D03*
X005100Y005090D03*
X005100Y004850D03*
X005130Y003625D03*
X004700Y002970D03*
X004300Y003330D03*
X003980Y002970D03*
X003780Y003330D03*
X003300Y003330D03*
X002900Y003330D03*
X002900Y002890D03*
X002255Y003075D03*
X001860Y003290D03*
X001340Y003450D03*
X001100Y003450D03*
X000860Y003690D03*
X000925Y004100D03*
X001260Y004010D03*
X001260Y004850D03*
X001260Y005090D03*
X001260Y005330D03*
X001260Y005570D03*
X001260Y005810D03*
X001260Y006050D03*
X001220Y006290D03*
X001300Y007210D03*
X001020Y007290D03*
X000800Y007875D03*
X001300Y008410D03*
X001540Y008410D03*
X001780Y008410D03*
X002020Y008410D03*
X002300Y008410D03*
X002540Y008410D03*
X002780Y008410D03*
X003020Y008410D03*
X003340Y008410D03*
X003580Y008410D03*
X003820Y008410D03*
X004060Y008410D03*
X004340Y008810D03*
X004580Y008410D03*
X004820Y008410D03*
X005505Y002450D03*
X005060Y002090D03*
X004180Y001850D03*
X003940Y001850D03*
X003620Y001850D03*
X002820Y001770D03*
X001860Y000690D03*
X000700Y003050D03*
X000580Y004370D03*
D12*
X000717Y000500D02*
X000430Y000500D01*
X000430Y000787D01*
X000435Y000763D01*
X000464Y000693D01*
X000506Y000630D01*
X000560Y000576D01*
X000623Y000534D01*
X000693Y000505D01*
X000717Y000500D01*
X000612Y000541D02*
X000430Y000541D01*
X000430Y000590D02*
X000546Y000590D01*
X000500Y000638D02*
X000430Y000638D01*
X000430Y000687D02*
X000468Y000687D01*
X000446Y000735D02*
X000430Y000735D01*
X000430Y000784D02*
X000431Y000784D01*
X000430Y000963D02*
X000430Y004287D01*
X000512Y004205D01*
X000648Y004205D01*
X000745Y004302D01*
X000745Y004438D01*
X000648Y004535D01*
X000512Y004535D01*
X000430Y004453D01*
X000430Y008375D01*
X001135Y008375D01*
X001135Y008342D01*
X001232Y008245D01*
X001368Y008245D01*
X001420Y008297D01*
X001472Y008245D01*
X001608Y008245D01*
X001660Y008297D01*
X001712Y008245D01*
X001848Y008245D01*
X001900Y008297D01*
X001952Y008245D01*
X002088Y008245D01*
X002160Y008317D01*
X002232Y008245D01*
X002368Y008245D01*
X002420Y008297D01*
X002472Y008245D01*
X002608Y008245D01*
X002660Y008297D01*
X002712Y008245D01*
X002848Y008245D01*
X002900Y008297D01*
X002952Y008245D01*
X003088Y008245D01*
X003180Y008337D01*
X003272Y008245D01*
X003408Y008245D01*
X003460Y008297D01*
X003512Y008245D01*
X003648Y008245D01*
X003700Y008297D01*
X003752Y008245D01*
X003888Y008245D01*
X003940Y008297D01*
X003992Y008245D01*
X004128Y008245D01*
X004225Y008342D01*
X004225Y008375D01*
X004415Y008375D01*
X004415Y008342D01*
X004512Y008245D01*
X004648Y008245D01*
X004700Y008297D01*
X004752Y008245D01*
X004888Y008245D01*
X004985Y008342D01*
X004985Y008375D01*
X005930Y008375D01*
X005930Y000500D01*
X000893Y000500D01*
X000917Y000505D01*
X000987Y000534D01*
X001050Y000576D01*
X001104Y000630D01*
X001146Y000693D01*
X001175Y000763D01*
X001190Y000837D01*
X001190Y000850D01*
X000830Y000850D01*
X000830Y000900D01*
X001190Y000900D01*
X001190Y000913D01*
X001175Y000987D01*
X001146Y001057D01*
X001104Y001120D01*
X001050Y001174D01*
X000987Y001216D01*
X000917Y001245D01*
X000843Y001260D01*
X000830Y001260D01*
X000830Y000900D01*
X000780Y000900D01*
X000780Y001260D01*
X000767Y001260D01*
X000693Y001245D01*
X000623Y001216D01*
X000560Y001174D01*
X000506Y001120D01*
X000464Y001057D01*
X000435Y000987D01*
X000430Y000963D01*
X000430Y000978D02*
X000433Y000978D01*
X000430Y001026D02*
X000451Y001026D01*
X000430Y001075D02*
X000475Y001075D01*
X000509Y001123D02*
X000430Y001123D01*
X000430Y001172D02*
X000557Y001172D01*
X000632Y001220D02*
X000430Y001220D01*
X000430Y001269D02*
X005930Y001269D01*
X005930Y001317D02*
X000430Y001317D01*
X000430Y001366D02*
X005930Y001366D01*
X005930Y001414D02*
X000430Y001414D01*
X000430Y001463D02*
X005930Y001463D01*
X005930Y001511D02*
X000430Y001511D01*
X000430Y001560D02*
X005930Y001560D01*
X005930Y001608D02*
X002891Y001608D01*
X002888Y001605D02*
X002985Y001702D01*
X002985Y001838D01*
X002888Y001935D01*
X002752Y001935D01*
X002655Y001838D01*
X002655Y001702D01*
X002752Y001605D01*
X002888Y001605D01*
X002940Y001657D02*
X005930Y001657D01*
X005930Y001705D02*
X004268Y001705D01*
X004248Y001685D02*
X004345Y001782D01*
X004345Y001918D01*
X004248Y002015D01*
X004112Y002015D01*
X004060Y001963D01*
X004008Y002015D01*
X003872Y002015D01*
X003780Y001923D01*
X003688Y002015D01*
X003552Y002015D01*
X003455Y001918D01*
X003455Y001782D01*
X003552Y001685D01*
X003688Y001685D01*
X003780Y001777D01*
X003872Y001685D01*
X004008Y001685D01*
X004060Y001737D01*
X004112Y001685D01*
X004248Y001685D01*
X004317Y001754D02*
X005930Y001754D01*
X005930Y001802D02*
X004345Y001802D01*
X004345Y001851D02*
X005930Y001851D01*
X005930Y001899D02*
X004345Y001899D01*
X004316Y001948D02*
X004969Y001948D01*
X004992Y001925D02*
X005128Y001925D01*
X005225Y002022D01*
X005225Y002158D01*
X005128Y002255D01*
X004992Y002255D01*
X004895Y002158D01*
X004895Y002022D01*
X004992Y001925D01*
X004921Y001996D02*
X004267Y001996D01*
X004093Y001996D02*
X004027Y001996D01*
X003853Y001996D02*
X003707Y001996D01*
X003756Y001948D02*
X003804Y001948D01*
X003803Y001754D02*
X003757Y001754D01*
X003708Y001705D02*
X003852Y001705D01*
X004028Y001705D02*
X004092Y001705D01*
X003532Y001705D02*
X002985Y001705D01*
X002985Y001754D02*
X003483Y001754D01*
X003455Y001802D02*
X002985Y001802D01*
X002973Y001851D02*
X003455Y001851D01*
X003455Y001899D02*
X002924Y001899D01*
X002716Y001899D02*
X000430Y001899D01*
X000430Y001851D02*
X002667Y001851D01*
X002655Y001802D02*
X000430Y001802D01*
X000430Y001754D02*
X002655Y001754D01*
X002655Y001705D02*
X000430Y001705D01*
X000430Y001657D02*
X002700Y001657D01*
X002749Y001608D02*
X000430Y001608D01*
X000430Y001948D02*
X003484Y001948D01*
X003533Y001996D02*
X000430Y001996D01*
X000430Y002045D02*
X004895Y002045D01*
X004895Y002093D02*
X000430Y002093D01*
X000430Y002142D02*
X004895Y002142D01*
X004927Y002190D02*
X000430Y002190D01*
X000430Y002239D02*
X004975Y002239D01*
X005145Y002239D02*
X005930Y002239D01*
X005930Y002287D02*
X000430Y002287D01*
X000430Y002336D02*
X005930Y002336D01*
X005930Y002384D02*
X000430Y002384D01*
X000430Y002433D02*
X005930Y002433D01*
X005930Y002481D02*
X000430Y002481D01*
X000430Y002530D02*
X005930Y002530D01*
X005930Y002578D02*
X000430Y002578D01*
X000430Y002627D02*
X005930Y002627D01*
X005930Y002675D02*
X000430Y002675D01*
X000430Y002724D02*
X005930Y002724D01*
X005930Y002772D02*
X003015Y002772D01*
X002968Y002725D02*
X003065Y002822D01*
X003065Y002958D01*
X002968Y003055D01*
X002832Y003055D01*
X002735Y002958D01*
X002735Y002822D01*
X002832Y002725D01*
X002968Y002725D01*
X003064Y002821D02*
X003896Y002821D01*
X003912Y002805D02*
X004048Y002805D01*
X004145Y002902D01*
X004145Y003038D01*
X004048Y003135D01*
X003912Y003135D01*
X003815Y003038D01*
X003815Y002902D01*
X003912Y002805D01*
X003848Y002869D02*
X003065Y002869D01*
X003065Y002918D02*
X003815Y002918D01*
X003815Y002966D02*
X003057Y002966D01*
X003009Y003015D02*
X003815Y003015D01*
X003840Y003063D02*
X000865Y003063D01*
X000865Y003015D02*
X002791Y003015D01*
X002743Y002966D02*
X000849Y002966D01*
X000865Y002982D02*
X000768Y002885D01*
X000632Y002885D01*
X000535Y002982D01*
X000535Y003118D01*
X000632Y003215D01*
X000768Y003215D01*
X000865Y003118D01*
X000865Y002982D01*
X000801Y002918D02*
X002735Y002918D01*
X002735Y002869D02*
X000430Y002869D01*
X000430Y002821D02*
X002736Y002821D01*
X002785Y002772D02*
X000430Y002772D01*
X000430Y002918D02*
X000599Y002918D01*
X000551Y002966D02*
X000430Y002966D01*
X000430Y003015D02*
X000535Y003015D01*
X000535Y003063D02*
X000430Y003063D01*
X000430Y003112D02*
X000535Y003112D01*
X000577Y003160D02*
X000430Y003160D01*
X000430Y003209D02*
X000625Y003209D01*
X000775Y003209D02*
X001708Y003209D01*
X001695Y003222D02*
X001792Y003125D01*
X001928Y003125D01*
X002025Y003222D01*
X002025Y003358D01*
X001928Y003455D01*
X001792Y003455D01*
X001695Y003358D01*
X001695Y003222D01*
X001695Y003257D02*
X000430Y003257D01*
X000430Y003306D02*
X001011Y003306D01*
X001032Y003285D02*
X000935Y003382D01*
X000935Y003518D01*
X001032Y003615D01*
X001168Y003615D01*
X001220Y003563D01*
X001272Y003615D01*
X001408Y003615D01*
X001505Y003518D01*
X001505Y003382D01*
X001408Y003285D01*
X001272Y003285D01*
X001220Y003337D01*
X001168Y003285D01*
X001032Y003285D01*
X000963Y003354D02*
X000430Y003354D01*
X000430Y003403D02*
X000935Y003403D01*
X000935Y003451D02*
X000430Y003451D01*
X000430Y003500D02*
X000935Y003500D01*
X000928Y003525D02*
X001025Y003622D01*
X001025Y003758D01*
X000928Y003855D01*
X000792Y003855D01*
X000695Y003758D01*
X000695Y003622D01*
X000792Y003525D01*
X000928Y003525D01*
X000951Y003548D02*
X000965Y003548D01*
X001000Y003597D02*
X001013Y003597D01*
X001025Y003645D02*
X005930Y003645D01*
X005930Y003597D02*
X001427Y003597D01*
X001475Y003548D02*
X005930Y003548D01*
X005930Y003500D02*
X001505Y003500D01*
X001505Y003451D02*
X001788Y003451D01*
X001739Y003403D02*
X001505Y003403D01*
X001477Y003354D02*
X001695Y003354D01*
X001695Y003306D02*
X001429Y003306D01*
X001251Y003306D02*
X001189Y003306D01*
X001187Y003597D02*
X001253Y003597D01*
X001192Y003845D02*
X001328Y003845D01*
X001425Y003942D01*
X001425Y004078D01*
X001328Y004175D01*
X001192Y004175D01*
X001095Y004078D01*
X001095Y003942D01*
X001192Y003845D01*
X001149Y003888D02*
X000430Y003888D01*
X000430Y003936D02*
X001101Y003936D01*
X001095Y003985D02*
X000430Y003985D01*
X000430Y004033D02*
X001095Y004033D01*
X001098Y004082D02*
X000430Y004082D01*
X000430Y004130D02*
X001147Y004130D01*
X000944Y003839D02*
X005930Y003839D01*
X005930Y003791D02*
X000993Y003791D01*
X001025Y003742D02*
X005930Y003742D01*
X005930Y003694D02*
X001025Y003694D01*
X000776Y003839D02*
X000430Y003839D01*
X000430Y003791D02*
X000727Y003791D01*
X000695Y003742D02*
X000430Y003742D01*
X000430Y003694D02*
X000695Y003694D01*
X000695Y003645D02*
X000430Y003645D01*
X000430Y003597D02*
X000720Y003597D01*
X000769Y003548D02*
X000430Y003548D01*
X000823Y003160D02*
X001757Y003160D01*
X001963Y003160D02*
X005930Y003160D01*
X005930Y003112D02*
X004792Y003112D01*
X004768Y003135D02*
X004632Y003135D01*
X004535Y003038D01*
X004535Y002902D01*
X004632Y002805D01*
X004768Y002805D01*
X004865Y002902D01*
X004865Y003038D01*
X004768Y003135D01*
X004840Y003063D02*
X005930Y003063D01*
X005930Y003015D02*
X004865Y003015D01*
X004865Y002966D02*
X005930Y002966D01*
X005930Y002918D02*
X004865Y002918D01*
X004832Y002869D02*
X005930Y002869D01*
X005930Y002821D02*
X004784Y002821D01*
X004616Y002821D02*
X004064Y002821D01*
X004112Y002869D02*
X004568Y002869D01*
X004535Y002918D02*
X004145Y002918D01*
X004145Y002966D02*
X004535Y002966D01*
X004535Y003015D02*
X004145Y003015D01*
X004120Y003063D02*
X004560Y003063D01*
X004608Y003112D02*
X004072Y003112D01*
X004140Y003257D02*
X003940Y003257D01*
X003945Y003262D02*
X003848Y003165D01*
X003712Y003165D01*
X003615Y003262D01*
X003615Y003398D01*
X003712Y003495D01*
X003848Y003495D01*
X003945Y003398D01*
X003945Y003262D01*
X003945Y003306D02*
X004135Y003306D01*
X004135Y003262D02*
X004232Y003165D01*
X004368Y003165D01*
X004465Y003262D01*
X004465Y003398D01*
X004368Y003495D01*
X004232Y003495D01*
X004135Y003398D01*
X004135Y003262D01*
X004188Y003209D02*
X003892Y003209D01*
X003888Y003112D02*
X000865Y003112D01*
X001371Y003888D02*
X005930Y003888D01*
X005930Y003936D02*
X001419Y003936D01*
X001425Y003985D02*
X005930Y003985D01*
X005930Y004033D02*
X001425Y004033D01*
X001422Y004082D02*
X005930Y004082D01*
X005930Y004130D02*
X001373Y004130D01*
X001328Y004685D02*
X001192Y004685D01*
X001095Y004782D01*
X001095Y004918D01*
X001147Y004970D01*
X001095Y005022D01*
X001095Y005158D01*
X001147Y005210D01*
X001095Y005262D01*
X001095Y005398D01*
X001147Y005450D01*
X001095Y005502D01*
X001095Y005638D01*
X001147Y005690D01*
X001095Y005742D01*
X001095Y005878D01*
X001147Y005930D01*
X001095Y005982D01*
X001095Y006118D01*
X001127Y006150D01*
X001055Y006222D01*
X001055Y006358D01*
X001152Y006455D01*
X001288Y006455D01*
X001385Y006358D01*
X001385Y006222D01*
X001353Y006190D01*
X001425Y006118D01*
X001425Y005982D01*
X001373Y005930D01*
X001425Y005878D01*
X001425Y005742D01*
X001373Y005690D01*
X001425Y005638D01*
X001425Y005502D01*
X001373Y005450D01*
X001425Y005398D01*
X001425Y005262D01*
X001373Y005210D01*
X001425Y005158D01*
X001425Y005022D01*
X001373Y004970D01*
X001425Y004918D01*
X001425Y004782D01*
X001328Y004685D01*
X001355Y004712D02*
X005005Y004712D01*
X005032Y004685D02*
X004935Y004782D01*
X004935Y004918D01*
X004987Y004970D01*
X004935Y005022D01*
X004935Y005158D01*
X004987Y005210D01*
X004935Y005262D01*
X004935Y005398D01*
X005032Y005495D01*
X005062Y005495D01*
X005055Y005502D01*
X005055Y005638D01*
X005152Y005735D01*
X005288Y005735D01*
X005385Y005638D01*
X005385Y005502D01*
X005288Y005405D01*
X005258Y005405D01*
X005265Y005398D01*
X005265Y005262D01*
X005213Y005210D01*
X005265Y005158D01*
X005265Y005022D01*
X005213Y004970D01*
X005265Y004918D01*
X005265Y004800D01*
X005271Y004815D01*
X005365Y004909D01*
X005488Y004960D01*
X005622Y004960D01*
X005745Y004909D01*
X005839Y004815D01*
X005890Y004692D01*
X005890Y004558D01*
X005839Y004435D01*
X005745Y004341D01*
X005622Y004290D01*
X005488Y004290D01*
X005365Y004341D01*
X005271Y004435D01*
X005220Y004558D01*
X005220Y004692D01*
X005252Y004768D01*
X005168Y004685D01*
X005032Y004685D01*
X004956Y004761D02*
X001404Y004761D01*
X001425Y004809D02*
X004935Y004809D01*
X004935Y004858D02*
X001425Y004858D01*
X001425Y004906D02*
X004935Y004906D01*
X004971Y004955D02*
X001389Y004955D01*
X001406Y005003D02*
X004954Y005003D01*
X004935Y005052D02*
X001425Y005052D01*
X001425Y005100D02*
X004935Y005100D01*
X004935Y005149D02*
X001425Y005149D01*
X001386Y005197D02*
X004974Y005197D01*
X004951Y005246D02*
X001409Y005246D01*
X001425Y005294D02*
X004935Y005294D01*
X004935Y005343D02*
X001425Y005343D01*
X001425Y005391D02*
X004935Y005391D01*
X004976Y005440D02*
X001384Y005440D01*
X001411Y005488D02*
X005025Y005488D01*
X005055Y005537D02*
X001425Y005537D01*
X001425Y005585D02*
X005055Y005585D01*
X005055Y005634D02*
X001425Y005634D01*
X001381Y005682D02*
X005099Y005682D01*
X005147Y005731D02*
X001414Y005731D01*
X001425Y005779D02*
X005018Y005779D01*
X005032Y005765D02*
X005168Y005765D01*
X005220Y005817D01*
X005272Y005765D01*
X005408Y005765D01*
X005505Y005862D01*
X005505Y005998D01*
X005408Y006095D01*
X005272Y006095D01*
X005220Y006043D01*
X005213Y006050D01*
X005265Y006102D01*
X005265Y006238D01*
X005168Y006335D01*
X005032Y006335D01*
X004935Y006238D01*
X004935Y006102D01*
X004987Y006050D01*
X004935Y005998D01*
X004935Y005862D01*
X005032Y005765D01*
X004969Y005828D02*
X001425Y005828D01*
X001425Y005876D02*
X004935Y005876D01*
X004935Y005925D02*
X001379Y005925D01*
X001416Y005973D02*
X004935Y005973D01*
X004958Y006022D02*
X001425Y006022D01*
X001425Y006070D02*
X004967Y006070D01*
X004935Y006119D02*
X001425Y006119D01*
X001376Y006167D02*
X004935Y006167D01*
X004935Y006216D02*
X001379Y006216D01*
X001385Y006264D02*
X004961Y006264D01*
X005009Y006313D02*
X001385Y006313D01*
X001382Y006361D02*
X005930Y006361D01*
X005930Y006313D02*
X005191Y006313D01*
X005239Y006264D02*
X005930Y006264D01*
X005930Y006216D02*
X005265Y006216D01*
X005265Y006167D02*
X005930Y006167D01*
X005930Y006119D02*
X005265Y006119D01*
X005247Y006070D02*
X005233Y006070D01*
X005433Y006070D02*
X005930Y006070D01*
X005930Y006022D02*
X005482Y006022D01*
X005505Y005973D02*
X005930Y005973D01*
X005930Y005925D02*
X005505Y005925D01*
X005505Y005876D02*
X005930Y005876D01*
X005930Y005828D02*
X005471Y005828D01*
X005422Y005779D02*
X005930Y005779D01*
X005930Y005731D02*
X005293Y005731D01*
X005258Y005779D02*
X005182Y005779D01*
X005341Y005682D02*
X005930Y005682D01*
X005930Y005634D02*
X005385Y005634D01*
X005385Y005585D02*
X005930Y005585D01*
X005930Y005537D02*
X005385Y005537D01*
X005371Y005488D02*
X005930Y005488D01*
X005930Y005440D02*
X005323Y005440D01*
X005265Y005391D02*
X005930Y005391D01*
X005930Y005343D02*
X005265Y005343D01*
X005265Y005294D02*
X005930Y005294D01*
X005930Y005246D02*
X005249Y005246D01*
X005226Y005197D02*
X005930Y005197D01*
X005930Y005149D02*
X005265Y005149D01*
X005265Y005100D02*
X005930Y005100D01*
X005930Y005052D02*
X005265Y005052D01*
X005246Y005003D02*
X005930Y005003D01*
X005930Y004955D02*
X005635Y004955D01*
X005748Y004906D02*
X005930Y004906D01*
X005930Y004858D02*
X005796Y004858D01*
X005841Y004809D02*
X005930Y004809D01*
X005930Y004761D02*
X005861Y004761D01*
X005882Y004712D02*
X005930Y004712D01*
X005930Y004664D02*
X005890Y004664D01*
X005890Y004615D02*
X005930Y004615D01*
X005930Y004567D02*
X005890Y004567D01*
X005873Y004518D02*
X005930Y004518D01*
X005930Y004470D02*
X005853Y004470D01*
X005825Y004421D02*
X005930Y004421D01*
X005930Y004373D02*
X005776Y004373D01*
X005704Y004324D02*
X005930Y004324D01*
X005930Y004276D02*
X000719Y004276D01*
X000745Y004324D02*
X005406Y004324D01*
X005334Y004373D02*
X000745Y004373D01*
X000745Y004421D02*
X005285Y004421D01*
X005257Y004470D02*
X000714Y004470D01*
X000665Y004518D02*
X005237Y004518D01*
X005220Y004567D02*
X000430Y004567D01*
X000430Y004615D02*
X005220Y004615D01*
X005220Y004664D02*
X000430Y004664D01*
X000430Y004712D02*
X001165Y004712D01*
X001116Y004761D02*
X000430Y004761D01*
X000430Y004809D02*
X001095Y004809D01*
X001095Y004858D02*
X000430Y004858D01*
X000430Y004906D02*
X001095Y004906D01*
X001131Y004955D02*
X000430Y004955D01*
X000430Y005003D02*
X001114Y005003D01*
X001095Y005052D02*
X000430Y005052D01*
X000430Y005100D02*
X001095Y005100D01*
X001095Y005149D02*
X000430Y005149D01*
X000430Y005197D02*
X001134Y005197D01*
X001111Y005246D02*
X000430Y005246D01*
X000430Y005294D02*
X001095Y005294D01*
X001095Y005343D02*
X000430Y005343D01*
X000430Y005391D02*
X001095Y005391D01*
X001136Y005440D02*
X000430Y005440D01*
X000430Y005488D02*
X001109Y005488D01*
X001095Y005537D02*
X000430Y005537D01*
X000430Y005585D02*
X001095Y005585D01*
X001095Y005634D02*
X000430Y005634D01*
X000430Y005682D02*
X001139Y005682D01*
X001106Y005731D02*
X000430Y005731D01*
X000430Y005779D02*
X001095Y005779D01*
X001095Y005828D02*
X000430Y005828D01*
X000430Y005876D02*
X001095Y005876D01*
X001141Y005925D02*
X000430Y005925D01*
X000430Y005973D02*
X001104Y005973D01*
X001095Y006022D02*
X000430Y006022D01*
X000430Y006070D02*
X001095Y006070D01*
X001095Y006119D02*
X000430Y006119D01*
X000430Y006167D02*
X001110Y006167D01*
X001061Y006216D02*
X000430Y006216D01*
X000430Y006264D02*
X001055Y006264D01*
X001055Y006313D02*
X000430Y006313D01*
X000430Y006361D02*
X001058Y006361D01*
X001106Y006410D02*
X000430Y006410D01*
X000430Y006458D02*
X005930Y006458D01*
X005930Y006410D02*
X001334Y006410D01*
X001368Y007045D02*
X001232Y007045D01*
X001135Y007142D01*
X001135Y007172D01*
X001088Y007125D01*
X000952Y007125D01*
X000855Y007222D01*
X000855Y007358D01*
X000952Y007455D01*
X001088Y007455D01*
X001185Y007358D01*
X001185Y007328D01*
X001232Y007375D01*
X001368Y007375D01*
X001465Y007278D01*
X001465Y007142D01*
X001368Y007045D01*
X001412Y007089D02*
X005295Y007089D01*
X005271Y007065D02*
X005220Y006942D01*
X005220Y006808D01*
X005271Y006685D01*
X005365Y006591D01*
X005488Y006540D01*
X005622Y006540D01*
X005745Y006591D01*
X005839Y006685D01*
X005890Y006808D01*
X005890Y006942D01*
X005839Y007065D01*
X005745Y007159D01*
X005622Y007210D01*
X005488Y007210D01*
X005365Y007159D01*
X005271Y007065D01*
X005261Y007040D02*
X000430Y007040D01*
X000430Y006992D02*
X005241Y006992D01*
X005221Y006943D02*
X000430Y006943D01*
X000430Y006895D02*
X005220Y006895D01*
X005220Y006846D02*
X000430Y006846D01*
X000430Y006798D02*
X005224Y006798D01*
X005245Y006749D02*
X000430Y006749D01*
X000430Y006701D02*
X005265Y006701D01*
X005304Y006652D02*
X000430Y006652D01*
X000430Y006604D02*
X005353Y006604D01*
X005452Y006555D02*
X000430Y006555D01*
X000430Y006507D02*
X005930Y006507D01*
X005930Y006555D02*
X005658Y006555D01*
X005757Y006604D02*
X005930Y006604D01*
X005930Y006652D02*
X005806Y006652D01*
X005845Y006701D02*
X005930Y006701D01*
X005930Y006749D02*
X005865Y006749D01*
X005886Y006798D02*
X005930Y006798D01*
X005930Y006846D02*
X005890Y006846D01*
X005890Y006895D02*
X005930Y006895D01*
X005930Y006943D02*
X005889Y006943D01*
X005869Y006992D02*
X005930Y006992D01*
X005930Y007040D02*
X005849Y007040D01*
X005815Y007089D02*
X005930Y007089D01*
X005930Y007137D02*
X005767Y007137D01*
X005681Y007186D02*
X005930Y007186D01*
X005930Y007234D02*
X001465Y007234D01*
X001465Y007186D02*
X005429Y007186D01*
X005343Y007137D02*
X001460Y007137D01*
X001461Y007283D02*
X005930Y007283D01*
X005930Y007331D02*
X001412Y007331D01*
X001188Y007331D02*
X001185Y007331D01*
X001164Y007380D02*
X005930Y007380D01*
X005930Y007428D02*
X001115Y007428D01*
X000925Y007428D02*
X000430Y007428D01*
X000430Y007380D02*
X000876Y007380D01*
X000855Y007331D02*
X000430Y007331D01*
X000430Y007283D02*
X000855Y007283D01*
X000855Y007234D02*
X000430Y007234D01*
X000430Y007186D02*
X000891Y007186D01*
X000940Y007137D02*
X000430Y007137D01*
X000430Y007089D02*
X001188Y007089D01*
X001140Y007137D02*
X001100Y007137D01*
X000430Y007477D02*
X005930Y007477D01*
X005930Y007525D02*
X000430Y007525D01*
X000430Y007574D02*
X005930Y007574D01*
X005930Y007622D02*
X000430Y007622D01*
X000430Y007671D02*
X005930Y007671D01*
X005930Y007719D02*
X000430Y007719D01*
X000430Y007768D02*
X005930Y007768D01*
X005930Y007816D02*
X000430Y007816D01*
X000430Y007865D02*
X005930Y007865D01*
X005930Y007913D02*
X000430Y007913D01*
X000430Y007962D02*
X005930Y007962D01*
X005930Y008010D02*
X000430Y008010D01*
X000430Y008059D02*
X005930Y008059D01*
X005930Y008107D02*
X000430Y008107D01*
X000430Y008156D02*
X005930Y008156D01*
X005930Y008204D02*
X000430Y008204D01*
X000430Y008253D02*
X001224Y008253D01*
X001176Y008301D02*
X000430Y008301D01*
X000430Y008350D02*
X001135Y008350D01*
X001376Y008253D02*
X001464Y008253D01*
X001616Y008253D02*
X001704Y008253D01*
X001856Y008253D02*
X001944Y008253D01*
X002096Y008253D02*
X002224Y008253D01*
X002176Y008301D02*
X002144Y008301D01*
X002376Y008253D02*
X002464Y008253D01*
X002616Y008253D02*
X002704Y008253D01*
X002856Y008253D02*
X002944Y008253D01*
X003096Y008253D02*
X003264Y008253D01*
X003216Y008301D02*
X003144Y008301D01*
X003416Y008253D02*
X003504Y008253D01*
X003656Y008253D02*
X003744Y008253D01*
X003896Y008253D02*
X003984Y008253D01*
X004136Y008253D02*
X004504Y008253D01*
X004456Y008301D02*
X004184Y008301D01*
X004225Y008350D02*
X004415Y008350D01*
X004656Y008253D02*
X004744Y008253D01*
X004896Y008253D02*
X005930Y008253D01*
X005930Y008301D02*
X004944Y008301D01*
X004985Y008350D02*
X005930Y008350D01*
X005475Y004955D02*
X005229Y004955D01*
X005265Y004906D02*
X005362Y004906D01*
X005314Y004858D02*
X005265Y004858D01*
X005265Y004809D02*
X005269Y004809D01*
X005249Y004761D02*
X005244Y004761D01*
X005228Y004712D02*
X005195Y004712D01*
X005930Y004227D02*
X000670Y004227D01*
X000490Y004227D02*
X000430Y004227D01*
X000430Y004179D02*
X005930Y004179D01*
X005930Y003451D02*
X004412Y003451D01*
X004461Y003403D02*
X005930Y003403D01*
X005930Y003354D02*
X004465Y003354D01*
X004465Y003306D02*
X005930Y003306D01*
X005930Y003257D02*
X004460Y003257D01*
X004412Y003209D02*
X005930Y003209D01*
X005930Y002190D02*
X005193Y002190D01*
X005225Y002142D02*
X005930Y002142D01*
X005930Y002093D02*
X005225Y002093D01*
X005225Y002045D02*
X005930Y002045D01*
X005930Y001996D02*
X005199Y001996D01*
X005151Y001948D02*
X005930Y001948D01*
X005930Y001220D02*
X000978Y001220D01*
X001053Y001172D02*
X005395Y001172D01*
X005365Y001159D02*
X005271Y001065D01*
X005220Y000942D01*
X005220Y000808D01*
X005271Y000685D01*
X005365Y000591D01*
X005488Y000540D01*
X005622Y000540D01*
X005745Y000591D01*
X005839Y000685D01*
X005890Y000808D01*
X005890Y000942D01*
X005839Y001065D01*
X005745Y001159D01*
X005622Y001210D01*
X005488Y001210D01*
X005365Y001159D01*
X005329Y001123D02*
X001101Y001123D01*
X001135Y001075D02*
X005281Y001075D01*
X005255Y001026D02*
X001159Y001026D01*
X001177Y000978D02*
X005235Y000978D01*
X005220Y000929D02*
X001187Y000929D01*
X001189Y000832D02*
X001769Y000832D01*
X001792Y000855D02*
X001695Y000758D01*
X001695Y000622D01*
X001792Y000525D01*
X001928Y000525D01*
X002025Y000622D01*
X002025Y000758D01*
X001928Y000855D01*
X001792Y000855D01*
X001720Y000784D02*
X001179Y000784D01*
X001164Y000735D02*
X001695Y000735D01*
X001695Y000687D02*
X001142Y000687D01*
X001110Y000638D02*
X001695Y000638D01*
X001727Y000590D02*
X001064Y000590D01*
X000998Y000541D02*
X001776Y000541D01*
X001944Y000541D02*
X005486Y000541D01*
X005369Y000590D02*
X001993Y000590D01*
X002025Y000638D02*
X005318Y000638D01*
X005270Y000687D02*
X002025Y000687D01*
X002025Y000735D02*
X005250Y000735D01*
X005230Y000784D02*
X002000Y000784D01*
X001951Y000832D02*
X005220Y000832D01*
X005220Y000881D02*
X000830Y000881D01*
X000830Y000929D02*
X000780Y000929D01*
X000780Y000978D02*
X000830Y000978D01*
X000830Y001026D02*
X000780Y001026D01*
X000780Y001075D02*
X000830Y001075D01*
X000830Y001123D02*
X000780Y001123D01*
X000780Y001172D02*
X000830Y001172D01*
X000830Y001220D02*
X000780Y001220D01*
X002012Y003209D02*
X002788Y003209D01*
X002832Y003165D02*
X002968Y003165D01*
X003065Y003262D01*
X003065Y003398D01*
X002968Y003495D01*
X002832Y003495D01*
X002735Y003398D01*
X002735Y003262D01*
X002832Y003165D01*
X002740Y003257D02*
X002025Y003257D01*
X002025Y003306D02*
X002735Y003306D01*
X002735Y003354D02*
X002025Y003354D01*
X001981Y003403D02*
X002739Y003403D01*
X002788Y003451D02*
X001932Y003451D01*
X003012Y003451D02*
X003188Y003451D01*
X003232Y003495D02*
X003135Y003398D01*
X003135Y003262D01*
X003232Y003165D01*
X003368Y003165D01*
X003465Y003262D01*
X003465Y003398D01*
X003368Y003495D01*
X003232Y003495D01*
X003139Y003403D02*
X003061Y003403D01*
X003065Y003354D02*
X003135Y003354D01*
X003135Y003306D02*
X003065Y003306D01*
X003060Y003257D02*
X003140Y003257D01*
X003188Y003209D02*
X003012Y003209D01*
X003412Y003209D02*
X003668Y003209D01*
X003620Y003257D02*
X003460Y003257D01*
X003465Y003306D02*
X003615Y003306D01*
X003615Y003354D02*
X003465Y003354D01*
X003461Y003403D02*
X003619Y003403D01*
X003668Y003451D02*
X003412Y003451D01*
X003892Y003451D02*
X004188Y003451D01*
X004139Y003403D02*
X003941Y003403D01*
X003945Y003354D02*
X004135Y003354D01*
X005715Y001172D02*
X005930Y001172D01*
X005930Y001123D02*
X005781Y001123D01*
X005829Y001075D02*
X005930Y001075D01*
X005930Y001026D02*
X005855Y001026D01*
X005875Y000978D02*
X005930Y000978D01*
X005930Y000929D02*
X005890Y000929D01*
X005890Y000881D02*
X005930Y000881D01*
X005930Y000832D02*
X005890Y000832D01*
X005880Y000784D02*
X005930Y000784D01*
X005930Y000735D02*
X005860Y000735D01*
X005840Y000687D02*
X005930Y000687D01*
X005930Y000638D02*
X005792Y000638D01*
X005741Y000590D02*
X005930Y000590D01*
X005930Y000541D02*
X005624Y000541D01*
X000495Y004518D02*
X000430Y004518D01*
X000430Y004470D02*
X000446Y004470D01*
X000430Y004276D02*
X000441Y004276D01*
M02*
