G75*
G70*
%OFA0B0*%
%FSLAX24Y24*%
%IPPOS*%
%LPD*%
%AMOC8*
5,1,8,0,0,1.08239X$1,22.5*
%
%ADD10R,0.0380X0.0350*%
%ADD11R,0.0230X0.0380*%
%ADD12R,0.0230X0.0480*%
%ADD13R,0.1970X0.1970*%
%ADD14R,0.0434X0.0178*%
%ADD15R,0.0178X0.0434*%
%ADD16R,0.0350X0.0380*%
%ADD17OC8,0.0600*%
%ADD18R,0.0710X0.0710*%
%ADD19R,0.0218X0.0277*%
%ADD20R,0.0277X0.0218*%
%ADD21C,0.0260*%
D10*
X001430Y000665D03*
X001430Y001085D03*
X002180Y001085D03*
X002180Y000665D03*
X002805Y001040D03*
X002805Y001460D03*
X002805Y002165D03*
X002805Y002585D03*
X000555Y003665D03*
X000555Y004085D03*
X000555Y004665D03*
X000555Y005085D03*
X000680Y006535D03*
X000680Y006955D03*
X005430Y002085D03*
X005430Y001665D03*
X005555Y003540D03*
X005555Y003960D03*
D11*
X004680Y002150D03*
X004430Y002150D03*
X004180Y002150D03*
X003930Y002150D03*
X003680Y002150D03*
X003430Y002150D03*
X003305Y008100D03*
X003055Y008100D03*
X002805Y008100D03*
X002555Y008100D03*
X002305Y008100D03*
X002055Y008100D03*
X001805Y008100D03*
X001555Y008100D03*
X001305Y008100D03*
X001055Y008100D03*
X003555Y008100D03*
X003805Y008100D03*
X004055Y008100D03*
X004305Y008100D03*
X004555Y008100D03*
X004805Y008100D03*
X005055Y008100D03*
X005305Y008100D03*
D12*
X005305Y007650D03*
X005055Y007650D03*
X004805Y007650D03*
X004555Y007650D03*
X004305Y007650D03*
X004055Y007650D03*
X003805Y007650D03*
X003555Y007650D03*
X003305Y007650D03*
X003055Y007650D03*
X002805Y007650D03*
X002555Y007650D03*
X002305Y007650D03*
X002055Y007650D03*
X001805Y007650D03*
X001555Y007650D03*
X001305Y007650D03*
X001055Y007650D03*
X003430Y002600D03*
X003680Y002600D03*
X003930Y002600D03*
X004180Y002600D03*
X004430Y002600D03*
X004680Y002600D03*
D13*
X003180Y005250D03*
D14*
X001586Y005152D03*
X001586Y005348D03*
X001586Y005545D03*
X001586Y005742D03*
X001586Y005939D03*
X001586Y006136D03*
X001586Y006333D03*
X001586Y006530D03*
X001586Y004955D03*
X001586Y004758D03*
X001586Y004561D03*
X001586Y004364D03*
X001586Y004167D03*
X001586Y003970D03*
X004774Y003970D03*
X004774Y004167D03*
X004774Y004364D03*
X004774Y004561D03*
X004774Y004758D03*
X004774Y004955D03*
X004774Y005152D03*
X004774Y005348D03*
X004774Y005545D03*
X004774Y005742D03*
X004774Y005939D03*
X004774Y006136D03*
X004774Y006333D03*
X004774Y006530D03*
D15*
X004460Y006844D03*
X004263Y006844D03*
X004066Y006844D03*
X003869Y006844D03*
X003672Y006844D03*
X003475Y006844D03*
X003278Y006844D03*
X003082Y006844D03*
X002885Y006844D03*
X002688Y006844D03*
X002491Y006844D03*
X002294Y006844D03*
X002097Y006844D03*
X001900Y006844D03*
X001900Y003656D03*
X002097Y003656D03*
X002294Y003656D03*
X002491Y003656D03*
X002688Y003656D03*
X002885Y003656D03*
X003082Y003656D03*
X003278Y003656D03*
X003475Y003656D03*
X003672Y003656D03*
X003869Y003656D03*
X004066Y003656D03*
X004263Y003656D03*
X004460Y003656D03*
D16*
X005220Y002875D03*
X005640Y002875D03*
D17*
X000805Y000875D03*
X005555Y000875D03*
X005555Y004625D03*
X005555Y006875D03*
D18*
X001305Y002375D03*
D19*
X001177Y001686D03*
X000921Y001686D03*
X001433Y001686D03*
X001689Y001686D03*
X001689Y003064D03*
X001433Y003064D03*
X001177Y003064D03*
X000921Y003064D03*
D20*
X000616Y002759D03*
X000616Y002503D03*
X000616Y002247D03*
X000616Y001991D03*
X001994Y001991D03*
X001994Y002247D03*
X001994Y002503D03*
X001994Y002759D03*
D21*
X002255Y003075D03*
X001860Y003290D03*
X001340Y003450D03*
X001100Y003450D03*
X000860Y003690D03*
X000925Y004100D03*
X001260Y004010D03*
X001260Y004850D03*
X001260Y005090D03*
X001260Y005330D03*
X001260Y005570D03*
X001260Y005810D03*
X001260Y006050D03*
X001220Y006290D03*
X001300Y007210D03*
X001020Y007290D03*
X000800Y007875D03*
X001300Y008410D03*
X001540Y008410D03*
X001780Y008410D03*
X002020Y008410D03*
X002300Y008410D03*
X002540Y008410D03*
X002780Y008410D03*
X003020Y008410D03*
X003340Y008410D03*
X003580Y008410D03*
X003820Y008410D03*
X004060Y008410D03*
X004340Y008810D03*
X004580Y008410D03*
X004820Y008410D03*
X005300Y007290D03*
X005340Y006170D03*
X005340Y005930D03*
X005100Y005930D03*
X005100Y006170D03*
X005220Y005570D03*
X005100Y005330D03*
X005100Y005090D03*
X005100Y004850D03*
X005130Y003625D03*
X004700Y002970D03*
X004300Y003330D03*
X003980Y002970D03*
X003780Y003330D03*
X003300Y003330D03*
X002900Y003330D03*
X002900Y002890D03*
X003620Y001850D03*
X003940Y001850D03*
X004180Y001850D03*
X005060Y002090D03*
X005505Y002450D03*
X002820Y001770D03*
X001860Y000690D03*
X000700Y003050D03*
X000580Y004370D03*
M02*
