%
M48
M72
T01C0.0060
T02C0.0320
%
T01
X1860Y690
X2820Y1770
X2900Y2890
X2900Y3330
X3300Y3330
X3780Y3330
X3980Y2970
X4300Y3330
X4700Y2970
X5130Y3625
X5505Y2450
X5060Y2090
X4180Y1850
X3940Y1850
X3620Y1850
X2255Y3075
X1860Y3290
X1340Y3450
X1100Y3450
X860Y3690
X925Y4100
X1260Y4010
X1260Y4850
X1260Y5090
X1260Y5330
X1260Y5570
X1260Y5810
X1260Y6050
X1220Y6290
X1300Y7210
X1020Y7290
X800Y7875
X1300Y8410
X1540Y8410
X1780Y8410
X2020Y8410
X2300Y8410
X2540Y8410
X2780Y8410
X3020Y8410
X3340Y8410
X3580Y8410
X3820Y8410
X4060Y8410
X4340Y8810
X4580Y8410
X4820Y8410
X5300Y7290
X5340Y6170
X5340Y5930
X5100Y5930
X5100Y6170
X5220Y5570
X5100Y5330
X5100Y5090
X5100Y4850
X700Y3050
X580Y4370
T02
X805Y875
X5555Y875
X5555Y4625
X5555Y6875
M30
