G75*
G70*
%OFA0B0*%
%FSLAX24Y24*%
%IPPOS*%
%LPD*%
%AMOC8*
5,1,8,0,0,1.08239X$1,22.5*
%
%ADD10OC8,0.0600*%
%ADD11C,0.0260*%
D10*
X000805Y000875D03*
X005555Y000875D03*
X005555Y004625D03*
X005555Y006875D03*
D11*
X005300Y007290D03*
X005340Y006170D03*
X005340Y005930D03*
X005100Y005930D03*
X005100Y006170D03*
X005220Y005570D03*
X005100Y005330D03*
X005100Y005090D03*
X005100Y004850D03*
X005130Y003625D03*
X004700Y002970D03*
X004300Y003330D03*
X003980Y002970D03*
X003780Y003330D03*
X003300Y003330D03*
X002900Y003330D03*
X002900Y002890D03*
X002255Y003075D03*
X001860Y003290D03*
X001340Y003450D03*
X001100Y003450D03*
X000860Y003690D03*
X000925Y004100D03*
X001260Y004010D03*
X001260Y004850D03*
X001260Y005090D03*
X001260Y005330D03*
X001260Y005570D03*
X001260Y005810D03*
X001260Y006050D03*
X001220Y006290D03*
X001300Y007210D03*
X001020Y007290D03*
X000800Y007875D03*
X001300Y008410D03*
X001540Y008410D03*
X001780Y008410D03*
X002020Y008410D03*
X002300Y008410D03*
X002540Y008410D03*
X002780Y008410D03*
X003020Y008410D03*
X003340Y008410D03*
X003580Y008410D03*
X003820Y008410D03*
X004060Y008410D03*
X004340Y008810D03*
X004580Y008410D03*
X004820Y008410D03*
X005505Y002450D03*
X005060Y002090D03*
X004180Y001850D03*
X003940Y001850D03*
X003620Y001850D03*
X002820Y001770D03*
X001860Y000690D03*
X000700Y003050D03*
X000580Y004370D03*
M02*
