G75*
G70*
%OFA0B0*%
%FSLAX24Y24*%
%IPPOS*%
%LPD*%
%AMOC8*
5,1,8,0,0,1.08239X$1,22.5*
%
%ADD10OC8,0.0520*%
%ADD11C,0.0050*%
%ADD12C,0.0180*%
D10*
X000805Y000875D03*
X005555Y000875D03*
X005555Y004625D03*
X005555Y006875D03*
D11*
X005540Y006890D01*
X005540Y007930D01*
X004860Y008610D01*
X001260Y008610D01*
X001020Y008370D01*
X001020Y007290D01*
X001300Y007210D02*
X001300Y008410D01*
X001540Y008410D02*
X001540Y006610D01*
X001220Y006290D01*
X001260Y006050D02*
X001780Y006570D01*
X001780Y008410D01*
X002020Y008410D02*
X002020Y006570D01*
X001260Y005810D01*
X001260Y005570D02*
X002300Y006610D01*
X002300Y008410D01*
X002540Y008410D02*
X002540Y006610D01*
X001260Y005330D01*
X001260Y005090D02*
X002780Y006610D01*
X002780Y008410D01*
X003020Y008410D02*
X003020Y006610D01*
X001260Y004850D01*
X001260Y004010D02*
X004940Y004010D01*
X004700Y003770D01*
X004700Y002970D01*
X004300Y003090D02*
X005540Y001850D01*
X005540Y000890D01*
X005555Y000875D01*
X005060Y002090D02*
X004860Y002090D01*
X003980Y002970D01*
X003780Y002930D02*
X003780Y003330D01*
X003780Y002930D02*
X004180Y002530D01*
X004180Y001850D01*
X003940Y001850D02*
X003940Y002330D01*
X003300Y002970D01*
X003300Y003330D01*
X002900Y003330D02*
X002900Y003130D01*
X003620Y002410D01*
X003620Y001850D01*
X002820Y002810D02*
X002900Y002890D01*
X002820Y002810D02*
X002820Y001770D01*
X001860Y000690D02*
X001860Y003290D01*
X001340Y003450D02*
X000580Y004210D01*
X000580Y004370D01*
X000860Y003690D02*
X001100Y003450D01*
X001340Y003450D02*
X000940Y003050D01*
X000700Y003050D01*
X003340Y006610D02*
X005100Y004850D01*
X005100Y005090D02*
X003580Y006610D01*
X003580Y008410D01*
X003340Y008410D02*
X003340Y006610D01*
X003820Y006610D02*
X005100Y005330D01*
X005220Y005570D02*
X004060Y006730D01*
X004060Y008410D01*
X003820Y008410D02*
X003820Y006610D01*
X004580Y006450D02*
X005100Y005930D01*
X005100Y006170D02*
X004820Y006450D01*
X004820Y008410D01*
X004580Y008410D02*
X004580Y006450D01*
X005220Y006290D02*
X005340Y006170D01*
X005220Y006290D02*
X005220Y007050D01*
X005300Y007130D01*
X005300Y007290D01*
X005900Y007730D02*
X005900Y006490D01*
X005340Y005930D01*
X005555Y004625D02*
X004940Y004010D01*
X004300Y003330D02*
X004300Y003090D01*
X005900Y007730D02*
X004820Y008810D01*
X004340Y008810D01*
D12*
X004340Y008810D03*
X004580Y008410D03*
X004820Y008410D03*
X004060Y008410D03*
X003820Y008410D03*
X003580Y008410D03*
X003340Y008410D03*
X003020Y008410D03*
X002780Y008410D03*
X002540Y008410D03*
X002300Y008410D03*
X002020Y008410D03*
X001780Y008410D03*
X001540Y008410D03*
X001300Y008410D03*
X000800Y007875D03*
X001020Y007290D03*
X001300Y007210D03*
X001220Y006290D03*
X001260Y006050D03*
X001260Y005810D03*
X001260Y005570D03*
X001260Y005330D03*
X001260Y005090D03*
X001260Y004850D03*
X000925Y004100D03*
X000860Y003690D03*
X001100Y003450D03*
X001340Y003450D03*
X001260Y004010D03*
X001860Y003290D03*
X002255Y003075D03*
X002900Y002890D03*
X002900Y003330D03*
X003300Y003330D03*
X003780Y003330D03*
X003980Y002970D03*
X004300Y003330D03*
X004700Y002970D03*
X005130Y003625D03*
X005505Y002450D03*
X005060Y002090D03*
X004180Y001850D03*
X003940Y001850D03*
X003620Y001850D03*
X002820Y001770D03*
X001860Y000690D03*
X000700Y003050D03*
X000580Y004370D03*
X005100Y004850D03*
X005100Y005090D03*
X005100Y005330D03*
X005220Y005570D03*
X005100Y005930D03*
X005100Y006170D03*
X005340Y006170D03*
X005340Y005930D03*
X005300Y007290D03*
M02*
