G75*
G70*
%OFA0B0*%
%FSLAX24Y24*%
%IPPOS*%
%LPD*%
%AMOC8*
5,1,8,0,0,1.08239X$1,22.5*
%
%ADD10C,0.0000*%
%ADD11C,0.0030*%
%ADD12C,0.0020*%
%ADD13C,0.0050*%
%ADD14C,0.0040*%
D10*
X000180Y000250D02*
X006180Y000250D01*
X006180Y008875D01*
X005930Y009500D01*
X000430Y009500D01*
X000180Y008875D01*
X000180Y000250D01*
D11*
X000693Y001190D02*
X000790Y001190D01*
X000838Y001238D01*
X000940Y001238D02*
X000988Y001190D01*
X001085Y001190D01*
X001133Y001238D01*
X001133Y001287D01*
X001085Y001335D01*
X001036Y001335D01*
X001085Y001335D02*
X001133Y001383D01*
X001133Y001432D01*
X001085Y001480D01*
X000988Y001480D01*
X000940Y001432D01*
X000838Y001432D02*
X000790Y001480D01*
X000693Y001480D01*
X000645Y001432D01*
X000645Y001238D01*
X000693Y001190D01*
X002200Y001440D02*
X002200Y001585D01*
X002248Y001633D01*
X002345Y001633D01*
X002393Y001585D01*
X002393Y001440D01*
X002393Y001537D02*
X002490Y001633D01*
X002490Y001735D02*
X002297Y001928D01*
X002248Y001928D01*
X002200Y001880D01*
X002200Y001783D01*
X002248Y001735D01*
X002490Y001735D02*
X002490Y001928D01*
X002490Y002315D02*
X002200Y002315D01*
X002200Y002460D01*
X002248Y002508D01*
X002345Y002508D01*
X002393Y002460D01*
X002393Y002315D01*
X002393Y002412D02*
X002490Y002508D01*
X002490Y002610D02*
X002490Y002803D01*
X002490Y002706D02*
X002200Y002706D01*
X002297Y002610D01*
X002200Y001440D02*
X002490Y001440D01*
X002543Y000605D02*
X002495Y000557D01*
X002495Y000363D01*
X002543Y000315D01*
X002640Y000315D01*
X002688Y000363D01*
X002790Y000363D02*
X002790Y000315D01*
X002983Y000315D01*
X002790Y000363D02*
X002983Y000557D01*
X002983Y000605D01*
X002790Y000605D01*
X002688Y000557D02*
X002640Y000605D01*
X002543Y000605D01*
X001067Y003815D02*
X000873Y003815D01*
X000825Y003863D01*
X000825Y003960D01*
X000873Y004008D01*
X000873Y004110D02*
X000825Y004110D01*
X000873Y004110D02*
X000970Y004206D01*
X001115Y004206D01*
X000970Y004206D02*
X000873Y004303D01*
X000825Y004303D01*
X000873Y004565D02*
X000825Y004613D01*
X000825Y004710D01*
X000873Y004758D01*
X000825Y004860D02*
X001115Y005053D01*
X001115Y004860D02*
X000825Y005053D01*
X001067Y004758D02*
X001115Y004710D01*
X001115Y004613D01*
X001067Y004565D01*
X000873Y004565D01*
X001067Y004008D02*
X001115Y003960D01*
X001115Y003863D01*
X001067Y003815D01*
X001695Y007065D02*
X001792Y007065D01*
X001743Y007065D02*
X001743Y007258D01*
X001695Y007258D01*
X001743Y007355D02*
X001743Y007404D01*
X001891Y007258D02*
X002037Y007258D01*
X002085Y007210D01*
X002085Y007065D01*
X002234Y007113D02*
X002234Y007307D01*
X002186Y007258D02*
X002283Y007258D01*
X002431Y007258D02*
X002528Y007258D01*
X002576Y007210D01*
X002576Y007065D01*
X002431Y007065D01*
X002383Y007113D01*
X002431Y007162D01*
X002576Y007162D01*
X002677Y007258D02*
X002677Y007065D01*
X002677Y007258D02*
X002822Y007258D01*
X002871Y007210D01*
X002871Y007065D01*
X002972Y007258D02*
X003069Y007258D01*
X003020Y007307D02*
X003020Y007113D01*
X003069Y007065D01*
X003168Y007113D02*
X003168Y007210D01*
X003217Y007258D01*
X003313Y007258D01*
X003362Y007210D01*
X003362Y007162D01*
X003168Y007162D01*
X003168Y007113D02*
X003217Y007065D01*
X003313Y007065D01*
X003463Y007113D02*
X003511Y007065D01*
X003656Y007065D01*
X003758Y007065D02*
X003758Y007355D01*
X003806Y007258D02*
X003903Y007258D01*
X003951Y007210D01*
X003951Y007065D01*
X004052Y007065D02*
X004101Y007065D01*
X004101Y007113D01*
X004052Y007113D01*
X004052Y007065D01*
X004200Y007113D02*
X004248Y007065D01*
X004393Y007065D01*
X004494Y007113D02*
X004543Y007065D01*
X004639Y007065D01*
X004688Y007113D01*
X004688Y007210D01*
X004639Y007258D01*
X004543Y007258D01*
X004494Y007210D01*
X004494Y007113D01*
X004393Y007258D02*
X004248Y007258D01*
X004200Y007210D01*
X004200Y007113D01*
X003806Y007258D02*
X003758Y007210D01*
X003656Y007258D02*
X003511Y007258D01*
X003463Y007210D01*
X003463Y007113D01*
X002283Y007065D02*
X002234Y007113D01*
X001891Y007065D02*
X001891Y007258D01*
X000865Y007265D02*
X000575Y007265D01*
X000575Y007410D01*
X000623Y007458D01*
X000720Y007458D01*
X000768Y007410D01*
X000768Y007265D01*
X000768Y007362D02*
X000865Y007458D01*
X000817Y007560D02*
X000623Y007753D01*
X000817Y007753D01*
X000865Y007705D01*
X000865Y007608D01*
X000817Y007560D01*
X000623Y007560D01*
X000575Y007608D01*
X000575Y007705D01*
X000623Y007753D01*
X004793Y003480D02*
X004745Y003432D01*
X004745Y003238D01*
X004793Y003190D01*
X004890Y003190D01*
X004938Y003238D01*
X005040Y003190D02*
X005233Y003383D01*
X005233Y003432D01*
X005185Y003480D01*
X005088Y003480D01*
X005040Y003432D01*
X004938Y003432D02*
X004890Y003480D01*
X004793Y003480D01*
X005023Y003751D02*
X004975Y003799D01*
X004975Y003896D01*
X005023Y003944D01*
X005072Y004045D02*
X004975Y004142D01*
X005265Y004142D01*
X005265Y004045D02*
X005265Y004239D01*
X005217Y003944D02*
X005265Y003896D01*
X005265Y003799D01*
X005217Y003751D01*
X005023Y003751D01*
X005040Y003190D02*
X005233Y003190D01*
X005773Y002553D02*
X005822Y002553D01*
X005870Y002505D01*
X005918Y002553D01*
X005967Y002553D01*
X006015Y002505D01*
X006015Y002408D01*
X005967Y002360D01*
X006015Y002258D02*
X005918Y002162D01*
X005918Y002210D02*
X005918Y002065D01*
X006015Y002065D02*
X005725Y002065D01*
X005725Y002210D01*
X005773Y002258D01*
X005870Y002258D01*
X005918Y002210D01*
X005773Y002360D02*
X005725Y002408D01*
X005725Y002505D01*
X005773Y002553D01*
X005870Y002505D02*
X005870Y002456D01*
X004982Y007065D02*
X004982Y007210D01*
X004934Y007258D01*
X004886Y007210D01*
X004886Y007065D01*
X004886Y007210D02*
X004837Y007258D01*
X004789Y007258D01*
X004789Y007065D01*
D12*
X000493Y008331D02*
X000493Y008368D01*
X000457Y008405D01*
X000273Y008405D01*
X000273Y008295D01*
X000310Y008258D01*
X000383Y008258D01*
X000420Y008295D01*
X000420Y008405D01*
X000420Y008479D02*
X000420Y008552D01*
X000420Y008516D02*
X000273Y008516D01*
X000273Y008479D01*
X000200Y008516D02*
X000163Y008516D01*
X000273Y008663D02*
X000273Y008736D01*
X000310Y008773D01*
X000347Y008773D01*
X000347Y008626D01*
X000383Y008626D02*
X000310Y008626D01*
X000273Y008663D01*
X000383Y008626D02*
X000420Y008663D01*
X000420Y008736D01*
X000420Y008847D02*
X000420Y008957D01*
X000383Y008994D01*
X000347Y008957D01*
X000347Y008884D01*
X000310Y008847D01*
X000273Y008884D01*
X000273Y008994D01*
X000310Y008184D02*
X000273Y008147D01*
X000273Y008074D01*
X000310Y008037D01*
X000383Y008037D01*
X000420Y008074D01*
X000420Y008147D01*
X000383Y008184D01*
X000310Y008184D01*
X000420Y007963D02*
X000420Y007890D01*
X000420Y007926D02*
X000200Y007926D01*
X000200Y007890D01*
X000273Y007779D02*
X000310Y007815D01*
X000383Y007815D01*
X000420Y007779D01*
X000420Y007705D01*
X000383Y007669D01*
X000310Y007669D01*
X000273Y007705D01*
X000273Y007779D01*
X000310Y007594D02*
X000420Y007594D01*
X000420Y007448D02*
X000273Y007448D01*
X000273Y007558D01*
X000310Y007594D01*
X000310Y007373D02*
X000420Y007373D01*
X000420Y007227D02*
X000200Y007227D01*
X000273Y007263D02*
X000273Y007337D01*
X000310Y007373D01*
X000273Y007263D02*
X000310Y007227D01*
X000273Y007152D02*
X000273Y007042D01*
X000310Y007006D01*
X000383Y007006D01*
X000420Y007042D01*
X000420Y007152D01*
X000347Y006931D02*
X000310Y006931D01*
X000273Y006895D01*
X000273Y006821D01*
X000310Y006785D01*
X000383Y006785D01*
X000420Y006821D01*
X000420Y006895D01*
X000347Y006931D02*
X000347Y006785D01*
X000200Y006710D02*
X000200Y006564D01*
X000200Y006637D02*
X000420Y006637D01*
X000420Y006268D02*
X000310Y006268D01*
X000273Y006232D01*
X000273Y006122D01*
X000420Y006122D01*
X000420Y006047D02*
X000420Y005937D01*
X000383Y005901D01*
X000347Y005937D01*
X000347Y006047D01*
X000310Y006047D02*
X000420Y006047D01*
X000310Y006047D02*
X000273Y006011D01*
X000273Y005937D01*
X000273Y005827D02*
X000273Y005753D01*
X000237Y005790D02*
X000383Y005790D01*
X000420Y005827D01*
X000420Y005679D02*
X000310Y005679D01*
X000273Y005642D01*
X000273Y005532D01*
X000420Y005532D01*
X000420Y005458D02*
X000420Y005385D01*
X000420Y005422D02*
X000200Y005422D01*
X000200Y005458D02*
X000200Y005385D01*
D13*
X000335Y005295D02*
X000775Y005295D01*
X000775Y004455D01*
X000335Y004455D01*
X000335Y005295D01*
X000460Y006325D02*
X000460Y007165D01*
X000900Y007165D01*
X000900Y006325D01*
X000460Y006325D01*
X001399Y006943D02*
X001401Y006961D01*
X001407Y006979D01*
X001416Y006995D01*
X001428Y007008D01*
X001443Y007019D01*
X001460Y007027D01*
X001478Y007031D01*
X001496Y007031D01*
X001514Y007027D01*
X001531Y007019D01*
X001546Y007008D01*
X001558Y006995D01*
X001567Y006979D01*
X001573Y006961D01*
X001575Y006943D01*
X001573Y006925D01*
X001567Y006907D01*
X001558Y006891D01*
X001546Y006878D01*
X001531Y006867D01*
X001514Y006859D01*
X001496Y006855D01*
X001478Y006855D01*
X001460Y006859D01*
X001443Y006867D01*
X001428Y006878D01*
X001416Y006891D01*
X001407Y006907D01*
X001401Y006925D01*
X001399Y006943D01*
X001605Y006825D02*
X001605Y006687D01*
X001684Y006707D02*
X001686Y006719D01*
X001691Y006730D01*
X001700Y006739D01*
X001711Y006744D01*
X001723Y006746D01*
X001735Y006744D01*
X001746Y006739D01*
X001755Y006730D01*
X001760Y006719D01*
X001762Y006707D01*
X001760Y006695D01*
X001755Y006684D01*
X001746Y006675D01*
X001735Y006670D01*
X001723Y006668D01*
X001711Y006670D01*
X001700Y006675D01*
X001691Y006684D01*
X001686Y006695D01*
X001684Y006707D01*
X001743Y006825D02*
X001605Y006825D01*
X001555Y008325D02*
X001555Y008500D01*
X001305Y008500D01*
X001305Y008325D01*
X001305Y008500D02*
X001055Y008500D01*
X001055Y008325D01*
X001055Y008500D02*
X000580Y008500D01*
X000580Y009500D01*
X005780Y009500D01*
X005780Y008500D01*
X003305Y008500D01*
X003305Y008325D01*
X003305Y008500D02*
X003055Y008500D01*
X003055Y008325D01*
X003055Y008500D02*
X002805Y008500D01*
X002805Y008325D01*
X002805Y008500D02*
X002555Y008500D01*
X002555Y008325D01*
X002555Y008500D02*
X002305Y008500D01*
X002305Y008325D01*
X002305Y008500D02*
X002055Y008500D01*
X002055Y008325D01*
X002055Y008500D02*
X001805Y008500D01*
X001805Y008325D01*
X001805Y008500D02*
X001555Y008500D01*
X003555Y008500D02*
X003555Y008325D01*
X003805Y008325D02*
X003805Y008500D01*
X004055Y008500D02*
X004055Y008325D01*
X004305Y008325D02*
X004305Y008500D01*
X004555Y008500D02*
X004555Y008325D01*
X004805Y008325D02*
X004805Y008500D01*
X005055Y008500D02*
X005055Y008325D01*
X005305Y008325D02*
X005305Y008500D01*
X005630Y008195D02*
X005630Y007968D01*
X005970Y007968D01*
X005970Y007836D02*
X005970Y007609D01*
X005630Y007609D01*
X005630Y007836D01*
X005800Y007723D02*
X005800Y007609D01*
X005800Y007477D02*
X005686Y007477D01*
X005630Y007420D01*
X005630Y007250D01*
X005970Y007250D01*
X005857Y007250D02*
X005857Y007420D01*
X005800Y007477D01*
X005857Y007363D02*
X005970Y007477D01*
X005800Y007968D02*
X005800Y008082D01*
X004755Y006825D02*
X004755Y006687D01*
X004755Y006825D02*
X004617Y006825D01*
X005630Y005888D02*
X005630Y005718D01*
X005970Y005718D01*
X005970Y005888D01*
X005913Y005945D01*
X005686Y005945D01*
X005630Y005888D01*
X005686Y005586D02*
X005630Y005529D01*
X005630Y005359D01*
X005970Y005359D01*
X005970Y005529D01*
X005913Y005586D01*
X005686Y005586D01*
X005630Y005227D02*
X005857Y005227D01*
X005970Y005113D01*
X005857Y005000D01*
X005630Y005000D01*
X005775Y004170D02*
X005335Y004170D01*
X005335Y003330D01*
X005775Y003330D01*
X005775Y004170D01*
X005850Y003095D02*
X005010Y003095D01*
X005010Y002655D01*
X005850Y002655D01*
X005850Y003095D01*
X005650Y002295D02*
X005650Y001455D01*
X005210Y001455D01*
X005210Y002295D01*
X005650Y002295D01*
X005811Y001711D02*
X005755Y001654D01*
X005755Y001541D01*
X005811Y001484D01*
X006038Y001484D01*
X006095Y001541D01*
X006095Y001654D01*
X006038Y001711D01*
X005811Y001711D01*
X005811Y001352D02*
X005755Y001295D01*
X005755Y001125D01*
X006095Y001125D01*
X006095Y001295D01*
X006038Y001352D01*
X005811Y001352D01*
X004930Y000880D02*
X004930Y000180D01*
X003180Y000180D01*
X003180Y000880D01*
X004930Y000880D01*
X004930Y001880D01*
X004680Y001880D01*
X004430Y001880D01*
X004180Y001880D01*
X004180Y001925D01*
X004180Y001880D02*
X003930Y001880D01*
X003930Y001925D01*
X003930Y001880D02*
X003680Y001880D01*
X003680Y001925D01*
X003680Y001880D02*
X003430Y001880D01*
X003180Y001880D01*
X003180Y000880D01*
X003025Y000830D02*
X002585Y000830D01*
X002585Y001670D01*
X003025Y001670D01*
X003025Y000830D01*
X002400Y000455D02*
X001960Y000455D01*
X001960Y001295D01*
X002400Y001295D01*
X002400Y000455D01*
X001650Y000455D02*
X001210Y000455D01*
X001210Y001295D01*
X001650Y001295D01*
X001650Y000455D01*
X001817Y001588D02*
X002092Y001588D01*
X002092Y001863D01*
X002585Y001955D02*
X003025Y001955D01*
X003025Y002795D01*
X002585Y002795D01*
X002585Y001955D01*
X002092Y002887D02*
X002092Y003162D01*
X001817Y003162D01*
X001743Y003675D02*
X001605Y003675D01*
X001605Y003813D01*
X000775Y003455D02*
X000335Y003455D01*
X000335Y004295D01*
X000775Y004295D01*
X000775Y003455D01*
X000793Y003162D02*
X000518Y003162D01*
X000518Y002887D01*
X000518Y001863D02*
X000518Y001588D01*
X000793Y001588D01*
X000636Y001745D02*
X000638Y001757D01*
X000643Y001768D01*
X000652Y001777D01*
X000663Y001782D01*
X000675Y001784D01*
X000687Y001782D01*
X000698Y001777D01*
X000707Y001768D01*
X000712Y001757D01*
X000714Y001745D01*
X000712Y001733D01*
X000707Y001722D01*
X000698Y001713D01*
X000687Y001708D01*
X000675Y001706D01*
X000663Y001708D01*
X000652Y001713D01*
X000643Y001722D01*
X000638Y001733D01*
X000636Y001745D01*
X000320Y001469D02*
X000322Y001487D01*
X000328Y001503D01*
X000337Y001518D01*
X000350Y001531D01*
X000365Y001540D01*
X000381Y001546D01*
X000399Y001548D01*
X000417Y001546D01*
X000433Y001540D01*
X000448Y001531D01*
X000461Y001518D01*
X000470Y001503D01*
X000476Y001487D01*
X000478Y001469D01*
X000476Y001451D01*
X000470Y001435D01*
X000461Y001420D01*
X000448Y001407D01*
X000433Y001398D01*
X000417Y001392D01*
X000399Y001390D01*
X000381Y001392D01*
X000365Y001398D01*
X000350Y001407D01*
X000337Y001420D01*
X000328Y001435D01*
X000322Y001451D01*
X000320Y001469D01*
X000311Y001270D02*
X000255Y001213D01*
X000255Y001043D01*
X000595Y001043D01*
X000595Y001213D01*
X000538Y001270D01*
X000311Y001270D01*
X000255Y000911D02*
X000595Y000911D01*
X000255Y000684D01*
X000595Y000684D01*
X000538Y000552D02*
X000425Y000552D01*
X000425Y000438D01*
X000538Y000325D02*
X000311Y000325D01*
X000255Y000382D01*
X000255Y000495D01*
X000311Y000552D01*
X000538Y000552D02*
X000595Y000495D01*
X000595Y000382D01*
X000538Y000325D01*
X003430Y001880D02*
X003430Y001925D01*
X004430Y001925D02*
X004430Y001880D01*
X004680Y001880D02*
X004680Y001925D01*
X004755Y003675D02*
X004617Y003675D01*
X004755Y003675D02*
X004755Y003813D01*
D14*
X004270Y001480D02*
X004116Y001480D01*
X004040Y001404D01*
X003886Y001404D02*
X003809Y001480D01*
X003656Y001480D01*
X003579Y001404D01*
X003579Y001327D01*
X003656Y001250D01*
X003809Y001250D01*
X003886Y001173D01*
X003886Y001097D01*
X003809Y001020D01*
X003656Y001020D01*
X003579Y001097D01*
X004040Y001020D02*
X004347Y001327D01*
X004347Y001404D01*
X004270Y001480D01*
X004347Y001020D02*
X004040Y001020D01*
X003617Y008795D02*
X003310Y008795D01*
X003464Y008795D02*
X003464Y009255D01*
X003310Y009102D01*
X003157Y009179D02*
X003080Y009255D01*
X002927Y009255D01*
X002850Y009179D01*
X002850Y009102D01*
X002927Y009025D01*
X003080Y009025D01*
X003157Y008948D01*
X003157Y008872D01*
X003080Y008795D01*
X002927Y008795D01*
X002850Y008872D01*
M02*
