%
M48
M72
T01C0.00600
%
T01
X18300Y13550
X22050Y13550
X24550Y13550
X27050Y13550
X28925Y12300
X16425Y17300
X13925Y17300
X13925Y22925
X16425Y22925
X19550Y25425
X22050Y25425
X24550Y25425
X27050Y25425
X29550Y25425
X32050Y25425
X34550Y25425
X37050Y25425
X39550Y25425
X42050Y25425
X44550Y25425
X47050Y25425
X49550Y25425
X52050Y25425
X54550Y25425
X57050Y25425
X59550Y25425
X62675Y26675
X64550Y24800
X62675Y23550
X68300Y22300
X64550Y17300
X59550Y13550
X57050Y13550
X54550Y13550
X52050Y13550
X49550Y13550
X47675Y12300
X62050Y11050
X62050Y8550
X65175Y34800
X63925Y36675
X61425Y37300
X58925Y37300
X55800Y38550
X53300Y39175
X52050Y36675
X54550Y36675
X49550Y36675
X47050Y36675
X44550Y36675
X42050Y36675
X39550Y36675
X37050Y36675
X34550Y36675
X32050Y36675
X29550Y36675
X27050Y36675
X24550Y36675
X22050Y36675
X18925Y37300
X16425Y36050
X13925Y35425
X11425Y34175
X11425Y31675
X16425Y29175
X16425Y26675
X27050Y39175
X30175Y40425
X48300Y39175
X49550Y41050
M30
