G75*
%MOIN*%
%OFA0B0*%
%FSLAX25Y25*%
%IPPOS*%
%LPD*%
%AMOC8*
5,1,8,0,0,1.08239X$1,22.5*
%
%ADD10R,0.00787X0.02756*%
%ADD11C,0.01600*%
%ADD12C,0.00200*%
%ADD13C,0.01600*%
D10*
X0013257Y0020025D03*
X0014831Y0020025D03*
X0016406Y0020025D03*
X0017981Y0020025D03*
X0019556Y0020025D03*
X0021131Y0020025D03*
X0022706Y0020025D03*
X0024280Y0020025D03*
X0025855Y0020025D03*
X0027430Y0020025D03*
X0029005Y0020025D03*
X0030580Y0020025D03*
X0032154Y0020025D03*
X0033729Y0020025D03*
X0035304Y0020025D03*
X0036879Y0020025D03*
X0038454Y0020025D03*
X0040028Y0020025D03*
X0041603Y0020025D03*
X0043178Y0020025D03*
X0044753Y0020025D03*
X0046328Y0020025D03*
X0047902Y0020025D03*
X0049477Y0020025D03*
X0051052Y0020025D03*
X0052627Y0020025D03*
X0054202Y0020025D03*
X0055776Y0020025D03*
X0057351Y0020025D03*
X0058926Y0020025D03*
X0060501Y0020025D03*
X0062076Y0020025D03*
X0063650Y0020025D03*
X0065225Y0020025D03*
X0066800Y0020025D03*
X0066800Y0032151D03*
X0065146Y0032151D03*
X0063572Y0032151D03*
X0061997Y0032151D03*
X0060422Y0032151D03*
X0058847Y0032151D03*
X0057272Y0032151D03*
X0055698Y0032151D03*
X0054123Y0032151D03*
X0052548Y0032151D03*
X0050973Y0032151D03*
X0049398Y0032151D03*
X0047824Y0032151D03*
X0046249Y0032151D03*
X0044674Y0032151D03*
X0043099Y0032151D03*
X0041524Y0032151D03*
X0039950Y0032151D03*
X0038375Y0032151D03*
X0036800Y0032151D03*
X0035225Y0032151D03*
X0033650Y0032151D03*
X0032076Y0032151D03*
X0030501Y0032151D03*
X0028926Y0032151D03*
X0027351Y0032151D03*
X0025776Y0032151D03*
X0024202Y0032151D03*
X0022627Y0032151D03*
X0021052Y0032151D03*
X0019477Y0032151D03*
X0017902Y0032151D03*
X0016328Y0032151D03*
X0014753Y0032151D03*
X0013178Y0032151D03*
D11*
X0012666Y0009651D02*
X0060606Y0009651D01*
X0060754Y0009800D02*
X0060250Y0009296D01*
X0060250Y0007804D01*
X0061304Y0006750D01*
X0062796Y0006750D01*
X0063496Y0007450D01*
X0063756Y0007450D01*
X0064400Y0008094D01*
X0064400Y0015500D01*
X0065296Y0015500D01*
X0066350Y0016554D01*
X0066350Y0017647D01*
X0067608Y0017647D01*
X0068194Y0018233D01*
X0068194Y0020500D01*
X0069046Y0020500D01*
X0070100Y0021554D01*
X0070100Y0023046D01*
X0069046Y0024100D01*
X0067554Y0024100D01*
X0066854Y0023400D01*
X0064475Y0023400D01*
X0064475Y0024296D01*
X0063658Y0025112D01*
X0064475Y0025929D01*
X0064475Y0027421D01*
X0063421Y0028475D01*
X0061929Y0028475D01*
X0060875Y0027421D01*
X0060875Y0026646D01*
X0060296Y0027225D01*
X0059306Y0027225D01*
X0057506Y0029025D01*
X0055006Y0029025D01*
X0054258Y0029773D01*
X0063252Y0029773D01*
X0063312Y0029668D01*
X0063648Y0029333D01*
X0064058Y0029096D01*
X0064516Y0028973D01*
X0065146Y0028973D01*
X0065146Y0032151D01*
X0065146Y0035329D01*
X0065124Y0035329D01*
X0065725Y0035929D01*
X0065725Y0037421D01*
X0064671Y0038475D01*
X0063179Y0038475D01*
X0062987Y0038283D01*
X0062171Y0039100D01*
X0061275Y0039100D01*
X0061275Y0041506D01*
X0060631Y0042150D01*
X0050996Y0042150D01*
X0050296Y0042850D01*
X0048804Y0042850D01*
X0047750Y0041796D01*
X0047750Y0040975D01*
X0047554Y0040975D01*
X0046500Y0039921D01*
X0046500Y0038475D01*
X0046304Y0038475D01*
X0045800Y0037971D01*
X0045296Y0038475D01*
X0043804Y0038475D01*
X0043300Y0037971D01*
X0042796Y0038475D01*
X0041304Y0038475D01*
X0040800Y0037971D01*
X0040296Y0038475D01*
X0038804Y0038475D01*
X0038300Y0037971D01*
X0037796Y0038475D01*
X0036304Y0038475D01*
X0035800Y0037971D01*
X0035296Y0038475D01*
X0033804Y0038475D01*
X0033300Y0037971D01*
X0032796Y0038475D01*
X0031304Y0038475D01*
X0030800Y0037971D01*
X0030296Y0038475D01*
X0029400Y0038475D01*
X0029400Y0038654D01*
X0029429Y0038625D01*
X0030921Y0038625D01*
X0031975Y0039679D01*
X0031975Y0041171D01*
X0030921Y0042225D01*
X0029429Y0042225D01*
X0028729Y0041525D01*
X0014719Y0041525D01*
X0014075Y0040881D01*
X0014075Y0037225D01*
X0013179Y0037225D01*
X0012125Y0036171D01*
X0012125Y0035975D01*
X0010679Y0035975D01*
X0009625Y0034921D01*
X0009625Y0033429D01*
X0010129Y0032925D01*
X0009625Y0032421D01*
X0009625Y0030929D01*
X0010679Y0029875D01*
X0012171Y0029875D01*
X0012219Y0029924D01*
X0012370Y0029773D01*
X0014625Y0029773D01*
X0014625Y0028429D01*
X0015679Y0027375D01*
X0017171Y0027375D01*
X0018225Y0028429D01*
X0018225Y0028700D01*
X0027506Y0028700D01*
X0027825Y0029019D01*
X0027825Y0027775D01*
X0022844Y0027775D01*
X0022294Y0027225D01*
X0021304Y0027225D01*
X0020800Y0026721D01*
X0020296Y0027225D01*
X0018804Y0027225D01*
X0017750Y0026171D01*
X0017750Y0024679D01*
X0018404Y0024025D01*
X0017871Y0024025D01*
X0017171Y0024725D01*
X0015679Y0024725D01*
X0015175Y0024221D01*
X0014671Y0024725D01*
X0013179Y0024725D01*
X0012125Y0023671D01*
X0012125Y0023055D01*
X0011758Y0022843D01*
X0011423Y0022508D01*
X0011186Y0022098D01*
X0011063Y0021640D01*
X0011063Y0020025D01*
X0013257Y0020025D01*
X0011063Y0020025D01*
X0011063Y0018410D01*
X0011186Y0017952D01*
X0011423Y0017542D01*
X0011758Y0017207D01*
X0012125Y0016995D01*
X0012125Y0016554D01*
X0013179Y0015500D01*
X0014671Y0015500D01*
X0015175Y0016004D01*
X0015679Y0015500D01*
X0017171Y0015500D01*
X0017871Y0016200D01*
X0018131Y0016200D01*
X0018775Y0016844D01*
X0018775Y0017647D01*
X0019700Y0017647D01*
X0019700Y0011844D01*
X0020344Y0011200D01*
X0027479Y0011200D01*
X0028179Y0010500D01*
X0029671Y0010500D01*
X0030725Y0011554D01*
X0030725Y0013046D01*
X0029671Y0014100D01*
X0028850Y0014100D01*
X0028850Y0014296D01*
X0027796Y0015350D01*
X0026900Y0015350D01*
X0026900Y0017647D01*
X0048450Y0017647D01*
X0048450Y0014996D01*
X0047750Y0014296D01*
X0047750Y0014100D01*
X0046929Y0014100D01*
X0045875Y0013046D01*
X0045875Y0011554D01*
X0046929Y0010500D01*
X0048421Y0010500D01*
X0049121Y0011200D01*
X0060250Y0011200D01*
X0060250Y0010304D01*
X0060754Y0009800D01*
X0060250Y0008053D02*
X0014188Y0008053D01*
X0015710Y0006454D02*
X0065890Y0006454D01*
X0064600Y0005100D02*
X0017000Y0005100D01*
X0008600Y0013920D01*
X0008600Y0038640D01*
X0016960Y0047000D01*
X0064640Y0047000D01*
X0073000Y0038640D01*
X0073000Y0013920D01*
X0064600Y0005100D01*
X0064358Y0008053D02*
X0067412Y0008053D01*
X0068934Y0009651D02*
X0064400Y0009651D01*
X0064400Y0011250D02*
X0070457Y0011250D01*
X0071979Y0012848D02*
X0064400Y0012848D01*
X0064400Y0014447D02*
X0073000Y0014447D01*
X0073000Y0016045D02*
X0065841Y0016045D01*
X0066350Y0017644D02*
X0073000Y0017644D01*
X0073000Y0019242D02*
X0068194Y0019242D01*
X0069386Y0020841D02*
X0073000Y0020841D01*
X0073000Y0022439D02*
X0070100Y0022439D01*
X0069108Y0024038D02*
X0073000Y0024038D01*
X0073000Y0025636D02*
X0064182Y0025636D01*
X0064475Y0024038D02*
X0067492Y0024038D01*
X0064475Y0027235D02*
X0073000Y0027235D01*
X0073000Y0028833D02*
X0057697Y0028833D01*
X0059296Y0027235D02*
X0060875Y0027235D01*
X0065147Y0028973D02*
X0065777Y0028973D01*
X0066235Y0029096D01*
X0066645Y0029333D01*
X0066981Y0029668D01*
X0067041Y0029773D01*
X0067608Y0029773D01*
X0068194Y0030359D01*
X0068194Y0033943D01*
X0067608Y0034529D01*
X0067041Y0034529D01*
X0066981Y0034634D01*
X0066645Y0034969D01*
X0066235Y0035206D01*
X0065777Y0035329D01*
X0065147Y0035329D01*
X0065147Y0032151D01*
X0065146Y0032151D01*
X0065147Y0032151D01*
X0065147Y0028973D01*
X0065146Y0030432D02*
X0065147Y0030432D01*
X0065146Y0032030D02*
X0065147Y0032030D01*
X0065146Y0033629D02*
X0065147Y0033629D01*
X0065146Y0035227D02*
X0065147Y0035227D01*
X0066156Y0035227D02*
X0073000Y0035227D01*
X0073000Y0033629D02*
X0068194Y0033629D01*
X0068194Y0032030D02*
X0073000Y0032030D01*
X0073000Y0030432D02*
X0068194Y0030432D01*
X0065725Y0036826D02*
X0073000Y0036826D01*
X0073000Y0038424D02*
X0064721Y0038424D01*
X0063129Y0038424D02*
X0062846Y0038424D01*
X0061275Y0040023D02*
X0071617Y0040023D01*
X0070019Y0041621D02*
X0061159Y0041621D01*
X0066822Y0044818D02*
X0014778Y0044818D01*
X0013180Y0043220D02*
X0068420Y0043220D01*
X0065223Y0046417D02*
X0016377Y0046417D01*
X0011581Y0041621D02*
X0028826Y0041621D01*
X0031524Y0041621D02*
X0047750Y0041621D01*
X0046602Y0040023D02*
X0031975Y0040023D01*
X0031254Y0038424D02*
X0030346Y0038424D01*
X0032846Y0038424D02*
X0033754Y0038424D01*
X0035346Y0038424D02*
X0036254Y0038424D01*
X0037846Y0038424D02*
X0038754Y0038424D01*
X0040346Y0038424D02*
X0041254Y0038424D01*
X0042846Y0038424D02*
X0043754Y0038424D01*
X0045346Y0038424D02*
X0046254Y0038424D01*
X0027825Y0028833D02*
X0027639Y0028833D01*
X0022304Y0027235D02*
X0008600Y0027235D01*
X0008600Y0028833D02*
X0014625Y0028833D01*
X0010123Y0030432D02*
X0008600Y0030432D01*
X0008600Y0032030D02*
X0009625Y0032030D01*
X0009625Y0033629D02*
X0008600Y0033629D01*
X0008600Y0035227D02*
X0009932Y0035227D01*
X0008600Y0036826D02*
X0012780Y0036826D01*
X0014075Y0038424D02*
X0008600Y0038424D01*
X0009983Y0040023D02*
X0014075Y0040023D01*
X0017750Y0025636D02*
X0008600Y0025636D01*
X0008600Y0024038D02*
X0012492Y0024038D01*
X0011383Y0022439D02*
X0008600Y0022439D01*
X0008600Y0020841D02*
X0011063Y0020841D01*
X0011063Y0019242D02*
X0008600Y0019242D01*
X0008600Y0017644D02*
X0011364Y0017644D01*
X0012634Y0016045D02*
X0008600Y0016045D01*
X0008600Y0014447D02*
X0019700Y0014447D01*
X0019700Y0016045D02*
X0017716Y0016045D01*
X0018775Y0017644D02*
X0019700Y0017644D01*
X0013257Y0020025D02*
X0013257Y0020025D01*
X0017858Y0024038D02*
X0018392Y0024038D01*
X0026900Y0017644D02*
X0048450Y0017644D01*
X0048450Y0016045D02*
X0026900Y0016045D01*
X0028699Y0014447D02*
X0047901Y0014447D01*
X0045875Y0012848D02*
X0030725Y0012848D01*
X0030420Y0011250D02*
X0046180Y0011250D01*
X0020295Y0011250D02*
X0011143Y0011250D01*
X0009621Y0012848D02*
X0019700Y0012848D01*
D12*
X0020800Y0012300D02*
X0028925Y0012300D01*
X0027050Y0013550D02*
X0025800Y0013550D01*
X0025800Y0019800D01*
X0025855Y0020025D01*
X0027050Y0020425D02*
X0027430Y0020025D01*
X0027050Y0020425D02*
X0027050Y0022300D01*
X0023300Y0022300D01*
X0020175Y0025425D01*
X0019550Y0025425D01*
X0022050Y0025425D02*
X0023300Y0026675D01*
X0028925Y0026675D01*
X0028925Y0031675D01*
X0028926Y0032151D01*
X0030175Y0032300D02*
X0030501Y0032151D01*
X0030175Y0032300D02*
X0030175Y0035425D01*
X0028925Y0035425D01*
X0028300Y0036050D01*
X0028300Y0039175D01*
X0027050Y0039175D01*
X0030175Y0040425D02*
X0015175Y0040425D01*
X0015175Y0035425D01*
X0015800Y0034800D01*
X0017675Y0034800D01*
X0017675Y0032300D01*
X0017902Y0032151D01*
X0016425Y0032300D02*
X0016328Y0032151D01*
X0016425Y0032300D02*
X0016425Y0034175D01*
X0015175Y0034175D01*
X0013925Y0035425D01*
X0014550Y0034175D02*
X0011425Y0034175D01*
X0013178Y0032151D02*
X0013300Y0031675D01*
X0011425Y0031675D01*
X0014550Y0032300D02*
X0014550Y0034175D01*
X0014550Y0032300D02*
X0014753Y0032151D01*
X0017050Y0029800D02*
X0016425Y0029175D01*
X0017050Y0029800D02*
X0027050Y0029800D01*
X0027050Y0031675D01*
X0027351Y0032151D01*
X0025800Y0032300D02*
X0025776Y0032151D01*
X0025800Y0032300D02*
X0025800Y0036675D01*
X0027050Y0036675D01*
X0024550Y0036675D02*
X0024550Y0032300D01*
X0024202Y0032151D01*
X0022675Y0032300D02*
X0022627Y0032151D01*
X0022675Y0032300D02*
X0022675Y0036675D01*
X0022050Y0036675D01*
X0020800Y0037300D02*
X0018925Y0037300D01*
X0019550Y0036050D02*
X0016425Y0036050D01*
X0019550Y0036050D02*
X0019550Y0032300D01*
X0019477Y0032151D01*
X0020800Y0032300D02*
X0021052Y0032151D01*
X0020800Y0032300D02*
X0020800Y0037300D01*
X0029550Y0036675D02*
X0030175Y0036675D01*
X0031425Y0035425D01*
X0032050Y0035425D01*
X0032050Y0032300D01*
X0032076Y0032151D01*
X0033300Y0032300D02*
X0033650Y0032151D01*
X0033300Y0032300D02*
X0033300Y0036675D01*
X0032050Y0036675D01*
X0034550Y0036675D02*
X0035175Y0036675D01*
X0035175Y0032300D01*
X0035225Y0032151D01*
X0036800Y0032151D02*
X0037050Y0032300D01*
X0037050Y0036675D01*
X0038300Y0036675D02*
X0039550Y0036675D01*
X0038300Y0036675D02*
X0038300Y0032300D01*
X0038375Y0032151D01*
X0039950Y0032151D02*
X0040175Y0032300D01*
X0040175Y0035425D01*
X0041425Y0036675D01*
X0042050Y0036675D01*
X0042675Y0035425D02*
X0041425Y0035425D01*
X0041425Y0032300D01*
X0041524Y0032151D01*
X0043099Y0032151D02*
X0043300Y0032300D01*
X0043300Y0035425D01*
X0045175Y0035425D01*
X0046425Y0036675D01*
X0047050Y0036675D01*
X0048300Y0035425D02*
X0050175Y0035425D01*
X0050800Y0036050D01*
X0050800Y0039175D01*
X0048300Y0039175D01*
X0049550Y0041050D02*
X0060175Y0041050D01*
X0060175Y0032300D01*
X0060422Y0032151D01*
X0058925Y0032300D02*
X0058847Y0032151D01*
X0058925Y0032300D02*
X0058925Y0037300D01*
X0061425Y0037300D02*
X0062050Y0037300D01*
X0062050Y0032300D01*
X0061997Y0032151D01*
X0063572Y0032151D02*
X0063925Y0032300D01*
X0063925Y0036675D01*
X0065175Y0034800D02*
X0065777Y0035329D01*
X0057272Y0032151D02*
X0057050Y0032300D01*
X0057050Y0039800D01*
X0053925Y0039800D01*
X0053300Y0039175D01*
X0055800Y0038550D02*
X0055800Y0032300D01*
X0055698Y0032151D01*
X0054123Y0032151D02*
X0053925Y0032300D01*
X0053925Y0036675D01*
X0054550Y0036675D01*
X0052675Y0036675D02*
X0052050Y0036675D01*
X0052675Y0036675D02*
X0052675Y0032300D01*
X0052548Y0032151D01*
X0050973Y0032151D02*
X0050800Y0031675D01*
X0054550Y0027925D01*
X0057050Y0027925D01*
X0059550Y0025425D01*
X0060175Y0024175D02*
X0062675Y0026675D01*
X0060175Y0024175D02*
X0055800Y0024175D01*
X0055800Y0026050D01*
X0055175Y0026675D01*
X0047675Y0026675D01*
X0047675Y0031675D01*
X0047824Y0032151D01*
X0046425Y0032300D02*
X0046425Y0033550D01*
X0048300Y0035425D01*
X0048925Y0036675D02*
X0049550Y0036675D01*
X0048925Y0036675D02*
X0046425Y0034175D01*
X0044550Y0034175D01*
X0044550Y0032300D01*
X0044674Y0032151D01*
X0046249Y0032151D02*
X0046425Y0032300D01*
X0049398Y0032151D02*
X0049550Y0031675D01*
X0049550Y0027300D01*
X0055175Y0027300D01*
X0057050Y0025425D01*
X0054550Y0025425D02*
X0053300Y0024175D01*
X0051425Y0024175D01*
X0047675Y0020425D01*
X0047902Y0020025D01*
X0046425Y0020425D02*
X0046328Y0020025D01*
X0046425Y0020425D02*
X0046425Y0023550D01*
X0050175Y0023550D01*
X0052050Y0025425D01*
X0051425Y0023550D02*
X0062675Y0023550D01*
X0060800Y0022300D02*
X0068300Y0022300D01*
X0065225Y0020025D02*
X0065175Y0019800D01*
X0065175Y0017300D01*
X0064550Y0017300D01*
X0063300Y0019800D02*
X0063650Y0020025D01*
X0063300Y0019800D02*
X0063300Y0008550D01*
X0062050Y0008550D01*
X0062050Y0011050D02*
X0062050Y0019800D01*
X0062076Y0020025D01*
X0060800Y0020425D02*
X0060501Y0020025D01*
X0060800Y0020425D02*
X0060800Y0022300D01*
X0058926Y0020025D02*
X0058925Y0019800D01*
X0058925Y0014800D01*
X0060175Y0014800D01*
X0060800Y0014175D01*
X0060800Y0012300D01*
X0047675Y0012300D01*
X0049550Y0013550D02*
X0049550Y0019800D01*
X0049477Y0020025D01*
X0051052Y0020025D02*
X0051425Y0020425D01*
X0051425Y0023550D01*
X0049550Y0025425D02*
X0048300Y0024175D01*
X0046425Y0024175D01*
X0045175Y0022925D01*
X0044550Y0022925D01*
X0044550Y0020425D01*
X0044753Y0020025D01*
X0043300Y0020425D02*
X0043178Y0020025D01*
X0043300Y0020425D02*
X0043300Y0023550D01*
X0045175Y0023550D01*
X0047050Y0025425D01*
X0044550Y0025425D02*
X0043300Y0024175D01*
X0041425Y0024175D01*
X0041425Y0020425D01*
X0041603Y0020025D01*
X0040175Y0020425D02*
X0040028Y0020025D01*
X0040175Y0020425D02*
X0040175Y0024175D01*
X0040800Y0024175D01*
X0042050Y0025425D01*
X0039550Y0025425D02*
X0038300Y0025425D01*
X0038300Y0020425D01*
X0038454Y0020025D01*
X0037050Y0020425D02*
X0036879Y0020025D01*
X0037050Y0020425D02*
X0037050Y0025425D01*
X0035175Y0025425D02*
X0034550Y0025425D01*
X0035175Y0025425D02*
X0035175Y0020425D01*
X0035304Y0020025D01*
X0033925Y0020425D02*
X0033729Y0020025D01*
X0033925Y0020425D02*
X0033925Y0024175D01*
X0033300Y0024175D01*
X0032050Y0025425D01*
X0032050Y0024175D02*
X0030800Y0024175D01*
X0029550Y0025425D01*
X0027675Y0025425D02*
X0027050Y0025425D01*
X0027675Y0025425D02*
X0029550Y0023550D01*
X0030800Y0023550D01*
X0030800Y0020425D01*
X0030580Y0020025D01*
X0032050Y0020425D02*
X0032154Y0020025D01*
X0032050Y0020425D02*
X0032050Y0024175D01*
X0028925Y0023550D02*
X0026425Y0023550D01*
X0024550Y0025425D01*
X0028925Y0023550D02*
X0028925Y0020425D01*
X0029005Y0020025D01*
X0024550Y0019800D02*
X0024280Y0020025D01*
X0024550Y0019800D02*
X0024550Y0013550D01*
X0022675Y0013550D02*
X0022050Y0013550D01*
X0022675Y0013550D02*
X0022675Y0019800D01*
X0022706Y0020025D01*
X0021131Y0020025D02*
X0020800Y0019800D01*
X0020800Y0012300D01*
X0017675Y0017300D02*
X0016425Y0017300D01*
X0017675Y0017300D02*
X0017675Y0019800D01*
X0017981Y0020025D01*
X0016425Y0019800D02*
X0016406Y0020025D01*
X0016425Y0019800D02*
X0016425Y0018550D01*
X0015800Y0018550D01*
X0014550Y0017300D01*
X0013925Y0017300D01*
X0014831Y0020025D02*
X0014550Y0020425D01*
X0014550Y0022925D01*
X0013925Y0022925D01*
X0016425Y0022925D02*
X0019550Y0022925D01*
X0019550Y0020425D01*
X0019556Y0020025D01*
X0042675Y0035425D02*
X0043925Y0036675D01*
X0044550Y0036675D01*
X0052627Y0020025D02*
X0052675Y0019800D01*
X0052675Y0013550D01*
X0052050Y0013550D01*
X0054550Y0013550D02*
X0054550Y0019800D01*
X0054202Y0020025D01*
X0055776Y0020025D02*
X0055800Y0019800D01*
X0055800Y0013550D01*
X0057050Y0013550D01*
X0057675Y0014800D02*
X0058300Y0014800D01*
X0059550Y0013550D01*
X0057675Y0014800D02*
X0057675Y0019800D01*
X0057351Y0020025D01*
D13*
X0062675Y0023550D03*
X0064550Y0024800D03*
X0062675Y0026675D03*
X0059550Y0025425D03*
X0057050Y0025425D03*
X0054550Y0025425D03*
X0052050Y0025425D03*
X0049550Y0025425D03*
X0047050Y0025425D03*
X0044550Y0025425D03*
X0042050Y0025425D03*
X0039550Y0025425D03*
X0037050Y0025425D03*
X0034550Y0025425D03*
X0032050Y0025425D03*
X0029550Y0025425D03*
X0027050Y0025425D03*
X0024550Y0025425D03*
X0022050Y0025425D03*
X0019550Y0025425D03*
X0016425Y0026675D03*
X0016425Y0029175D03*
X0011425Y0031675D03*
X0011425Y0034175D03*
X0013925Y0035425D03*
X0016425Y0036050D03*
X0018925Y0037300D03*
X0022050Y0036675D03*
X0024550Y0036675D03*
X0027050Y0036675D03*
X0029550Y0036675D03*
X0032050Y0036675D03*
X0034550Y0036675D03*
X0037050Y0036675D03*
X0039550Y0036675D03*
X0042050Y0036675D03*
X0044550Y0036675D03*
X0047050Y0036675D03*
X0049550Y0036675D03*
X0052050Y0036675D03*
X0054550Y0036675D03*
X0055800Y0038550D03*
X0053300Y0039175D03*
X0049550Y0041050D03*
X0048300Y0039175D03*
X0058925Y0037300D03*
X0061425Y0037300D03*
X0063925Y0036675D03*
X0065175Y0034800D03*
X0068300Y0022300D03*
X0064550Y0017300D03*
X0059550Y0013550D03*
X0057050Y0013550D03*
X0054550Y0013550D03*
X0052050Y0013550D03*
X0049550Y0013550D03*
X0047675Y0012300D03*
X0062050Y0011050D03*
X0062050Y0008550D03*
X0028925Y0012300D03*
X0027050Y0013550D03*
X0024550Y0013550D03*
X0022050Y0013550D03*
X0018300Y0013550D03*
X0016425Y0017300D03*
X0013925Y0017300D03*
X0013925Y0022925D03*
X0016425Y0022925D03*
X0027050Y0039175D03*
X0030175Y0040425D03*
M02*
