G75*
%MOIN*%
%OFA0B0*%
%FSLAX25Y25*%
%IPPOS*%
%LPD*%
%AMOC8*
5,1,8,0,0,1.08239X$1,22.5*
%
%ADD10C,0.02070*%
%ADD11C,0.03500*%
D10*
X0008085Y0015635D02*
X0008085Y0018365D01*
X0008315Y0018365D01*
X0008315Y0015635D01*
X0008085Y0015635D01*
X0008085Y0017704D02*
X0008315Y0017704D01*
X0010585Y0018365D02*
X0010585Y0015635D01*
X0010585Y0018365D02*
X0010815Y0018365D01*
X0010815Y0015635D01*
X0010585Y0015635D01*
X0010585Y0017704D02*
X0010815Y0017704D01*
X0013085Y0018365D02*
X0013085Y0015635D01*
X0013085Y0018365D02*
X0013315Y0018365D01*
X0013315Y0015635D01*
X0013085Y0015635D01*
X0013085Y0017704D02*
X0013315Y0017704D01*
X0015585Y0018365D02*
X0015585Y0015635D01*
X0015585Y0018365D02*
X0015815Y0018365D01*
X0015815Y0015635D01*
X0015585Y0015635D01*
X0015585Y0017704D02*
X0015815Y0017704D01*
X0018085Y0018365D02*
X0018085Y0015635D01*
X0018085Y0018365D02*
X0018315Y0018365D01*
X0018315Y0015635D01*
X0018085Y0015635D01*
X0018085Y0017704D02*
X0018315Y0017704D01*
X0020585Y0018365D02*
X0020585Y0015635D01*
X0020585Y0018365D02*
X0020815Y0018365D01*
X0020815Y0015635D01*
X0020585Y0015635D01*
X0020585Y0017704D02*
X0020815Y0017704D01*
X0023085Y0018365D02*
X0023085Y0015635D01*
X0023085Y0018365D02*
X0023315Y0018365D01*
X0023315Y0015635D01*
X0023085Y0015635D01*
X0023085Y0017704D02*
X0023315Y0017704D01*
X0025585Y0018365D02*
X0025585Y0015635D01*
X0025585Y0018365D02*
X0025815Y0018365D01*
X0025815Y0015635D01*
X0025585Y0015635D01*
X0025585Y0017704D02*
X0025815Y0017704D01*
X0028085Y0018365D02*
X0028085Y0015635D01*
X0028085Y0018365D02*
X0028315Y0018365D01*
X0028315Y0015635D01*
X0028085Y0015635D01*
X0028085Y0017704D02*
X0028315Y0017704D01*
X0030585Y0018365D02*
X0030585Y0015635D01*
X0030585Y0018365D02*
X0030815Y0018365D01*
X0030815Y0015635D01*
X0030585Y0015635D01*
X0030585Y0017704D02*
X0030815Y0017704D01*
X0028085Y0020635D02*
X0028085Y0023365D01*
X0028315Y0023365D01*
X0028315Y0020635D01*
X0028085Y0020635D01*
X0028085Y0022704D02*
X0028315Y0022704D01*
X0025585Y0023365D02*
X0025585Y0020635D01*
X0025585Y0023365D02*
X0025815Y0023365D01*
X0025815Y0020635D01*
X0025585Y0020635D01*
X0025585Y0022704D02*
X0025815Y0022704D01*
X0023085Y0023365D02*
X0023085Y0020635D01*
X0023085Y0023365D02*
X0023315Y0023365D01*
X0023315Y0020635D01*
X0023085Y0020635D01*
X0023085Y0022704D02*
X0023315Y0022704D01*
X0020585Y0023365D02*
X0020585Y0020635D01*
X0020585Y0023365D02*
X0020815Y0023365D01*
X0020815Y0020635D01*
X0020585Y0020635D01*
X0020585Y0022704D02*
X0020815Y0022704D01*
X0018085Y0023365D02*
X0018085Y0020635D01*
X0018085Y0023365D02*
X0018315Y0023365D01*
X0018315Y0020635D01*
X0018085Y0020635D01*
X0018085Y0022704D02*
X0018315Y0022704D01*
X0015585Y0023365D02*
X0015585Y0020635D01*
X0015585Y0023365D02*
X0015815Y0023365D01*
X0015815Y0020635D01*
X0015585Y0020635D01*
X0015585Y0022704D02*
X0015815Y0022704D01*
X0013085Y0023365D02*
X0013085Y0020635D01*
X0013085Y0023365D02*
X0013315Y0023365D01*
X0013315Y0020635D01*
X0013085Y0020635D01*
X0013085Y0022704D02*
X0013315Y0022704D01*
X0010585Y0023365D02*
X0010585Y0020635D01*
X0010585Y0023365D02*
X0010815Y0023365D01*
X0010815Y0020635D01*
X0010585Y0020635D01*
X0010585Y0022704D02*
X0010815Y0022704D01*
X0010585Y0053635D02*
X0010585Y0056365D01*
X0010815Y0056365D01*
X0010815Y0053635D01*
X0010585Y0053635D01*
X0010585Y0055704D02*
X0010815Y0055704D01*
X0013085Y0056365D02*
X0013085Y0053635D01*
X0013085Y0056365D02*
X0013315Y0056365D01*
X0013315Y0053635D01*
X0013085Y0053635D01*
X0013085Y0055704D02*
X0013315Y0055704D01*
X0015585Y0056365D02*
X0015585Y0053635D01*
X0015585Y0056365D02*
X0015815Y0056365D01*
X0015815Y0053635D01*
X0015585Y0053635D01*
X0015585Y0055704D02*
X0015815Y0055704D01*
X0018085Y0056365D02*
X0018085Y0053635D01*
X0018085Y0056365D02*
X0018315Y0056365D01*
X0018315Y0053635D01*
X0018085Y0053635D01*
X0018085Y0055704D02*
X0018315Y0055704D01*
X0020585Y0056365D02*
X0020585Y0053635D01*
X0020585Y0056365D02*
X0020815Y0056365D01*
X0020815Y0053635D01*
X0020585Y0053635D01*
X0020585Y0055704D02*
X0020815Y0055704D01*
X0023085Y0056365D02*
X0023085Y0053635D01*
X0023085Y0056365D02*
X0023315Y0056365D01*
X0023315Y0053635D01*
X0023085Y0053635D01*
X0023085Y0055704D02*
X0023315Y0055704D01*
X0025585Y0056365D02*
X0025585Y0053635D01*
X0025585Y0056365D02*
X0025815Y0056365D01*
X0025815Y0053635D01*
X0025585Y0053635D01*
X0025585Y0055704D02*
X0025815Y0055704D01*
X0028085Y0056365D02*
X0028085Y0053635D01*
X0028085Y0056365D02*
X0028315Y0056365D01*
X0028315Y0053635D01*
X0028085Y0053635D01*
X0028085Y0055704D02*
X0028315Y0055704D01*
X0030585Y0056365D02*
X0030585Y0053635D01*
X0030585Y0056365D02*
X0030815Y0056365D01*
X0030815Y0053635D01*
X0030585Y0053635D01*
X0030585Y0055704D02*
X0030815Y0055704D01*
X0028085Y0058635D02*
X0028085Y0061365D01*
X0028315Y0061365D01*
X0028315Y0058635D01*
X0028085Y0058635D01*
X0028085Y0060704D02*
X0028315Y0060704D01*
X0025585Y0061365D02*
X0025585Y0058635D01*
X0025585Y0061365D02*
X0025815Y0061365D01*
X0025815Y0058635D01*
X0025585Y0058635D01*
X0025585Y0060704D02*
X0025815Y0060704D01*
X0023085Y0061365D02*
X0023085Y0058635D01*
X0023085Y0061365D02*
X0023315Y0061365D01*
X0023315Y0058635D01*
X0023085Y0058635D01*
X0023085Y0060704D02*
X0023315Y0060704D01*
X0020585Y0061365D02*
X0020585Y0058635D01*
X0020585Y0061365D02*
X0020815Y0061365D01*
X0020815Y0058635D01*
X0020585Y0058635D01*
X0020585Y0060704D02*
X0020815Y0060704D01*
X0018085Y0061365D02*
X0018085Y0058635D01*
X0018085Y0061365D02*
X0018315Y0061365D01*
X0018315Y0058635D01*
X0018085Y0058635D01*
X0018085Y0060704D02*
X0018315Y0060704D01*
X0015585Y0061365D02*
X0015585Y0058635D01*
X0015585Y0061365D02*
X0015815Y0061365D01*
X0015815Y0058635D01*
X0015585Y0058635D01*
X0015585Y0060704D02*
X0015815Y0060704D01*
X0013085Y0061365D02*
X0013085Y0058635D01*
X0013085Y0061365D02*
X0013315Y0061365D01*
X0013315Y0058635D01*
X0013085Y0058635D01*
X0013085Y0060704D02*
X0013315Y0060704D01*
X0010585Y0061365D02*
X0010585Y0058635D01*
X0010585Y0061365D02*
X0010815Y0061365D01*
X0010815Y0058635D01*
X0010585Y0058635D01*
X0010585Y0060704D02*
X0010815Y0060704D01*
X0008085Y0056365D02*
X0008085Y0053635D01*
X0008085Y0056365D02*
X0008315Y0056365D01*
X0008315Y0053635D01*
X0008085Y0053635D01*
X0008085Y0055704D02*
X0008315Y0055704D01*
X0046085Y0056365D02*
X0046085Y0053635D01*
X0046085Y0056365D02*
X0046315Y0056365D01*
X0046315Y0053635D01*
X0046085Y0053635D01*
X0046085Y0055704D02*
X0046315Y0055704D01*
X0048585Y0056365D02*
X0048585Y0053635D01*
X0048585Y0056365D02*
X0048815Y0056365D01*
X0048815Y0053635D01*
X0048585Y0053635D01*
X0048585Y0055704D02*
X0048815Y0055704D01*
X0051085Y0056365D02*
X0051085Y0053635D01*
X0051085Y0056365D02*
X0051315Y0056365D01*
X0051315Y0053635D01*
X0051085Y0053635D01*
X0051085Y0055704D02*
X0051315Y0055704D01*
X0053585Y0056365D02*
X0053585Y0053635D01*
X0053585Y0056365D02*
X0053815Y0056365D01*
X0053815Y0053635D01*
X0053585Y0053635D01*
X0053585Y0055704D02*
X0053815Y0055704D01*
X0056085Y0056365D02*
X0056085Y0053635D01*
X0056085Y0056365D02*
X0056315Y0056365D01*
X0056315Y0053635D01*
X0056085Y0053635D01*
X0056085Y0055704D02*
X0056315Y0055704D01*
X0058585Y0056365D02*
X0058585Y0053635D01*
X0058585Y0056365D02*
X0058815Y0056365D01*
X0058815Y0053635D01*
X0058585Y0053635D01*
X0058585Y0055704D02*
X0058815Y0055704D01*
X0061085Y0056365D02*
X0061085Y0053635D01*
X0061085Y0056365D02*
X0061315Y0056365D01*
X0061315Y0053635D01*
X0061085Y0053635D01*
X0061085Y0055704D02*
X0061315Y0055704D01*
X0063585Y0056365D02*
X0063585Y0053635D01*
X0063585Y0056365D02*
X0063815Y0056365D01*
X0063815Y0053635D01*
X0063585Y0053635D01*
X0063585Y0055704D02*
X0063815Y0055704D01*
X0066085Y0056365D02*
X0066085Y0053635D01*
X0066085Y0056365D02*
X0066315Y0056365D01*
X0066315Y0053635D01*
X0066085Y0053635D01*
X0066085Y0055704D02*
X0066315Y0055704D01*
X0068585Y0056365D02*
X0068585Y0053635D01*
X0068585Y0056365D02*
X0068815Y0056365D01*
X0068815Y0053635D01*
X0068585Y0053635D01*
X0068585Y0055704D02*
X0068815Y0055704D01*
X0066085Y0058635D02*
X0066085Y0061365D01*
X0066315Y0061365D01*
X0066315Y0058635D01*
X0066085Y0058635D01*
X0066085Y0060704D02*
X0066315Y0060704D01*
X0063585Y0061365D02*
X0063585Y0058635D01*
X0063585Y0061365D02*
X0063815Y0061365D01*
X0063815Y0058635D01*
X0063585Y0058635D01*
X0063585Y0060704D02*
X0063815Y0060704D01*
X0061085Y0061365D02*
X0061085Y0058635D01*
X0061085Y0061365D02*
X0061315Y0061365D01*
X0061315Y0058635D01*
X0061085Y0058635D01*
X0061085Y0060704D02*
X0061315Y0060704D01*
X0058585Y0061365D02*
X0058585Y0058635D01*
X0058585Y0061365D02*
X0058815Y0061365D01*
X0058815Y0058635D01*
X0058585Y0058635D01*
X0058585Y0060704D02*
X0058815Y0060704D01*
X0056085Y0061365D02*
X0056085Y0058635D01*
X0056085Y0061365D02*
X0056315Y0061365D01*
X0056315Y0058635D01*
X0056085Y0058635D01*
X0056085Y0060704D02*
X0056315Y0060704D01*
X0053585Y0061365D02*
X0053585Y0058635D01*
X0053585Y0061365D02*
X0053815Y0061365D01*
X0053815Y0058635D01*
X0053585Y0058635D01*
X0053585Y0060704D02*
X0053815Y0060704D01*
X0051085Y0061365D02*
X0051085Y0058635D01*
X0051085Y0061365D02*
X0051315Y0061365D01*
X0051315Y0058635D01*
X0051085Y0058635D01*
X0051085Y0060704D02*
X0051315Y0060704D01*
X0048585Y0061365D02*
X0048585Y0058635D01*
X0048585Y0061365D02*
X0048815Y0061365D01*
X0048815Y0058635D01*
X0048585Y0058635D01*
X0048585Y0060704D02*
X0048815Y0060704D01*
X0048585Y0023365D02*
X0048585Y0020635D01*
X0048585Y0023365D02*
X0048815Y0023365D01*
X0048815Y0020635D01*
X0048585Y0020635D01*
X0048585Y0022704D02*
X0048815Y0022704D01*
X0051085Y0023365D02*
X0051085Y0020635D01*
X0051085Y0023365D02*
X0051315Y0023365D01*
X0051315Y0020635D01*
X0051085Y0020635D01*
X0051085Y0022704D02*
X0051315Y0022704D01*
X0053585Y0023365D02*
X0053585Y0020635D01*
X0053585Y0023365D02*
X0053815Y0023365D01*
X0053815Y0020635D01*
X0053585Y0020635D01*
X0053585Y0022704D02*
X0053815Y0022704D01*
X0056085Y0023365D02*
X0056085Y0020635D01*
X0056085Y0023365D02*
X0056315Y0023365D01*
X0056315Y0020635D01*
X0056085Y0020635D01*
X0056085Y0022704D02*
X0056315Y0022704D01*
X0058585Y0023365D02*
X0058585Y0020635D01*
X0058585Y0023365D02*
X0058815Y0023365D01*
X0058815Y0020635D01*
X0058585Y0020635D01*
X0058585Y0022704D02*
X0058815Y0022704D01*
X0061085Y0023365D02*
X0061085Y0020635D01*
X0061085Y0023365D02*
X0061315Y0023365D01*
X0061315Y0020635D01*
X0061085Y0020635D01*
X0061085Y0022704D02*
X0061315Y0022704D01*
X0063585Y0023365D02*
X0063585Y0020635D01*
X0063585Y0023365D02*
X0063815Y0023365D01*
X0063815Y0020635D01*
X0063585Y0020635D01*
X0063585Y0022704D02*
X0063815Y0022704D01*
X0066085Y0023365D02*
X0066085Y0020635D01*
X0066085Y0023365D02*
X0066315Y0023365D01*
X0066315Y0020635D01*
X0066085Y0020635D01*
X0066085Y0022704D02*
X0066315Y0022704D01*
X0066085Y0018365D02*
X0066085Y0015635D01*
X0066085Y0018365D02*
X0066315Y0018365D01*
X0066315Y0015635D01*
X0066085Y0015635D01*
X0066085Y0017704D02*
X0066315Y0017704D01*
X0068585Y0018365D02*
X0068585Y0015635D01*
X0068585Y0018365D02*
X0068815Y0018365D01*
X0068815Y0015635D01*
X0068585Y0015635D01*
X0068585Y0017704D02*
X0068815Y0017704D01*
X0063585Y0018365D02*
X0063585Y0015635D01*
X0063585Y0018365D02*
X0063815Y0018365D01*
X0063815Y0015635D01*
X0063585Y0015635D01*
X0063585Y0017704D02*
X0063815Y0017704D01*
X0061085Y0018365D02*
X0061085Y0015635D01*
X0061085Y0018365D02*
X0061315Y0018365D01*
X0061315Y0015635D01*
X0061085Y0015635D01*
X0061085Y0017704D02*
X0061315Y0017704D01*
X0058585Y0018365D02*
X0058585Y0015635D01*
X0058585Y0018365D02*
X0058815Y0018365D01*
X0058815Y0015635D01*
X0058585Y0015635D01*
X0058585Y0017704D02*
X0058815Y0017704D01*
X0056085Y0018365D02*
X0056085Y0015635D01*
X0056085Y0018365D02*
X0056315Y0018365D01*
X0056315Y0015635D01*
X0056085Y0015635D01*
X0056085Y0017704D02*
X0056315Y0017704D01*
X0053585Y0018365D02*
X0053585Y0015635D01*
X0053585Y0018365D02*
X0053815Y0018365D01*
X0053815Y0015635D01*
X0053585Y0015635D01*
X0053585Y0017704D02*
X0053815Y0017704D01*
X0051085Y0018365D02*
X0051085Y0015635D01*
X0051085Y0018365D02*
X0051315Y0018365D01*
X0051315Y0015635D01*
X0051085Y0015635D01*
X0051085Y0017704D02*
X0051315Y0017704D01*
X0048585Y0018365D02*
X0048585Y0015635D01*
X0048585Y0018365D02*
X0048815Y0018365D01*
X0048815Y0015635D01*
X0048585Y0015635D01*
X0048585Y0017704D02*
X0048815Y0017704D01*
X0046085Y0018365D02*
X0046085Y0015635D01*
X0046085Y0018365D02*
X0046315Y0018365D01*
X0046315Y0015635D01*
X0046085Y0015635D01*
X0046085Y0017704D02*
X0046315Y0017704D01*
D11*
X0007000Y0011500D03*
X0009500Y0013500D03*
X0012000Y0009500D03*
X0015500Y0010000D03*
X0018000Y0008000D03*
X0021000Y0009500D03*
X0024500Y0010000D03*
X0028500Y0009500D03*
X0029000Y0013000D03*
X0031000Y0021500D03*
X0030500Y0025000D03*
X0025500Y0029500D03*
X0022000Y0029000D03*
X0018500Y0029000D03*
X0014500Y0031000D03*
X0012000Y0029000D03*
X0009500Y0025500D03*
X0006500Y0020500D03*
X0018000Y0046000D03*
X0015500Y0048000D03*
X0012000Y0047500D03*
X0009500Y0051500D03*
X0007000Y0049500D03*
X0006500Y0058500D03*
X0009500Y0063500D03*
X0012000Y0067000D03*
X0014500Y0069000D03*
X0018500Y0067000D03*
X0022000Y0067000D03*
X0025500Y0067500D03*
X0030500Y0063000D03*
X0031000Y0059500D03*
X0029000Y0051000D03*
X0028500Y0047500D03*
X0024500Y0048000D03*
X0021000Y0047500D03*
X0044500Y0058500D03*
X0047500Y0063500D03*
X0050000Y0067000D03*
X0052500Y0069000D03*
X0056500Y0067000D03*
X0060000Y0067000D03*
X0063500Y0067500D03*
X0068500Y0063000D03*
X0069000Y0059500D03*
X0067000Y0051000D03*
X0066500Y0047500D03*
X0062500Y0048000D03*
X0059000Y0047500D03*
X0056000Y0046000D03*
X0053500Y0048000D03*
X0050000Y0047500D03*
X0047500Y0051500D03*
X0045000Y0049500D03*
X0052500Y0031000D03*
X0050000Y0029000D03*
X0047500Y0025500D03*
X0044500Y0020500D03*
X0047500Y0013500D03*
X0045000Y0011500D03*
X0050000Y0009500D03*
X0053500Y0010000D03*
X0056000Y0008000D03*
X0059000Y0009500D03*
X0062500Y0010000D03*
X0066500Y0009500D03*
X0067000Y0013000D03*
X0069000Y0021500D03*
X0068500Y0025000D03*
X0063500Y0029500D03*
X0060000Y0029000D03*
X0056500Y0029000D03*
M02*
