%
M48
M72
T01C0.01500
%
T01
X7000Y11500
X9500Y13500
X12000Y9500
X15500Y10000
X18000Y8000
X21000Y9500
X24500Y10000
X28500Y9500
X29000Y13000
X31000Y21500
X30500Y25000
X25500Y29500
X22000Y29000
X18500Y29000
X14500Y31000
X12000Y29000
X9500Y25500
X6500Y20500
X18000Y46000
X15500Y48000
X12000Y47500
X9500Y51500
X7000Y49500
X6500Y58500
X9500Y63500
X12000Y67000
X14500Y69000
X18500Y67000
X22000Y67000
X25500Y67500
X30500Y63000
X31000Y59500
X29000Y51000
X28500Y47500
X24500Y48000
X21000Y47500
X44500Y58500
X47500Y63500
X50000Y67000
X52500Y69000
X56500Y67000
X60000Y67000
X63500Y67500
X68500Y63000
X69000Y59500
X67000Y51000
X66500Y47500
X62500Y48000
X59000Y47500
X56000Y46000
X53500Y48000
X50000Y47500
X47500Y51500
X45000Y49500
X52500Y31000
X50000Y29000
X47500Y25500
X44500Y20500
X47500Y13500
X45000Y11500
X50000Y9500
X53500Y10000
X56000Y8000
X59000Y9500
X62500Y10000
X66500Y9500
X67000Y13000
X69000Y21500
X68500Y25000
X63500Y29500
X60000Y29000
X56500Y29000
M30
