G75*
%MOIN*%
%OFA0B0*%
%FSLAX25Y25*%
%IPPOS*%
%LPD*%
%AMOC8*
5,1,8,0,0,1.08239X$1,22.5*
%
%ADD10C,0.01350*%
D10*
X0008125Y0015675D02*
X0008125Y0018325D01*
X0008275Y0018325D01*
X0008275Y0015675D01*
X0008125Y0015675D01*
X0008125Y0017024D02*
X0008275Y0017024D01*
X0010625Y0018325D02*
X0010625Y0015675D01*
X0010625Y0018325D02*
X0010775Y0018325D01*
X0010775Y0015675D01*
X0010625Y0015675D01*
X0010625Y0017024D02*
X0010775Y0017024D01*
X0013125Y0018325D02*
X0013125Y0015675D01*
X0013125Y0018325D02*
X0013275Y0018325D01*
X0013275Y0015675D01*
X0013125Y0015675D01*
X0013125Y0017024D02*
X0013275Y0017024D01*
X0015625Y0018325D02*
X0015625Y0015675D01*
X0015625Y0018325D02*
X0015775Y0018325D01*
X0015775Y0015675D01*
X0015625Y0015675D01*
X0015625Y0017024D02*
X0015775Y0017024D01*
X0018125Y0018325D02*
X0018125Y0015675D01*
X0018125Y0018325D02*
X0018275Y0018325D01*
X0018275Y0015675D01*
X0018125Y0015675D01*
X0018125Y0017024D02*
X0018275Y0017024D01*
X0020625Y0018325D02*
X0020625Y0015675D01*
X0020625Y0018325D02*
X0020775Y0018325D01*
X0020775Y0015675D01*
X0020625Y0015675D01*
X0020625Y0017024D02*
X0020775Y0017024D01*
X0023125Y0018325D02*
X0023125Y0015675D01*
X0023125Y0018325D02*
X0023275Y0018325D01*
X0023275Y0015675D01*
X0023125Y0015675D01*
X0023125Y0017024D02*
X0023275Y0017024D01*
X0025625Y0018325D02*
X0025625Y0015675D01*
X0025625Y0018325D02*
X0025775Y0018325D01*
X0025775Y0015675D01*
X0025625Y0015675D01*
X0025625Y0017024D02*
X0025775Y0017024D01*
X0028125Y0018325D02*
X0028125Y0015675D01*
X0028125Y0018325D02*
X0028275Y0018325D01*
X0028275Y0015675D01*
X0028125Y0015675D01*
X0028125Y0017024D02*
X0028275Y0017024D01*
X0030625Y0018325D02*
X0030625Y0015675D01*
X0030625Y0018325D02*
X0030775Y0018325D01*
X0030775Y0015675D01*
X0030625Y0015675D01*
X0030625Y0017024D02*
X0030775Y0017024D01*
X0028125Y0020675D02*
X0028125Y0023325D01*
X0028275Y0023325D01*
X0028275Y0020675D01*
X0028125Y0020675D01*
X0028125Y0022024D02*
X0028275Y0022024D01*
X0025625Y0023325D02*
X0025625Y0020675D01*
X0025625Y0023325D02*
X0025775Y0023325D01*
X0025775Y0020675D01*
X0025625Y0020675D01*
X0025625Y0022024D02*
X0025775Y0022024D01*
X0023125Y0023325D02*
X0023125Y0020675D01*
X0023125Y0023325D02*
X0023275Y0023325D01*
X0023275Y0020675D01*
X0023125Y0020675D01*
X0023125Y0022024D02*
X0023275Y0022024D01*
X0020625Y0023325D02*
X0020625Y0020675D01*
X0020625Y0023325D02*
X0020775Y0023325D01*
X0020775Y0020675D01*
X0020625Y0020675D01*
X0020625Y0022024D02*
X0020775Y0022024D01*
X0018125Y0023325D02*
X0018125Y0020675D01*
X0018125Y0023325D02*
X0018275Y0023325D01*
X0018275Y0020675D01*
X0018125Y0020675D01*
X0018125Y0022024D02*
X0018275Y0022024D01*
X0015625Y0023325D02*
X0015625Y0020675D01*
X0015625Y0023325D02*
X0015775Y0023325D01*
X0015775Y0020675D01*
X0015625Y0020675D01*
X0015625Y0022024D02*
X0015775Y0022024D01*
X0013125Y0023325D02*
X0013125Y0020675D01*
X0013125Y0023325D02*
X0013275Y0023325D01*
X0013275Y0020675D01*
X0013125Y0020675D01*
X0013125Y0022024D02*
X0013275Y0022024D01*
X0010625Y0023325D02*
X0010625Y0020675D01*
X0010625Y0023325D02*
X0010775Y0023325D01*
X0010775Y0020675D01*
X0010625Y0020675D01*
X0010625Y0022024D02*
X0010775Y0022024D01*
X0010625Y0053675D02*
X0010625Y0056325D01*
X0010775Y0056325D01*
X0010775Y0053675D01*
X0010625Y0053675D01*
X0010625Y0055024D02*
X0010775Y0055024D01*
X0008125Y0056325D02*
X0008125Y0053675D01*
X0008125Y0056325D02*
X0008275Y0056325D01*
X0008275Y0053675D01*
X0008125Y0053675D01*
X0008125Y0055024D02*
X0008275Y0055024D01*
X0010625Y0058675D02*
X0010625Y0061325D01*
X0010775Y0061325D01*
X0010775Y0058675D01*
X0010625Y0058675D01*
X0010625Y0060024D02*
X0010775Y0060024D01*
X0013125Y0061325D02*
X0013125Y0058675D01*
X0013125Y0061325D02*
X0013275Y0061325D01*
X0013275Y0058675D01*
X0013125Y0058675D01*
X0013125Y0060024D02*
X0013275Y0060024D01*
X0015625Y0061325D02*
X0015625Y0058675D01*
X0015625Y0061325D02*
X0015775Y0061325D01*
X0015775Y0058675D01*
X0015625Y0058675D01*
X0015625Y0060024D02*
X0015775Y0060024D01*
X0018125Y0061325D02*
X0018125Y0058675D01*
X0018125Y0061325D02*
X0018275Y0061325D01*
X0018275Y0058675D01*
X0018125Y0058675D01*
X0018125Y0060024D02*
X0018275Y0060024D01*
X0020625Y0061325D02*
X0020625Y0058675D01*
X0020625Y0061325D02*
X0020775Y0061325D01*
X0020775Y0058675D01*
X0020625Y0058675D01*
X0020625Y0060024D02*
X0020775Y0060024D01*
X0023125Y0061325D02*
X0023125Y0058675D01*
X0023125Y0061325D02*
X0023275Y0061325D01*
X0023275Y0058675D01*
X0023125Y0058675D01*
X0023125Y0060024D02*
X0023275Y0060024D01*
X0025625Y0061325D02*
X0025625Y0058675D01*
X0025625Y0061325D02*
X0025775Y0061325D01*
X0025775Y0058675D01*
X0025625Y0058675D01*
X0025625Y0060024D02*
X0025775Y0060024D01*
X0028125Y0061325D02*
X0028125Y0058675D01*
X0028125Y0061325D02*
X0028275Y0061325D01*
X0028275Y0058675D01*
X0028125Y0058675D01*
X0028125Y0060024D02*
X0028275Y0060024D01*
X0028125Y0056325D02*
X0028125Y0053675D01*
X0028125Y0056325D02*
X0028275Y0056325D01*
X0028275Y0053675D01*
X0028125Y0053675D01*
X0028125Y0055024D02*
X0028275Y0055024D01*
X0030625Y0056325D02*
X0030625Y0053675D01*
X0030625Y0056325D02*
X0030775Y0056325D01*
X0030775Y0053675D01*
X0030625Y0053675D01*
X0030625Y0055024D02*
X0030775Y0055024D01*
X0025625Y0056325D02*
X0025625Y0053675D01*
X0025625Y0056325D02*
X0025775Y0056325D01*
X0025775Y0053675D01*
X0025625Y0053675D01*
X0025625Y0055024D02*
X0025775Y0055024D01*
X0023125Y0056325D02*
X0023125Y0053675D01*
X0023125Y0056325D02*
X0023275Y0056325D01*
X0023275Y0053675D01*
X0023125Y0053675D01*
X0023125Y0055024D02*
X0023275Y0055024D01*
X0020625Y0056325D02*
X0020625Y0053675D01*
X0020625Y0056325D02*
X0020775Y0056325D01*
X0020775Y0053675D01*
X0020625Y0053675D01*
X0020625Y0055024D02*
X0020775Y0055024D01*
X0018125Y0056325D02*
X0018125Y0053675D01*
X0018125Y0056325D02*
X0018275Y0056325D01*
X0018275Y0053675D01*
X0018125Y0053675D01*
X0018125Y0055024D02*
X0018275Y0055024D01*
X0015625Y0056325D02*
X0015625Y0053675D01*
X0015625Y0056325D02*
X0015775Y0056325D01*
X0015775Y0053675D01*
X0015625Y0053675D01*
X0015625Y0055024D02*
X0015775Y0055024D01*
X0013125Y0056325D02*
X0013125Y0053675D01*
X0013125Y0056325D02*
X0013275Y0056325D01*
X0013275Y0053675D01*
X0013125Y0053675D01*
X0013125Y0055024D02*
X0013275Y0055024D01*
X0046125Y0056325D02*
X0046125Y0053675D01*
X0046125Y0056325D02*
X0046275Y0056325D01*
X0046275Y0053675D01*
X0046125Y0053675D01*
X0046125Y0055024D02*
X0046275Y0055024D01*
X0048625Y0056325D02*
X0048625Y0053675D01*
X0048625Y0056325D02*
X0048775Y0056325D01*
X0048775Y0053675D01*
X0048625Y0053675D01*
X0048625Y0055024D02*
X0048775Y0055024D01*
X0051125Y0056325D02*
X0051125Y0053675D01*
X0051125Y0056325D02*
X0051275Y0056325D01*
X0051275Y0053675D01*
X0051125Y0053675D01*
X0051125Y0055024D02*
X0051275Y0055024D01*
X0053625Y0056325D02*
X0053625Y0053675D01*
X0053625Y0056325D02*
X0053775Y0056325D01*
X0053775Y0053675D01*
X0053625Y0053675D01*
X0053625Y0055024D02*
X0053775Y0055024D01*
X0056125Y0056325D02*
X0056125Y0053675D01*
X0056125Y0056325D02*
X0056275Y0056325D01*
X0056275Y0053675D01*
X0056125Y0053675D01*
X0056125Y0055024D02*
X0056275Y0055024D01*
X0058625Y0056325D02*
X0058625Y0053675D01*
X0058625Y0056325D02*
X0058775Y0056325D01*
X0058775Y0053675D01*
X0058625Y0053675D01*
X0058625Y0055024D02*
X0058775Y0055024D01*
X0061125Y0056325D02*
X0061125Y0053675D01*
X0061125Y0056325D02*
X0061275Y0056325D01*
X0061275Y0053675D01*
X0061125Y0053675D01*
X0061125Y0055024D02*
X0061275Y0055024D01*
X0063625Y0056325D02*
X0063625Y0053675D01*
X0063625Y0056325D02*
X0063775Y0056325D01*
X0063775Y0053675D01*
X0063625Y0053675D01*
X0063625Y0055024D02*
X0063775Y0055024D01*
X0066125Y0056325D02*
X0066125Y0053675D01*
X0066125Y0056325D02*
X0066275Y0056325D01*
X0066275Y0053675D01*
X0066125Y0053675D01*
X0066125Y0055024D02*
X0066275Y0055024D01*
X0068625Y0056325D02*
X0068625Y0053675D01*
X0068625Y0056325D02*
X0068775Y0056325D01*
X0068775Y0053675D01*
X0068625Y0053675D01*
X0068625Y0055024D02*
X0068775Y0055024D01*
X0066125Y0058675D02*
X0066125Y0061325D01*
X0066275Y0061325D01*
X0066275Y0058675D01*
X0066125Y0058675D01*
X0066125Y0060024D02*
X0066275Y0060024D01*
X0063625Y0061325D02*
X0063625Y0058675D01*
X0063625Y0061325D02*
X0063775Y0061325D01*
X0063775Y0058675D01*
X0063625Y0058675D01*
X0063625Y0060024D02*
X0063775Y0060024D01*
X0061125Y0061325D02*
X0061125Y0058675D01*
X0061125Y0061325D02*
X0061275Y0061325D01*
X0061275Y0058675D01*
X0061125Y0058675D01*
X0061125Y0060024D02*
X0061275Y0060024D01*
X0058625Y0061325D02*
X0058625Y0058675D01*
X0058625Y0061325D02*
X0058775Y0061325D01*
X0058775Y0058675D01*
X0058625Y0058675D01*
X0058625Y0060024D02*
X0058775Y0060024D01*
X0056125Y0061325D02*
X0056125Y0058675D01*
X0056125Y0061325D02*
X0056275Y0061325D01*
X0056275Y0058675D01*
X0056125Y0058675D01*
X0056125Y0060024D02*
X0056275Y0060024D01*
X0053625Y0061325D02*
X0053625Y0058675D01*
X0053625Y0061325D02*
X0053775Y0061325D01*
X0053775Y0058675D01*
X0053625Y0058675D01*
X0053625Y0060024D02*
X0053775Y0060024D01*
X0051125Y0061325D02*
X0051125Y0058675D01*
X0051125Y0061325D02*
X0051275Y0061325D01*
X0051275Y0058675D01*
X0051125Y0058675D01*
X0051125Y0060024D02*
X0051275Y0060024D01*
X0048625Y0061325D02*
X0048625Y0058675D01*
X0048625Y0061325D02*
X0048775Y0061325D01*
X0048775Y0058675D01*
X0048625Y0058675D01*
X0048625Y0060024D02*
X0048775Y0060024D01*
X0048625Y0023325D02*
X0048625Y0020675D01*
X0048625Y0023325D02*
X0048775Y0023325D01*
X0048775Y0020675D01*
X0048625Y0020675D01*
X0048625Y0022024D02*
X0048775Y0022024D01*
X0051125Y0023325D02*
X0051125Y0020675D01*
X0051125Y0023325D02*
X0051275Y0023325D01*
X0051275Y0020675D01*
X0051125Y0020675D01*
X0051125Y0022024D02*
X0051275Y0022024D01*
X0053625Y0023325D02*
X0053625Y0020675D01*
X0053625Y0023325D02*
X0053775Y0023325D01*
X0053775Y0020675D01*
X0053625Y0020675D01*
X0053625Y0022024D02*
X0053775Y0022024D01*
X0056125Y0023325D02*
X0056125Y0020675D01*
X0056125Y0023325D02*
X0056275Y0023325D01*
X0056275Y0020675D01*
X0056125Y0020675D01*
X0056125Y0022024D02*
X0056275Y0022024D01*
X0058625Y0023325D02*
X0058625Y0020675D01*
X0058625Y0023325D02*
X0058775Y0023325D01*
X0058775Y0020675D01*
X0058625Y0020675D01*
X0058625Y0022024D02*
X0058775Y0022024D01*
X0061125Y0023325D02*
X0061125Y0020675D01*
X0061125Y0023325D02*
X0061275Y0023325D01*
X0061275Y0020675D01*
X0061125Y0020675D01*
X0061125Y0022024D02*
X0061275Y0022024D01*
X0063625Y0023325D02*
X0063625Y0020675D01*
X0063625Y0023325D02*
X0063775Y0023325D01*
X0063775Y0020675D01*
X0063625Y0020675D01*
X0063625Y0022024D02*
X0063775Y0022024D01*
X0066125Y0023325D02*
X0066125Y0020675D01*
X0066125Y0023325D02*
X0066275Y0023325D01*
X0066275Y0020675D01*
X0066125Y0020675D01*
X0066125Y0022024D02*
X0066275Y0022024D01*
X0066125Y0018325D02*
X0066125Y0015675D01*
X0066125Y0018325D02*
X0066275Y0018325D01*
X0066275Y0015675D01*
X0066125Y0015675D01*
X0066125Y0017024D02*
X0066275Y0017024D01*
X0068625Y0018325D02*
X0068625Y0015675D01*
X0068625Y0018325D02*
X0068775Y0018325D01*
X0068775Y0015675D01*
X0068625Y0015675D01*
X0068625Y0017024D02*
X0068775Y0017024D01*
X0063625Y0018325D02*
X0063625Y0015675D01*
X0063625Y0018325D02*
X0063775Y0018325D01*
X0063775Y0015675D01*
X0063625Y0015675D01*
X0063625Y0017024D02*
X0063775Y0017024D01*
X0061125Y0018325D02*
X0061125Y0015675D01*
X0061125Y0018325D02*
X0061275Y0018325D01*
X0061275Y0015675D01*
X0061125Y0015675D01*
X0061125Y0017024D02*
X0061275Y0017024D01*
X0058625Y0018325D02*
X0058625Y0015675D01*
X0058625Y0018325D02*
X0058775Y0018325D01*
X0058775Y0015675D01*
X0058625Y0015675D01*
X0058625Y0017024D02*
X0058775Y0017024D01*
X0056125Y0018325D02*
X0056125Y0015675D01*
X0056125Y0018325D02*
X0056275Y0018325D01*
X0056275Y0015675D01*
X0056125Y0015675D01*
X0056125Y0017024D02*
X0056275Y0017024D01*
X0053625Y0018325D02*
X0053625Y0015675D01*
X0053625Y0018325D02*
X0053775Y0018325D01*
X0053775Y0015675D01*
X0053625Y0015675D01*
X0053625Y0017024D02*
X0053775Y0017024D01*
X0051125Y0018325D02*
X0051125Y0015675D01*
X0051125Y0018325D02*
X0051275Y0018325D01*
X0051275Y0015675D01*
X0051125Y0015675D01*
X0051125Y0017024D02*
X0051275Y0017024D01*
X0048625Y0018325D02*
X0048625Y0015675D01*
X0048625Y0018325D02*
X0048775Y0018325D01*
X0048775Y0015675D01*
X0048625Y0015675D01*
X0048625Y0017024D02*
X0048775Y0017024D01*
X0046125Y0018325D02*
X0046125Y0015675D01*
X0046125Y0018325D02*
X0046275Y0018325D01*
X0046275Y0015675D01*
X0046125Y0015675D01*
X0046125Y0017024D02*
X0046275Y0017024D01*
M02*
